<svg width="118" height="116" viewBox="0 0 118 116" fill="none" xmlns="http://www.w3.org/2000/svg">
<path d="M41.3281 93.5733V87.9818C41.3281 81.0554 46.9196 75.4639 53.846 75.4639V81.0554C53.9594 87.9818 48.2545 93.5733 41.3281 93.5733Z" stroke="white" stroke-width="4" stroke-linecap="round" stroke-linejoin="round"/>
<path d="M41.3281 78.5879V72.9964C41.3281 66.07 46.9196 60.4785 53.846 60.4785V66.07C53.9594 72.9964 48.2545 78.5879 41.3281 78.5879Z" stroke="white" stroke-width="4" stroke-linecap="round" stroke-linejoin="round"/>
<path d="M41.3281 63.7149V58.1234C41.3281 51.197 46.9196 45.6055 53.846 45.6055V51.197C53.9594 58.0226 48.2545 63.7149 41.3281 63.7149Z" stroke="white" stroke-width="4" stroke-linecap="round" stroke-linejoin="round"/>
<path d="M41.3281 48.7412V43.1497C41.3281 36.2233 46.9196 30.6318 53.846 30.6318V36.2233C53.9594 43.1497 48.2545 48.7412 41.3281 48.7412Z" stroke="white" stroke-width="4" stroke-linecap="round" stroke-linejoin="round"/>
<path d="M41.2152 93.5733V87.9818C41.2152 81.0554 35.6237 75.4639 28.6973 75.4639V81.0554C28.6973 87.9818 34.2888 93.5733 41.2152 93.5733Z" stroke="white" stroke-width="4" stroke-linecap="round" stroke-linejoin="round"/>
<path d="M41.2152 78.5879V72.9964C41.2152 66.07 35.6237 60.4785 28.6973 60.4785V66.07C28.6973 72.9964 34.2888 78.5879 41.2152 78.5879Z" stroke="white" stroke-width="4" stroke-linecap="round" stroke-linejoin="round"/>
<path d="M41.2152 63.7149V58.1234C41.2152 51.197 35.6237 45.6055 28.6973 45.6055V51.197C28.6973 58.0226 34.2888 63.7149 41.2152 63.7149Z" stroke="white" stroke-width="4" stroke-linecap="round" stroke-linejoin="round"/>
<path d="M41.2152 48.7412V43.1497C41.2152 36.2233 35.6237 30.6318 28.6973 30.6318V36.2233C28.6973 43.1497 34.2888 48.7412 41.2152 48.7412Z" stroke="white" stroke-width="4" stroke-linecap="round" stroke-linejoin="round"/>
<path d="M41.4297 22.1314V3.00195" stroke="white" stroke-width="4" stroke-linecap="round" stroke-linejoin="round"/>
<path d="M47.1348 22.1309V8.49219" stroke="white" stroke-width="4" stroke-linecap="round" stroke-linejoin="round"/>
<path d="M35.625 22.1309V8.49219" stroke="white" stroke-width="4" stroke-linecap="round" stroke-linejoin="round"/>
<path d="M41.2148 110.902V93.5732" stroke="white" stroke-width="4" stroke-linecap="round" stroke-linejoin="round"/>
<path d="M76.3145 93.6865V88.095C76.3145 81.1686 81.9059 75.5771 88.8323 75.5771V81.1686C88.9457 88.095 83.3542 93.6865 76.3145 93.6865Z" stroke="white" stroke-width="4" stroke-linecap="round" stroke-linejoin="round"/>
<path d="M76.3145 78.7012V73.1097C76.3145 66.1833 81.9059 60.5918 88.8323 60.5918V66.1833C88.9457 73.1097 83.3542 78.7012 76.3145 78.7012Z" stroke="white" stroke-width="4" stroke-linecap="round" stroke-linejoin="round"/>
<path d="M76.3145 63.7149V58.1234C76.3145 51.197 81.9059 45.6055 88.8323 45.6055V51.197C88.9457 58.1234 83.3542 63.7149 76.3145 63.7149Z" stroke="white" stroke-width="4" stroke-linecap="round" stroke-linejoin="round"/>
<path d="M76.3145 48.8545V43.263C76.3145 36.3366 81.9059 30.7451 88.8323 30.7451V36.3366C88.9457 43.1623 83.3542 48.8545 76.3145 48.8545Z" stroke="white" stroke-width="4" stroke-linecap="round" stroke-linejoin="round"/>
<path d="M76.3145 93.6865V88.095C76.3145 81.1686 70.723 75.5771 63.7966 75.5771V81.1686C63.6832 88.095 69.3881 93.6865 76.3145 93.6865Z" stroke="white" stroke-width="4" stroke-linecap="round" stroke-linejoin="round"/>
<path d="M76.3145 78.7012V73.1097C76.3145 66.1833 70.723 60.5918 63.7966 60.5918V66.1833C63.6832 73.1097 69.3881 78.7012 76.3145 78.7012Z" stroke="white" stroke-width="4" stroke-linecap="round" stroke-linejoin="round"/>
<path d="M76.3145 63.7149V58.1234C76.3145 51.197 70.723 45.6055 63.7966 45.6055V51.197C63.6832 58.1234 69.3881 63.7149 76.3145 63.7149Z" stroke="white" stroke-width="4" stroke-linecap="round" stroke-linejoin="round"/>
<path d="M76.3145 48.8545V43.263C76.3145 36.3366 70.723 30.7451 63.7966 30.7451V36.3366C63.6832 43.1623 69.3881 48.8545 76.3145 48.8545Z" stroke="white" stroke-width="4" stroke-linecap="round" stroke-linejoin="round"/>
<path d="M76.4277 22.2447V3.11523" stroke="white" stroke-width="4" stroke-linecap="round" stroke-linejoin="round"/>
<path d="M82.2441 22.2442V8.49219" stroke="white" stroke-width="4" stroke-linecap="round" stroke-linejoin="round"/>
<path d="M70.6211 22.2442V8.49219" stroke="white" stroke-width="4" stroke-linecap="round" stroke-linejoin="round"/>
<path d="M76.2129 110.902V93.6865" stroke="white" stroke-width="4" stroke-linecap="round" stroke-linejoin="round"/>
<path d="M23.4336 112.25H94.2088" stroke="white" stroke-width="4" stroke-linecap="round" stroke-linejoin="round"/>
</svg>
