<svg width="130" height="131" viewBox="0 0 130 131" fill="none" xmlns="http://www.w3.org/2000/svg">
<path d="M95.0015 99.8541C95.0015 103.579 93.8462 106.435 91.5737 108.341C86.7876 112.35 78.5052 110.8 71.1978 109.434C68.0722 108.85 65.1192 108.297 63.022 108.297C60.5946 108.297 57.4462 108.881 54.1124 109.495C50.2962 110.199 46.414 110.918 42.9151 110.918C39.6296 110.918 36.6843 110.283 34.4499 108.41C32.1901 106.512 31.0425 103.633 31.0425 99.8541C31.0425 92.076 34.4778 83.2514 40.2339 76.2486C46.6349 68.4576 54.7294 64.1694 63.0194 64.1694C71.3095 64.1694 79.404 68.4576 85.8075 76.2486C91.5636 83.2489 94.9989 92.076 94.9989 99.8541H95.0015Z" stroke="white" stroke-width="3" stroke-miterlimit="10"/>
<path d="M89.8041 45.7707C89.8041 50.1971 88.6184 54.3983 86.4652 57.594C84.1242 61.0736 80.7676 63.0693 77.2637 63.0693C73.7598 63.0693 70.4006 61.0736 68.0596 57.594C65.9064 54.3957 64.7207 50.1971 64.7207 45.7707C64.7207 41.3443 65.9064 37.1457 68.0596 33.95C70.4006 30.4703 73.7572 28.4746 77.2637 28.4746C80.7701 28.4746 84.1242 30.4703 86.4652 33.95C88.6184 37.1482 89.8041 41.3469 89.8041 45.7707Z" stroke="white" stroke-width="3" stroke-miterlimit="10"/>
<path d="M61.3235 45.7707C61.3235 50.1971 60.1403 54.3983 57.9872 57.594C55.6437 61.0736 52.2896 63.0693 48.7831 63.0693C45.2767 63.0693 41.9226 61.0736 39.579 57.594C37.4284 54.3957 36.2427 50.1971 36.2427 45.7707C36.2427 41.3443 37.4284 37.1457 39.579 33.95C41.9226 30.4678 45.2767 28.4746 48.7831 28.4746C52.2896 28.4746 55.6437 30.4703 57.9872 33.95C60.1403 37.1482 61.3235 41.3469 61.3235 45.7707Z" stroke="white" stroke-width="3" stroke-miterlimit="10"/>
<path d="M110.604 65.1058C110.604 66.9148 110.289 68.78 109.665 70.5863C108.314 74.4831 105.714 77.579 102.535 79.0783C101.22 79.6975 99.8485 80.0122 98.5054 80.0122C97.4923 80.0122 96.4945 79.8331 95.5499 79.4775C92.8204 78.4438 90.7943 76.0924 89.8497 72.8558C88.9966 69.9262 89.1337 66.5617 90.2382 63.3762C91.589 59.4795 94.189 56.3836 97.3653 54.8817C99.6734 53.7943 102.154 53.6536 104.353 54.4851C107.082 55.5188 109.106 57.8701 110.051 61.1068C110.421 62.3758 110.604 63.7268 110.604 65.1084V65.1058Z" stroke="white" stroke-width="3" stroke-miterlimit="10"/>
<path d="M36.1995 72.8511C35.255 76.0877 33.2314 78.439 30.4993 79.4727C29.5548 79.8309 28.557 80.0074 27.5439 80.0074C26.2007 80.0074 24.8296 79.6953 23.5144 79.0736C21.9249 78.3239 20.4802 77.1751 19.264 75.7269C18.0478 74.2787 17.0601 72.5312 16.3847 70.5816C15.2802 67.3961 15.1431 64.029 15.9962 61.0994C16.9433 57.8628 18.9669 55.5115 21.6964 54.4778C23.8927 53.6462 26.3734 53.787 28.6814 54.8744C31.8603 56.3737 34.4603 59.4696 35.811 63.3689C36.9155 66.5544 37.0527 69.9215 36.1995 72.8485V72.8511Z" stroke="white" stroke-width="3" stroke-miterlimit="10"/>
</svg>
