<svg width="695" height="554" viewBox="0 0 695 554" fill="none" xmlns="http://www.w3.org/2000/svg">
<path d="M-321.291 770.89C-321.128 632.299 -320.964 327.235 -320.789 188.644L-257.175 227.475H-132.234L77.3265 333.905L178.143 385.109L285.755 439.758L366.184 402.162L467 355.049L676.561 257.112H801.501L865.115 221.383C865.279 348.913 865.442 642.915 865.617 770.445L-321.291 770.89Z" fill="url(#paint0_linear_379_9844)"/>
<path d="M-321.291 601.605C-321.128 463.014 -320.964 157.951 -320.789 19.3594L-257.175 58.1898H-132.234L77.3265 164.621L178.143 215.824L285.755 270.474L366.184 232.877L467 185.765L676.561 87.8268H801.501L865.115 52.0979C865.279 179.628 865.442 473.63 865.617 601.161L-321.291 601.605Z" fill="url(#paint1_linear_379_9844)"/>
<path d="M110.571 361.385H106.963V386.742H110.571V361.385Z" fill="#005267"/>
<path d="M69.573 361.385H65.9648V386.742H69.573V361.385Z" fill="#005267"/>
<path d="M105.423 385.187H112.113C113.48 385.187 114.589 386.243 114.589 387.543V388.01H102.936V387.543C102.936 386.243 104.045 385.187 105.411 385.187H105.423Z" fill="#005267"/>
<path d="M64.4226 385.187H71.1134C72.4795 385.187 73.5888 386.243 73.5888 387.543V388.01H61.9355V387.543C61.9355 386.243 63.0448 385.187 64.411 385.187H64.4226Z" fill="#005267"/>
<path d="M121.698 364.676H58.7496L46.7227 326.435H109.671L121.698 364.676Z" fill="#4091BD"/>
<path d="M111.518 343.799H95.3574L91.002 329.959H107.162L111.518 343.799Z" fill="#7FB5D3"/>
<path d="M116.969 361.152H100.809L96.4648 347.312H112.625L116.969 361.152Z" fill="#7FB5D3"/>
<path d="M91.7327 343.799H75.5722L71.2168 329.959H87.3773L91.7327 343.799Z" fill="#7FB5D3"/>
<path d="M97.2014 361.152H81.041L76.6855 347.312H92.8461L97.2014 361.152Z" fill="#7FB5D3"/>
<path d="M71.9554 343.799H55.7949L51.4512 329.959H67.6L71.9554 343.799Z" fill="#7FB5D3"/>
<path d="M77.4221 361.152H61.2617L56.9062 347.312H73.0668L77.4221 361.152Z" fill="#7FB5D3"/>
<path d="M121.698 364.676L119.783 368.067H56.834L58.749 364.676H121.698Z" fill="#005267"/>
<path d="M58.7466 364.676L56.8316 368.066L44.8047 329.836L46.7197 326.435L58.7466 364.676Z" fill="#006CA7"/>
<path d="M40.8034 361.385H37.1953V386.698H40.8034V361.385Z" fill="#005267"/>
<path d="M35.6532 385.142H42.3322C43.6984 385.142 44.8076 386.198 44.8076 387.498V387.965H33.1777V387.498C33.1777 386.198 34.287 385.142 35.6532 385.142Z" fill="#005267"/>
<path d="M-5.28432 385.142H1.39469C2.76086 385.142 3.87013 386.198 3.87013 387.498V387.965H-7.75977V387.498C-7.75977 386.198 -6.65049 385.142 -5.28432 385.142Z" fill="#006CA7"/>
<path d="M51.8941 364.654H-10.9496L-22.9648 326.479H39.8906L51.8941 364.654Z" fill="#4091BD"/>
<path d="M41.723 343.81H25.5976L21.2539 329.992H37.3794L41.723 343.81Z" fill="#7FB5D3"/>
<path d="M47.1782 361.141H31.0527L26.6973 347.323H42.8344L47.1782 361.141Z" fill="#7FB5D3"/>
<path d="M21.9769 343.81H5.85149L1.50781 329.992H17.6333L21.9769 343.81Z" fill="#7FB5D3"/>
<path d="M27.43 361.141H11.2929L6.94922 347.323H23.0864L27.43 361.141Z" fill="#7FB5D3"/>
<path d="M2.23285 343.81H-13.8926L-18.248 329.992H-2.11091L2.23285 343.81Z" fill="#7FB5D3"/>
<path d="M7.6859 361.141H-8.45124L-12.7949 347.323H3.34215L7.6859 361.141Z" fill="#7FB5D3"/>
<path d="M51.8974 364.653L49.9941 368.055H-12.8613L-10.9463 364.653H51.8974Z" fill="#006CA7"/>
<path d="M484.818 219.381H482.915L480.941 320.232H484.818H488.683L486.71 219.381H484.818Z" fill="#51B89F"/>
<path d="M488.95 217.647H480.671C479.608 217.647 478.744 218.759 478.744 220.138C478.744 221.516 479.608 222.628 480.671 222.628H488.95C490.012 222.628 490.876 221.516 490.876 220.138C490.876 218.759 490.012 217.647 488.95 217.647Z" fill="#51B89F"/>
<path d="M476.529 219.615C475.303 219.648 474.112 220.004 473.085 220.637L449.217 235.545C448.75 235.834 449.112 236.523 449.638 236.334L474.299 227.763C475.128 227.474 475.84 226.952 476.342 226.251C476.342 226.251 480.312 221.382 480.417 221.127L480.137 219.515L476.518 219.604L476.529 219.615Z" fill="#51B89F"/>
<path d="M490.843 221.827C490.166 221.293 489.325 220.96 488.45 220.893C488.45 220.893 482.027 220.059 481.747 220.093L480.416 221.127L482.308 224.061C482.95 225.051 483.872 225.862 484.958 226.385L510.46 238.602C510.962 238.835 511.394 238.202 510.974 237.857L490.843 221.805V221.827Z" fill="#51B89F"/>
<path d="M482.634 186.599C482.599 186.065 481.805 186.02 481.7 186.543L477.17 211.166C477.018 211.989 477.135 212.845 477.52 213.601C477.52 213.601 479.972 219.315 480.147 219.526L481.759 220.104L483.487 217.08C484.071 216.058 484.339 214.89 484.269 213.734L482.634 186.599Z" fill="#51B89F"/>
<path d="M480.671 217.647C479.608 217.647 478.744 218.759 478.744 220.138C478.744 221.516 479.608 222.628 480.671 222.628C481.733 222.628 482.597 221.516 482.597 220.138C482.597 218.759 481.733 217.647 480.671 217.647Z" fill="#51B89F"/>
<path d="M480.673 219.192C480.264 219.192 479.938 219.615 479.938 220.137C479.938 220.66 480.264 221.082 480.673 221.082C481.082 221.082 481.409 220.66 481.409 220.137C481.409 219.615 481.082 219.192 480.673 219.192Z" fill="#51B89F"/>
<path d="M480.043 218.192H479.552C478.91 218.192 476.119 219.126 476.131 220.137C476.131 221.071 478.98 222.083 479.552 222.083H480.043C480.79 222.083 481.409 221.216 481.409 220.137C481.409 219.059 480.802 218.192 480.043 218.192Z" fill="#51B89F"/>
<path fill-rule="evenodd" clip-rule="evenodd" d="M302.151 281.557C307.51 281.557 311.866 295.431 311.866 306.058C311.866 316.686 307.51 320.076 302.151 320.076C296.791 320.076 292.436 316.686 292.436 306.058C292.436 295.431 296.791 281.557 302.151 281.557Z" fill="#006CA7"/>
<path fill-rule="evenodd" clip-rule="evenodd" d="M228.846 296.864C232.08 296.864 234.696 305.224 234.696 311.627C234.696 318.03 232.069 320.076 228.846 320.076C225.623 320.076 222.996 318.03 222.996 311.627C222.996 305.224 225.623 296.864 228.846 296.864Z" fill="#006CA7"/>
<path fill-rule="evenodd" clip-rule="evenodd" d="M676.046 288.638C680.424 288.638 683.974 299.954 683.974 308.637C683.974 317.308 680.424 320.076 676.046 320.076C671.667 320.076 668.117 317.308 668.117 308.637C668.117 299.966 671.667 288.638 676.046 288.638Z" fill="#006CA7"/>
<path fill-rule="evenodd" clip-rule="evenodd" d="M556.28 249.062C559.514 249.062 562.13 257.422 562.13 263.825C562.13 270.229 559.502 272.274 556.28 272.274C553.045 272.274 550.43 270.229 550.43 263.825C550.43 257.422 553.057 249.062 556.28 249.062Z" fill="#006CA7"/>
<path fill-rule="evenodd" clip-rule="evenodd" d="M634.538 111.694C637.772 111.694 640.388 120.054 640.388 126.457C640.388 132.86 637.76 134.905 634.538 134.905C631.315 134.905 628.688 132.86 628.688 126.457C628.688 120.054 631.315 111.694 634.538 111.694Z" fill="#006CA7"/>
<path d="M639.498 219.381H637.606L635.633 320.232H639.498H643.374L641.401 219.381H639.498Z" fill="#006CA7"/>
<path d="M643.643 217.647H635.364C634.302 217.647 633.438 218.759 633.438 220.138C633.438 221.516 634.302 222.628 635.364 222.628H643.643C644.705 222.628 645.57 221.516 645.57 220.138C645.57 218.759 644.705 217.647 643.643 217.647Z" fill="#006CA7"/>
<path d="M631.22 219.615C629.994 219.648 628.803 220.004 627.776 220.637L603.909 235.545C603.442 235.834 603.804 236.523 604.329 236.334L628.99 227.763C629.819 227.474 630.532 226.952 631.034 226.251C631.034 226.251 635.004 221.382 635.109 221.127L634.829 219.515L631.209 219.604L631.22 219.615Z" fill="#006CA7"/>
<path d="M645.537 221.827C644.859 221.293 644.019 220.96 643.143 220.893C643.143 220.893 636.721 220.059 636.441 220.093L635.109 221.127L637.001 224.061C637.643 225.051 638.566 225.862 639.652 226.385L665.153 238.602C665.655 238.835 666.087 238.202 665.667 237.857L645.537 221.805V221.827Z" fill="#006CA7"/>
<path d="M637.316 186.599C637.281 186.065 636.487 186.02 636.382 186.543L631.851 211.166C631.7 211.989 631.816 212.845 632.202 213.601C632.202 213.601 634.654 219.315 634.829 219.526L636.44 220.104L638.169 217.08C638.752 216.058 639.021 214.89 638.951 213.734L637.316 186.599Z" fill="#006CA7"/>
<path d="M635.364 217.647C634.302 217.647 633.438 218.759 633.438 220.138C633.438 221.516 634.302 222.628 635.364 222.628C636.427 222.628 637.291 221.516 637.291 220.138C637.291 218.759 636.427 217.647 635.364 217.647Z" fill="#006CA7"/>
<path d="M635.365 219.192C634.956 219.192 634.629 219.615 634.629 220.137C634.629 220.66 634.956 221.082 635.365 221.082C635.773 221.082 636.1 220.66 636.1 220.137C636.1 219.615 635.773 219.192 635.365 219.192Z" fill="#006CA7"/>
<path d="M634.724 218.192H634.234C633.592 218.192 630.801 219.126 630.813 220.137C630.813 221.071 633.662 222.083 634.234 222.083H634.724C635.471 222.083 636.09 221.216 636.09 220.137C636.09 219.059 635.483 218.192 634.724 218.192Z" fill="#006CA7"/>
<path d="M592.607 49.3735H590.704L588.73 150.224H592.607H596.484L594.499 49.3735H592.607Z" fill="#006CA7"/>
<path d="M596.75 47.6514H588.471C587.409 47.6514 586.545 48.763 586.545 50.1415C586.545 51.52 587.409 52.6316 588.471 52.6316H596.75C597.813 52.6316 598.677 51.52 598.677 50.1415C598.677 48.763 597.813 47.6514 596.75 47.6514Z" fill="#006CA7"/>
<path d="M584.316 49.6192C583.09 49.6525 581.899 50.0083 580.872 50.6419L557.005 65.5605C556.538 65.8495 556.899 66.5387 557.425 66.3497L582.086 57.7788C582.915 57.4898 583.627 56.9673 584.129 56.267C584.129 56.267 588.099 51.3978 588.205 51.1421L587.924 49.5303L584.305 49.6192H584.316Z" fill="#006CA7"/>
<path d="M598.642 51.8318C597.965 51.2983 597.124 50.9648 596.248 50.8981C596.248 50.8981 589.826 50.0643 589.546 50.0977L588.215 51.1316L590.106 54.0663C590.749 55.0557 591.671 55.8672 592.757 56.3897L618.259 68.6069C618.761 68.8404 619.193 68.2067 618.773 67.8621L598.642 51.8097V51.8318Z" fill="#006CA7"/>
<path d="M590.42 16.5912C590.385 16.0576 589.591 16.0132 589.486 16.5356L584.955 41.159C584.803 41.9817 584.92 42.8376 585.305 43.5936C585.305 43.5936 587.757 49.3076 587.933 49.5188L589.544 50.0968L591.272 47.0731C591.856 46.0504 592.125 44.8831 592.054 43.727L590.42 16.5912Z" fill="#006CA7"/>
<path d="M588.46 47.6514C587.397 47.6514 586.533 48.763 586.533 50.1415C586.533 51.52 587.397 52.6316 588.46 52.6316C589.522 52.6316 590.386 51.52 590.386 50.1415C590.386 48.763 589.522 47.6514 588.46 47.6514Z" fill="#006CA7"/>
<path d="M588.462 49.1968C588.054 49.1968 587.727 49.6193 587.727 50.1417C587.727 50.6642 588.054 51.0866 588.462 51.0866C588.871 51.0866 589.198 50.6642 589.198 50.1417C589.198 49.6193 588.871 49.1968 588.462 49.1968Z" fill="#006CA7"/>
<path d="M587.83 48.1963H587.339C586.697 48.1963 583.906 49.1301 583.918 50.1417C583.918 51.0755 586.767 52.0871 587.339 52.0871H587.83C588.577 52.0871 589.196 51.22 589.196 50.1417C589.196 49.0634 588.589 48.1963 587.83 48.1963Z" fill="#006CA7"/>
<path d="M57.4997 221.237H59.403L61.3764 322.088H57.4997H53.623L55.5964 221.237H57.4997Z" fill="#006CA7"/>
<path d="M53.3543 219.515H61.6331C62.6957 219.515 63.5597 220.626 63.5597 222.005C63.5597 223.383 62.6957 224.495 61.6331 224.495H53.3543C52.2918 224.495 51.4277 223.383 51.4277 222.005C51.4277 220.626 52.2918 219.515 53.3543 219.515Z" fill="#006CA7"/>
<path d="M65.779 221.482C67.005 221.516 68.1961 221.871 69.2236 222.505L93.0907 237.413C93.5577 237.702 93.1957 238.391 92.6703 238.202L68.0092 229.631C67.1801 229.342 66.4679 228.819 65.9658 228.119C65.9658 228.119 61.9957 223.25 61.8906 222.994L62.1709 221.382L65.7907 221.471L65.779 221.482Z" fill="#006CA7"/>
<path d="M51.4644 223.695C52.1417 223.161 52.9824 222.828 53.8581 222.761C53.8581 222.761 60.2803 221.927 60.5605 221.96L61.8917 222.994L60 225.929C59.3578 226.918 58.4353 227.73 57.3494 228.252L31.8477 240.47C31.3456 240.703 30.9135 240.069 31.3339 239.725L51.4644 223.672V223.695Z" fill="#006CA7"/>
<path d="M59.6846 188.454C59.7197 187.921 60.5137 187.876 60.6188 188.399L65.1494 213.022C65.3012 213.845 65.1844 214.701 64.799 215.457C64.799 215.457 62.3469 221.171 62.1718 221.382L60.5604 221.96L58.8323 218.936C58.2484 217.914 57.9799 216.746 58.05 215.59L59.6846 188.454Z" fill="#006CA7"/>
<path d="M61.6474 219.515C62.71 219.515 63.574 220.626 63.574 222.005C63.574 223.383 62.71 224.495 61.6474 224.495C60.5848 224.495 59.7207 223.383 59.7207 222.005C59.7207 220.626 60.5848 219.515 61.6474 219.515Z" fill="#006CA7"/>
<path d="M61.6438 221.06C62.0525 221.06 62.3794 221.482 62.3794 222.004C62.3794 222.527 62.0525 222.949 61.6438 222.949C61.2352 222.949 60.9082 222.527 60.9082 222.004C60.9082 221.482 61.2352 221.06 61.6438 221.06Z" fill="#006CA7"/>
<path d="M62.2744 220.048H62.7648C63.407 220.048 66.1977 220.982 66.186 221.994C66.186 222.928 63.3369 223.939 62.7648 223.939H62.2744C61.527 223.939 60.9082 223.072 60.9082 221.994C60.9082 220.915 61.5154 220.048 62.2744 220.048Z" fill="#006CA7"/>
<path d="M0.28486 71.4302H2.17647L4.14983 172.281H0.28486H-3.5918L-1.61844 71.4302H0.28486Z" fill="#006CA7"/>
<path d="M-3.8605 69.6963H4.41827C5.48085 69.6963 6.34488 70.8079 6.34488 72.1864C6.34488 73.5649 5.48085 74.6766 4.41827 74.6766H-3.8605C-4.92308 74.6766 -5.78711 73.5649 -5.78711 72.1864C-5.78711 70.8079 -4.92308 69.6963 -3.8605 69.6963Z" fill="#006CA7"/>
<path d="M8.56022 71.6631C9.78627 71.6964 10.9773 72.0521 12.0048 72.6858L35.8719 87.5933C36.339 87.8823 35.977 88.5715 35.4515 88.3825L10.7904 79.8116C9.96139 79.5226 9.24911 79 8.74701 78.2997C8.74701 78.2997 4.77696 73.4306 4.67188 73.1749L4.9521 71.563L8.57191 71.6519L8.56022 71.6631Z" fill="#006CA7"/>
<path d="M-5.75434 73.8753C-5.07709 73.3417 -4.23639 73.0082 -3.36064 72.9415C-3.36064 72.9415 3.06151 72.1078 3.34175 72.1411L4.6729 73.175L2.78129 76.1098C2.13908 77.0991 1.2166 77.9107 0.130671 78.4332L-25.3711 90.6504C-25.8732 90.8838 -26.3052 90.2501 -25.8849 89.9055L-5.75434 73.8531V73.8753Z" fill="#006CA7"/>
<path d="M2.45816 38.6469C2.49319 38.1133 3.28719 38.0688 3.39228 38.5913L7.92282 63.2147C8.07462 64.0374 7.95779 64.8933 7.57247 65.6493C7.57247 65.6493 5.12037 71.3632 4.94522 71.5744L3.33391 72.1525L1.60571 69.1287C1.02188 68.106 0.753338 66.9388 0.823398 65.7827L2.45816 38.6469Z" fill="#006CA7"/>
<path d="M4.41886 69.6963C5.48144 69.6963 6.34547 70.8079 6.34547 72.1864C6.34547 73.5649 5.48144 74.6766 4.41886 74.6766C3.35629 74.6766 2.49219 73.5649 2.49219 72.1864C2.49219 70.8079 3.35629 69.6963 4.41886 69.6963Z" fill="#006CA7"/>
<path d="M4.41532 71.2412C4.824 71.2412 5.15096 71.6636 5.15096 72.1861C5.15096 72.7086 4.824 73.1311 4.41532 73.1311C4.00664 73.1311 3.67969 72.7086 3.67969 72.1861C3.67969 71.6636 4.00664 71.2412 4.41532 71.2412Z" fill="#006CA7"/>
<path d="M5.04584 70.2397H5.53624C6.17845 70.2397 8.96916 71.1735 8.95749 72.1852C8.95749 73.119 6.10839 74.1306 5.53624 74.1306H5.04584C4.29853 74.1306 3.67969 73.2635 3.67969 72.1852C3.67969 71.1068 4.28685 70.2397 5.04584 70.2397Z" fill="#006CA7"/>
<path fill-rule="evenodd" clip-rule="evenodd" d="M240.158 283.414C234.799 283.414 230.443 297.287 230.443 307.915C230.443 318.542 234.799 321.933 240.158 321.933C245.518 321.933 249.873 318.542 249.873 307.915C249.873 297.287 245.518 283.414 240.158 283.414Z" fill="#006CA7"/>
<path fill-rule="evenodd" clip-rule="evenodd" d="M313.461 298.721C310.227 298.721 307.611 307.08 307.611 313.484C307.611 319.887 310.239 321.932 313.461 321.932C316.696 321.932 319.311 319.887 319.311 313.484C319.311 307.08 316.684 298.721 313.461 298.721Z" fill="#006CA7"/>
<path d="M762.36 495.73V803.784H-188.119V495.73H-169.565C-156.767 471.396 -143.981 447.017 -131.207 422.683C-120.033 401.417 -97.2164 387.977 -72.2518 387.977H-28.908L455.031 388.277V387.977H636.311C661.276 387.977 684.103 401.417 695.266 422.683C708.052 447.017 720.826 471.396 733.624 495.73H762.349H762.36Z" fill="url(#paint2_linear_379_9844)"/>
<path d="M296.052 387.821H291.09L303.514 369.123H308.406L296.052 387.821Z" fill="#006CA7"/>
<path d="M312.028 387.821H316.991L308.443 369.123H303.562L312.028 387.821Z" fill="#006CA7"/>
<path d="M317.574 387.821H312.611L324.708 369.123H329.601L317.574 387.821Z" fill="#006CA7"/>
<path d="M333.546 387.821H338.509L329.646 369.123H324.754L333.546 387.821Z" fill="#006CA7"/>
<path d="M339.093 387.821H334.131L345.913 369.123H350.793L339.093 387.821Z" fill="#006CA7"/>
<path d="M355.069 387.821H360.031L350.842 369.123H345.961L355.069 387.821Z" fill="#006CA7"/>
<path d="M360.613 387.821H355.65L367.105 369.123H371.986L360.613 387.821Z" fill="#006CA7"/>
<path d="M376.585 387.821H381.548L372.031 369.123H367.15L376.585 387.821Z" fill="#006CA7"/>
<path d="M382.131 387.821H377.168L388.296 369.123H393.188L382.131 387.821Z" fill="#006CA7"/>
<path d="M398.107 387.821H403.07L393.227 369.123H388.346L398.107 387.821Z" fill="#006CA7"/>
<path d="M403.654 387.821H398.691L409.492 369.123H414.385L403.654 387.821Z" fill="#006CA7"/>
<path d="M419.63 387.821H424.592L414.434 369.123H409.541L419.63 387.821Z" fill="#006CA7"/>
<path d="M425.172 387.821H420.209L430.695 369.123H435.575L425.172 387.821Z" fill="#006CA7"/>
<path d="M441.148 387.821H446.111L435.625 369.123H430.744L441.148 387.821Z" fill="#006CA7"/>
<path d="M446.693 387.821H441.73L451.889 369.123H456.77L446.693 387.821Z" fill="#006CA7"/>
<path d="M462.668 387.821H467.631L456.818 369.123H451.938L462.668 387.821Z" fill="#006CA7"/>
<path d="M468.215 387.821H463.252L473.084 369.123H477.976L468.215 387.821Z" fill="#006CA7"/>
<path d="M484.187 387.821H489.149L478.021 369.123H473.129L484.187 387.821Z" fill="#006CA7"/>
<path d="M489.736 387.821H484.773L494.29 369.123H499.171L489.736 387.821Z" fill="#006CA7"/>
<path d="M505.709 387.821H510.672L499.217 369.123H494.324L505.709 387.821Z" fill="#006CA7"/>
<path d="M511.256 387.821H506.293L515.482 369.123H520.363L511.256 387.821Z" fill="#006CA7"/>
<path d="M527.225 387.821H532.188L520.406 369.123H515.525L527.225 387.821Z" fill="#006CA7"/>
<path d="M532.775 387.821H527.812L536.675 369.123H541.556L532.775 387.821Z" fill="#006CA7"/>
<path d="M548.748 387.821H553.71L541.601 369.123H536.721L548.748 387.821Z" fill="#006CA7"/>
<path d="M554.283 387.821H549.332L557.868 369.123H562.76L554.283 387.821Z" fill="#006CA7"/>
<path d="M570.272 387.821H575.234L562.81 369.123H557.918L570.272 387.821Z" fill="#006CA7"/>
<path d="M563.321 369.123H303.352C345.96 300.211 359.68 187.01 360.462 158.251C361.221 130.081 362.389 86.8042 362.389 86.8042H504.272C504.272 86.8042 505.439 130.081 506.198 158.251C506.981 187.01 520.701 300.211 563.309 369.123H563.321Z" fill="#4091BD"/>
<path d="M474.846 369.123H345.947C375.174 300.211 384.562 187.01 385.099 158.251C385.624 130.071 386.419 86.7935 386.419 86.7935H456.782C456.782 86.7935 457.132 130.06 457.366 158.251C457.611 187.01 461.803 300.211 474.846 369.123Z" fill="#7FB5D3"/>
<path d="M349.112 391.355C343.39 391.355 338.276 393.768 334.715 397.592C334.376 387.431 325.829 379.294 315.308 379.294C312.377 379.294 309.61 379.939 307.123 381.073C307.123 380.939 307.146 380.806 307.146 380.661C307.146 370.212 298.447 361.752 287.716 361.752C283.337 361.752 279.309 363.175 276.063 365.554C275.059 356.027 266.792 348.601 256.726 348.601C251.752 348.601 247.233 350.435 243.8 353.414C240.951 346.422 233.945 341.464 225.748 341.464C215.508 341.464 207.147 349.168 206.388 358.939C203.481 357.249 200.094 356.26 196.451 356.26C185.721 356.26 177.021 364.731 177.021 375.17V410.254H368.554C368.554 399.804 359.854 391.344 349.124 391.344L349.112 391.355Z" fill="#006CA7"/>
<path d="M13.8293 514.296V555.572H-158.518C-161.916 546.867 -165.022 538.019 -167.859 529.059C-163.773 523.067 -156.802 519.131 -148.861 519.131C-145.417 519.131 -142.159 519.898 -139.217 521.232C-139.228 521.077 -139.252 520.921 -139.252 520.743C-139.252 508.459 -129.023 498.499 -116.4 498.499C-111.239 498.499 -106.51 500.178 -102.692 502.968C-101.501 491.762 -91.7627 483.013 -79.9459 483.013C-74.0959 483.013 -68.7713 485.181 -64.7312 488.694C-61.5552 480.901 -53.9887 475.265 -44.986 474.687C-44.4722 474.654 -43.9818 474.643 -43.468 474.643C-31.4411 474.643 -21.586 483.714 -20.6986 495.208C-17.4174 493.296 -13.6108 492.151 -9.5123 492.073C-9.34883 492.062 -9.18538 492.062 -9.02191 492.062C3.60056 492.062 13.8293 502.023 13.8293 514.307V514.296Z" fill="#BFDAE9"/>
<path d="M18.2793 337.04L46.0814 410.409H204.767L176.977 337.04H18.2793Z" fill="#006CA7"/>
<path d="M30.3027 337.04L58.0931 410.409H67.8548L40.0644 337.04H30.3027Z" fill="#BFDAE9"/>
<path d="M155.732 337.04L183.523 410.409H193.285L165.494 337.04H155.732Z" fill="#BFDAE9"/>
<path d="M55.3867 337.04L83.1771 410.409H92.9506L65.1485 337.04H55.3867Z" fill="#BFDAE9"/>
<path d="M80.4707 337.04L108.273 410.409H118.034L90.2441 337.04H80.4707Z" fill="#BFDAE9"/>
<path d="M105.561 337.04L133.351 410.409H143.113L115.322 337.04H105.561Z" fill="#BFDAE9"/>
<path d="M130.641 337.04L158.443 410.409H168.204L140.414 337.04H130.641Z" fill="#BFDAE9"/>
<path d="M46.0788 410.421V555.582H-9.51367V410.421L18.2767 337.04L46.0788 410.421Z" fill="white"/>
<path d="M204.764 410.41H46.0781V555.571H204.764V410.41Z" fill="#006CA7"/>
<path d="M246.395 449.896V555.571H93.7695V449.896H149.269C157.232 440.814 165.207 431.743 173.171 422.661C183.703 431.743 194.235 440.814 204.768 449.896H246.383H246.395Z" fill="white"/>
<path d="M357.387 449.896V555.582H246.389V449.896L301.888 397.059L357.387 449.896Z" fill="#7FB5D3"/>
<path d="M93.7695 449.896H246.395C264.891 432.287 283.398 414.667 301.894 397.059H153.11C133.33 414.667 113.55 432.287 93.7695 449.896Z" fill="#4091BD"/>
<path d="M232.509 423.472C223.272 432.288 214.013 441.081 204.765 449.896C194.233 440.814 183.7 431.743 173.168 422.661C192.948 422.927 212.728 423.194 232.509 423.472Z" fill="#006CA7"/>
<path d="M273.541 476.31H267.715V481.98H273.541V476.31Z" fill="#006CA7"/>
<path d="M273.541 493.34H267.715V499.01H273.541V493.34Z" fill="#006CA7"/>
<path d="M273.541 510.36H267.715V516.029H273.541V510.36Z" fill="#006CA7"/>
<path d="M273.541 527.379H267.715V533.049H273.541V527.379Z" fill="#006CA7"/>
<path d="M291.036 476.31H285.209V481.98H291.036V476.31Z" fill="#006CA7"/>
<path d="M291.036 493.34H285.209V499.01H291.036V493.34Z" fill="#006CA7"/>
<path d="M291.036 510.36H285.209V516.029H291.036V510.36Z" fill="#006CA7"/>
<path d="M291.036 527.379H285.209V533.049H291.036V527.379Z" fill="#006CA7"/>
<path d="M308.524 476.31H302.697V481.98H308.524V476.31Z" fill="#006CA7"/>
<path d="M308.524 493.34H302.697V499.01H308.524V493.34Z" fill="#006CA7"/>
<path d="M308.524 510.36H302.697V516.029H308.524V510.36Z" fill="#006CA7"/>
<path d="M308.524 527.379H302.697V533.049H308.524V527.379Z" fill="#006CA7"/>
<path d="M326.016 476.31H320.189V481.98H326.016V476.31Z" fill="#006CA7"/>
<path d="M326.016 493.34H320.189V499.01H326.016V493.34Z" fill="#006CA7"/>
<path d="M326.016 510.36H320.189V516.029H326.016V510.36Z" fill="#006CA7"/>
<path d="M326.016 527.379H320.189V533.049H326.016V527.379Z" fill="#006CA7"/>
<path d="M343.508 476.31H337.682V481.98H343.508V476.31Z" fill="#006CA7"/>
<path d="M343.508 493.34H337.682V499.01H343.508V493.34Z" fill="#006CA7"/>
<path d="M343.508 510.36H337.682V516.029H343.508V510.36Z" fill="#006CA7"/>
<path d="M343.508 527.379H337.682V533.049H343.508V527.379Z" fill="#006CA7"/>
<path d="M115.098 477.41H107.637V496.931H115.098V477.41Z" fill="#006CA7"/>
<path d="M145.504 477.41H138.043V496.931H145.504V477.41Z" fill="#006CA7"/>
<path d="M175.913 477.41H168.451V496.931H175.913V477.41Z" fill="#006CA7"/>
<path d="M206.319 477.41H198.857V496.931H206.319V477.41Z" fill="#006CA7"/>
<path d="M236.725 477.41H229.264V496.931H236.725V477.41Z" fill="#006CA7"/>
<path d="M115.098 511.894H107.637V531.415H115.098V511.894Z" fill="#006CA7"/>
<path d="M145.504 511.894H138.043V531.415H145.504V511.894Z" fill="#006CA7"/>
<path d="M175.913 511.894H168.451V531.415H175.913V511.894Z" fill="#006CA7"/>
<path d="M206.319 511.894H198.857V531.415H206.319V511.894Z" fill="#006CA7"/>
<path d="M236.725 511.894H229.264V531.415H236.725V511.894Z" fill="#006CA7"/>
<path d="M115.098 494.652H107.637V496.853H115.098V494.652Z" fill="#006CA7"/>
<path d="M145.504 494.652H138.043V496.853H145.504V494.652Z" fill="#006CA7"/>
<path d="M175.913 494.652H168.451V496.853H175.913V494.652Z" fill="#006CA7"/>
<path d="M206.319 494.652H198.857V496.853H206.319V494.652Z" fill="#006CA7"/>
<path d="M236.725 494.652H229.264V496.853H236.725V494.652Z" fill="#006CA7"/>
<path d="M115.098 529.136H107.637V531.337H115.098V529.136Z" fill="#006CA7"/>
<path d="M145.504 529.136H138.043V531.337H145.504V529.136Z" fill="#006CA7"/>
<path d="M175.913 529.136H168.451V531.337H175.913V529.136Z" fill="#006CA7"/>
<path d="M206.319 529.136H198.857V531.337H206.319V529.136Z" fill="#006CA7"/>
<path d="M236.725 529.136H229.264V531.337H236.725V529.136Z" fill="#006CA7"/>
<path d="M440.646 449.341H510.706L475.676 409.71L440.646 449.341Z" fill="#006CA7"/>
<path d="M475.676 409.71L510.706 449.341H621.015L585.985 409.71H475.676Z" fill="#006CA7"/>
<path d="M509.072 449.341H440.646V555.572H509.072V449.341Z" fill="#006CA7"/>
<path d="M621.028 449.341H509.072V555.572H621.028V449.341Z" fill="#7FB5D3"/>
<path d="M528.384 462.547H523.889V466.916H528.384V462.547Z" fill="#006CA7"/>
<path d="M528.384 475.665H523.889V480.034H528.384V475.665Z" fill="#006CA7"/>
<path d="M528.384 488.772H523.889V493.141H528.384V488.772Z" fill="#006CA7"/>
<path d="M528.384 501.877H523.889V506.246H528.384V501.877Z" fill="#006CA7"/>
<path d="M528.384 514.985H523.889V519.354H528.384V514.985Z" fill="#006CA7"/>
<path d="M541.857 462.547H537.361V466.916H541.857V462.547Z" fill="#006CA7"/>
<path d="M541.857 475.665H537.361V480.034H541.857V475.665Z" fill="#006CA7"/>
<path d="M541.857 488.772H537.361V493.141H541.857V488.772Z" fill="#006CA7"/>
<path d="M541.857 501.877H537.361V506.246H541.857V501.877Z" fill="#006CA7"/>
<path d="M541.857 514.985H537.361V519.354H541.857V514.985Z" fill="#006CA7"/>
<path d="M555.333 462.547H550.838V466.916H555.333V462.547Z" fill="#006CA7"/>
<path d="M555.333 475.665H550.838V480.034H555.333V475.665Z" fill="#006CA7"/>
<path d="M555.333 488.772H550.838V493.141H555.333V488.772Z" fill="#006CA7"/>
<path d="M555.333 501.877H550.838V506.246H555.333V501.877Z" fill="#006CA7"/>
<path d="M555.333 514.985H550.838V519.354H555.333V514.985Z" fill="#006CA7"/>
<path d="M568.806 462.547H564.311V466.916H568.806V462.547Z" fill="#006CA7"/>
<path d="M568.806 475.665H564.311V480.034H568.806V475.665Z" fill="#006CA7"/>
<path d="M568.806 488.772H564.311V493.141H568.806V488.772Z" fill="#006CA7"/>
<path d="M568.806 501.877H564.311V506.246H568.806V501.877Z" fill="#006CA7"/>
<path d="M568.806 514.985H564.311V519.354H568.806V514.985Z" fill="#006CA7"/>
<path d="M582.273 462.547H577.777V466.916H582.273V462.547Z" fill="#006CA7"/>
<path d="M582.273 475.665H577.777V480.034H582.273V475.665Z" fill="#006CA7"/>
<path d="M582.273 488.772H577.777V493.141H582.273V488.772Z" fill="#006CA7"/>
<path d="M582.273 501.877H577.777V506.246H582.273V501.877Z" fill="#006CA7"/>
<path d="M582.273 514.985H577.777V519.354H582.273V514.985Z" fill="#006CA7"/>
<path d="M595.745 462.547H591.25V466.916H595.745V462.547Z" fill="#006CA7"/>
<path d="M595.745 475.665H591.25V480.034H595.745V475.665Z" fill="#006CA7"/>
<path d="M595.745 488.772H591.25V493.141H595.745V488.772Z" fill="#006CA7"/>
<path d="M595.745 501.877H591.25V506.246H595.745V501.877Z" fill="#006CA7"/>
<path d="M595.745 514.985H591.25V519.354H595.745V514.985Z" fill="#006CA7"/>
<path d="M609.222 462.547H604.727V466.916H609.222V462.547Z" fill="#006CA7"/>
<path d="M609.222 475.665H604.727V480.034H609.222V475.665Z" fill="#006CA7"/>
<path d="M609.222 488.772H604.727V493.141H609.222V488.772Z" fill="#006CA7"/>
<path d="M609.222 501.877H604.727V506.246H609.222V501.877Z" fill="#006CA7"/>
<path d="M609.222 514.985H604.727V519.354H609.222V514.985Z" fill="#006CA7"/>
<path d="M528.384 528.102H523.889V532.471H528.384V528.102Z" fill="#006CA7"/>
<path d="M541.857 528.102H537.361V532.471H541.857V528.102Z" fill="#006CA7"/>
<path d="M555.333 528.102H550.838V532.471H555.333V528.102Z" fill="#006CA7"/>
<path d="M568.806 528.102H564.311V532.471H568.806V528.102Z" fill="#006CA7"/>
<path d="M582.273 528.102H577.777V532.471H582.273V528.102Z" fill="#006CA7"/>
<path d="M595.745 528.102H591.25V532.471H595.745V528.102Z" fill="#006CA7"/>
<path d="M609.222 528.102H604.727V532.471H609.222V528.102Z" fill="#006CA7"/>
<path d="M573.443 409.71L608.473 449.341H611.976L576.946 409.71H573.443Z" fill="#7FB5D3"/>
<path d="M558.662 409.71L593.692 449.341H597.183L562.153 409.71H558.662Z" fill="#7FB5D3"/>
<path d="M543.869 409.71L578.899 449.341H582.402L547.372 409.71H543.869Z" fill="#7FB5D3"/>
<path d="M529.084 409.71L564.114 449.341H567.605L532.575 409.71H529.084Z" fill="#7FB5D3"/>
<path d="M514.289 409.71L549.319 449.341H552.822L517.792 409.71H514.289Z" fill="#7FB5D3"/>
<path d="M499.51 409.71L534.54 449.341H538.031L503.001 409.71H499.51Z" fill="#7FB5D3"/>
<path d="M484.713 409.71L519.743 449.341H523.246L488.216 409.71H484.713Z" fill="#7FB5D3"/>
<path d="M274.137 555.571L285.813 533.337C289.585 526.145 297.315 521.598 305.757 521.598H367.386C375.829 521.598 383.559 526.145 387.33 533.337L399.007 555.571H274.125H274.137Z" fill="#006CA7"/>
<path d="M412.889 489.527V555.582H371.262V436.689L412.889 489.527Z" fill="#BFDAE9"/>
<path d="M482.271 489.527H412.889V555.582H482.271V489.527Z" fill="#4091BD"/>
<path d="M482.272 489.527H412.889L371.262 436.689H440.644L482.272 489.527Z" fill="#006CA7"/>
<path d="M454.518 502.734H440.646V513.739H454.518V502.734Z" fill="#006CA7"/>
<path d="M454.518 529.158H440.646V541.186H454.518V529.158Z" fill="#006CA7"/>
<path d="M727.065 534.05C724.671 541.309 722.102 548.479 719.335 555.572H621.029V463.104C636.139 463.104 648.353 474.365 649.52 488.694C654.495 486.56 659.983 485.37 665.751 485.37C688.065 485.37 706.14 502.968 706.14 524.69C706.14 525.801 706.07 526.869 705.977 527.969C706.969 527.858 707.985 527.78 709.013 527.78C715.855 527.78 722.149 530.137 727.077 534.061L727.065 534.05Z" fill="#BFDAE9"/>
<path d="M511.839 354.949C513.626 360.129 515.506 365.154 517.479 369.956H518.343L519.09 369.678C517.152 364.965 515.296 360.04 513.532 354.949H552.859C552.591 354.437 552.334 353.937 552.065 353.415H512.995C510.637 346.5 508.441 339.296 506.398 331.893H542.187C541.977 331.381 541.767 330.87 541.556 330.359H505.978C504.039 323.244 502.229 315.974 500.56 308.603H533.441C533.266 308.092 533.102 307.581 532.927 307.069H500.221C498.586 299.788 497.068 292.429 495.679 285.08H526.12C525.98 284.569 525.84 284.058 525.688 283.546H495.387C493.986 276.087 492.713 268.65 491.545 261.324H519.931C519.814 260.813 519.686 260.301 519.569 259.79H491.3C490.097 252.131 489.023 244.605 488.066 237.323H514.723C514.618 236.812 514.525 236.301 514.42 235.789H487.867C486.84 227.885 485.952 220.27 485.193 213.067H510.415C510.333 212.555 510.251 212.044 510.17 211.533H485.03C484.154 203.206 483.465 195.491 482.916 188.566H506.993C506.935 188.054 506.877 187.543 506.818 187.032H482.799C482.064 177.449 481.62 169.512 481.445 163.809H504.787C504.763 163.275 504.74 162.775 504.716 162.275H481.398C481.387 161.708 481.375 161.152 481.363 160.63C481.246 153.937 481.106 146.4 480.966 138.785H504.074C504.063 138.274 504.051 137.763 504.028 137.251H480.931C480.791 129.458 480.651 121.654 480.522 114.684C480.522 114.284 480.511 113.895 480.499 113.506H503.374C503.362 112.995 503.35 112.483 503.327 111.972H480.464C480.359 105.98 480.266 100.744 480.196 96.8532C480.114 92.451 480.067 89.7941 480.067 89.7163H478.456C478.456 89.7163 478.502 92.4177 478.584 96.8754C478.654 100.755 478.748 105.991 478.853 111.961H433.127V89.7163H431.516C431.516 89.7163 431.516 92.3954 431.516 96.8643V111.961H385.79C385.895 105.98 385.988 100.755 386.058 96.8754C386.14 92.4177 386.187 89.7386 386.187 89.7274H385.381L384.575 89.7163C384.575 89.7941 384.529 92.451 384.447 96.8532C384.377 100.744 384.284 105.98 384.178 111.972H361.316C361.304 112.472 361.292 112.995 361.269 113.506H384.143C384.015 120.765 383.863 129.014 383.711 137.251H360.615C360.603 137.763 360.592 138.274 360.568 138.785H383.676C383.536 146.389 383.408 153.937 383.279 160.63C383.279 161.141 383.256 161.697 383.244 162.275H359.926C359.903 162.764 359.879 163.275 359.856 163.809H383.198C383.011 169.512 382.579 177.449 381.843 187.032H357.824C357.766 187.532 357.708 188.043 357.649 188.566H381.726C381.178 195.491 380.477 203.206 379.613 211.533H354.473C354.391 212.033 354.31 212.555 354.228 213.067H379.449C378.69 220.259 377.791 227.874 376.775 235.789H350.223C350.129 236.301 350.024 236.812 349.919 237.323H376.577C375.619 244.616 374.545 252.142 373.342 259.79H345.073C344.957 260.301 344.84 260.813 344.711 261.324H373.097C371.941 268.65 370.657 276.087 369.256 283.546H338.955C338.815 284.058 338.675 284.569 338.523 285.08H368.964C367.574 292.429 366.056 299.788 364.422 307.069H331.715C331.54 307.581 331.377 308.092 331.201 308.603H364.083C362.413 315.963 360.603 323.244 358.665 330.359H323.086C322.876 330.87 322.666 331.381 322.456 331.893H358.245C356.201 339.296 353.994 346.5 351.647 353.415H312.577C312.32 353.926 312.052 354.437 311.783 354.949H351.11C349.347 360.04 347.502 364.965 345.552 369.678L346.299 369.956H347.163C349.137 365.154 351.017 360.129 352.803 354.949H431.504V369.956H433.115V354.949H511.816H511.839ZM511.314 353.415H433.139V331.893H504.74C506.783 339.285 508.967 346.5 511.314 353.415ZM504.32 330.37H433.139V308.614H498.913C500.583 315.974 502.381 323.255 504.32 330.37ZM498.575 307.091H433.139V285.103H494.032C495.422 292.44 496.928 299.799 498.563 307.091H498.575ZM493.752 283.569H433.139V261.346H489.922C491.078 268.672 492.363 276.109 493.752 283.569ZM489.677 259.812H433.139V237.345H486.454C487.412 244.638 488.486 252.164 489.677 259.812ZM486.244 235.811H433.139V213.089H483.582C484.341 220.281 485.228 227.896 486.256 235.811H486.244ZM483.407 211.566H433.127V188.599H481.293C481.842 195.525 482.531 203.24 483.407 211.566ZM481.176 187.065H433.127V163.842H479.822C480.009 169.556 480.441 177.493 481.176 187.065ZM479.74 160.696C479.74 161.208 479.763 161.752 479.775 162.308H433.127V138.83H479.343C479.483 146.445 479.612 154.004 479.74 160.696ZM478.888 113.55C479.016 120.81 479.168 129.058 479.32 137.296H433.139V113.55H478.899H478.888ZM385.743 114.751C385.743 114.34 385.755 113.951 385.766 113.55H431.527C431.527 120.81 431.527 129.058 431.527 137.296H385.346C385.486 129.514 385.626 121.71 385.755 114.751H385.743ZM384.914 160.685C385.031 153.993 385.171 146.433 385.311 138.819H431.527V162.297H384.879C384.891 161.73 384.902 161.196 384.914 160.685ZM384.832 163.831H431.527V187.054H383.478C384.213 177.482 384.646 169.545 384.832 163.831ZM383.361 188.588H431.527V211.555H381.248C382.112 203.229 382.812 195.514 383.361 188.588ZM381.096 213.089H431.539V235.811H378.434C379.461 227.896 380.348 220.293 381.107 213.089H381.096ZM378.223 237.334H431.539C431.539 244.627 431.539 252.153 431.539 259.801H375.001C376.203 252.142 377.278 244.616 378.223 237.334ZM374.755 261.335H431.539V283.557H370.925C372.327 276.098 373.599 268.65 374.755 261.335ZM370.634 285.092H431.527V307.08H366.091C367.726 299.788 369.232 292.44 370.622 285.092H370.634ZM365.753 308.614H431.527V330.37H360.346C362.285 323.255 364.083 315.974 365.753 308.614ZM353.352 353.415C355.699 346.5 357.883 339.285 359.926 331.893H431.527V353.415H353.352Z" fill="#BFDAE9"/>
<path d="M307.11 321.243L288.754 392.89L339.069 398.093L319.58 321.254C317.981 314.929 308.744 314.918 307.121 321.243H307.11Z" fill="#006CA7"/>
<path d="M313.371 334.05C312.776 334.05 312.285 334.506 312.285 335.084V380.373C312.285 380.94 312.764 381.407 313.371 381.407C313.978 381.407 314.457 380.951 314.457 380.373V335.084C314.457 334.517 313.978 334.05 313.371 334.05Z" fill="#7FB5D3"/>
<path d="M322.212 355.194L314.447 362.742V355.005C314.447 354.805 314.389 354.616 314.284 354.449L307.453 344.188C307.137 343.71 306.46 343.566 305.958 343.866C305.456 344.166 305.304 344.811 305.619 345.289L312.275 355.305V365.277C312.275 365.699 312.544 366.077 312.952 366.233C313.081 366.288 313.221 366.311 313.361 366.311C313.641 366.311 313.922 366.199 314.132 365.999L323.753 356.639C324.174 356.228 324.162 355.583 323.742 355.183C323.31 354.783 322.632 354.794 322.212 355.194Z" fill="#7FB5D3"/>
<defs>
<linearGradient id="paint0_linear_379_9844" x1="290.04" y1="1363.09" x2="269.518" y2="280.083" gradientUnits="userSpaceOnUse">
<stop offset="0.38" stop-color="white" stop-opacity="0"/>
<stop offset="0.56" stop-color="#FCFDFE" stop-opacity="0.01"/>
<stop offset="0.65" stop-color="#F4F9FB" stop-opacity="0.05"/>
<stop offset="0.73" stop-color="#E7F1F6" stop-opacity="0.12"/>
<stop offset="0.79" stop-color="#D4E6F0" stop-opacity="0.22"/>
<stop offset="0.84" stop-color="#BBD8E7" stop-opacity="0.35"/>
<stop offset="0.89" stop-color="#9DC6DD" stop-opacity="0.51"/>
<stop offset="0.94" stop-color="#78B1D0" stop-opacity="0.7"/>
<stop offset="0.99" stop-color="#509AC2" stop-opacity="0.92"/>
<stop offset="1" stop-color="#4091BD"/>
</linearGradient>
<linearGradient id="paint1_linear_379_9844" x1="290.04" y1="1193.8" x2="269.518" y2="110.798" gradientUnits="userSpaceOnUse">
<stop offset="0.38" stop-color="white" stop-opacity="0"/>
<stop offset="0.56" stop-color="#FCFDFE" stop-opacity="0.01"/>
<stop offset="0.65" stop-color="#F4F9FB" stop-opacity="0.05"/>
<stop offset="0.73" stop-color="#E7F1F6" stop-opacity="0.12"/>
<stop offset="0.79" stop-color="#D4E6F0" stop-opacity="0.22"/>
<stop offset="0.84" stop-color="#BBD8E7" stop-opacity="0.35"/>
<stop offset="0.89" stop-color="#9DC6DD" stop-opacity="0.51"/>
<stop offset="0.94" stop-color="#78B1D0" stop-opacity="0.7"/>
<stop offset="0.99" stop-color="#509AC2" stop-opacity="0.92"/>
<stop offset="1" stop-color="#4091BD"/>
</linearGradient>
<linearGradient id="paint2_linear_379_9844" x1="288.802" y1="1256.01" x2="286.527" y2="351.458" gradientUnits="userSpaceOnUse">
<stop offset="0.74" stop-color="white" stop-opacity="0"/>
<stop offset="0.76" stop-color="#FDFEFE" stop-opacity="0.02"/>
<stop offset="0.8" stop-color="#F8FBFC" stop-opacity="0.09"/>
<stop offset="0.84" stop-color="#F1F7FA" stop-opacity="0.21"/>
<stop offset="0.88" stop-color="#E7F1F6" stop-opacity="0.37"/>
<stop offset="0.92" stop-color="#DAE9F2" stop-opacity="0.57"/>
<stop offset="0.97" stop-color="#CAE0EC" stop-opacity="0.82"/>
<stop offset="1" stop-color="#BFDAE9"/>
</linearGradient>
</defs>
</svg>
