<svg width="599" height="598" viewBox="0 0 599 598" fill="none" xmlns="http://www.w3.org/2000/svg">
<g filter="url(#filter0_d_602_2767)">
<circle cx="299.5" cy="267" r="239" fill="#50AA57"/>
</g>
<path opacity="0.2" d="M299.012 407.052C382.802 407.052 450.727 339.127 450.727 255.337C450.727 171.547 382.802 103.622 299.012 103.622C215.222 103.622 147.297 171.547 147.297 255.337C147.297 339.127 215.222 407.052 299.012 407.052Z" fill="white"/>
<path d="M428.419 334.557C378.353 416.192 261.854 430.949 193.161 364.027C175.723 295.136 158.291 226.239 140.847 157.348C139.082 150.363 143.857 143.136 151.511 141.198C218.302 124.292 285.1 107.387 351.892 90.4815C359.552 88.5433 367.188 92.6303 368.959 99.6154C388.775 177.931 408.597 256.241 428.419 334.557Z" fill="#E8F1F2"/>
<path d="M335.159 149.428L194.287 185.084C191.804 185.716 189.271 184.211 188.646 181.721C188.02 179.232 189.525 176.706 192.008 176.08L332.88 140.424C335.37 139.792 337.896 141.303 338.521 143.786C339.147 146.27 337.642 148.802 335.159 149.428Z" fill="#006CA7"/>
<path d="M343.811 183.647L202.939 219.303C200.456 219.935 197.923 218.43 197.298 215.941C196.672 213.451 198.177 210.925 200.66 210.299L341.533 174.643C344.022 174.011 346.548 175.516 347.174 178.006C347.799 180.495 346.295 183.021 343.811 183.647Z" fill="#006CA7"/>
<path d="M352.894 219.514L212.021 255.17C209.538 255.802 207.006 254.291 206.38 251.808C205.755 249.325 207.259 246.792 209.743 246.166L350.615 210.51C353.104 209.879 355.631 211.383 356.256 213.873C356.882 216.362 355.377 218.882 352.894 219.514Z" fill="#006CA7"/>
<path d="M360.448 249.38L219.576 285.036C217.093 285.668 214.56 284.157 213.935 281.674C213.309 279.191 214.814 276.658 217.297 276.033L358.169 240.376C360.659 239.745 363.185 241.25 363.811 243.739C364.436 246.228 362.931 248.755 360.448 249.38Z" fill="#006CA7"/>
<path d="M372.681 297.706L308.447 313.961C305.958 314.593 303.431 313.082 302.806 310.599C302.18 308.116 303.685 305.583 306.168 304.957L370.402 288.702C372.892 288.071 375.418 289.582 376.044 292.065C376.669 294.548 375.165 297.081 372.681 297.706Z" fill="#006CA7"/>
<path d="M379.873 326.123L315.638 342.378C313.149 343.01 310.623 341.499 309.997 339.016C309.372 336.533 310.876 334 313.36 333.374L377.594 317.119C380.083 316.488 382.61 317.999 383.235 320.482C383.867 322.971 382.356 325.498 379.873 326.123Z" fill="#006CA7"/>
<path d="M448.648 141.681C444.227 146.102 438.778 148.87 433.074 149.997C422.696 152.028 413.06 156.698 404.806 163.231L384.16 142.585C385.064 141.433 385.931 140.257 386.755 139.049C391.932 131.581 395.647 123.159 397.449 114.193C398.601 108.489 401.406 103.046 405.859 98.6433C417.847 86.7971 437.781 87.1873 449.317 99.4731C451.305 101.591 452.927 103.925 454.197 106.396C460.042 117.803 458.191 132.132 448.642 141.687L448.648 141.681Z" fill="#A54B0E"/>
<path d="M407.748 180.836L407.704 180.88L366.543 139.718L366.586 139.675C367.707 138.554 369.026 137.743 370.419 137.247C371.546 136.839 372.735 136.641 373.918 136.641C376.575 136.641 379.225 137.65 381.25 139.675L407.741 166.166C410.67 169.095 411.488 173.343 410.169 177.003C409.667 178.396 408.862 179.715 407.741 180.836H407.748Z" fill="#6D2929"/>
<path d="M410.174 177.003L370.418 137.247C371.545 136.839 372.734 136.641 373.917 136.641C376.573 136.641 379.224 137.65 381.249 139.675L407.74 166.166C410.669 169.095 411.486 173.343 410.167 177.003H410.174Z" fill="#844242"/>
<path d="M398.006 211.154L394.613 214.547C393.882 215.278 393.052 215.854 392.167 216.263C388.959 217.774 385.008 217.204 382.352 214.547L332.874 165.07C330.217 162.413 329.648 158.462 331.159 155.255C331.573 154.369 332.143 153.545 332.874 152.809L336.267 149.415L398.006 211.154Z" fill="#4D5961"/>
<path d="M397.998 211.154L394.605 214.548C393.874 215.278 393.044 215.854 392.159 216.263L331.145 155.249C331.559 154.363 332.129 153.54 332.86 152.803L336.253 149.409L397.992 211.148L397.998 211.154Z" fill="#454545"/>
<path d="M410.458 218.406C407.987 220.455 405.51 220.455 403.039 218.406L329.014 144.381C326.383 141.749 327.126 139.111 329.144 136.851C331.745 133.959 336.464 131.699 338.941 130.919C347.617 128.163 357.345 130.529 363.779 136.962L410.458 183.641C412.414 185.598 413.975 187.809 415.133 190.162C419.653 199.345 418.099 210.77 410.458 218.412V218.406Z" fill="#D88521"/>
<path d="M407.944 208.225C405.473 210.274 402.996 210.274 400.525 208.225L329.145 136.844C331.745 133.952 336.464 131.692 338.941 130.912C347.617 128.156 357.345 130.522 363.779 136.956L410.458 183.634C412.414 185.591 413.975 187.802 415.133 190.155C415.313 196.676 412.916 203.246 407.944 208.225Z" fill="#FEA832"/>
<path d="M321.137 414.631L260.42 339.461C258.569 337.157 255.219 336.761 252.884 338.575L219.327 365.599C217.055 367.469 216.689 370.813 218.51 373.123L279.252 448.436C281.667 451.451 285.518 452.938 289.333 452.324L290.057 452.213C294.082 451.334 297.259 448.256 298.275 444.262L301.111 432.645L313.18 432.23C317.366 432.149 321.144 429.691 322.908 425.889C324.487 422.099 323.806 417.746 321.137 414.625V414.631Z" fill="url(#paint0_diamond_602_2767)"/>
<path d="M264.548 361.971C263.972 360.621 262.87 359.568 261.501 359.048L221.188 343.561C218.414 342.595 215.367 343.982 214.284 346.719L179.55 436.887C177.971 440.677 178.652 445.03 181.321 448.151C184.108 451.186 188.356 452.405 192.325 451.303L203.781 447.947L210.197 458.183C212.389 461.669 216.358 463.62 220.458 463.23L221.467 463.069C225.294 462.45 228.495 459.83 229.858 456.201L264.579 365.959C265.081 364.677 265.068 363.246 264.542 361.971H264.548Z" fill="url(#paint1_diamond_602_2767)"/>
<path d="M297.501 344.285L290.064 338.866C288.497 337.715 287.457 335.993 287.166 334.067L286.033 326.847C284.46 316.827 275.078 309.966 265.053 311.502L257.832 312.635C255.913 312.951 253.95 312.487 252.377 311.347L244.859 305.873C236.586 300.145 225.272 301.922 219.154 309.91L213.798 317.261C212.646 318.828 210.924 319.868 208.999 320.159L201.778 321.292C191.703 322.673 184.65 331.962 186.031 342.037C186.043 342.136 186.056 342.235 186.074 342.328L187.207 349.548C187.61 351.518 187.183 353.567 186.025 355.208L180.606 362.645C177.752 366.565 176.575 371.464 177.343 376.25C178.092 381.062 180.718 385.384 184.631 388.276L192.056 393.62C193.641 394.784 194.694 396.543 194.967 398.487L196.1 405.708C197.598 415.771 206.968 422.706 217.03 421.207L224.251 420.074C226.183 419.777 228.152 420.266 229.719 421.437L237.069 426.793C245.305 432.682 256.736 430.88 262.774 422.756L268.13 415.405C269.264 413.814 270.985 412.742 272.917 412.433L280.138 411.3C290.126 409.69 296.944 400.327 295.414 390.332L294.281 383.112C293.947 381.173 294.405 379.179 295.557 377.582L300.981 370.219C307.186 362.107 305.632 350.502 297.52 344.297C297.514 344.297 297.501 344.285 297.495 344.279L297.501 344.285Z" fill="url(#paint2_linear_602_2767)"/>
<path d="M238.924 383.904C237.469 384.12 235.983 383.767 234.775 382.925L220.898 372.751C218.452 370.968 217.913 367.543 219.697 365.097C221.523 362.676 224.942 362.137 227.425 363.883L236.874 370.831L253.904 347.368C255.73 344.947 259.149 344.408 261.632 346.154C264.078 347.938 264.617 351.362 262.833 353.808L242.51 381.712C241.643 382.876 240.361 383.662 238.93 383.904H238.924Z" fill="#E8F1F2"/>
<defs>
<filter id="filter0_d_602_2767" x="0.5" y="0" width="598" height="598" filterUnits="userSpaceOnUse" color-interpolation-filters="sRGB">
<feFlood flood-opacity="0" result="BackgroundImageFix"/>
<feColorMatrix in="SourceAlpha" type="matrix" values="0 0 0 0 0 0 0 0 0 0 0 0 0 0 0 0 0 0 127 0" result="hardAlpha"/>
<feMorphology radius="4" operator="erode" in="SourceAlpha" result="effect1_dropShadow_602_2767"/>
<feOffset dy="32"/>
<feGaussianBlur stdDeviation="32"/>
<feComposite in2="hardAlpha" operator="out"/>
<feColorMatrix type="matrix" values="0 0 0 0 0.313726 0 0 0 0 0.666667 0 0 0 0 0.341176 0 0 0 0.3 0"/>
<feBlend mode="normal" in2="BackgroundImageFix" result="effect1_dropShadow_602_2767"/>
<feBlend mode="normal" in="SourceGraphic" in2="effect1_dropShadow_602_2767" result="shape"/>
</filter>
<radialGradient id="paint0_diamond_602_2767" cx="0" cy="0" r="1" gradientUnits="userSpaceOnUse" gradientTransform="translate(270.55 397.754) rotate(89.3516) scale(78.4305 72.5873)">
<stop stop-color="#2495D2"/>
<stop offset="1" stop-color="#006CA7"/>
</radialGradient>
<radialGradient id="paint1_diamond_602_2767" cx="0" cy="0" r="1" gradientUnits="userSpaceOnUse" gradientTransform="translate(221.829 406.194) rotate(89.4964) scale(81.8385 58.8342)">
<stop stop-color="#2495D2"/>
<stop offset="1" stop-color="#006CA7"/>
</radialGradient>
<linearGradient id="paint2_linear_602_2767" x1="214.186" y1="367.283" x2="277.455" y2="254.993" gradientUnits="userSpaceOnUse">
<stop stop-color="#00639E"/>
<stop offset="1" stop-color="#00B9F2"/>
</linearGradient>
</defs>
</svg>
