<svg width="118" height="116" viewBox="0 0 118 116" fill="none" xmlns="http://www.w3.org/2000/svg">
<path d="M114.394 24.2676V105.118H14.9814C8.38239 105.118 3.01758 99.7653 3.01758 93.1538C3.39538 87.2978 8.24386 82.5627 14.2258 82.5627C17.3363 82.5627 20.2076 83.8094 22.1974 85.9251C24.1872 87.9149 25.4339 90.7862 25.4339 93.8968V24.2676H114.381H114.394Z" stroke="white" stroke-width="4" stroke-linecap="round" stroke-linejoin="round"/>
<path d="M36.6543 92.6631H114.268" stroke="white" stroke-width="4" stroke-linecap="round" stroke-linejoin="round"/>
<path d="M81.752 85.9258H107.543" stroke="white" stroke-width="4" stroke-linecap="round" stroke-linejoin="round"/>
<path d="M36.7812 81.0771H68.6679" stroke="white" stroke-width="4" stroke-linecap="round" stroke-linejoin="round"/>
<path d="M90.6055 77.9541H107.544" stroke="white" stroke-width="4" stroke-linecap="round" stroke-linejoin="round"/>
<path d="M99.6973 69.8564H107.543" stroke="white" stroke-width="4" stroke-linecap="round" stroke-linejoin="round"/>
<path d="M25.4476 14.2941V93.7714C25.4476 90.6608 24.2009 87.7895 22.2111 85.7997C20.2213 83.81 17.35 82.4373 14.2394 82.4373C8.25756 82.4373 3.39648 87.0465 3.03127 93.0284V93.7714V14.2941C3.01868 8.07294 8.00569 3.08594 14.2269 3.08594C17.3374 3.08594 20.2087 4.33269 22.1985 6.32245C24.1883 8.31222 25.435 11.1835 25.435 14.2941H25.4476Z" stroke="white" stroke-width="4" stroke-linecap="round" stroke-linejoin="round"/>
<path d="M59.5744 58.1439V69.2261H36.6543V47.918H48.2403" stroke="white" stroke-width="4" stroke-linecap="round" stroke-linejoin="round"/>
<path d="M69.0457 47.9311C69.0457 53.2833 64.8143 57.7791 59.4495 58.1443H58.8324C53.2283 58.1443 48.6191 53.5351 48.6191 47.9311C48.6191 42.327 53.2283 37.7178 58.8324 37.7178C64.4365 37.7178 69.0457 42.327 69.0457 47.9311Z" stroke="white" stroke-width="4" stroke-linecap="round" stroke-linejoin="round"/>
<path d="M93.2112 45.1982L99.6968 51.5453L80.1392 71.6067L70.543 75.0951L73.6535 65.247L93.2112 45.1982Z" stroke="white" stroke-width="4" stroke-linecap="round" stroke-linejoin="round"/>
<path d="M100.944 41.7098L103.06 43.8255C104.307 45.0723 104.307 46.9361 103.06 48.1829L99.6976 51.6712L93.2246 45.3116L96.5871 41.8232C97.8338 40.4505 99.6976 40.4505 100.944 41.6972V41.7098Z" stroke="white" stroke-width="4" stroke-linecap="round" stroke-linejoin="round"/>
</svg>
