<svg width="125" height="124" viewBox="0 0 125 124" fill="none" xmlns="http://www.w3.org/2000/svg">
<path d="M69.269 43.214C69.269 47.0418 66.0547 50.2562 62.0935 50.2562C58.1323 50.2562 54.918 47.1619 54.918 43.214C54.918 39.2661 58.1323 36.1719 62.0935 36.1719C66.0547 36.1719 69.269 39.2661 69.269 43.214Z" stroke="white" stroke-width="4" stroke-linecap="round" stroke-linejoin="round"/>
<path d="M119.924 29.3699C119.67 28.503 118.937 27.8894 118.07 27.8894C116.589 27.7694 112.135 27.1426 112.135 27.1426L113.989 22.8212C114.735 21.3408 113.615 19.3535 111.881 19.3535H102.972C101.985 19.3535 101.238 19.967 100.865 20.7139L94.1825 35.5584C93.4356 37.0389 94.556 39.0262 96.2898 39.0262H100.251L95.1828 49.416C94.5693 50.403 94.9294 51.6433 95.9297 52.5103C96.9167 53.2572 98.1571 53.1238 98.904 52.2569C98.904 52.2569 114.482 37.2923 119.19 31.9707C120.057 31.2238 120.057 30.1168 119.937 29.3699H119.924Z" stroke="white" stroke-width="4" stroke-linecap="round" stroke-linejoin="round"/>
<path d="M32.5247 62.0867C32.2713 61.2198 31.5377 60.6062 30.6708 60.6062C29.1904 60.4862 24.7357 59.8593 24.7357 59.8593L26.5896 55.538C27.3365 54.0576 26.2161 52.0703 24.4823 52.0703H15.7063C14.7193 52.0703 13.9724 52.6838 13.5989 53.4307L6.91691 68.2752C6.17002 69.7557 7.29036 71.743 9.02422 71.743H12.9854L7.91721 82.1328C7.30369 83.1198 7.6638 84.3601 8.66411 85.2271C9.65108 85.974 10.8915 85.8406 11.6383 84.9737C11.6383 84.9737 27.2164 70.0091 31.9245 64.6875C32.6714 63.8206 32.7914 62.7135 32.538 62.0867H32.5247Z" stroke="white" stroke-width="4" stroke-linecap="round" stroke-linejoin="round"/>
<path d="M101.669 93.8681C101.778 90.592 99.211 87.8477 95.9349 87.7384C92.6588 87.6292 89.9145 90.1964 89.8052 93.4724C89.696 96.7485 92.2632 99.4929 95.5393 99.6021C98.8153 99.7114 101.56 97.1441 101.669 93.8681Z" stroke="white" stroke-width="4" stroke-linecap="round" stroke-linejoin="round"/>
<path d="M34.0252 11.2373C34.055 7.95954 31.4219 5.27828 28.1442 5.24853C24.8664 5.21878 22.1852 7.85181 22.1554 11.1296C22.1257 14.4073 24.7587 17.0886 28.0365 17.1183C31.3142 17.1481 33.9955 14.515 34.0252 11.2373Z" stroke="white" stroke-width="4" stroke-linecap="round" stroke-linejoin="round"/>
<path d="M114.895 64.1143C113.535 64.1143 112.428 65.2213 112.428 66.5817C112.428 67.9421 113.535 69.0491 114.895 69.0491C116.256 69.0491 117.363 67.9421 117.363 66.5817C117.109 64.9678 116.256 64.1143 114.895 64.1143Z" stroke="white" stroke-width="4" stroke-linecap="round" stroke-linejoin="round"/>
<path d="M31.9244 104.187C30.564 104.187 29.457 105.294 29.457 106.654C29.457 108.014 30.564 109.121 31.9244 109.121C33.2849 109.121 34.3919 108.014 34.3919 106.654C34.1385 105.173 33.2849 104.187 31.9244 104.187Z" fill="white"/>
<path d="M62.0928 67.2084C50.8361 67.2084 41.8066 58.0589 41.8066 46.9222V24.6621H82.4857V46.9222C82.3656 58.179 73.2162 67.2084 62.0795 67.2084H62.0928Z" stroke="white" stroke-width="4" stroke-linecap="round" stroke-linejoin="round"/>
<path d="M77.5514 24.6623H65.4277V13.0321C65.4277 9.44438 68.2686 6.60352 71.8564 6.60352C74.9506 6.60352 77.5381 9.20431 77.5381 12.2852V24.649L77.5514 24.6623Z" stroke="white" stroke-width="4" stroke-linecap="round" stroke-linejoin="round"/>
<path d="M58.7585 24.6617H46.6348V12.6714C46.6348 9.33704 49.3556 6.61621 52.6899 6.61621C56.0243 6.61621 58.7451 9.33704 58.7451 12.6714V24.6617H58.7585Z" stroke="white" stroke-width="4" stroke-linecap="round" stroke-linejoin="round"/>
<path d="M61.4785 67.4482V115.183" stroke="white" stroke-width="4" stroke-linecap="round" stroke-linejoin="round"/>
<path d="M62.2261 96.3903H61.9727C61.9727 83.0396 72.856 72.1562 86.2067 72.1562H86.4601C86.4601 85.507 75.6968 96.3903 62.2261 96.3903Z" stroke="white" stroke-width="4" stroke-linecap="round" stroke-linejoin="round"/>
<path d="M61.1051 96.3903H61.3585C61.3585 83.0396 50.4752 72.1562 37.1245 72.1562H36.8711C36.8711 85.507 47.6344 96.3903 61.1051 96.3903Z" stroke="white" stroke-width="4" stroke-linecap="round" stroke-linejoin="round"/>
<path d="M49.1152 84.2666L61.2389 96.2702" stroke="white" stroke-width="4" stroke-linecap="round" stroke-linejoin="round"/>
<path d="M74.0963 84.2666L61.9727 96.2702" stroke="white" stroke-width="4" stroke-linecap="round" stroke-linejoin="round"/>
</svg>
