<svg width="132" height="132" viewBox="0 0 132 132" fill="none" xmlns="http://www.w3.org/2000/svg">
<path d="M51.8382 23.8061C51.8382 19.3691 48.2562 15.7598 43.8528 15.7598C40.8772 15.7598 38.2367 17.4278 36.8628 19.9673C35.5655 19.3279 34.1506 18.9798 32.6743 18.9798C27.3908 18.9798 23.0924 23.3111 23.0924 28.6349C23.0924 33.4096 26.5542 37.3748 31.0778 38.1456V43.7917M37.4973 22.1561L37.4666 22.1999" stroke="white" stroke-width="3" stroke-miterlimit="10"/>
<path d="M110.926 22.1973C110.926 18.6473 108.061 15.7598 104.538 15.7598C102.419 15.7598 100.513 16.7936 99.3461 18.4694C97.9901 17.7449 96.501 17.3685 94.9556 17.3685C90.1505 17.3685 86.1719 20.9547 85.4888 25.6082C84.4858 24.5331 81.0726 24.7909 80.5686 27.6501" stroke="white" stroke-width="3" stroke-miterlimit="10"/>
<path d="M80.584 47.9428V43.9209C80.584 42.5906 81.6586 41.5078 82.9789 41.5078C84.2991 41.5078 85.3737 42.5906 85.3737 43.9209V44.3798C85.3737 49.1906 88.5975 53.3156 93.0393 54.1922C93.6712 54.3185 94.3083 54.3778 94.9403 54.3778C97.1637 54.3778 99.3155 53.6147 101.043 52.1812C102.846 50.6859 104.023 48.6131 104.402 46.3341C105.865 46.365 107.268 45.8545 108.619 44.7923C110.062 43.6554 110.924 41.8249 110.924 39.8965M67.8064 39.8965V49.9331M62.3157 64.0329H78.9849M63.027 57.5953H75.7918" stroke="white" stroke-width="3" stroke-miterlimit="10"/>
<path d="M50.5614 26.0566C49.3077 27.7376 48.645 29.7408 48.645 31.8523" stroke="white" stroke-width="3" stroke-miterlimit="10"/>
<path d="M48.645 43.8488V39.6232C48.645 37.999 49.955 36.679 51.5669 36.679C52.3473 36.679 53.0791 36.9858 53.6317 37.5427L55.4304 39.3551C57.1754 41.1134 59.7954 41.6703 61.9574 40.7473C64.2294 39.7754 66.0076 37.9861 66.9773 35.7664C68.8528 36.6687 70.9457 36.9162 73.0489 36.4599C76.7179 35.6632 79.6705 32.6597 80.3921 28.9859C80.9601 26.0932 80.2385 23.1464 78.4091 20.9035C76.5797 18.6605 73.883 17.374 71.002 17.374C67.1488 17.374 63.7561 19.6892 62.2516 23.1181C60.9928 22.5148 59.6316 22.2029 58.227 22.2029" stroke="white" stroke-width="3" stroke-miterlimit="10"/>
<path d="M70.9048 112.968H10.4606L10.6729 112.308L18.84 87.0656L18.9577 86.7098L22.2838 76.4386L24.8859 68.4C26.5848 63.1535 27.4445 57.742 27.4445 52.3099V46.2178C27.4445 44.9364 28.4756 43.8975 29.7472 43.8975H51.6181C52.8897 43.8975 53.9208 44.9364 53.9208 46.2178V52.3099C53.9208 57.742 54.7805 63.1561 56.4794 68.4L59.0815 76.4386L59.1967 76.7995L62.4077 86.7124L62.5228 87.0682L70.6899 112.311" stroke="white" stroke-width="3" stroke-miterlimit="10"/>
<path d="M47.4885 112.976L104 113L94.8814 89.0228L91.8469 79.6539L89.4725 72.3191C87.9245 67.5341 87.1391 62.597 87.1391 57.6419V52.0834C87.1391 50.913 86.1975 49.9668 85.0359 49.9668H65.084C63.9224 49.9668 62.9808 50.9155 62.9808 52.0834V57.6419C62.9808 62.597 62.1953 67.5341 60.6474 72.3191L59.1992 76.7973L62.4102 86.7102L62.5254 87.066" stroke="white" stroke-width="3" stroke-miterlimit="10"/>
<path d="M26.6259 62.4912H43.2951" stroke="white" stroke-width="3" stroke-miterlimit="10"/>
<path d="M27.337 56.0566H40.1019" stroke="white" stroke-width="3" stroke-miterlimit="10"/>
</svg>
