<svg width="159" height="158" viewBox="0 0 159 158" fill="none" xmlns="http://www.w3.org/2000/svg">
<path d="M59.9891 40.1426L54.668 32.058C53.8258 30.7239 52.3625 29.9155 50.7856 29.9155C49.2086 29.9155 47.7423 30.7239 46.9031 32.058L37.7611 45.9863L31.1827 56.0229V56.029C30.2329 57.48 30.1591 59.3336 30.986 60.8583C31.7268 62.2262 33.1009 63.1361 34.6502 63.2836L27.1158 74.7988C26.1537 76.2467 26.0645 78.1064 26.8884 79.6404C27.6907 81.1466 29.2584 82.0873 30.9645 82.0873H32.7997L24.7919 95.662C23.8851 97.1529 23.8666 99.0188 24.7366 100.531C25.5727 102.034 27.1589 102.963 28.8772 102.954H40.2725M119.772 71.9431L114.104 63.2836C115.653 63.1392 117.027 62.2293 117.768 60.8583C118.598 59.3336 118.527 57.48 117.583 56.0229L101.863 32.055C101.027 30.727 99.5698 29.9216 97.999 29.9155C96.4282 29.9093 94.9681 30.7024 94.1166 32.0242L88.5773 40.4347M75.5128 107.131V113.39M54.2162 107.131V113.39M101.783 74.2332L93.0284 61.1964H93.2928C95.1894 61.2026 96.9354 60.1574 97.8269 58.4851C98.7091 56.819 98.5954 54.8025 97.5287 53.2471L91.1533 44.1142L88.5773 40.4377L78.4269 25.907C77.4709 24.5083 75.8847 23.6691 74.191 23.666C72.4972 23.663 70.9079 24.4929 69.9427 25.8885M91.224 117.598L90.8705 113.393M34.1645 113.424H90.8059M90.8705 113.393C90.8705 126.273 100.218 137.33 117.187 144.532C117.703 144.748 118.287 144.748 118.804 144.532C135.782 137.33 145.126 126.273 145.126 113.393H145.13V85.1182C145.123 84.0731 144.349 83.1908 143.313 83.0556C130.036 81.2972 122.357 77.9281 118.964 76.0807C118.364 75.7456 117.633 75.7456 117.033 76.0807C113.64 77.9281 105.961 81.2942 92.6903 83.0556C91.6512 83.1878 90.8705 84.07 90.8705 85.1182V113.393ZM51.0592 82.9019L41.6282 98.4132M102.078 81.368C103.818 79.7387 103.409 76.551 102.367 74.9833L92.8747 61.1995H93.1391C95.0357 61.2056 96.7817 60.1605 97.6732 58.4882C98.5554 56.8313 98.4479 54.824 97.3904 53.2717L90.7782 43.8314L88.2084 40.1518L78.2548 25.8885C77.2926 24.4929 75.7034 23.663 74.0065 23.666C72.3128 23.6691 70.7266 24.5083 69.7706 25.907L59.6202 40.4377L57.0442 44.1142L50.8071 53.2717C49.7527 54.824 49.6421 56.8313 50.5243 58.4882C51.4158 60.1635 53.1618 61.2056 55.0584 61.1995H55.3228L45.8303 74.9833C44.7882 76.551 44.6929 78.5645 45.5844 80.2214C46.4758 81.8782 48.2096 82.908 50.0909 82.9019H51.0561L41.6251 98.4132L40.9703 99.5998C40.0635 101.091 40.0451 102.957 40.915 104.469C41.7511 105.972 43.3373 106.901 45.0557 106.891H90.7168M122.4 77.879C122.76 76.9998 122.588 76.2528 121.626 74.805L114.091 63.2898C115.641 63.1453 117.015 62.2354 117.756 60.8644" stroke="white" stroke-width="4" stroke-miterlimit="10" stroke-linecap="round" stroke-linejoin="round"/>
<path d="M107.58 109.04L113.925 116.119L129.839 97.8135" stroke="white" stroke-width="3" stroke-miterlimit="10" stroke-linecap="round" stroke-linejoin="round"/>
</svg>
