<svg width="1618" height="768" viewBox="0 0 1618 768" fill="none" xmlns="http://www.w3.org/2000/svg">
<mask id="mask0_692_932" style="mask-type:alpha" maskUnits="userSpaceOnUse" x="0" y="0" width="1618" height="768">
<rect width="1618" height="768" rx="32" fill="#006CA7"/>
</mask>
<g mask="url(#mask0_692_932)">
<mask id="mask1_692_932" style="mask-type:luminance" maskUnits="userSpaceOnUse" x="-18" y="-25" width="1649" height="895">
<path d="M1630.41 -25H-17.0332V870H1630.41V-25Z" fill="white"/>
</mask>
<g mask="url(#mask1_692_932)">
<mask id="mask2_692_932" style="mask-type:luminance" maskUnits="userSpaceOnUse" x="-95" y="70" width="968" height="968">
<path d="M730.504 895.504C919.294 706.714 919.294 400.625 730.504 211.835C541.714 23.0446 235.625 23.0445 46.8348 211.835C-141.955 400.625 -141.955 706.714 46.8348 895.504C235.625 1084.29 541.714 1084.29 730.504 895.504Z" fill="white"/>
</mask>
<g mask="url(#mask2_692_932)">
<path d="M-201.144 1002.06C-200.98 856.332 -200.817 535.551 -200.641 389.819L-136.957 430.65H-11.8807L197.909 542.564L298.836 596.406L406.565 653.871L487.082 614.337L588.008 564.798L797.798 461.814H922.875L986.559 424.244C986.722 558.345 986.886 867.495 987.061 1001.6L-201.144 1002.06Z" fill="url(#paint0_linear_692_932)"/>
<path d="M-201.144 824.057C-200.98 678.325 -200.817 357.544 -200.641 211.812L-136.957 252.644H-11.8807L197.909 364.558L298.836 418.399L406.565 475.865L487.082 436.331L588.008 386.791L797.798 283.808H922.875L986.559 246.238C986.722 380.339 986.886 689.489 987.061 823.59L-201.144 824.057Z" fill="url(#paint1_linear_692_932)"/>
<path d="M231.188 571.46H227.576V598.124H231.188V571.46Z" fill="#005267"/>
<path d="M190.149 571.46H186.537V598.124H190.149V571.46Z" fill="#005267"/>
<path d="M226.036 596.488H232.734C234.102 596.488 235.212 597.598 235.212 598.966V599.457H223.546V598.966C223.546 597.598 224.657 596.488 226.024 596.488H226.036Z" fill="#005267"/>
<path d="M184.99 596.488H191.688C193.056 596.488 194.166 597.598 194.166 598.966V599.457H182.5V598.966C182.5 597.598 183.611 596.488 184.978 596.488H184.99Z" fill="#005267"/>
<path d="M242.329 574.921H179.312L167.272 534.709H230.289L242.329 574.921Z" fill="#4091BD"/>
<path d="M232.137 552.968H215.959L211.599 538.415H227.777L232.137 552.968Z" fill="#7FB5D3"/>
<path d="M237.594 571.215H221.416L217.068 556.662H233.246L237.594 571.215Z" fill="#7FB5D3"/>
<path d="M212.332 552.968H196.154L191.794 538.415H207.972L212.332 552.968Z" fill="#7FB5D3"/>
<path d="M217.806 571.215H201.628L197.268 556.662H213.446L217.806 571.215Z" fill="#7FB5D3"/>
<path d="M192.531 552.968H176.353L172.005 538.415H188.171L192.531 552.968Z" fill="#7FB5D3"/>
<path d="M198.004 571.215H181.826L177.465 556.662H193.644L198.004 571.215Z" fill="#7FB5D3"/>
<path d="M242.328 574.921L240.411 578.486H177.393L179.31 574.921H242.328Z" fill="#005267"/>
<path d="M179.309 574.921L177.392 578.486L165.352 538.286L167.269 534.709L179.309 574.921Z" fill="#006CA7"/>
<path d="M161.345 571.46H157.733V598.077H161.345V571.46Z" fill="#005267"/>
<path d="M120.349 571.46H116.737V598.077H120.349V571.46Z" fill="#006CA7"/>
<path d="M156.19 596.44H162.876C164.244 596.44 165.354 597.551 165.354 598.919V599.41H153.712V598.919C153.712 597.551 154.822 596.44 156.19 596.44Z" fill="#005267"/>
<path d="M115.207 596.44H121.893C123.261 596.44 124.372 597.551 124.372 598.919V599.41H112.729V598.919C112.729 597.551 113.839 596.44 115.207 596.44Z" fill="#006CA7"/>
<path d="M172.45 574.897H109.538L97.5092 534.755H160.433L172.45 574.897Z" fill="#4091BD"/>
<path d="M162.267 552.98H146.123L141.775 538.45H157.918L162.267 552.98Z" fill="#7FB5D3"/>
<path d="M167.726 571.203H151.583L147.222 556.673H163.377L167.726 571.203Z" fill="#7FB5D3"/>
<path d="M142.499 552.98H126.356L122.008 538.45H138.151L142.499 552.98Z" fill="#7FB5D3"/>
<path d="M147.958 571.203H131.804L127.455 556.673H143.61L147.958 571.203Z" fill="#7FB5D3"/>
<path d="M122.733 552.98H106.59L102.229 538.45H118.384L122.733 552.98Z" fill="#7FB5D3"/>
<path d="M128.193 571.203H112.038L107.69 556.673H123.845L128.193 571.203Z" fill="#7FB5D3"/>
<path d="M172.452 574.897L170.546 578.474H107.622L109.539 574.897H172.452Z" fill="#006CA7"/>
<path d="M109.538 574.897L107.621 578.474L95.6046 538.332L97.5099 534.755L109.538 574.897Z" fill="#006CA7"/>
<path d="M91.1261 571.46H87.5142V598.077H91.1261V571.46Z" fill="#006CA7"/>
<path d="M50.1433 571.46H46.5312V598.077H50.1433V571.46Z" fill="#006CA7"/>
<path d="M85.9711 596.44H92.6574C94.025 596.44 95.1355 597.551 95.1355 598.919V599.41H83.4929V598.919C83.4929 597.551 84.6034 596.44 85.9711 596.44Z" fill="#006CA7"/>
<path d="M44.9883 596.44H51.6746C53.0423 596.44 54.1528 597.551 54.1528 598.919V599.41H42.5101V598.919C42.5101 597.551 43.6207 596.44 44.9883 596.44Z" fill="#006CA7"/>
<path d="M102.233 574.897H39.3202L27.3035 534.755H90.2159L102.233 574.897Z" fill="#4091BD"/>
<path d="M92.0614 552.98H75.9067L71.5582 538.45H87.713L92.0614 552.98Z" fill="#7FB5D3"/>
<path d="M97.5104 571.203H81.3673L77.0188 556.673H93.1619L97.5104 571.203Z" fill="#7FB5D3"/>
<path d="M72.2963 552.98H56.1415L51.7931 538.45H67.9362L72.2963 552.98Z" fill="#7FB5D3"/>
<path d="M77.7452 571.203H61.6021L57.2537 556.673H73.3967L77.7452 571.203Z" fill="#7FB5D3"/>
<path d="M52.529 552.98H36.3742L32.0258 538.45H48.1688L52.529 552.98Z" fill="#7FB5D3"/>
<path d="M57.9779 571.203H41.8348L37.4863 556.673H53.6294L57.9779 571.203Z" fill="#7FB5D3"/>
<path d="M102.231 574.897L100.325 578.474H37.4011L39.3182 574.897H102.231Z" fill="#006CA7"/>
<path d="M39.3172 574.897L37.4001 578.474L25.3834 538.332L27.3005 534.755L39.3172 574.897Z" fill="#006CA7"/>
<path d="M605.847 422.14H603.941L601.966 528.186H605.847H609.716L607.74 422.14H605.847Z" fill="#51B89F"/>
<path d="M609.983 420.317H601.695C600.631 420.317 599.766 421.486 599.766 422.935C599.766 424.385 600.631 425.553 601.695 425.553H609.983C611.046 425.553 611.911 424.385 611.911 422.935C611.911 421.486 611.046 420.317 609.983 420.317Z" fill="#51B89F"/>
<path d="M597.548 422.386C596.321 422.421 595.128 422.795 594.1 423.461L570.206 439.136C569.739 439.44 570.101 440.165 570.627 439.966L595.315 430.954C596.145 430.65 596.858 430.1 597.361 429.364C597.361 429.364 601.335 424.244 601.44 423.975L601.16 422.28L597.536 422.374L597.548 422.386Z" fill="#51B89F"/>
<path d="M611.878 424.712C611.2 424.15 610.358 423.8 609.482 423.73C609.482 423.73 603.052 422.853 602.772 422.888L601.439 423.975L603.333 427.061C603.976 428.101 604.899 428.955 605.986 429.504L631.516 442.351C632.019 442.596 632.451 441.93 632.031 441.568L611.878 424.688V424.712Z" fill="#51B89F"/>
<path d="M603.661 387.668C603.626 387.107 602.831 387.06 602.726 387.61L598.19 413.502C598.038 414.367 598.155 415.267 598.541 416.062C598.541 416.062 600.996 422.07 601.171 422.292L602.784 422.9L604.514 419.721C605.099 418.645 605.367 417.418 605.297 416.202L603.661 387.668Z" fill="#51B89F"/>
<path d="M601.695 420.317C600.631 420.317 599.766 421.486 599.766 422.935C599.766 424.385 600.631 425.553 601.695 425.553C602.759 425.553 603.624 424.385 603.624 422.935C603.624 421.486 602.759 420.317 601.695 420.317Z" fill="#51B89F"/>
<path d="M601.697 421.941C601.288 421.941 600.961 422.385 600.961 422.935C600.961 423.484 601.288 423.928 601.697 423.928C602.107 423.928 602.434 423.484 602.434 422.935C602.434 422.385 602.107 421.941 601.697 421.941Z" fill="#51B89F"/>
<path d="M601.065 420.889H600.574C599.932 420.889 597.138 421.871 597.149 422.935C597.149 423.916 600.002 424.98 600.574 424.98H601.065C601.813 424.98 602.433 424.068 602.433 422.935C602.433 421.801 601.825 420.889 601.065 420.889Z" fill="#51B89F"/>
<path fill-rule="evenodd" clip-rule="evenodd" d="M422.977 487.519C428.343 487.519 432.703 502.107 432.703 513.282C432.703 524.458 428.343 528.023 422.977 528.023C417.612 528.023 413.252 524.458 413.252 513.282C413.252 502.107 417.612 487.519 422.977 487.519Z" fill="#006CA7"/>
<path fill-rule="evenodd" clip-rule="evenodd" d="M349.593 503.615C352.831 503.615 355.449 512.406 355.449 519.139C355.449 525.872 352.819 528.023 349.593 528.023C346.366 528.023 343.736 525.872 343.736 519.139C343.736 512.406 346.366 503.615 349.593 503.615Z" fill="#006CA7"/>
<path fill-rule="evenodd" clip-rule="evenodd" d="M797.282 494.965C801.666 494.965 805.219 506.865 805.219 515.994C805.219 525.112 801.666 528.023 797.282 528.023C792.898 528.023 789.345 525.112 789.345 515.994C789.345 506.876 792.898 494.965 797.282 494.965Z" fill="#006CA7"/>
<path fill-rule="evenodd" clip-rule="evenodd" d="M677.386 453.351C680.624 453.351 683.242 462.141 683.242 468.874C683.242 475.607 680.612 477.758 677.386 477.758C674.148 477.758 671.529 475.607 671.529 468.874C671.529 462.141 674.159 453.351 677.386 453.351Z" fill="#006CA7"/>
<path fill-rule="evenodd" clip-rule="evenodd" d="M755.728 308.904C758.966 308.904 761.584 317.694 761.584 324.428C761.584 331.161 758.954 333.312 755.728 333.312C752.502 333.312 749.871 331.161 749.871 324.428C749.871 317.694 752.502 308.904 755.728 308.904Z" fill="#006CA7"/>
<path fill-rule="evenodd" clip-rule="evenodd" d="M852.363 396.166C855.601 396.166 858.22 404.956 858.22 411.689C858.22 418.422 855.59 420.573 852.363 420.573C849.137 420.573 846.507 418.422 846.507 411.689C846.507 404.956 849.125 396.166 852.363 396.166Z" fill="#006CA7"/>
<path d="M760.695 422.14H758.802L756.826 528.186H760.695H764.576L762.601 422.14H760.695Z" fill="#006CA7"/>
<path d="M764.845 420.317H756.557C755.494 420.317 754.629 421.486 754.629 422.935C754.629 424.385 755.494 425.553 756.557 425.553H764.845C765.909 425.553 766.774 424.385 766.774 422.935C766.774 421.486 765.909 420.317 764.845 420.317Z" fill="#006CA7"/>
<path d="M752.408 422.386C751.181 422.421 749.988 422.795 748.96 423.461L725.067 439.136C724.599 439.44 724.962 440.165 725.488 439.966L750.176 430.954C751.006 430.65 751.719 430.1 752.221 429.364C752.221 429.364 756.196 424.244 756.301 423.975L756.02 422.28L752.397 422.374L752.408 422.386Z" fill="#006CA7"/>
<path d="M766.74 424.712C766.062 424.15 765.221 423.8 764.344 423.73C764.344 423.73 757.915 422.853 757.634 422.888L756.302 423.975L758.195 427.061C758.838 428.101 759.762 428.955 760.849 429.504L786.379 442.351C786.881 442.596 787.314 441.93 786.893 441.568L766.74 424.688V424.712Z" fill="#006CA7"/>
<path d="M758.51 387.668C758.475 387.107 757.68 387.06 757.575 387.61L753.04 413.502C752.888 414.367 753.005 415.267 753.39 416.062C753.39 416.062 755.845 422.07 756.02 422.292L757.634 422.9L759.364 419.721C759.948 418.645 760.217 417.418 760.147 416.202L758.51 387.668Z" fill="#006CA7"/>
<path d="M756.557 420.317C755.494 420.317 754.629 421.486 754.629 422.935C754.629 424.385 755.494 425.553 756.557 425.553C757.621 425.553 758.486 424.385 758.486 422.935C758.486 421.486 757.621 420.317 756.557 420.317Z" fill="#006CA7"/>
<path d="M756.558 421.941C756.149 421.941 755.821 422.385 755.821 422.935C755.821 423.484 756.149 423.928 756.558 423.928C756.967 423.928 757.294 423.484 757.294 422.935C757.294 422.385 756.967 421.941 756.558 421.941Z" fill="#006CA7"/>
<path d="M755.917 420.889H755.426C754.783 420.889 751.989 421.871 752.001 422.935C752.001 423.916 754.853 424.98 755.426 424.98H755.917C756.665 424.98 757.285 424.068 757.285 422.935C757.285 421.801 756.677 420.889 755.917 420.889Z" fill="#006CA7"/>
<path d="M858.749 227.266H856.855L854.868 333.312H858.749H862.63L860.654 227.266H858.749Z" fill="#006CA7"/>
<path d="M862.894 225.454H854.606C853.542 225.454 852.677 226.623 852.677 228.073C852.677 229.522 853.542 230.691 854.606 230.691H862.894C863.958 230.691 864.823 229.522 864.823 228.073C864.823 226.623 863.958 225.454 862.894 225.454Z" fill="#006CA7"/>
<path d="M850.459 227.523C849.232 227.559 848.039 227.933 847.011 228.599L823.118 244.286C822.65 244.59 823.012 245.315 823.538 245.116L848.226 236.103C849.056 235.8 849.769 235.25 850.272 234.514C850.272 234.514 854.246 229.394 854.352 229.125L854.071 227.43L850.447 227.523H850.459Z" fill="#006CA7"/>
<path d="M864.789 229.849C864.111 229.288 863.269 228.937 862.393 228.867C862.393 228.867 855.963 227.991 855.683 228.026L854.35 229.113L856.244 232.199C856.887 233.239 857.81 234.092 858.898 234.642L884.427 247.489C884.93 247.734 885.362 247.068 884.941 246.705L864.789 229.826V229.849Z" fill="#006CA7"/>
<path d="M856.561 192.794C856.526 192.233 855.731 192.186 855.626 192.735L851.09 218.627C850.938 219.492 851.055 220.392 851.441 221.187C851.441 221.187 853.896 227.196 854.071 227.418L855.684 228.026L857.414 224.846C857.999 223.771 858.268 222.543 858.198 221.328L856.561 192.794Z" fill="#006CA7"/>
<path d="M854.597 225.454C853.534 225.454 852.669 226.623 852.669 228.073C852.669 229.522 853.534 230.691 854.597 230.691C855.661 230.691 856.526 229.522 856.526 228.073C856.526 226.623 855.661 225.454 854.597 225.454Z" fill="#006CA7"/>
<path d="M854.598 227.078C854.188 227.078 853.861 227.522 853.861 228.072C853.861 228.621 854.188 229.065 854.598 229.065C855.007 229.065 855.334 228.621 855.334 228.072C855.334 227.522 855.007 227.078 854.598 227.078Z" fill="#006CA7"/>
<path d="M853.966 226.016H853.475C852.832 226.016 850.038 226.998 850.05 228.061C850.05 229.043 852.902 230.107 853.475 230.107H853.966C854.714 230.107 855.333 229.195 855.333 228.061C855.333 226.927 854.725 226.016 853.966 226.016Z" fill="#006CA7"/>
<path d="M713.752 243.373H711.847L709.871 349.419H713.752H717.633L715.646 243.373H713.752Z" fill="#006CA7"/>
<path d="M717.902 241.562H709.614C708.55 241.562 707.685 242.731 707.685 244.18C707.685 245.63 708.55 246.799 709.614 246.799H717.902C718.965 246.799 719.83 245.63 719.83 244.18C719.83 242.731 718.965 241.562 717.902 241.562Z" fill="#006CA7"/>
<path d="M705.451 243.631C704.224 243.666 703.032 244.04 702.003 244.707L678.11 260.394C677.642 260.698 678.005 261.422 678.531 261.224L703.219 252.211C704.049 251.907 704.762 251.358 705.264 250.621C705.264 250.621 709.239 245.501 709.344 245.233L709.063 243.538L705.44 243.631H705.451Z" fill="#006CA7"/>
<path d="M719.795 245.958C719.117 245.397 718.275 245.046 717.398 244.976C717.398 244.976 710.969 244.099 710.689 244.134L709.356 245.222L711.25 248.307C711.893 249.348 712.816 250.201 713.903 250.751L739.433 263.597C739.935 263.843 740.368 263.176 739.947 262.814L719.795 245.935V245.958Z" fill="#006CA7"/>
<path d="M711.564 208.901C711.529 208.34 710.734 208.294 710.629 208.843L706.094 234.735C705.942 235.6 706.059 236.5 706.445 237.295C706.445 237.295 708.899 243.303 709.075 243.525L710.688 244.133L712.418 240.954C713.002 239.878 713.271 238.651 713.201 237.435L711.564 208.901Z" fill="#006CA7"/>
<path d="M709.601 241.562C708.537 241.562 707.672 242.731 707.672 244.18C707.672 245.63 708.537 246.799 709.601 246.799C710.664 246.799 711.529 245.63 711.529 244.18C711.529 242.731 710.664 241.562 709.601 241.562Z" fill="#006CA7"/>
<path d="M709.603 243.187C709.194 243.187 708.867 243.631 708.867 244.181C708.867 244.73 709.194 245.174 709.603 245.174C710.012 245.174 710.34 244.73 710.34 244.181C710.34 243.631 710.012 243.187 709.603 243.187Z" fill="#006CA7"/>
<path d="M708.971 242.135H708.48C707.837 242.135 705.044 243.117 705.055 244.181C705.055 245.163 707.907 246.227 708.48 246.227H708.971C709.719 246.227 710.339 245.315 710.339 244.181C710.339 243.047 709.731 242.135 708.971 242.135Z" fill="#006CA7"/>
<path d="M178.059 424.092H179.964L181.94 530.138H178.059H174.178L176.154 424.092H178.059Z" fill="#006CA7"/>
<path d="M173.91 422.28H182.197C183.261 422.28 184.126 423.449 184.126 424.899C184.126 426.348 183.261 427.517 182.197 427.517H173.91C172.846 427.517 171.981 426.348 171.981 424.899C171.981 423.449 172.846 422.28 173.91 422.28Z" fill="#006CA7"/>
<path d="M186.349 424.349C187.576 424.384 188.769 424.758 189.797 425.425L213.691 441.1C214.158 441.404 213.796 442.129 213.27 441.93L188.582 432.917C187.752 432.613 187.039 432.064 186.536 431.328C186.536 431.328 182.562 426.208 182.456 425.939L182.737 424.244L186.361 424.337L186.349 424.349Z" fill="#006CA7"/>
<path d="M172.018 426.676C172.696 426.115 173.538 425.764 174.415 425.694C174.415 425.694 180.844 424.817 181.124 424.852L182.457 425.939L180.563 429.025C179.92 430.066 178.997 430.919 177.91 431.468L152.38 444.315C151.877 444.56 151.445 443.894 151.866 443.532L172.018 426.652V426.676Z" fill="#006CA7"/>
<path d="M180.249 389.62C180.284 389.059 181.079 389.012 181.184 389.561L185.719 415.453C185.871 416.319 185.754 417.219 185.369 418.013C185.369 418.013 182.914 424.022 182.738 424.244L181.125 424.852L179.395 421.672C178.811 420.597 178.542 419.369 178.612 418.154L180.249 389.62Z" fill="#006CA7"/>
<path d="M182.212 422.28C183.276 422.28 184.141 423.449 184.141 424.899C184.141 426.348 183.276 427.517 182.212 427.517C181.148 427.517 180.283 426.348 180.283 424.899C180.283 423.449 181.148 422.28 182.212 422.28Z" fill="#006CA7"/>
<path d="M182.21 423.905C182.619 423.905 182.946 424.349 182.946 424.898C182.946 425.448 182.619 425.892 182.21 425.892C181.801 425.892 181.474 425.448 181.474 424.898C181.474 424.349 181.801 423.905 182.21 423.905Z" fill="#006CA7"/>
<path d="M182.841 422.841H183.332C183.975 422.841 186.769 423.823 186.757 424.887C186.757 425.869 183.905 426.932 183.332 426.932H182.841C182.093 426.932 181.474 426.021 181.474 424.887C181.474 423.753 182.081 422.841 182.841 422.841Z" fill="#006CA7"/>
<path d="M120.784 266.566H122.678L124.653 372.612H120.784H116.903L118.879 266.566H120.784Z" fill="#006CA7"/>
<path d="M116.632 264.743H124.92C125.984 264.743 126.849 265.912 126.849 267.361C126.849 268.811 125.984 269.98 124.92 269.98H116.632C115.568 269.98 114.703 268.811 114.703 267.361C114.703 265.912 115.568 264.743 116.632 264.743Z" fill="#006CA7"/>
<path d="M129.07 266.811C130.297 266.846 131.489 267.22 132.518 267.886L156.411 283.562C156.879 283.866 156.516 284.591 155.99 284.392L131.302 275.379C130.472 275.075 129.759 274.526 129.257 273.79C129.257 273.79 125.282 268.67 125.177 268.401L125.457 266.706L129.081 266.799L129.07 266.811Z" fill="#006CA7"/>
<path d="M114.737 269.137C115.415 268.576 116.256 268.225 117.133 268.155C117.133 268.155 123.562 267.278 123.843 267.314L125.175 268.401L123.282 271.487C122.639 272.527 121.715 273.38 120.628 273.93L95.0985 286.776C94.5958 287.022 94.1633 286.356 94.5841 285.993L114.737 269.114V269.137Z" fill="#006CA7"/>
<path d="M122.958 232.094C122.993 231.532 123.788 231.486 123.893 232.035L128.429 257.927C128.581 258.792 128.464 259.692 128.078 260.487C128.078 260.487 125.623 266.495 125.448 266.718L123.835 267.325L122.105 264.146C121.52 263.07 121.252 261.843 121.322 260.627L122.958 232.094Z" fill="#006CA7"/>
<path d="M124.921 264.743C125.985 264.743 126.85 265.912 126.85 267.361C126.85 268.811 125.985 269.98 124.921 269.98C123.858 269.98 122.993 268.811 122.993 267.361C122.993 265.912 123.858 264.743 124.921 264.743Z" fill="#006CA7"/>
<path d="M124.92 266.367C125.329 266.367 125.656 266.811 125.656 267.361C125.656 267.91 125.329 268.354 124.92 268.354C124.51 268.354 124.183 267.91 124.183 267.361C124.183 266.811 124.51 266.367 124.92 266.367Z" fill="#006CA7"/>
<path d="M125.551 265.314H126.042C126.685 265.314 129.478 266.296 129.467 267.36C129.467 268.342 126.614 269.406 126.042 269.406H125.551C124.803 269.406 124.183 268.494 124.183 267.36C124.183 266.226 124.791 265.314 125.551 265.314Z" fill="#006CA7"/>
<path d="M23.2001 424.092H25.1055L27.081 530.138H23.2001H19.3309L21.3064 424.092H23.2001Z" fill="#006CA7"/>
<path d="M19.0623 422.28H27.3501C28.4138 422.28 29.2789 423.449 29.2789 424.899C29.2789 426.348 28.4138 427.517 27.3501 427.517H19.0623C17.9986 427.517 17.1335 426.348 17.1335 424.899C17.1335 423.449 17.9986 422.28 19.0623 422.28Z" fill="#006CA7"/>
<path d="M31.4975 424.349C32.7248 424.384 33.9171 424.758 34.9458 425.425L58.839 441.1C59.3065 441.404 58.9442 442.129 58.4182 441.93L33.7301 432.917C32.9002 432.613 32.1871 432.064 31.6845 431.328C31.6845 431.328 27.7101 426.208 27.6049 425.939L27.8854 424.244L31.5091 424.337L31.4975 424.349Z" fill="#006CA7"/>
<path d="M17.1668 426.676C17.8448 426.115 18.6864 425.764 19.5631 425.694C19.5631 425.694 25.9923 424.817 26.2728 424.852L27.6054 425.939L25.7117 429.025C25.0688 430.066 24.1454 430.919 23.0582 431.468L-2.47142 444.315C-2.97407 444.56 -3.40658 443.894 -2.98576 443.532L17.1668 426.652V426.676Z" fill="#006CA7"/>
<path d="M25.3862 389.62C25.4213 389.059 26.2162 389.012 26.3214 389.561L30.8568 415.453C31.0088 416.319 30.8919 417.219 30.5062 418.013C30.5062 418.013 28.0514 424.022 27.876 424.244L26.2629 424.852L24.5329 421.672C23.9484 420.597 23.6795 419.369 23.7497 418.154L25.3862 389.62Z" fill="#006CA7"/>
<path d="M27.3494 422.28C28.4131 422.28 29.2782 423.449 29.2782 424.899C29.2782 426.348 28.4131 427.517 27.3494 427.517C26.2857 427.517 25.4207 426.348 25.4207 424.899C25.4207 423.449 26.2857 422.28 27.3494 422.28Z" fill="#006CA7"/>
<path d="M27.3496 423.905C27.7587 423.905 28.086 424.349 28.086 424.898C28.086 425.448 27.7587 425.892 27.3496 425.892C26.9404 425.892 26.6132 425.448 26.6132 424.898C26.6132 424.349 26.9404 423.905 27.3496 423.905Z" fill="#006CA7"/>
<path d="M27.9808 422.841H28.4718C29.1147 422.841 31.9084 423.823 31.8968 424.887C31.8968 425.869 29.0446 426.932 28.4718 426.932H27.9808C27.2327 426.932 26.6132 426.021 26.6132 424.887C26.6132 423.753 27.221 422.841 27.9808 422.841Z" fill="#006CA7"/>
<path fill-rule="evenodd" clip-rule="evenodd" d="M360.917 489.471C355.551 489.471 351.191 504.06 351.191 515.235C351.191 526.41 355.551 529.975 360.917 529.975C366.282 529.975 370.642 526.41 370.642 515.235C370.642 504.06 366.282 489.471 360.917 489.471Z" fill="#006CA7"/>
<path fill-rule="evenodd" clip-rule="evenodd" d="M434.302 505.567C431.064 505.567 428.445 514.358 428.445 521.091C428.445 527.824 431.076 529.975 434.302 529.975C437.54 529.975 440.158 527.824 440.158 521.091C440.158 514.358 437.528 505.567 434.302 505.567Z" fill="#006CA7"/>
<path fill-rule="evenodd" clip-rule="evenodd" d="M106.522 455.303C103.284 455.303 100.665 464.094 100.665 470.827C100.665 477.56 103.296 479.711 106.522 479.711C109.76 479.711 112.378 477.56 112.378 470.827C112.378 464.094 109.748 455.303 106.522 455.303Z" fill="#006CA7"/>
<path fill-rule="evenodd" clip-rule="evenodd" d="M28.1798 310.856C24.9418 310.856 22.3234 319.647 22.3234 326.38C22.3234 333.113 24.9535 335.264 28.1798 335.264C31.406 335.264 34.0361 333.113 34.0361 326.38C34.0361 319.647 31.406 310.856 28.1798 310.856Z" fill="#006CA7"/>
<path d="M883.691 712.727V1036.65H-67.8268V712.727H-49.2523C-36.4407 687.139 -23.6408 661.504 -10.8526 635.916C0.334164 613.554 23.1753 599.422 48.1672 599.422H91.5583L576.026 599.738V599.422H757.504C782.496 599.422 805.349 613.554 816.524 635.916C829.324 661.504 842.112 687.139 854.924 712.727H883.68H883.691Z" fill="url(#paint2_linear_692_932)"/>
<path d="M416.874 599.258H411.906L424.344 579.597H429.242L416.874 599.258Z" fill="#006CA7"/>
<path d="M432.866 599.258H437.834L429.278 579.597H424.391L432.866 599.258Z" fill="#006CA7"/>
<path d="M438.42 599.258H433.452L445.562 579.597H450.46L438.42 599.258Z" fill="#006CA7"/>
<path d="M454.409 599.258H459.377L450.505 579.597H445.607L454.409 599.258Z" fill="#006CA7"/>
<path d="M459.963 599.258H454.995L466.789 579.597H471.676L459.963 599.258Z" fill="#006CA7"/>
<path d="M475.953 599.258H480.921L471.722 579.597H466.836L475.953 599.258Z" fill="#006CA7"/>
<path d="M481.506 599.258H476.538L488.005 579.597H492.891L481.506 599.258Z" fill="#006CA7"/>
<path d="M497.496 599.258H502.464L492.937 579.597H488.051L497.496 599.258Z" fill="#006CA7"/>
<path d="M503.047 599.258H498.079L509.219 579.597H514.117L503.047 599.258Z" fill="#006CA7"/>
<path d="M519.041 599.258H524.009L514.155 579.597H509.269L519.041 599.258Z" fill="#006CA7"/>
<path d="M524.594 599.258H519.626L530.439 579.597H535.337L524.594 599.258Z" fill="#006CA7"/>
<path d="M540.586 599.258H545.554L535.384 579.597H530.486L540.586 599.258Z" fill="#006CA7"/>
<path d="M546.135 599.258H541.167L551.665 579.597H556.551L546.135 599.258Z" fill="#006CA7"/>
<path d="M562.128 599.258H567.096L556.599 579.597H551.713L562.128 599.258Z" fill="#006CA7"/>
<path d="M567.679 599.258H562.711L572.88 579.597H577.766L567.679 599.258Z" fill="#006CA7"/>
<path d="M583.673 599.258H588.641L577.817 579.597H572.931L583.673 599.258Z" fill="#006CA7"/>
<path d="M589.224 599.258H584.256L594.098 579.597H598.996L589.224 599.258Z" fill="#006CA7"/>
<path d="M605.214 599.258H610.182L599.042 579.597H594.144L605.214 599.258Z" fill="#006CA7"/>
<path d="M610.769 599.258H605.801L615.328 579.597H620.214L610.769 599.258Z" fill="#006CA7"/>
<path d="M626.759 599.258H631.727L620.26 579.597H615.362L626.759 599.258Z" fill="#006CA7"/>
<path d="M632.31 599.258H627.342L636.542 579.597H641.428L632.31 599.258Z" fill="#006CA7"/>
<path d="M648.301 599.258H653.269L641.474 579.597H636.588L648.301 599.258Z" fill="#006CA7"/>
<path d="M653.856 599.258H648.888L657.76 579.597H662.646L653.856 599.258Z" fill="#006CA7"/>
<path d="M669.846 599.258H674.814L662.692 579.597H657.806L669.846 599.258Z" fill="#006CA7"/>
<path d="M675.385 599.258H670.428L678.973 579.597H683.871L675.385 599.258Z" fill="#006CA7"/>
<path d="M691.393 599.258H696.361L683.923 579.597H679.026L691.393 599.258Z" fill="#006CA7"/>
<path d="M684.433 579.597H424.18C466.834 507.134 480.569 388.101 481.352 357.861C482.112 328.24 483.281 282.733 483.281 282.733H625.319C625.319 282.733 626.488 328.24 627.248 357.861C628.031 388.101 641.766 507.134 684.421 579.597H684.433Z" fill="#4091BD"/>
<path d="M595.862 579.597H466.822C496.081 507.134 505.479 388.101 506.017 357.86C506.543 328.228 507.338 282.721 507.338 282.721H577.778C577.778 282.721 578.129 328.216 578.363 357.86C578.608 388.101 582.805 507.134 595.862 579.597Z" fill="#7FB5D3"/>
<path d="M19.5032 650.271L1.12744 725.609L51.4972 731.08L31.9875 650.282C30.386 643.631 21.1397 643.619 19.5149 650.271H19.5032Z" fill="#7FB5D3"/>
<path d="M25.7717 663.737C25.1756 663.737 24.6846 664.216 24.6846 664.824V733.277C24.6846 733.873 25.1639 734.364 25.7717 734.364C26.3796 734.364 26.8588 733.885 26.8588 733.277V664.824C26.8588 664.228 26.3796 663.737 25.7717 663.737Z" fill="#006CA7"/>
<path d="M34.6209 685.97L26.8475 693.907V685.771C26.8475 685.561 26.789 685.362 26.6838 685.187L19.8455 674.398C19.5299 673.895 18.8519 673.743 18.3493 674.059C17.8466 674.374 17.6947 675.052 18.0103 675.555L24.6733 686.087V696.572C24.6733 697.017 24.9421 697.414 25.3512 697.578C25.4798 697.636 25.6201 697.66 25.7604 697.66C26.0409 697.66 26.3215 697.543 26.5319 697.332L36.1639 687.49C36.5848 687.057 36.5731 686.379 36.1522 685.958C35.7197 685.538 35.0417 685.549 34.6209 685.97Z" fill="#006CA7"/>
<path d="M469.991 602.975C464.263 602.975 459.143 605.511 455.578 609.533C455.239 598.848 446.682 590.292 436.15 590.292C433.216 590.292 430.445 590.97 427.956 592.162C427.956 592.022 427.979 591.882 427.979 591.73C427.979 580.742 419.27 571.846 408.528 571.846C404.144 571.846 400.111 573.342 396.862 575.844C395.856 565.826 387.58 558.017 377.504 558.017C372.524 558.017 368.001 559.946 364.564 563.079C361.712 555.726 354.698 550.513 346.492 550.513C336.24 550.513 327.871 558.613 327.111 568.888C324.2 567.112 320.81 566.071 317.163 566.071C306.421 566.071 297.712 574.979 297.712 585.955V622.847H489.454C489.454 611.859 480.745 602.963 470.002 602.963L469.991 602.975Z" fill="#006CA7"/>
<path d="M134.343 732.249V775.652H-38.1924C-41.594 766.499 -44.7034 757.194 -47.5439 747.772C-43.4527 741.472 -36.4741 737.334 -28.5253 737.334C-25.0769 737.334 -21.8156 738.14 -18.8698 739.543C-18.8815 739.379 -18.9049 739.216 -18.9049 739.029C-18.9049 726.112 -8.66499 715.638 3.97126 715.638C9.13798 715.638 13.8722 717.403 17.6947 720.337C18.887 708.554 28.6359 699.355 40.4656 699.355C46.322 699.355 51.6524 701.634 55.6969 705.328C58.8764 697.134 66.4512 691.207 75.4637 690.599C75.9781 690.564 76.469 690.553 76.9834 690.553C89.0234 690.553 98.8893 700.091 99.7777 712.178C103.062 710.168 106.873 708.964 110.976 708.882C111.14 708.87 111.303 708.87 111.467 708.87C124.103 708.87 134.343 719.344 134.343 732.261V732.249Z" fill="#BFDAE9"/>
<path d="M138.796 545.86L166.628 623.01H325.487L297.666 545.86H138.796Z" fill="#006CA7"/>
<path d="M150.835 545.86L178.656 623.01H188.428L160.608 545.86H150.835Z" fill="#BFDAE9"/>
<path d="M276.401 545.86L304.221 623.01H313.994L286.173 545.86H276.401Z" fill="#BFDAE9"/>
<path d="M175.945 545.86L203.766 623.01H213.55L185.718 545.86H175.945Z" fill="#BFDAE9"/>
<path d="M201.055 545.86L228.888 623.01H238.66L210.839 545.86H201.055Z" fill="#BFDAE9"/>
<path d="M226.174 545.86L253.995 623.01H263.767L235.946 545.86H226.174Z" fill="#BFDAE9"/>
<path d="M251.282 545.86L279.114 623.01H288.887L261.066 545.86H251.282Z" fill="#BFDAE9"/>
<path d="M166.628 623.022V775.663H110.975V623.022L138.796 545.86L166.628 623.022Z" fill="white"/>
<path d="M325.484 623.011H166.625V775.651H325.484V623.011Z" fill="#006CA7"/>
<path d="M367.163 664.532V775.651H214.37V664.532H269.93C277.902 654.981 285.886 645.443 293.858 635.893C304.402 645.443 314.946 654.981 325.49 664.532H367.151H367.163Z" fill="white"/>
<path d="M478.277 664.531V775.663H367.158V664.531L422.718 608.972L478.277 664.531Z" fill="#7FB5D3"/>
<path d="M214.37 664.531H367.163C385.679 646.015 404.206 627.488 422.723 608.972H273.776C253.974 627.488 234.172 646.015 214.37 664.531Z" fill="#4091BD"/>
<path d="M353.263 636.746C344.016 646.016 334.746 655.262 325.488 664.532C314.945 654.981 304.401 645.443 293.857 635.893C313.659 636.173 333.461 636.454 353.263 636.746Z" fill="#006CA7"/>
<path d="M394.34 692.306H388.507V698.268H394.34V692.306Z" fill="#006CA7"/>
<path d="M394.34 710.214H388.507V716.175H394.34V710.214Z" fill="#006CA7"/>
<path d="M394.34 728.11H388.507V734.072H394.34V728.11Z" fill="#006CA7"/>
<path d="M394.34 746.007H388.507V751.968H394.34V746.007Z" fill="#006CA7"/>
<path d="M411.851 692.306H406.018V698.268H411.851V692.306Z" fill="#006CA7"/>
<path d="M411.851 710.214H406.018V716.175H411.851V710.214Z" fill="#006CA7"/>
<path d="M411.851 728.11H406.018V734.072H411.851V728.11Z" fill="#006CA7"/>
<path d="M411.851 746.007H406.018V751.968H411.851V746.007Z" fill="#006CA7"/>
<path d="M429.362 692.306H423.529V698.268H429.362V692.306Z" fill="#006CA7"/>
<path d="M429.362 710.214H423.529V716.175H429.362V710.214Z" fill="#006CA7"/>
<path d="M429.362 728.11H423.529V734.072H429.362V728.11Z" fill="#006CA7"/>
<path d="M429.362 746.007H423.529V751.968H429.362V746.007Z" fill="#006CA7"/>
<path d="M446.871 692.306H441.038V698.268H446.871V692.306Z" fill="#006CA7"/>
<path d="M446.871 710.214H441.038V716.175H446.871V710.214Z" fill="#006CA7"/>
<path d="M446.871 728.11H441.038V734.072H446.871V728.11Z" fill="#006CA7"/>
<path d="M446.871 746.007H441.038V751.968H446.871V746.007Z" fill="#006CA7"/>
<path d="M464.382 692.306H458.549V698.268H464.382V692.306Z" fill="#006CA7"/>
<path d="M464.382 710.214H458.549V716.175H464.382V710.214Z" fill="#006CA7"/>
<path d="M464.382 728.11H458.549V734.072H464.382V728.11Z" fill="#006CA7"/>
<path d="M464.382 746.007H458.549V751.968H464.382V746.007Z" fill="#006CA7"/>
<path d="M235.723 693.462H228.253V713.989H235.723V693.462Z" fill="#006CA7"/>
<path d="M266.162 693.462H258.693V713.989H266.162V693.462Z" fill="#006CA7"/>
<path d="M296.602 693.462H289.132V713.989H296.602V693.462Z" fill="#006CA7"/>
<path d="M327.042 693.462H319.572V713.989H327.042V693.462Z" fill="#006CA7"/>
<path d="M357.481 693.462H350.012V713.989H357.481V693.462Z" fill="#006CA7"/>
<path d="M235.723 729.724H228.253V750.25H235.723V729.724Z" fill="#006CA7"/>
<path d="M266.162 729.724H258.693V750.25H266.162V729.724Z" fill="#006CA7"/>
<path d="M296.602 729.724H289.132V750.25H296.602V729.724Z" fill="#006CA7"/>
<path d="M327.042 729.724H319.572V750.25H327.042V729.724Z" fill="#006CA7"/>
<path d="M357.481 729.724H350.012V750.25H357.481V729.724Z" fill="#006CA7"/>
<path d="M235.723 711.593H228.253V713.908H235.723V711.593Z" fill="#006CA7"/>
<path d="M266.162 711.593H258.693V713.908H266.162V711.593Z" fill="#006CA7"/>
<path d="M296.602 711.593H289.132V713.908H296.602V711.593Z" fill="#006CA7"/>
<path d="M327.042 711.593H319.572V713.908H327.042V711.593Z" fill="#006CA7"/>
<path d="M357.481 711.593H350.012V713.908H357.481V711.593Z" fill="#006CA7"/>
<path d="M235.723 747.854H228.253V750.168H235.723V747.854Z" fill="#006CA7"/>
<path d="M266.162 747.854H258.693V750.168H266.162V747.854Z" fill="#006CA7"/>
<path d="M296.602 747.854H289.132V750.168H296.602V747.854Z" fill="#006CA7"/>
<path d="M327.042 747.854H319.572V750.168H327.042V747.854Z" fill="#006CA7"/>
<path d="M357.481 747.854H350.012V750.168H357.481V747.854Z" fill="#006CA7"/>
<path d="M561.625 663.948H631.761L596.693 622.275L561.625 663.948Z" fill="#006CA7"/>
<path d="M596.693 622.275L631.761 663.948H742.191L707.123 622.275H596.693Z" fill="#006CA7"/>
<path d="M630.125 663.947H561.625V775.651H630.125V663.947Z" fill="#006CA7"/>
<path d="M742.205 663.947H630.127V775.651H742.205V663.947Z" fill="#7FB5D3"/>
<path d="M649.461 677.834H644.96V682.428H649.461V677.834Z" fill="#006CA7"/>
<path d="M649.461 691.628H644.96V696.222H649.461V691.628Z" fill="#006CA7"/>
<path d="M649.461 705.41H644.96V710.004H649.461V705.41Z" fill="#006CA7"/>
<path d="M649.461 719.191H644.96V723.785H649.461V719.191Z" fill="#006CA7"/>
<path d="M649.461 732.974H644.96V737.568H649.461V732.974Z" fill="#006CA7"/>
<path d="M662.946 677.834H658.446V682.428H662.946V677.834Z" fill="#006CA7"/>
<path d="M662.946 691.628H658.446V696.222H662.946V691.628Z" fill="#006CA7"/>
<path d="M662.946 705.41H658.446V710.004H662.946V705.41Z" fill="#006CA7"/>
<path d="M662.946 719.191H658.446V723.785H662.946V719.191Z" fill="#006CA7"/>
<path d="M662.946 732.974H658.446V737.568H662.946V732.974Z" fill="#006CA7"/>
<path d="M676.438 677.834H671.938V682.428H676.438V677.834Z" fill="#006CA7"/>
<path d="M676.438 691.628H671.938V696.222H676.438V691.628Z" fill="#006CA7"/>
<path d="M676.438 705.41H671.938V710.004H676.438V705.41Z" fill="#006CA7"/>
<path d="M676.438 719.191H671.938V723.785H676.438V719.191Z" fill="#006CA7"/>
<path d="M676.438 732.974H671.938V737.568H676.438V732.974Z" fill="#006CA7"/>
<path d="M689.926 677.834H685.425V682.428H689.926V677.834Z" fill="#006CA7"/>
<path d="M689.926 691.628H685.425V696.222H689.926V691.628Z" fill="#006CA7"/>
<path d="M689.926 705.41H685.425V710.004H689.926V705.41Z" fill="#006CA7"/>
<path d="M689.926 719.191H685.425V723.785H689.926V719.191Z" fill="#006CA7"/>
<path d="M689.926 732.974H685.425V737.568H689.926V732.974Z" fill="#006CA7"/>
<path d="M703.407 677.834H698.907V682.428H703.407V677.834Z" fill="#006CA7"/>
<path d="M703.407 691.628H698.907V696.222H703.407V691.628Z" fill="#006CA7"/>
<path d="M703.407 705.41H698.907V710.004H703.407V705.41Z" fill="#006CA7"/>
<path d="M703.407 719.191H698.907V723.785H703.407V719.191Z" fill="#006CA7"/>
<path d="M703.407 732.974H698.907V737.568H703.407V732.974Z" fill="#006CA7"/>
<path d="M716.897 677.834H712.396V682.428H716.897V677.834Z" fill="#006CA7"/>
<path d="M716.897 691.628H712.396V696.222H716.897V691.628Z" fill="#006CA7"/>
<path d="M716.897 705.41H712.396V710.004H716.897V705.41Z" fill="#006CA7"/>
<path d="M716.897 719.191H712.396V723.785H716.897V719.191Z" fill="#006CA7"/>
<path d="M716.897 732.974H712.396V737.568H716.897V732.974Z" fill="#006CA7"/>
<path d="M730.387 677.834H725.886V682.428H730.387V677.834Z" fill="#006CA7"/>
<path d="M730.387 691.628H725.886V696.222H730.387V691.628Z" fill="#006CA7"/>
<path d="M730.387 705.41H725.886V710.004H730.387V705.41Z" fill="#006CA7"/>
<path d="M730.387 719.191H725.886V723.785H730.387V719.191Z" fill="#006CA7"/>
<path d="M730.387 732.974H725.886V737.568H730.387V732.974Z" fill="#006CA7"/>
<path d="M649.461 746.767H644.96V751.361H649.461V746.767Z" fill="#006CA7"/>
<path d="M662.946 746.767H658.446V751.361H662.946V746.767Z" fill="#006CA7"/>
<path d="M676.438 746.767H671.938V751.361H676.438V746.767Z" fill="#006CA7"/>
<path d="M689.926 746.767H685.425V751.361H689.926V746.767Z" fill="#006CA7"/>
<path d="M703.407 746.767H698.907V751.361H703.407V746.767Z" fill="#006CA7"/>
<path d="M716.897 746.767H712.396V751.361H716.897V746.767Z" fill="#006CA7"/>
<path d="M730.387 746.767H725.886V751.361H730.387V746.767Z" fill="#006CA7"/>
<path d="M694.569 622.275L729.637 663.948H733.144L698.075 622.275H694.569Z" fill="#7FB5D3"/>
<path d="M679.77 622.275L714.839 663.948H718.334L683.266 622.275H679.77Z" fill="#7FB5D3"/>
<path d="M664.961 622.275L700.03 663.948H703.536L668.468 622.275H664.961Z" fill="#7FB5D3"/>
<path d="M650.161 622.275L685.229 663.948H688.724L653.656 622.275H650.161Z" fill="#7FB5D3"/>
<path d="M635.35 622.275L670.418 663.948H673.925L638.856 622.275H635.35Z" fill="#7FB5D3"/>
<path d="M620.554 622.275L655.622 663.948H659.117L624.049 622.275H620.554Z" fill="#7FB5D3"/>
<path d="M605.74 622.275L640.808 663.948H644.315L609.247 622.275H605.74Z" fill="#7FB5D3"/>
<path d="M394.933 775.651L406.623 752.272C410.398 744.709 418.137 739.928 426.588 739.928H488.285C496.736 739.928 504.475 744.709 508.251 752.272L519.94 775.651H394.922H394.933Z" fill="#006CA7"/>
<path d="M533.837 706.204V775.663H492.164V650.645L533.837 706.204Z" fill="#BFDAE9"/>
<path d="M603.298 706.205H533.839V775.663H603.298V706.205Z" fill="#4091BD"/>
<path d="M603.295 706.204H533.837L492.164 650.645H561.622L603.295 706.204Z" fill="#006CA7"/>
<path d="M575.512 720.091H561.625V731.664H575.512V720.091Z" fill="#006CA7"/>
<path d="M575.512 747.877H561.625V760.525H575.512V747.877Z" fill="#006CA7"/>
<path d="M848.356 753.021C845.96 760.654 843.388 768.194 840.618 775.652H742.205V678.419C757.331 678.419 769.558 690.261 770.727 705.328C775.707 703.084 781.201 701.833 786.975 701.833C809.314 701.833 827.409 720.338 827.409 743.179C827.409 744.348 827.339 745.47 827.245 746.627C828.239 746.51 829.256 746.428 830.284 746.428C837.134 746.428 843.435 748.907 848.368 753.033L848.356 753.021Z" fill="#BFDAE9"/>
<path d="M632.896 564.692C634.685 570.139 636.567 575.423 638.542 580.473H639.407L640.155 580.181C638.215 575.224 636.356 570.046 634.591 564.692H673.961C673.692 564.154 673.435 563.628 673.166 563.079H634.054C631.692 555.808 629.495 548.233 627.449 540.448H663.277C663.067 539.911 662.856 539.373 662.646 538.835H627.028C625.088 531.354 623.276 523.709 621.604 515.959H654.522C654.346 515.421 654.183 514.884 654.007 514.346H621.265C619.629 506.689 618.109 498.951 616.718 491.224H647.192C647.052 490.686 646.912 490.149 646.76 489.611H616.426C615.023 481.767 613.749 473.947 612.58 466.244H640.997C640.88 465.706 640.752 465.168 640.635 464.631H612.335C611.131 456.577 610.055 448.663 609.097 441.006H635.784C635.678 440.469 635.585 439.931 635.48 439.393H608.898C607.869 431.082 606.981 423.075 606.221 415.5H631.47C631.388 414.962 631.307 414.425 631.225 413.887H606.057C605.181 405.132 604.491 397.019 603.942 389.737H628.045C627.987 389.199 627.928 388.661 627.87 388.124H603.825C603.088 378.047 602.644 369.701 602.469 363.704H625.836C625.813 363.143 625.789 362.617 625.766 362.091H602.422C602.41 361.495 602.399 360.911 602.387 360.361C602.27 353.324 602.13 345.399 601.99 337.392H625.123C625.111 336.854 625.1 336.316 625.076 335.778H601.954C601.814 327.584 601.674 319.378 601.545 312.049C601.545 311.628 601.534 311.219 601.522 310.81H624.422C624.41 310.272 624.398 309.734 624.375 309.197H601.487C601.382 302.896 601.288 297.39 601.218 293.299C601.136 288.67 601.089 285.876 601.089 285.794H599.476C599.476 285.794 599.523 288.635 599.605 293.322C599.675 297.402 599.769 302.908 599.874 309.185H554.098V285.794H552.485C552.485 285.794 552.485 288.612 552.485 293.311V309.185H506.709C506.814 302.896 506.908 297.402 506.978 293.322C507.06 288.635 507.107 285.818 507.107 285.806H506.3L505.493 285.794C505.493 285.876 505.447 288.67 505.365 293.299C505.295 297.39 505.201 302.896 505.096 309.197H482.208C482.196 309.723 482.185 310.272 482.161 310.81H505.061C504.932 318.443 504.78 327.117 504.628 335.778H481.507C481.495 336.316 481.483 336.854 481.46 337.392H504.593C504.453 345.387 504.324 353.324 504.196 360.361C504.196 360.899 504.173 361.483 504.161 362.091H480.817C480.794 362.606 480.77 363.143 480.747 363.704H504.114C503.927 369.701 503.495 378.047 502.758 388.124H478.713C478.655 388.65 478.596 389.187 478.538 389.737H502.641C502.092 397.019 501.39 405.132 500.525 413.887H475.358C475.276 414.413 475.194 414.962 475.113 415.5H500.362C499.602 423.063 498.702 431.07 497.685 439.393H471.103C471.01 439.931 470.904 440.469 470.799 441.006H497.486C496.528 448.675 495.452 456.588 494.248 464.631H465.948C465.831 465.168 465.714 465.706 465.586 466.244H494.003C492.846 473.947 491.56 481.767 490.157 489.611H459.823C459.683 490.149 459.542 490.686 459.39 491.224H489.865C488.474 498.951 486.954 506.689 485.318 514.346H452.575C452.4 514.884 452.236 515.421 452.061 515.959H484.978C483.307 523.697 481.495 531.354 479.555 538.835H443.937C443.727 539.373 443.516 539.911 443.306 540.448H479.134C477.088 548.233 474.879 555.808 472.529 563.079H433.417C433.159 563.617 432.89 564.154 432.622 564.692H471.992C470.226 570.046 468.38 575.224 466.427 580.181L467.176 580.473H468.041C470.016 575.423 471.898 570.139 473.687 564.692H552.473V580.473H554.086V564.692H632.873H632.896ZM632.37 563.079H554.11V540.448H625.789C627.835 548.222 630.021 555.808 632.37 563.079ZM625.368 538.847H554.11V515.971H619.956C621.628 523.709 623.428 531.366 625.368 538.847ZM619.617 514.369H554.11V491.248H615.07C616.461 498.963 617.969 506.701 619.605 514.369H619.617ZM614.789 489.634H554.11V466.267H610.955C612.113 473.971 613.398 481.791 614.789 489.634ZM610.71 464.654H554.11V441.03H607.484C608.442 448.698 609.517 456.612 610.71 464.654ZM607.273 439.417H554.11V415.523H604.608C605.368 423.087 606.256 431.094 607.285 439.417H607.273ZM604.433 413.922H554.098V389.772H602.317C602.866 397.054 603.556 405.167 604.433 413.922ZM602.2 388.159H554.098V363.739H600.844C601.031 369.748 601.464 378.094 602.2 388.159ZM600.762 360.431C600.762 360.969 600.786 361.542 600.797 362.126H554.098V337.438H600.365C600.505 345.445 600.634 353.394 600.762 360.431ZM599.909 310.857C600.037 318.49 600.189 327.163 600.341 335.825H554.11V310.857H599.92H599.909ZM506.662 312.119C506.662 311.687 506.674 311.277 506.686 310.857H552.497C552.497 318.49 552.497 327.163 552.497 335.825H506.265C506.405 327.643 506.545 319.437 506.674 312.119H506.662ZM505.832 360.42C505.949 353.383 506.09 345.434 506.23 337.427H552.497V362.115H505.797C505.809 361.518 505.821 360.957 505.832 360.42ZM505.751 363.728H552.497V388.147H504.395C505.131 378.082 505.564 369.736 505.751 363.728ZM504.278 389.76H552.497V413.91H502.162C503.027 405.155 503.728 397.043 504.278 389.76ZM502.01 415.523H552.508V439.417H499.345C500.373 431.094 501.262 423.098 502.022 415.523H502.01ZM499.134 441.018H552.508C552.508 448.686 552.508 456.6 552.508 464.642H495.908C497.112 456.588 498.188 448.675 499.134 441.018ZM495.663 466.256H552.508V489.623H491.829C493.231 481.779 494.505 473.947 495.663 466.256ZM491.536 491.236H552.497V514.358H486.989C488.626 506.689 490.134 498.963 491.525 491.236H491.536ZM486.65 515.971H552.497V538.847H481.238C483.178 531.366 484.978 523.709 486.65 515.971ZM474.236 563.079C476.585 555.808 478.771 548.222 480.817 540.448H552.497V563.079H474.236Z" fill="#BFDAE9"/>
<path d="M427.945 529.25L409.569 604.588L459.939 610.059L440.429 529.262C438.828 522.611 429.581 522.599 427.957 529.25H427.945Z" fill="#006CA7"/>
<path d="M434.211 542.717C433.615 542.717 433.124 543.196 433.124 543.804V591.427C433.124 592.023 433.603 592.514 434.211 592.514C434.819 592.514 435.298 592.034 435.298 591.427V543.804C435.298 543.208 434.819 542.717 434.211 542.717Z" fill="#7FB5D3"/>
<path d="M443.063 564.95L435.289 572.887V564.751C435.289 564.541 435.231 564.342 435.126 564.167L428.287 553.378C427.972 552.875 427.294 552.723 426.791 553.039C426.288 553.354 426.136 554.032 426.452 554.535L433.115 565.067V575.552C433.115 575.997 433.384 576.394 433.793 576.558C433.921 576.616 434.062 576.64 434.202 576.64C434.483 576.64 434.763 576.523 434.974 576.312L444.606 566.47C445.026 566.037 445.015 565.359 444.594 564.938C444.161 564.518 443.483 564.529 443.063 564.95Z" fill="#7FB5D3"/>
</g>
</g>
</g>
<defs>
<linearGradient id="paint0_linear_692_932" x1="410.855" y1="1624.77" x2="388.19" y2="486.011" gradientUnits="userSpaceOnUse">
<stop offset="0.38" stop-color="white" stop-opacity="0"/>
<stop offset="0.56" stop-color="#FCFDFE" stop-opacity="0.01"/>
<stop offset="0.65" stop-color="#F4F9FB" stop-opacity="0.05"/>
<stop offset="0.73" stop-color="#E7F1F6" stop-opacity="0.12"/>
<stop offset="0.79" stop-color="#D4E6F0" stop-opacity="0.22"/>
<stop offset="0.84" stop-color="#BBD8E7" stop-opacity="0.35"/>
<stop offset="0.89" stop-color="#9DC6DD" stop-opacity="0.51"/>
<stop offset="0.94" stop-color="#78B1D0" stop-opacity="0.7"/>
<stop offset="0.99" stop-color="#509AC2" stop-opacity="0.92"/>
<stop offset="1" stop-color="#4091BD"/>
</linearGradient>
<linearGradient id="paint1_linear_692_932" x1="410.855" y1="1446.76" x2="388.19" y2="308.005" gradientUnits="userSpaceOnUse">
<stop offset="0.38" stop-color="white" stop-opacity="0"/>
<stop offset="0.56" stop-color="#FCFDFE" stop-opacity="0.01"/>
<stop offset="0.65" stop-color="#F4F9FB" stop-opacity="0.05"/>
<stop offset="0.73" stop-color="#E7F1F6" stop-opacity="0.12"/>
<stop offset="0.79" stop-color="#D4E6F0" stop-opacity="0.22"/>
<stop offset="0.84" stop-color="#BBD8E7" stop-opacity="0.35"/>
<stop offset="0.89" stop-color="#9DC6DD" stop-opacity="0.51"/>
<stop offset="0.94" stop-color="#78B1D0" stop-opacity="0.7"/>
<stop offset="0.99" stop-color="#509AC2" stop-opacity="0.92"/>
<stop offset="1" stop-color="#4091BD"/>
</linearGradient>
<linearGradient id="paint2_linear_692_932" x1="409.616" y1="1512.18" x2="407.102" y2="561.022" gradientUnits="userSpaceOnUse">
<stop offset="0.74" stop-color="white" stop-opacity="0"/>
<stop offset="0.76" stop-color="#FDFEFE" stop-opacity="0.02"/>
<stop offset="0.8" stop-color="#F8FBFC" stop-opacity="0.09"/>
<stop offset="0.84" stop-color="#F1F7FA" stop-opacity="0.21"/>
<stop offset="0.88" stop-color="#E7F1F6" stop-opacity="0.37"/>
<stop offset="0.92" stop-color="#DAE9F2" stop-opacity="0.57"/>
<stop offset="0.97" stop-color="#CAE0EC" stop-opacity="0.82"/>
<stop offset="1" stop-color="#BFDAE9"/>
</linearGradient>
</defs>
</svg>
