<svg width="130" height="132" viewBox="0 0 130 132" fill="none" xmlns="http://www.w3.org/2000/svg">
<path d="M90.6929 76.0547H116.855" stroke="white" stroke-width="3" stroke-miterlimit="10"/>
<path d="M8.69385 76.0547H61.189" stroke="white" stroke-width="3" stroke-miterlimit="10"/>
<path d="M91.7973 55.7339L83.6113 65.902C83.2305 66.3738 82.4814 66.183 82.3646 65.5849L80.7955 57.5205C80.6863 56.9534 80.3309 56.4635 79.8307 56.1902L69.3494 50.4255C68.7502 50.0955 68.4988 49.3556 68.7705 48.7188L76.9894 29.5479C77.3373 28.7332 78.4773 28.6687 78.876 29.4602" stroke="white" stroke-width="3" stroke-miterlimit="10"/>
<path d="M108.446 76.0547L101.849 47.6412C101.753 47.2287 101.39 46.9347 100.971 46.9347H99.3053C99.0336 46.9347 98.7772 47.0585 98.6071 47.2699L91.7973 55.7313L78.8811 29.4757C78.6018 28.9085 78.0838 28.5089 77.4846 28.3851C77.3526 28.3542 77.2129 28.3413 77.0733 28.3413H59.31C58.5991 28.3413 57.9389 28.7177 57.5758 29.339L42.3745 55.1074H32.3147C31.8831 55.1074 31.4895 55.3575 31.3016 55.7519L21.5999 76.0521" stroke="white" stroke-width="3" stroke-miterlimit="10"/>
<path d="M87.646 90.799C88.164 90.157 88.4737 89.3346 88.4737 88.4426V78.308C88.4737 77.0627 89.4665 76.0547 90.6929 76.0547" stroke="white" stroke-width="3" stroke-miterlimit="10"/>
<path d="M81.4912 89.9789C81.2602 89.4762 81.1332 88.9167 81.1332 88.3341V79.7335C81.1332 77.6993 79.5107 76.0519 77.5074 76.0519C75.5041 76.0519 73.8816 77.7019 73.8816 79.7335V81.8604C73.8816 82.9896 73.3865 84.0028 72.602 84.686C71.9189 85.2842 71.015 85.6296 70.0324 85.5832C69.225 85.5445 68.4938 85.2326 67.9148 84.7428C67.0719 84.0312 66.5412 82.9406 66.5412 81.7547V78.3026C66.5412 77.0574 65.5484 76.0493 64.3221 76.0493H61.1914" stroke="white" stroke-width="3" stroke-miterlimit="10"/>
<path d="M61.189 60.5805V62.7075C61.189 64.6179 59.663 66.1673 57.7815 66.1673C55.9001 66.1673 54.3741 64.6179 54.3741 62.7075V59.4926C54.3741 58.1984 53.3407 57.1465 52.0661 57.1465H50.3472" stroke="white" stroke-width="3" stroke-miterlimit="10"/>
<path d="M37.0093 64.2057L48.9987 43.8823" stroke="white" stroke-width="3" stroke-miterlimit="10"/>
<path d="M35.4937 23.3576L37.1771 20.0215" stroke="white" stroke-width="3" stroke-miterlimit="10"/>
<path d="M28.0364 18.4312L29.2374 22.2158" stroke="white" stroke-width="3" stroke-miterlimit="10"/>
<path d="M16.2881 37.5993L20.0154 36.3799" stroke="white" stroke-width="3" stroke-miterlimit="10"/>
<path d="M19.0532 25.9512L22.3388 27.6605" stroke="white" stroke-width="3" stroke-miterlimit="10"/>
<path d="M34.4069 42.8149C29.603 44.3798 24.4563 41.7037 22.9024 36.8285C21.3536 31.9507 23.9917 26.7197 28.7981 25.147C33.602 23.5744 38.7538 26.253 40.3026 31.1334C41.8514 36.0112 39.2133 41.2423 34.4069 42.8149Z" stroke="white" stroke-width="3" stroke-miterlimit="10"/>
<path d="M35.1661 49.5308L33.9651 45.7461" stroke="white" stroke-width="3" stroke-miterlimit="10"/>
<path d="M42.3872 29.0578L46.1145 27.8384" stroke="white" stroke-width="3" stroke-miterlimit="10"/>
<path d="M42.1104 39.1387L45.7387 40.634" stroke="white" stroke-width="3" stroke-miterlimit="10"/>
<path d="M23.7021 46.7155L25.3855 43.3794" stroke="white" stroke-width="3" stroke-miterlimit="10"/>
<path d="M8.16064 98.5513C15.9403 98.5513 15.9403 104.968 23.72 104.968C31.4997 104.968 31.4997 98.5513 39.2794 98.5513C47.0591 98.5513 47.0591 104.968 54.8388 104.968C62.6185 104.968 62.6185 98.5513 70.3981 98.5513C78.1778 98.5513 78.1778 104.968 85.9575 104.968C93.7372 104.968 93.7372 98.5513 101.517 98.5513C109.297 98.5513 109.297 104.968 117.076 104.968" stroke="white" stroke-width="3" stroke-miterlimit="10"/>
<path d="M8.16064 112.922C15.9403 112.922 15.9403 119.339 23.72 119.339C31.4997 119.339 31.4997 112.922 39.2794 112.922C47.0591 112.922 47.0591 119.339 54.8388 119.339C62.6185 119.339 62.6185 112.922 70.3981 112.922C78.1778 112.922 78.1778 119.339 85.9575 119.339C93.7372 119.339 93.7372 112.922 101.517 112.922C109.297 112.922 109.297 119.339 117.076 119.339" stroke="white" stroke-width="3" stroke-miterlimit="10"/>
<path d="M81.4912 89.979C82.0523 91.2062 83.2254 92.0982 84.6269 92.1627C85.8457 92.2194 86.94 91.6754 87.6459 90.7963" stroke="white" stroke-width="3" stroke-miterlimit="10"/>
<path d="M87.646 90.7988C93.7854 89.948 94.3466 84.4927 101.519 84.4927C109.299 84.4927 109.299 90.9096 117.079 90.9096" stroke="white" stroke-width="3" stroke-miterlimit="10"/>
<path d="M8.16309 84.4927C15.9428 84.4927 15.9428 90.9096 23.7225 90.9096C31.5021 90.9096 31.5021 84.4927 39.2818 84.4927C47.0615 84.4927 47.0615 90.9096 54.8412 90.9096C61.6891 90.9096 62.5092 85.9364 67.9123 84.7479" stroke="white" stroke-width="3" stroke-miterlimit="10"/>
<path d="M72.5994 84.6914C76.7457 85.4777 78.2462 88.4477 81.4912 89.9817" stroke="white" stroke-width="3" stroke-miterlimit="10"/>
</svg>
