<svg width="565" height="656" viewBox="0 0 565 656" fill="none" xmlns="http://www.w3.org/2000/svg">
<mask id="mask0_35_25983" style="mask-type:alpha" maskUnits="userSpaceOnUse" x="0" y="0" width="530" height="656">
<rect width="530" height="656" rx="15" fill="#50AA57"/>
</mask>
<g mask="url(#mask0_35_25983)">
<g clip-path="url(#clip0_35_25983)">
<path d="M578.714 618.756H483.229C480.072 618.756 477.5 616.184 477.5 613.027V557.627C477.5 554.47 480.072 551.898 483.229 551.898H578.714C581.871 551.898 584.442 554.47 584.442 557.627V613.027C584.442 616.184 581.871 618.756 578.714 618.756ZM483.229 555.091C481.828 555.091 480.693 556.226 480.693 557.627V613.027C480.693 614.429 481.828 615.564 483.229 615.564H578.714C580.115 615.564 581.25 614.429 581.25 613.027V557.627C581.25 556.226 580.115 555.091 578.714 555.091H483.229Z" fill="#50AA57"/>
<path d="M580.921 569.368H479.282C478.404 569.368 477.686 568.659 477.686 567.772C477.686 566.885 478.395 566.176 479.282 566.176H580.921C581.799 566.176 582.517 566.885 582.517 567.772C582.517 568.659 581.808 569.368 580.921 569.368Z" fill="#50AA57"/>
<path d="M526.611 610.917H519.188C518.31 610.917 517.592 610.207 517.592 609.32V594.936C517.592 594.058 518.301 593.34 519.188 593.34H526.611C527.489 593.34 528.207 594.049 528.207 594.936V609.32C528.207 610.198 527.498 610.917 526.611 610.917ZM520.784 607.733H525.015V596.541H520.784V607.733Z" fill="#50AA57"/>
<path d="M504.459 591.725C504.14 591.725 503.811 591.628 503.536 591.424L493.95 584.551C493.232 584.036 493.072 583.043 493.586 582.325C494.101 581.607 495.094 581.447 495.812 581.961L505.399 588.834C506.117 589.349 506.277 590.342 505.762 591.06C505.452 591.495 504.964 591.725 504.468 591.725H504.459Z" fill="#50AA57"/>
<path d="M495.519 603.138C495.031 603.138 494.561 602.916 494.242 602.499C493.71 601.799 493.852 600.797 494.561 600.264L504.157 593.037C504.857 592.505 505.859 592.647 506.391 593.356C506.923 594.057 506.782 595.059 506.081 595.591L496.486 602.818C496.202 603.031 495.865 603.138 495.528 603.138H495.519Z" fill="#50AA57"/>
<path d="M502.02 591.859C502.02 594.661 504.316 596.94 507.145 596.94C509.974 596.94 512.271 594.67 512.271 591.859C512.271 589.048 509.974 586.777 507.145 586.777C504.316 586.777 502.02 589.048 502.02 591.859Z" fill="#50AA57"/>
<path d="M507.145 598.535C503.438 598.535 500.432 595.538 500.432 591.866C500.432 588.195 503.447 585.197 507.145 585.197C510.843 585.197 513.858 588.195 513.858 591.866C513.858 595.538 510.843 598.535 507.145 598.535ZM507.145 588.381C505.194 588.381 503.615 589.942 503.615 591.866C503.615 593.791 505.203 595.351 507.145 595.351C509.087 595.351 510.674 593.791 510.674 591.866C510.674 589.942 509.087 588.381 507.145 588.381Z" fill="#50AA57"/>
<path d="M487.191 581.349C487.191 584.151 489.488 586.431 492.317 586.431C495.146 586.431 497.443 584.16 497.443 581.349C497.443 578.538 495.146 576.268 492.317 576.268C489.488 576.268 487.191 578.538 487.191 581.349Z" fill="#50AA57"/>
<path d="M492.319 588.018C488.612 588.018 485.605 585.02 485.605 581.349C485.605 577.677 488.621 574.68 492.319 574.68C496.017 574.68 499.032 577.677 499.032 581.349C499.032 585.02 496.017 588.018 492.319 588.018ZM492.319 577.863C490.368 577.863 488.789 579.424 488.789 581.349C488.789 583.273 490.377 584.834 492.319 584.834C494.261 584.834 495.848 583.273 495.848 581.349C495.848 579.424 494.261 577.863 492.319 577.863Z" fill="#50AA57"/>
<path d="M487.191 603.191C487.191 605.993 489.488 608.272 492.317 608.272C495.146 608.272 497.443 606.002 497.443 603.191C497.443 600.38 495.146 598.109 492.317 598.109C489.488 598.109 487.191 600.38 487.191 603.191Z" fill="#50AA57"/>
<path d="M492.319 609.861C488.612 609.861 485.605 606.864 485.605 603.192C485.605 599.521 488.621 596.523 492.319 596.523C496.017 596.523 499.032 599.521 499.032 603.192C499.032 606.864 496.017 609.861 492.319 609.861ZM492.319 599.707C490.368 599.707 488.789 601.268 488.789 603.192C488.789 605.117 490.377 606.678 492.319 606.678C494.261 606.678 495.848 605.117 495.848 603.192C495.848 601.268 494.261 599.707 492.319 599.707Z" fill="#50AA57"/>
<path d="M567.494 538.701H494.624C493.746 538.701 493.027 537.991 493.027 537.105V522.073C493.027 521.195 493.737 520.477 494.624 520.477C495.51 520.477 496.22 521.186 496.22 522.073V535.508H565.907V522.073C565.907 521.195 566.616 520.477 567.503 520.477C568.39 520.477 569.099 521.186 569.099 522.073V537.105C569.099 537.983 568.39 538.701 567.503 538.701H567.494Z" fill="#50AA57"/>
<path d="M524.723 478.007V514.748C524.378 514.5 523.961 514.349 523.5 514.349H521.54V478.007C521.54 477.528 521.274 477.244 521.158 477.244H467.434C466.982 477.244 466.486 477.83 466.486 478.681V514.349H465.741C464.597 514.349 463.674 515.28 463.674 516.415V517.063C463.435 516.788 463.293 516.433 463.293 516.043V478.681C463.293 476.127 465.155 474.061 467.434 474.061H521.158C523.127 474.061 524.723 475.825 524.723 478.007Z" fill="#50AA57"/>
<path d="M524.722 511.317C524.332 511.219 523.924 511.166 523.498 511.166H504.095C503.208 511.166 502.498 511.875 502.498 512.753V514.873H486.748V512.753C486.748 511.875 486.039 511.166 485.161 511.166H465.739C464.853 511.166 464.019 511.379 463.292 511.769C461.624 512.647 460.48 514.394 460.48 516.416V518.411C460.48 521.311 462.839 523.67 465.739 523.67H523.498C526.398 523.67 528.748 521.311 528.748 518.411V516.416C528.748 513.942 527.037 511.867 524.722 511.317ZM525.565 518.411C525.565 519.555 524.642 520.487 523.498 520.487H465.739C464.595 520.487 463.673 519.555 463.673 518.411V516.416C463.673 515.281 464.595 514.35 465.739 514.35H483.565V516.46C483.565 517.347 484.274 518.057 485.161 518.057H504.095C504.973 518.057 505.682 517.347 505.682 516.46V514.35H523.498C523.96 514.35 524.376 514.5 524.722 514.749C525.228 515.13 525.565 515.733 525.565 516.416V518.411Z" fill="#50AA57"/>
<path d="M512.202 504.248H473.616C472.738 504.248 472.02 503.539 472.02 502.652C472.02 501.765 472.729 501.056 473.616 501.056H510.614L510.694 486.015C510.694 485.137 511.412 484.428 512.29 484.428C513.168 484.428 513.878 485.146 513.878 486.033L513.789 502.661C513.789 503.539 513.071 504.248 512.193 504.248H512.202Z" fill="#50AA57"/>
<path d="M494.268 503.238C493.39 503.238 492.672 502.528 492.672 501.641V485.235C492.672 484.357 493.381 483.639 494.268 483.639C495.155 483.639 495.864 484.348 495.864 485.235V501.641C495.864 502.519 495.155 503.238 494.268 503.238Z" fill="#50AA57"/>
<path d="M479.024 503.237C478.146 503.237 477.428 502.528 477.428 501.641V488.782C477.428 487.904 478.137 487.186 479.024 487.186C479.911 487.186 480.62 487.895 480.62 488.782V501.641C480.62 502.519 479.911 503.237 479.024 503.237Z" fill="#50AA57"/>
<path d="M354.834 543.392C354.834 542.514 355.543 541.805 356.43 541.805H383.514C382.84 542.833 382.21 543.889 381.643 544.988H356.43C355.543 544.988 354.834 544.279 354.834 543.392Z" fill="#50AA57"/>
<path d="M414.455 595.981V616.334C414.455 623.348 408.744 629.06 401.72 629.06H366.344V635.125H374.397C376.534 635.125 378.281 636.864 378.281 639.001V644.57C378.281 646.707 376.534 648.454 374.397 648.454H327.058C324.912 648.454 323.174 646.707 323.174 644.57V639.001C323.174 636.864 324.912 635.125 327.058 635.125H335.11V629.06H299.735C292.711 629.06 287 623.348 287 616.334V554.531C287 547.516 292.711 541.805 299.735 541.805H344.36C345.247 541.805 345.956 542.514 345.956 543.392C345.956 544.27 345.247 544.988 344.36 544.988H299.735C294.467 544.988 290.184 549.272 290.184 554.531V616.334C290.184 621.592 294.467 625.876 299.735 625.876H336.707C337.585 625.876 338.303 626.594 338.303 627.472V636.713C338.303 637.591 337.585 638.309 336.707 638.309H327.058C326.677 638.309 326.357 638.62 326.357 639.001V644.57C326.357 644.952 326.677 645.271 327.058 645.271H374.397C374.778 645.271 375.097 644.952 375.097 644.57V639.001C375.097 638.62 374.778 638.309 374.397 638.309H364.748C363.87 638.309 363.152 637.591 363.152 636.713V627.472C363.152 626.594 363.87 625.876 364.748 625.876H401.72C406.988 625.876 411.271 621.592 411.271 616.334V595.99C411.759 596.016 412.247 596.025 412.743 596.025C413.32 596.025 413.887 596.008 414.455 595.981Z" fill="#50AA57"/>
<path d="M387.948 621.762C381.377 621.762 376.029 616.414 376.029 609.843C376.029 603.271 381.377 597.924 387.948 597.924C394.52 597.924 399.867 603.271 399.867 609.843C399.867 616.414 394.52 621.762 387.948 621.762ZM387.948 601.116C383.133 601.116 379.222 605.036 379.222 609.843C379.222 614.649 383.142 618.569 387.948 618.569C392.755 618.569 396.675 614.649 396.675 609.843C396.675 605.036 392.755 601.116 387.948 601.116Z" fill="#50AA57"/>
<path d="M327.138 618.569H299.876C297.739 618.569 295.992 616.831 295.992 614.685V604.681C295.992 602.544 297.73 600.797 299.876 600.797H327.138C329.275 600.797 331.022 602.535 331.022 604.681V614.685C331.022 616.822 329.284 618.569 327.138 618.569ZM299.876 603.981C299.495 603.981 299.176 604.291 299.176 604.681V614.685C299.176 615.066 299.486 615.385 299.876 615.385H327.138C327.519 615.385 327.838 615.075 327.838 614.685V604.681C327.838 604.3 327.528 603.981 327.138 603.981H299.876Z" fill="#50AA57"/>
<path d="M350.868 573.465C350.567 573.465 350.256 573.376 349.99 573.199L333.203 562.113C332.759 561.821 332.484 561.315 332.484 560.783C332.484 560.251 332.75 559.746 333.203 559.453L349.99 548.368C350.522 548.013 351.214 548.013 351.746 548.368L368.534 559.453C368.977 559.746 369.252 560.251 369.252 560.783C369.252 561.315 368.986 561.821 368.534 562.113L351.746 573.199C351.48 573.376 351.179 573.465 350.868 573.465ZM336.972 560.783L350.868 569.962L364.765 560.783L350.868 551.605L336.972 560.783Z" fill="#50AA57"/>
<path d="M350.87 551.304C349.992 551.304 349.273 550.595 349.273 549.708V538.206C349.273 537.328 349.983 536.609 350.87 536.609C351.757 536.609 352.466 537.319 352.466 538.206V549.708C352.466 550.586 351.757 551.304 350.87 551.304Z" fill="#50AA57"/>
<path d="M376.561 611.271H329.426C328.548 611.271 327.83 610.561 327.83 609.674C327.83 608.788 328.54 608.078 329.426 608.078H376.561C377.439 608.078 378.157 608.788 378.157 609.674C378.157 610.561 377.448 611.271 376.561 611.271Z" fill="#50AA57"/>
<path d="M370.354 617.531C369.946 617.531 369.538 617.372 369.227 617.061C368.607 616.441 368.607 615.43 369.227 614.809L374.3 609.736L369.112 604.548C368.491 603.927 368.491 602.916 369.112 602.296C369.733 601.675 370.744 601.675 371.365 602.296L377.679 608.61C377.98 608.911 378.149 609.31 378.149 609.736C378.149 610.162 377.98 610.561 377.679 610.862L371.471 617.07C371.161 617.381 370.753 617.54 370.345 617.54L370.354 617.531Z" fill="#50AA57"/>
<path d="M327.138 593.471H299.876C297.739 593.471 295.992 591.733 295.992 589.587V579.584C295.992 577.446 297.73 575.699 299.876 575.699H327.138C329.275 575.699 331.022 577.437 331.022 579.584V589.587C331.022 591.724 329.284 593.471 327.138 593.471ZM299.876 578.883C299.495 578.883 299.176 579.193 299.176 579.584V589.587C299.176 589.968 299.486 590.288 299.876 590.288H327.138C327.519 590.288 327.838 589.977 327.838 589.587V579.584C327.838 579.202 327.528 578.883 327.138 578.883H299.876Z" fill="#50AA57"/>
<path d="M313.499 578.883C312.621 578.883 311.902 578.173 311.902 577.287V560.792C311.902 559.914 312.612 559.195 313.499 559.195H334.073C334.951 559.195 335.669 559.905 335.669 560.792C335.669 561.678 334.96 562.388 334.073 562.388H315.095V577.295C315.095 578.173 314.385 578.892 313.499 578.892V578.883Z" fill="#50AA57"/>
<path d="M313.56 578.883C313.135 578.883 312.736 578.715 312.434 578.413L306.12 572.099C305.499 571.478 305.499 570.467 306.12 569.846C306.741 569.226 307.752 569.226 308.372 569.846L313.56 575.034L318.633 569.962C319.254 569.341 320.265 569.341 320.886 569.962C321.506 570.583 321.506 571.593 320.886 572.214L314.678 578.422C314.376 578.724 313.977 578.892 313.551 578.892L313.56 578.883Z" fill="#50AA57"/>
<path d="M313.506 603.972C312.628 603.972 311.91 603.262 311.91 602.376V591.876C311.91 590.998 312.62 590.279 313.506 590.279C314.393 590.279 315.103 590.989 315.103 591.876V602.376C315.103 603.254 314.393 603.972 313.506 603.972Z" fill="#50AA57"/>
<path d="M350.87 539.802C344.299 539.802 338.951 534.454 338.951 527.892C338.951 521.329 344.299 515.973 350.87 515.973C357.442 515.973 362.789 521.32 362.789 527.892C362.789 534.463 357.442 539.802 350.87 539.802ZM350.87 519.156C346.055 519.156 342.144 523.076 342.144 527.883C342.144 532.689 346.064 536.609 350.87 536.609C355.677 536.609 359.596 532.689 359.596 527.883C359.596 523.076 355.677 519.156 350.87 519.156Z" fill="#50AA57"/>
<path d="M412.742 522.854C398.695 522.854 386.395 530.48 379.77 541.805C379.167 542.834 378.608 543.898 378.103 544.989C375.833 549.866 374.564 555.303 374.564 561.031C374.564 581.588 390.9 598.402 411.27 599.183C411.758 599.2 412.246 599.209 412.742 599.209C413.319 599.209 413.886 599.2 414.454 599.165C434.718 598.269 450.92 581.508 450.92 561.031C450.92 540.555 433.796 522.854 412.742 522.854ZM414.454 595.981C413.886 596.008 413.319 596.026 412.742 596.026C412.246 596.026 411.758 596.017 411.27 595.99C392.656 595.219 377.748 579.832 377.748 561.031C377.748 555.249 379.158 549.795 381.641 544.989C382.209 543.889 382.839 542.834 383.513 541.805C389.774 532.316 400.54 526.037 412.742 526.037C432.04 526.037 447.737 541.734 447.737 561.031C447.737 580.329 432.962 595.086 414.454 595.981Z" fill="#50AA57"/>
<path d="M437.697 576.923C437.431 576.923 437.157 576.852 436.908 576.71C436.146 576.276 435.879 575.3 436.323 574.538C438.673 570.449 439.923 565.776 439.923 561.04C439.923 555.728 438.38 550.576 435.463 546.142C434.975 545.406 435.179 544.421 435.915 543.933C436.651 543.446 437.635 543.65 438.123 544.386C441.387 549.334 443.107 555.099 443.107 561.031C443.107 566.326 441.715 571.54 439.09 576.116C438.797 576.631 438.256 576.914 437.706 576.914L437.697 576.923Z" fill="#50AA57"/>
<path d="M412.743 591.398C396 591.398 382.387 577.776 382.387 561.042C382.387 544.307 396.008 530.686 412.743 530.686C413.621 530.686 414.339 531.395 414.339 532.282V560.385L434.213 580.259C434.514 580.561 434.683 580.96 434.683 581.385C434.683 581.811 434.514 582.21 434.213 582.512C428.564 588.161 420.733 591.407 412.743 591.407V591.398ZM411.147 533.914C396.904 534.738 385.57 546.595 385.57 561.042C385.57 575.488 397.764 588.214 412.743 588.214C419.367 588.214 425.859 585.731 430.799 581.35L411.617 562.168C411.315 561.866 411.147 561.467 411.147 561.042V533.914Z" fill="#50AA57"/>
<path d="M412.743 591.388C411.865 591.388 411.146 590.679 411.146 589.792V582.751C411.146 581.873 411.856 581.154 412.743 581.154C413.63 581.154 414.339 581.864 414.339 582.751V589.792C414.339 590.67 413.63 591.388 412.743 591.388Z" fill="#50AA57"/>
<path d="M391.024 562.628H383.983C383.105 562.628 382.387 561.919 382.387 561.032C382.387 560.145 383.096 559.436 383.983 559.436H391.024C391.902 559.436 392.621 560.145 392.621 561.032C392.621 561.919 391.911 562.628 391.024 562.628Z" fill="#50AA57"/>
<path d="M327.217 428.132C326.792 428.132 326.393 427.964 326.091 427.662C325.79 427.361 325.621 426.962 325.621 426.536C325.621 394.336 351.818 368.139 384.019 368.139C384.897 368.139 385.615 368.848 385.615 369.735V388.917C385.615 389.795 384.905 390.513 384.019 390.513C364.154 390.513 347.987 406.68 347.987 426.545C347.987 427.423 347.277 428.141 346.391 428.141H327.209L327.217 428.132ZM382.431 371.349C353.255 372.183 329.665 395.763 328.831 424.949H344.839C345.655 404.587 362.07 388.172 382.431 387.356V371.358V371.349Z" fill="#50AA57"/>
<path d="M384.028 498.261C351.828 498.261 325.631 472.065 325.631 439.864C325.631 438.986 326.34 438.268 327.227 438.268H346.409C347.287 438.268 348.005 438.977 348.005 439.864C348.005 459.729 364.172 475.896 384.037 475.896C384.915 475.896 385.634 476.605 385.634 477.492V496.674C385.634 497.552 384.924 498.27 384.037 498.27L384.028 498.261ZM328.841 441.46C329.675 470.637 353.256 494.226 382.441 495.06V479.062C362.079 478.246 345.664 461.831 344.848 441.469H328.841V441.46Z" fill="#50AA57"/>
<path d="M397.348 498.262C396.47 498.262 395.752 497.553 395.752 496.666V477.484C395.752 476.606 396.461 475.888 397.348 475.888C417.213 475.888 433.38 459.721 433.38 439.856C433.38 438.978 434.089 438.26 434.976 438.26H454.158C455.036 438.26 455.755 438.969 455.755 439.856C455.755 472.057 429.558 498.254 397.357 498.254L397.348 498.262ZM398.945 479.054V495.052C428.121 494.219 451.711 470.638 452.544 441.452H436.537C435.721 461.814 419.306 478.229 398.945 479.045V479.054Z" fill="#50AA57"/>
<path d="M466.812 426.323H443.134C442.256 426.323 441.538 425.613 441.538 424.727C441.538 399.993 421.416 379.862 396.682 379.862C395.804 379.862 395.086 379.153 395.086 378.266V354.596C395.086 353.718 395.795 353 396.682 353C436.235 353 468.409 385.174 468.409 424.727C468.409 425.604 467.699 426.323 466.812 426.323ZM444.695 423.139H465.198C464.365 386.611 434.798 357.053 398.27 356.21V376.714C423.5 377.538 443.87 397.909 444.695 423.139Z" fill="#50AA57"/>
<path d="M429.654 393.341C429.246 393.341 428.838 393.182 428.528 392.871C427.907 392.251 427.907 391.24 428.528 390.619L445.147 374.009C445.768 373.388 446.779 373.388 447.4 374.009C448.021 374.629 448.021 375.64 447.4 376.261L430.781 392.871C430.47 393.182 430.062 393.341 429.654 393.341Z" fill="#50AA57"/>
<path d="M437.237 402.608C436.651 402.608 436.093 402.289 435.809 401.73C435.419 400.941 435.738 399.983 436.527 399.593L456.889 389.43C457.678 389.04 458.636 389.359 459.026 390.148C459.416 390.938 459.097 391.895 458.308 392.286L437.946 402.449C437.716 402.564 437.476 402.617 437.237 402.617V402.608Z" fill="#50AA57"/>
<path d="M441.858 413.988C441.078 413.988 440.395 413.411 440.28 412.622C440.156 411.753 440.759 410.946 441.637 410.822L464.845 407.532C465.714 407.408 466.521 408.011 466.645 408.889C466.769 409.758 466.166 410.565 465.288 410.689L442.08 413.979C442 413.988 441.929 413.997 441.858 413.997V413.988Z" fill="#50AA57"/>
<path d="M420.361 385.742C420.157 385.742 419.944 385.698 419.74 385.618C418.933 385.272 418.551 384.341 418.897 383.525L427.987 362.082C428.333 361.275 429.264 360.893 430.071 361.239C430.878 361.585 431.26 362.516 430.914 363.332L421.824 384.775C421.567 385.379 420.972 385.751 420.361 385.751V385.742Z" fill="#50AA57"/>
<path d="M408.043 381.086C407.981 381.086 407.928 381.086 407.866 381.077C406.988 380.979 406.358 380.19 406.465 379.312L409.081 355.971C409.179 355.093 409.968 354.463 410.846 354.561C411.724 354.658 412.353 355.448 412.247 356.326L409.631 379.667C409.542 380.483 408.85 381.086 408.052 381.086H408.043Z" fill="#50AA57"/>
<path d="M421.78 460.422H413.532C411.954 460.422 410.668 459.136 410.668 457.566V411.486C410.668 409.908 411.954 408.631 413.532 408.631H421.78C423.358 408.631 424.635 409.917 424.635 411.486V457.566C424.635 459.145 423.35 460.422 421.78 460.422ZM413.852 457.238H421.452V411.815H413.852V457.238Z" fill="#50AA57"/>
<path d="M369.076 460.421H361.414C359.836 460.421 358.559 459.136 358.559 457.566V433.586C358.559 432.008 359.844 430.73 361.414 430.73H369.076C370.655 430.73 371.941 432.016 371.941 433.586V457.566C371.941 459.144 370.655 460.421 369.076 460.421ZM361.742 457.238H368.748V433.905H361.742V457.238Z" fill="#50AA57"/>
<path d="M395.433 460.422H386.919C385.341 460.422 384.055 459.136 384.055 457.567V420.719C384.055 419.14 385.341 417.863 386.919 417.863H395.433C397.011 417.863 398.297 419.149 398.297 420.719V457.567C398.297 459.145 397.011 460.422 395.433 460.422ZM387.247 457.238H395.105V421.047H387.247V457.238Z" fill="#50AA57"/>
<path d="M365.245 418.11C364.731 418.11 364.225 417.862 363.915 417.4C363.427 416.664 363.622 415.68 364.358 415.192L381.722 403.61C382.148 403.326 382.68 403.264 383.15 403.442L399.476 409.419L416.681 397.58C417.408 397.083 418.401 397.261 418.898 397.988C419.395 398.715 419.217 399.708 418.49 400.205L400.612 412.514C400.186 412.807 399.645 412.878 399.157 412.7L382.813 406.723L366.123 417.853C365.848 418.03 365.546 418.119 365.245 418.119V418.11Z" fill="#50AA57"/>
<path d="M368.669 416.515C368.669 418.404 367.134 419.938 365.245 419.938C363.356 419.938 361.822 418.404 361.822 416.515C361.822 414.626 363.356 413.092 365.245 413.092C367.134 413.092 368.669 414.626 368.669 416.515Z" fill="#50AA57"/>
<path d="M365.244 421.535C362.477 421.535 360.225 419.282 360.225 416.524C360.225 413.766 362.477 411.514 365.244 411.514C368.011 411.514 370.263 413.766 370.263 416.524C370.263 419.282 368.011 421.535 365.244 421.535ZM365.244 414.689C364.233 414.689 363.417 415.504 363.417 416.515C363.417 417.526 364.242 418.342 365.244 418.342C366.246 418.342 367.071 417.526 367.071 416.515C367.071 415.504 366.246 414.689 365.244 414.689Z" fill="#50AA57"/>
<path d="M386.032 404.941C386.032 406.83 384.498 408.364 382.609 408.364C380.72 408.364 379.186 406.83 379.186 404.941C379.186 403.052 380.72 401.518 382.609 401.518C384.498 401.518 386.032 403.052 386.032 404.941Z" fill="#50AA57"/>
<path d="M382.609 409.953C379.842 409.953 377.59 407.7 377.59 404.942C377.59 402.184 379.842 399.932 382.609 399.932C385.376 399.932 387.629 402.184 387.629 404.942C387.629 407.7 385.376 409.953 382.609 409.953ZM382.609 403.106C381.598 403.106 380.782 403.922 380.782 404.933C380.782 405.944 381.607 406.76 382.609 406.76C383.611 406.76 384.436 405.944 384.436 404.933C384.436 403.922 383.611 403.106 382.609 403.106Z" fill="#50AA57"/>
<path d="M399.716 414.616C401.607 414.616 403.139 413.083 403.139 411.193C403.139 409.302 401.607 407.77 399.716 407.77C397.826 407.77 396.293 409.302 396.293 411.193C396.293 413.083 397.826 414.616 399.716 414.616Z" fill="#50AA57"/>
<path d="M399.707 416.213C396.94 416.213 394.688 413.96 394.688 411.202C394.688 408.444 396.94 406.191 399.707 406.191C402.474 406.191 404.726 408.444 404.726 411.202C404.726 413.96 402.474 416.213 399.707 416.213ZM399.707 409.366C398.696 409.366 397.88 410.182 397.88 411.193C397.88 412.204 398.705 413.02 399.707 413.02C400.709 413.02 401.534 412.204 401.534 411.193C401.534 410.182 400.709 409.366 399.707 409.366Z" fill="#50AA57"/>
<path d="M421.018 398.894C421.018 400.783 419.484 402.317 417.595 402.317C415.706 402.317 414.172 400.783 414.172 398.894C414.172 397.005 415.706 395.471 417.595 395.471C419.484 395.471 421.018 397.005 421.018 398.894Z" fill="#50AA57"/>
<path d="M417.594 403.904C414.827 403.904 412.574 401.651 412.574 398.893C412.574 396.135 414.827 393.883 417.594 393.883C420.361 393.883 422.613 396.135 422.613 398.893C422.613 401.651 420.361 403.904 417.594 403.904ZM417.594 397.058C416.583 397.058 415.767 397.874 415.767 398.885C415.767 399.895 416.592 400.711 417.594 400.711C418.596 400.711 419.421 399.895 419.421 398.885C419.421 397.874 418.596 397.058 417.594 397.058Z" fill="#50AA57"/>
</g>
</g>
<defs>
<clipPath id="clip0_35_25983">
<rect width="313.44" height="295.455" fill="white" transform="translate(287 353)"/>
</clipPath>
</defs>
</svg>
