<svg width="118" height="117" viewBox="0 0 118 117" fill="none" xmlns="http://www.w3.org/2000/svg">
<path d="M37.7391 90.0576H3.67383V105.472H37.7391V90.0576Z" stroke="white" stroke-width="4" stroke-linecap="round" stroke-linejoin="round"/>
<path d="M54.7162 89.9443H37.7402V105.472H54.7162V89.9443Z" stroke="white" stroke-width="4" stroke-linecap="round" stroke-linejoin="round"/>
<path d="M80.0674 90.0576H54.7168V105.472H80.0674V90.0576Z" stroke="white" stroke-width="4" stroke-linecap="round" stroke-linejoin="round"/>
<path d="M114.018 90.0576H80.0664V105.359H114.018V90.0576Z" stroke="white" stroke-width="4" stroke-linecap="round" stroke-linejoin="round"/>
<path d="M29.2511 74.5303H3.67383V89.9447H29.2511V74.5303Z" stroke="white" stroke-width="4" stroke-linecap="round" stroke-linejoin="round"/>
<path d="M71.6918 74.417H29.3652V89.9447H71.6918V74.417Z" stroke="white" stroke-width="4" stroke-linecap="round" stroke-linejoin="round"/>
<path d="M88.6674 74.417H71.6914V89.8314H88.6674V74.417Z" stroke="white" stroke-width="4" stroke-linecap="round" stroke-linejoin="round"/>
<path d="M20.8765 58.8887H3.67383V74.3031H20.8765V58.8887Z" stroke="white" stroke-width="4" stroke-linecap="round" stroke-linejoin="round"/>
<path d="M20.8765 43.3613H3.67383V58.6624H20.8765V43.3613Z" stroke="white" stroke-width="4" stroke-linecap="round" stroke-linejoin="round"/>
<path d="M20.8765 9.40918H3.67383V24.7102H20.8765V9.40918Z" stroke="white" stroke-width="4" stroke-linecap="round" stroke-linejoin="round"/>
<path d="M46.2276 59.002H20.877V74.5297H46.2276V59.002Z" stroke="white" stroke-width="4" stroke-linecap="round" stroke-linejoin="round"/>
<path d="M37.7396 43.4746H20.877V59.0023H37.7396V43.4746Z" stroke="white" stroke-width="4" stroke-linecap="round" stroke-linejoin="round"/>
<path d="M63.2045 59.002H46.2285V74.4163H63.2045V59.002Z" stroke="white" stroke-width="4" stroke-linecap="round" stroke-linejoin="round"/>
<path d="M63.2045 19.9121H46.2285V35.3265H63.2045V19.9121Z" stroke="white" stroke-width="4" stroke-linecap="round" stroke-linejoin="round"/>
<path d="M74.1484 58.8887H108.327" stroke="white" stroke-width="4" stroke-linecap="round" stroke-linejoin="round"/>
<path d="M74.1484 47.3906H97.27" stroke="white" stroke-width="4" stroke-linecap="round" stroke-linejoin="round"/>
</svg>
