<svg width="107" height="106" viewBox="0 0 107 106" fill="none" xmlns="http://www.w3.org/2000/svg">
<g clip-path="url(#clip0_263_167)">
<path d="M45.6152 48.9385L47.7252 69.2165" stroke="white" stroke-width="4" stroke-linecap="round" stroke-linejoin="round"/>
<path d="M27.834 48.6768L30.7308 68.9548" stroke="white" stroke-width="4" stroke-linecap="round" stroke-linejoin="round"/>
<path d="M58.9238 69.3532L61.4215 49.0752" stroke="white" stroke-width="4" stroke-linecap="round" stroke-linejoin="round"/>
<path d="M75.9062 69.3532L79.2023 49.0752" stroke="white" stroke-width="4" stroke-linecap="round" stroke-linejoin="round"/>
<path d="M100.929 27.8623H5.57227V39.7121H100.929V27.8623Z" stroke="white" stroke-width="4" stroke-linecap="round" stroke-linejoin="round"/>
<path d="M24.1501 86.6091C23.4886 88.0575 23.2263 89.6428 23.2263 91.2167C23.2263 92.5282 23.4886 93.8512 23.8878 95.1628H12.4258V86.5977H24.1501V86.6091Z" stroke="white" stroke-width="4" stroke-linecap="round" stroke-linejoin="round"/>
<path d="M59.9735 86.6094C59.4489 88.0578 59.0497 89.6431 59.0497 91.217C59.0497 92.5285 59.312 93.8515 59.7112 95.1631H47.0631C47.4623 93.977 47.7246 92.6654 47.7246 91.217C47.7246 89.6317 47.4623 88.0578 46.8008 86.6094H59.9735Z" stroke="white" stroke-width="4" stroke-linecap="round" stroke-linejoin="round"/>
<path d="M94.3473 86.6094V95.1745H82.8854C83.2845 93.9884 83.5468 92.6768 83.5468 91.2284C83.5468 89.6431 83.2845 88.0692 82.623 86.6208H94.3473V86.6094Z" stroke="white" stroke-width="4" stroke-linecap="round" stroke-linejoin="round"/>
<path d="M17.82 85.9475L9.92773 39.8486H97.1186L89.4773 85.9475" stroke="white" stroke-width="4" stroke-linecap="round" stroke-linejoin="round"/>
<path d="M47.8611 91.2172C47.8611 92.5288 47.5988 93.8518 47.1996 95.1633C45.6144 100.033 41.0068 103.466 35.6122 103.466C30.2177 103.466 25.7355 100.045 24.0248 95.1633C23.6256 93.9772 23.3633 92.6656 23.3633 91.2172C23.3633 89.6319 23.6256 88.0581 24.2871 86.6096C24.4239 86.3473 24.4239 86.2104 24.5494 85.9481C26.5225 81.8652 30.7423 79.0938 35.4868 79.0938C40.2312 79.0938 44.5765 81.8652 46.4241 85.9481C46.561 86.2104 46.6864 86.3473 46.6864 86.6096C47.4734 88.0581 47.8725 89.5065 47.8725 91.2172H47.8611Z" stroke="white" stroke-width="4" stroke-linecap="round" stroke-linejoin="round"/>
<path d="M83.5467 91.2172C83.5467 92.5288 83.2844 93.8518 82.8852 95.1633C81.2999 100.033 76.6923 103.466 71.2978 103.466C65.9032 103.466 61.2842 100.045 59.7103 95.1633C59.3111 93.9772 59.0488 92.6656 59.0488 91.2172C59.0488 89.6319 59.3111 88.0581 59.9726 86.6096C60.1095 86.3473 60.1095 86.2104 60.2349 85.9481C62.208 81.8652 66.4278 79.0938 71.2978 79.0938C76.1677 79.0938 80.3875 81.8652 82.2351 85.9481C82.372 86.2104 82.4974 86.3473 82.4974 86.6096C83.1589 88.0581 83.5467 89.5065 83.5467 91.2172Z" stroke="white" stroke-width="4" stroke-linecap="round" stroke-linejoin="round"/>
<path d="M12.4258 26.9383L23.7509 13.3778L44.6904 3.36426L58.7869 12.7163" stroke="white" stroke-width="4" stroke-linecap="round" stroke-linejoin="round"/>
<path d="M51.5449 16.6741L67.2153 9.1582L80.7872 10.082L94.0854 18.3848V27.3377" stroke="white" stroke-width="4" stroke-linecap="round" stroke-linejoin="round"/>
<path d="M18.9205 13.2768L25.8296 9.38416L24.7225 15.4217L18.9205 13.2768Z" fill="white" stroke="white" stroke-width="4"/>
<path d="M86.2614 8.50333L78.5424 14.4372L74.0007 5.93471L74.4496 5.45664L86.0518 7.99133L86.2614 8.50333Z" fill="white" stroke="white" stroke-width="4"/>
<path d="M74.4422 91.2172C74.4422 91.442 74.3875 91.6841 74.2569 92.2425C73.8474 93.349 72.6718 94.224 71.31 94.224C70.0284 94.224 68.8837 93.4168 68.3416 92.167C68.2273 91.7167 68.1777 91.4467 68.1777 91.2172C68.1777 90.8825 68.238 90.5282 68.3803 90.1293C68.4597 90.0046 68.5354 89.857 68.5948 89.6867C69.0851 88.7437 70.0622 88.085 71.3214 88.085C72.5769 88.085 73.552 88.7399 74.0436 89.6785C74.0968 89.835 74.1647 89.9751 74.2392 90.0982C74.2486 90.1139 74.2581 90.1291 74.2676 90.1439C74.3574 90.3984 74.4137 90.6348 74.4422 90.8596V91.2172ZM68.0333 90.5487C68.028 90.5538 68.0262 90.5555 68.0292 90.5527L68.0318 90.5501L68.0333 90.5487Z" fill="white" stroke="white" stroke-width="4"/>
<path d="M38.7449 91.2172C38.7449 91.442 38.6903 91.6841 38.5596 92.2425C38.1501 93.3491 36.9745 94.224 35.6127 94.224C34.3311 94.224 33.1865 93.4168 32.6444 92.167C32.53 91.7167 32.4805 91.4467 32.4805 91.2172C32.4805 90.8825 32.5407 90.5282 32.6831 90.1293C32.7624 90.0046 32.8382 89.857 32.8976 89.6867C33.3878 88.7437 34.3649 88.085 35.6241 88.085C36.779 88.085 37.858 88.7659 38.348 89.6833C38.4009 89.8378 38.4681 89.9763 38.5419 90.0982C38.5514 90.1138 38.5608 90.129 38.5703 90.1439C38.6601 90.3984 38.7164 90.6348 38.7449 90.8596V91.2172ZM32.336 90.5487C32.3308 90.5539 32.3289 90.5555 32.3319 90.5527L32.3346 90.5501L32.336 90.5487Z" fill="white" stroke="white" stroke-width="4"/>
</g>
<defs>
<clipPath id="clip0_263_167">
<rect width="106.066" height="104.926" fill="white" transform="translate(0.222656 0.889648)"/>
</clipPath>
</defs>
</svg>
