<svg width="130" height="130" viewBox="0 0 130 130" fill="none" xmlns="http://www.w3.org/2000/svg">
<path d="M47.5896 29.0647C46.5283 27.1451 46.3556 24.8625 47.1123 22.8034C47.8181 20.8356 49.3441 19.2715 51.2967 18.52C52.8099 17.9537 54.3994 17.6313 56.0117 17.5602C58.048 14.1198 61.8287 12.0936 65.8252 12.3018C69.8267 12.086 73.6176 14.1147 75.659 17.5602C77.2687 17.6313 78.8582 17.9537 80.3664 18.52C82.3189 19.269 83.8474 20.8356 84.5508 22.8034C85.3099 24.8803 85.1246 27.1832 84.0455 29.1104L79.1679 38.4491L52.5586 38.4871L52.0762 38.4567H52.4849L47.5896 29.0647Z" stroke="white" stroke-width="3" stroke-miterlimit="10"/>
<path d="M107.674 90.7663C107.674 114.903 86.9984 116.921 65.8251 116.921C44.6519 116.921 23.9763 114.903 23.9763 90.7663C23.9763 66.63 41.016 53.244 48.9099 47.9882L82.8394 47.9146C82.8394 47.9146 83.033 47.9746 83 48C90.8939 53.2559 107.674 67.3054 107.674 90.7663Z" stroke="white" stroke-width="3" stroke-miterlimit="10"/>
<path d="M64.571 82.5295V95.0115C61.7526 94.8592 59.0815 93.7064 57.0376 91.7641C56.3927 91.048 55.2907 90.9896 54.5747 91.6346C53.8587 92.2795 53.8003 93.3814 54.4452 94.0975C57.1519 96.7813 60.7624 98.358 64.571 98.523V102.085C64.571 103.048 65.3505 103.83 66.3153 103.83C67.2802 103.83 68.0597 103.05 68.0597 102.085V98.5205C75.0345 97.9441 80.2649 93.9857 80.2649 89.0092C80.2649 83.1693 74.0392 81.2625 68.0597 79.7924V67.3104C70.878 67.4627 73.5491 68.6154 75.5931 70.5578C76.238 71.2738 77.3399 71.3322 78.056 70.6873C78.772 70.0424 78.8304 68.9404 78.1854 68.2244C75.4788 65.5406 71.8683 63.9639 68.0597 63.7988V60.2365C68.0597 59.2742 67.2802 58.4922 66.3153 58.4922C65.3505 58.4922 64.571 59.2717 64.571 60.2365V63.8014C57.5962 64.3777 52.3657 68.3361 52.3657 73.3127C52.3657 79.1525 58.5915 81.0594 64.571 82.5295ZM76.7763 89.0066C76.7763 91.9697 72.9397 94.5139 68.0571 95.0141V83.3877C73.3917 84.7563 76.7763 86.0969 76.7763 89.0066ZM64.571 67.3053V78.9316C59.2364 77.5631 55.8519 76.2225 55.8519 73.3127C55.8519 70.4029 59.696 67.8055 64.571 67.3053Z" fill="white"/>
<path d="M82.8395 47.9148L48.91 47.9885C47.5033 47.0135 46.6604 45.4113 46.6553 43.7C46.6502 40.8105 48.9836 38.4619 51.8731 38.4568H52.0762L52.5586 38.4873L79.168 38.4492L78.6769 38.4499L79.7723 38.4568C81.4836 38.4619 83.0858 39.3023 84.0608 40.7115C85.6807 43.0525 85.2902 46.3344 83 48L82.8395 47.9148Z" stroke="white" stroke-width="3" stroke-miterlimit="10"/>
</svg>
