<svg width="109" height="107" viewBox="0 0 109 107" fill="none" xmlns="http://www.w3.org/2000/svg">
<g clip-path="url(#clip0_263_166)">
<path d="M23.0997 86.0664C28.2508 86.0664 32.381 81.9478 32.381 76.785C32.381 71.6222 28.2624 67.5036 23.0997 67.5036C22.5892 67.5036 22.0671 67.5036 21.5566 67.608V39.4739H39.5973C40.1078 39.4739 40.5254 39.0562 40.5254 38.5457V32.4664C40.5254 31.6427 40.421 30.9234 40.2122 30.2041H68.0447C67.8359 30.9234 67.7315 31.7471 67.7315 32.4664V38.5457C67.7315 39.0562 68.1491 39.4739 68.6596 39.4739H86.5959V67.608C86.1782 67.5036 85.6677 67.5036 85.2617 67.5036C80.1105 67.5036 75.9803 71.6222 75.9803 76.785C75.9803 81.9478 80.0989 86.0664 85.2617 86.0664" stroke="white" stroke-width="4" stroke-linecap="round" stroke-linejoin="round"/>
<path d="M86.4917 91.8439L85.8768 92.2615C85.1575 92.772 84.2294 92.772 83.5101 92.2615L79.3914 89.3727C78.9738 88.955 78.4633 88.7578 77.9528 88.7578H76.3054C72.2912 88.7578 68.9847 91.4378 67.9521 95.1504H40.224C39.2959 91.4378 35.8966 88.7578 31.8708 88.7578H29.3996C28.8892 88.7578 28.3671 88.9666 27.961 89.3727L23.8424 92.2615C23.1231 92.772 22.2994 92.772 21.5801 92.2615" stroke="white" stroke-width="4" stroke-linecap="round" stroke-linejoin="round"/>
<path d="M54.0297 74.824C60.7447 74.824 66.1883 69.3804 66.1883 62.6654C66.1883 55.9504 60.7447 50.5068 54.0297 50.5068C47.3147 50.5068 41.8711 55.9504 41.8711 62.6654C41.8711 69.3804 47.3147 74.824 54.0297 74.824Z" stroke="white" stroke-width="4" stroke-linecap="round" stroke-linejoin="round"/>
<path d="M56.672 62.6651C56.672 64.1235 55.4897 65.3058 54.0313 65.3058C52.5729 65.3058 51.3906 64.1235 51.3906 62.6651C51.3906 61.2067 52.5729 60.0244 54.0313 60.0244C55.4897 60.0244 56.672 61.2067 56.672 62.6651Z" fill="#006CA7" stroke="white" stroke-width="4"/>
<path d="M94.428 12.0587C94.428 17.2099 90.3094 21.3401 85.1466 21.3401C79.9838 21.3401 75.8652 17.2215 75.8652 12.0587C75.8652 6.89595 79.9838 2.77734 85.1466 2.77734C90.3094 2.77734 94.428 6.89595 94.428 12.0587Z" stroke="white" stroke-width="4" stroke-linecap="round" stroke-linejoin="round"/>
<path d="M102.571 32.571V38.6503C102.571 39.1607 102.154 39.5784 101.643 39.5784H68.5551C68.0446 39.5784 67.627 39.1607 67.627 38.6503V32.571C67.627 31.7473 67.7314 31.0279 67.9402 30.3086C68.9728 26.7005 72.2676 24.0205 76.189 24.0205H77.8365C78.3469 24.0205 78.869 24.2293 79.2751 24.6354L83.3937 27.5242C84.113 28.0347 85.0411 28.0347 85.7604 27.5242L89.879 24.6354C90.2967 24.2177 90.8072 24.0205 91.3177 24.0205H93.7888C98.7312 24.0205 102.548 27.8375 102.548 32.571H102.571Z" stroke="white" stroke-width="4" stroke-linecap="round" stroke-linejoin="round"/>
<path d="M75.9805 39.4741V30.6104" stroke="white" stroke-width="4" stroke-linecap="round" stroke-linejoin="round"/>
<path d="M94.7402 39.4741V30.6104" stroke="white" stroke-width="4" stroke-linecap="round" stroke-linejoin="round"/>
<path d="M32.3811 12.0587C32.3811 17.2099 28.2625 21.3401 23.0997 21.3401C17.937 21.3401 13.8184 17.2215 13.8184 12.0587C13.8184 6.89595 17.937 2.77734 23.0997 2.77734C28.2625 2.77734 32.3811 6.89595 32.3811 12.0587Z" stroke="white" stroke-width="4" stroke-linecap="round" stroke-linejoin="round"/>
<path d="M40.5264 32.571V38.6503C40.5264 39.1607 40.1087 39.5784 39.5983 39.5784H6.51017C5.99969 39.5784 5.58203 39.1607 5.58203 38.6503V32.571C5.58203 27.8259 9.399 24.0205 14.1325 24.0205H15.7799C16.2904 24.0205 16.8125 24.2293 17.2186 24.6354L21.3372 27.5242C22.0565 28.0347 22.9846 28.0347 23.7039 27.5242L27.8225 24.6354C28.2402 24.2177 28.7507 24.0205 29.2611 24.0205H31.7323C35.6537 24.0205 38.9486 26.7005 39.9811 30.3086C40.3988 31.0279 40.4916 31.7473 40.4916 32.571H40.5264Z" stroke="white" stroke-width="4" stroke-linecap="round" stroke-linejoin="round"/>
<path d="M13.9238 39.4741V30.6104" stroke="white" stroke-width="4" stroke-linecap="round" stroke-linejoin="round"/>
<path d="M32.6836 39.4741V30.6104" stroke="white" stroke-width="4" stroke-linecap="round" stroke-linejoin="round"/>
<path d="M94.4281 76.7853C94.4281 81.426 91.0288 85.2429 86.4925 85.9622C86.0749 86.0667 85.5644 86.0667 85.1583 86.0667C80.0072 86.0667 75.877 81.948 75.877 76.7853C75.877 71.6225 79.9956 67.5039 85.1583 67.5039C85.6688 67.5039 86.0865 67.5039 86.4925 67.6083C91.0288 68.3276 94.4281 72.1446 94.4281 76.7853Z" stroke="white" stroke-width="4" stroke-linecap="round" stroke-linejoin="round"/>
<path d="M102.571 97.2964V103.376C102.571 103.886 102.154 104.304 101.643 104.304H68.5551C68.0446 104.304 67.627 103.886 67.627 103.376V97.2964C67.627 96.5771 67.7314 95.8578 67.9402 95.1269C68.8683 91.4144 72.2676 88.7344 76.2934 88.7344H77.9409C78.4514 88.7344 78.9734 88.9432 79.3795 89.3493L83.4981 92.2381C84.2174 92.7486 85.1455 92.7486 85.8649 92.2381L86.4797 91.8204L89.9835 89.3493C90.4011 88.9316 90.9116 88.7344 91.4221 88.7344H93.8932C98.7428 88.7344 102.548 92.5513 102.548 97.2848L102.571 97.2964Z" stroke="white" stroke-width="4" stroke-linecap="round" stroke-linejoin="round"/>
<path d="M75.9805 104.211V95.3477" stroke="white" stroke-width="4" stroke-linecap="round" stroke-linejoin="round"/>
<path d="M94.7402 104.211V95.3477" stroke="white" stroke-width="4" stroke-linecap="round" stroke-linejoin="round"/>
<path d="M32.3821 76.7853C32.3821 81.9364 28.2635 86.0667 23.1007 86.0667C22.5903 86.0667 22.0682 86.0667 21.5577 85.9622C17.1259 85.2429 13.7266 81.426 13.7266 76.7853C13.7266 72.1446 17.1259 68.3276 21.5577 67.6083C22.0682 67.5039 22.5903 67.5039 23.1007 67.5039C28.2519 67.5039 32.3821 71.7269 32.3821 76.7853Z" stroke="white" stroke-width="4" stroke-linecap="round" stroke-linejoin="round"/>
<path d="M40.5264 97.2966V103.376C40.5264 103.886 40.1087 104.304 39.5983 104.304H6.51017C5.99969 104.304 5.58203 103.886 5.58203 103.376V97.2966C5.58203 92.5515 9.399 88.7461 14.1325 88.7461H15.7799C16.2904 88.7461 16.8125 88.9549 17.2186 89.361L21.3372 92.2498H21.4416C22.1609 92.6675 22.9846 92.6675 23.7039 92.2498L27.8225 89.361C28.2402 88.9433 28.7507 88.7461 29.2611 88.7461H31.7323C35.7465 88.7461 39.053 91.4261 40.0855 95.1386C40.3988 95.8579 40.5032 96.5773 40.5032 97.3082L40.5264 97.2966Z" stroke="white" stroke-width="4" stroke-linecap="round" stroke-linejoin="round"/>
<path d="M13.9238 104.211V95.3477" stroke="white" stroke-width="4" stroke-linecap="round" stroke-linejoin="round"/>
<path d="M32.6836 104.211V95.3477" stroke="white" stroke-width="4" stroke-linecap="round" stroke-linejoin="round"/>
<path d="M54.0312 49.927V30.2041" stroke="white" stroke-width="4" stroke-linecap="round" stroke-linejoin="round"/>
<path d="M54.0312 94.9297V75.7637" stroke="white" stroke-width="4" stroke-linecap="round" stroke-linejoin="round"/>
<path d="M66.1895 62.666H86.1908" stroke="white" stroke-width="4" stroke-linecap="round" stroke-linejoin="round"/>
<path d="M21.7656 62.666H41.3493" stroke="white" stroke-width="4" stroke-linecap="round" stroke-linejoin="round"/>
<path d="M66.1348 19.5376V19.5234H66.149V19.5376H66.1348Z" fill="#006CA7" stroke="white" stroke-width="4"/>
<path d="M62.1094 15.6158V15.6016H62.1236V15.6158H62.1094Z" fill="#006CA7" stroke="white" stroke-width="4"/>
<path d="M58.0957 11.6021V11.5879H58.1099V11.6021H58.0957Z" fill="#006CA7" stroke="white" stroke-width="4"/>
<path d="M54.0703 7.57572V7.56152H54.0845V7.57572H54.0703Z" fill="#006CA7" stroke="white" stroke-width="4"/>
<path d="M50.0547 11.6021V11.5879H50.0689V11.6021H50.0547Z" fill="#006CA7" stroke="white" stroke-width="4"/>
<path d="M46.0293 15.6158V15.6016H46.0435V15.6158H46.0293Z" fill="#006CA7" stroke="white" stroke-width="4"/>
<path d="M42.0156 19.5376V19.5234H42.0298V19.5376H42.0156Z" fill="#006CA7" stroke="white" stroke-width="4"/>
<path d="M37.584 47.4742V47.46H37.5982V47.4742H37.584Z" fill="#006CA7" stroke="white" stroke-width="4"/>
<path d="M33.5586 51.4888V51.4746H33.5728V51.4888H33.5586Z" fill="#006CA7" stroke="white" stroke-width="4"/>
<path d="M74.791 47.4742V47.46H74.8052V47.4742H74.791Z" fill="#006CA7" stroke="white" stroke-width="4"/>
<path d="M70.7754 51.4888V51.4746H70.7896V51.4888H70.7754Z" fill="#006CA7" stroke="white" stroke-width="4"/>
</g>
<defs>
<clipPath id="clip0_263_166">
<rect width="107.896" height="106.736" fill="white" transform="translate(0.128906 0.178711)"/>
</clipPath>
</defs>
</svg>
