<svg width="1300" height="1300" viewBox="0 0 1300 1300" fill="none" xmlns="http://www.w3.org/2000/svg">
<mask id="mask0_87_345" style="mask-type:luminance" maskUnits="userSpaceOnUse" x="190" y="190" width="920" height="920">
<path d="M975 975C1154.49 795.507 1154.49 504.493 975 325C795.507 145.507 504.493 145.507 325 325C145.507 504.492 145.507 795.508 325 975C504.493 1154.49 795.507 1154.49 975 975Z" fill="white"/>
</mask>
<g mask="url(#mask0_87_345)">
<path d="M93.752 1076.59C93.9154 938.004 94.0789 632.94 94.2541 494.349L157.868 533.179H282.809L492.37 639.61L593.186 690.814L700.798 745.463L781.226 707.867L882.043 660.754L1091.6 562.816H1216.54L1280.16 527.087C1280.32 654.618 1280.49 948.62 1280.66 1076.15L93.752 1076.59Z" fill="url(#paint0_linear_87_345)"/>
<path d="M93.752 907.31C93.9154 768.719 94.0789 463.656 94.2541 325.064L157.868 363.895H282.809L492.37 470.326L593.186 521.529L700.798 576.179L781.226 538.582L882.043 491.47L1091.6 393.532H1216.54L1280.16 357.803C1280.32 485.333 1280.49 779.336 1280.66 906.866L93.752 907.31Z" fill="url(#paint1_linear_87_345)"/>
<path d="M525.614 667.09H522.006V692.447H525.614V667.09Z" fill="#005267"/>
<path d="M484.616 667.09H481.008V692.448H484.616V667.09Z" fill="#005267"/>
<path d="M520.466 690.892H527.156C528.523 690.892 529.632 691.948 529.632 693.248V693.715H517.979V693.248C517.979 691.948 519.088 690.892 520.454 690.892H520.466Z" fill="#005267"/>
<path d="M479.466 690.892H486.156C487.523 690.892 488.632 691.948 488.632 693.248V693.715H476.979V693.248C476.979 691.948 478.088 690.892 479.454 690.892H479.466Z" fill="#005267"/>
<path d="M536.741 670.381H473.793L461.766 632.14H524.714L536.741 670.381Z" fill="#4091BD"/>
<path d="M526.561 649.504H510.4L506.045 635.664H522.205L526.561 649.504Z" fill="#7FB5D3"/>
<path d="M532.012 666.857H515.852L511.508 653.017H527.668L532.012 666.857Z" fill="#7FB5D3"/>
<path d="M506.776 649.504H490.615L486.26 635.664H502.42L506.776 649.504Z" fill="#7FB5D3"/>
<path d="M512.244 666.857H496.084L491.729 653.017H507.889L512.244 666.857Z" fill="#7FB5D3"/>
<path d="M486.998 649.504H470.838L466.494 635.664H482.643L486.998 649.504Z" fill="#7FB5D3"/>
<path d="M492.465 666.857H476.305L471.949 653.017H488.11L492.465 666.857Z" fill="#7FB5D3"/>
<path d="M536.741 670.381L534.826 673.772H471.877L473.792 670.381H536.741Z" fill="#005267"/>
<path d="M473.79 670.381L471.875 673.772L459.848 635.541L461.763 632.14L473.79 670.381Z" fill="#006CA7"/>
<path d="M455.846 667.09H452.238V692.403H455.846V667.09Z" fill="#005267"/>
<path d="M414.893 667.09H411.285V692.403H414.893V667.09Z" fill="#006CA7"/>
<path d="M450.696 690.847H457.375C458.741 690.847 459.851 691.903 459.851 693.203V693.67H448.221V693.203C448.221 691.903 449.33 690.847 450.696 690.847Z" fill="#005267"/>
<path d="M409.759 690.847H416.438C417.804 690.847 418.913 691.903 418.913 693.203V693.67H407.283V693.203C407.283 691.903 408.392 690.847 409.759 690.847Z" fill="#006CA7"/>
<path d="M466.937 670.358H404.093L392.078 632.184H454.934L466.937 670.358Z" fill="#4091BD"/>
<path d="M456.766 649.515H440.641L436.297 635.697H452.422L456.766 649.515Z" fill="#7FB5D3"/>
<path d="M462.221 666.846H446.096L441.74 653.028H457.877L462.221 666.846Z" fill="#7FB5D3"/>
<path d="M437.02 649.515H420.894L416.551 635.697H432.676L437.02 649.515Z" fill="#7FB5D3"/>
<path d="M442.473 666.846H426.336L421.992 653.028H438.129L442.473 666.846Z" fill="#7FB5D3"/>
<path d="M417.276 649.515H401.15L396.795 635.697H412.932L417.276 649.515Z" fill="#7FB5D3"/>
<path d="M422.729 666.846H406.592L402.248 653.028H418.385L422.729 666.846Z" fill="#7FB5D3"/>
<path d="M466.94 670.358L465.037 673.76H402.182L404.097 670.358H466.94Z" fill="#006CA7"/>
<path d="M404.094 670.359L402.179 673.76L390.176 635.586L392.079 632.184L404.094 670.359Z" fill="#006CA7"/>
<path d="M385.702 667.09H382.094V692.403H385.702V667.09Z" fill="#006CA7"/>
<path d="M344.764 667.09H341.156V692.403H344.764V667.09Z" fill="#006CA7"/>
<path d="M380.554 690.846H387.233C388.599 690.846 389.708 691.903 389.708 693.203V693.67H378.078V693.203C378.078 691.903 379.187 690.846 380.554 690.846Z" fill="#006CA7"/>
<path d="M339.616 690.847H346.295C347.661 690.847 348.771 691.903 348.771 693.203V693.67H337.141V693.203C337.141 691.903 338.25 690.847 339.616 690.847Z" fill="#006CA7"/>
<path d="M396.797 670.359H333.953L321.949 632.184H384.793L396.797 670.359Z" fill="#4091BD"/>
<path d="M386.637 649.515H370.5L366.156 635.697H382.293L386.637 649.515Z" fill="#7FB5D3"/>
<path d="M392.081 666.846H375.955L371.611 653.028H387.737L392.081 666.846Z" fill="#7FB5D3"/>
<path d="M366.895 649.515H350.758L346.414 635.697H362.54L366.895 649.515Z" fill="#7FB5D3"/>
<path d="M372.336 666.846H356.211L351.867 653.028H367.993L372.336 666.846Z" fill="#7FB5D3"/>
<path d="M347.149 649.515H331.012L326.668 635.697H342.793L347.149 649.515Z" fill="#7FB5D3"/>
<path d="M352.592 666.846H336.467L332.123 653.028H348.249L352.592 666.846Z" fill="#7FB5D3"/>
<path d="M396.796 670.358L394.893 673.76H332.037L333.952 670.358H396.796Z" fill="#006CA7"/>
<path d="M333.95 670.358L332.035 673.76L320.031 635.586L321.946 632.184L333.95 670.358Z" fill="#006CA7"/>
<path d="M899.861 525.086H897.958L895.984 625.937H899.861H903.726L901.753 525.086H899.861Z" fill="#51B89F"/>
<path d="M903.992 523.353H895.714C894.651 523.353 893.787 524.464 893.787 525.843C893.787 527.221 894.651 528.333 895.714 528.333H903.992C905.055 528.333 905.919 527.221 905.919 525.843C905.919 524.464 905.055 523.353 903.992 523.353Z" fill="#51B89F"/>
<path d="M891.572 525.32C890.346 525.353 889.155 525.709 888.128 526.343L864.26 541.25C863.793 541.539 864.155 542.228 864.681 542.039L889.342 533.468C890.171 533.179 890.883 532.657 891.385 531.957C891.385 531.957 895.355 527.087 895.46 526.832L895.18 525.22L891.56 525.309L891.572 525.32Z" fill="#51B89F"/>
<path d="M905.886 527.532C905.209 526.998 904.368 526.665 903.493 526.598C903.493 526.598 897.07 525.764 896.79 525.798L895.459 526.832L897.351 529.767C897.993 530.756 898.915 531.567 900.001 532.09L925.503 544.307C926.005 544.54 926.437 543.907 926.017 543.562L905.886 527.51V527.532Z" fill="#51B89F"/>
<path d="M897.677 492.304C897.642 491.77 896.848 491.726 896.743 492.248L892.213 516.871C892.061 517.694 892.178 518.55 892.563 519.306C892.563 519.306 895.015 525.02 895.19 525.231L896.802 525.809L898.53 522.785C899.114 521.763 899.382 520.595 899.312 519.439L897.677 492.304Z" fill="#51B89F"/>
<path d="M895.714 523.353C894.651 523.353 893.787 524.464 893.787 525.843C893.787 527.221 894.651 528.333 895.714 528.333C896.776 528.333 897.64 527.221 897.64 525.843C897.64 524.464 896.776 523.353 895.714 523.353Z" fill="#51B89F"/>
<path d="M895.716 524.897C895.307 524.897 894.98 525.32 894.98 525.842C894.98 526.365 895.307 526.787 895.716 526.787C896.125 526.787 896.452 526.365 896.452 525.842C896.452 525.32 896.125 524.897 895.716 524.897Z" fill="#51B89F"/>
<path d="M895.086 523.897H894.595C893.953 523.897 891.162 524.831 891.174 525.842C891.174 526.776 894.023 527.788 894.595 527.788H895.086C895.833 527.788 896.452 526.921 896.452 525.842C896.452 524.764 895.844 523.897 895.086 523.897Z" fill="#51B89F"/>
<path fill-rule="evenodd" clip-rule="evenodd" d="M717.193 587.262C722.553 587.262 726.908 601.136 726.908 611.763C726.908 622.391 722.553 625.781 717.193 625.781C711.834 625.781 707.479 622.391 707.479 611.763C707.479 601.136 711.834 587.262 717.193 587.262Z" fill="#006CA7"/>
<path fill-rule="evenodd" clip-rule="evenodd" d="M643.889 602.569C647.123 602.569 649.739 610.929 649.739 617.332C649.739 623.735 647.112 625.781 643.889 625.781C640.666 625.781 638.039 623.735 638.039 617.332C638.039 610.929 640.666 602.569 643.889 602.569Z" fill="#006CA7"/>
<path fill-rule="evenodd" clip-rule="evenodd" d="M1091.09 594.343C1095.47 594.343 1099.02 605.66 1099.02 614.342C1099.02 623.013 1095.47 625.781 1091.09 625.781C1086.71 625.781 1083.16 623.013 1083.16 614.342C1083.16 605.671 1086.71 594.343 1091.09 594.343Z" fill="#006CA7"/>
<path fill-rule="evenodd" clip-rule="evenodd" d="M971.323 554.768C974.557 554.768 977.173 563.127 977.173 569.53C977.173 575.934 974.545 577.979 971.323 577.979C968.088 577.979 965.473 575.934 965.473 569.53C965.473 563.127 968.1 554.768 971.323 554.768Z" fill="#006CA7"/>
<path fill-rule="evenodd" clip-rule="evenodd" d="M1049.58 417.399C1052.81 417.399 1055.43 425.759 1055.43 432.162C1055.43 438.565 1052.8 440.611 1049.58 440.611C1046.36 440.611 1043.73 438.565 1043.73 432.162C1043.73 425.759 1046.36 417.399 1049.58 417.399Z" fill="#006CA7"/>
<path d="M1054.54 525.086H1052.65L1050.68 625.937H1054.54H1058.42L1056.44 525.086H1054.54Z" fill="#006CA7"/>
<path d="M1058.69 523.353H1050.41C1049.34 523.353 1048.48 524.464 1048.48 525.843C1048.48 527.221 1049.34 528.333 1050.41 528.333H1058.69C1059.75 528.333 1060.61 527.221 1060.61 525.843C1060.61 524.464 1059.75 523.353 1058.69 523.353Z" fill="#006CA7"/>
<path d="M1046.26 525.32C1045.04 525.353 1043.85 525.709 1042.82 526.343L1018.95 541.25C1018.48 541.539 1018.85 542.228 1019.37 542.039L1044.03 533.468C1044.86 533.179 1045.57 532.657 1046.08 531.956C1046.08 531.956 1050.05 527.087 1050.15 526.832L1049.87 525.22L1046.25 525.309L1046.26 525.32Z" fill="#006CA7"/>
<path d="M1060.58 527.532C1059.9 526.998 1059.06 526.665 1058.19 526.598C1058.19 526.598 1051.76 525.764 1051.48 525.798L1050.15 526.832L1052.04 529.767C1052.69 530.756 1053.61 531.567 1054.69 532.09L1080.2 544.307C1080.7 544.54 1081.13 543.907 1080.71 543.562L1060.58 527.51V527.532Z" fill="#006CA7"/>
<path d="M1052.36 492.304C1052.32 491.77 1051.53 491.726 1051.42 492.248L1046.89 516.871C1046.74 517.694 1046.86 518.55 1047.24 519.306C1047.24 519.306 1049.7 525.02 1049.87 525.231L1051.48 525.809L1053.21 522.785C1053.8 521.763 1054.06 520.595 1053.99 519.439L1052.36 492.304Z" fill="#006CA7"/>
<path d="M1050.41 523.353C1049.34 523.353 1048.48 524.464 1048.48 525.843C1048.48 527.221 1049.34 528.333 1050.41 528.333C1051.47 528.333 1052.33 527.221 1052.33 525.843C1052.33 524.464 1051.47 523.353 1050.41 523.353Z" fill="#006CA7"/>
<path d="M1050.41 524.898C1050 524.898 1049.67 525.32 1049.67 525.842C1049.67 526.365 1050 526.787 1050.41 526.787C1050.82 526.787 1051.14 526.365 1051.14 525.842C1051.14 525.32 1050.82 524.898 1050.41 524.898Z" fill="#006CA7"/>
<path d="M1049.77 523.897H1049.28C1048.63 523.897 1045.84 524.831 1045.86 525.842C1045.86 526.776 1048.7 527.788 1049.28 527.788H1049.77C1050.51 527.788 1051.13 526.921 1051.13 525.842C1051.13 524.764 1050.53 523.897 1049.77 523.897Z" fill="#006CA7"/>
<path d="M1007.65 355.079H1005.75L1003.77 455.929H1007.65H1011.53L1009.54 355.079H1007.65Z" fill="#006CA7"/>
<path d="M1011.79 353.356H1003.51C1002.45 353.356 1001.59 354.468 1001.59 355.847C1001.59 357.225 1002.45 358.337 1003.51 358.337H1011.79C1012.86 358.337 1013.72 357.225 1013.72 355.847C1013.72 354.468 1012.86 353.356 1011.79 353.356Z" fill="#006CA7"/>
<path d="M999.359 355.324C998.133 355.358 996.942 355.713 995.915 356.347L972.048 371.266C971.581 371.555 971.942 372.244 972.468 372.055L997.129 363.484C997.958 363.195 998.67 362.672 999.172 361.972C999.172 361.972 1003.14 357.103 1003.25 356.847L1002.97 355.235L999.348 355.324H999.359Z" fill="#006CA7"/>
<path d="M1013.69 357.537C1013.01 357.003 1012.17 356.67 1011.29 356.603C1011.29 356.603 1004.87 355.769 1004.59 355.803L1003.26 356.837L1005.15 359.771C1005.79 360.761 1006.71 361.572 1007.8 362.095L1033.3 374.312C1033.8 374.545 1034.24 373.912 1033.82 373.567L1013.69 357.515V357.537Z" fill="#006CA7"/>
<path d="M1005.46 322.296C1005.43 321.763 1004.63 321.718 1004.53 322.241L999.998 346.864C999.846 347.687 999.963 348.543 1000.35 349.299C1000.35 349.299 1002.8 355.013 1002.98 355.224L1004.59 355.802L1006.32 352.778C1006.9 351.755 1007.17 350.588 1007.1 349.432L1005.46 322.296Z" fill="#006CA7"/>
<path d="M1003.5 353.356C1002.44 353.356 1001.58 354.468 1001.58 355.847C1001.58 357.225 1002.44 358.337 1003.5 358.337C1004.57 358.337 1005.43 357.225 1005.43 355.847C1005.43 354.468 1004.57 353.356 1003.5 353.356Z" fill="#006CA7"/>
<path d="M1003.51 354.902C1003.1 354.902 1002.77 355.324 1002.77 355.847C1002.77 356.369 1003.1 356.792 1003.51 356.792C1003.91 356.792 1004.24 356.369 1004.24 355.847C1004.24 355.324 1003.91 354.902 1003.51 354.902Z" fill="#006CA7"/>
<path d="M1002.87 353.901H1002.38C1001.74 353.901 998.949 354.835 998.961 355.847C998.961 356.781 1001.81 357.792 1002.38 357.792H1002.87C1003.62 357.792 1004.24 356.925 1004.24 355.847C1004.24 354.768 1003.63 353.901 1002.87 353.901Z" fill="#006CA7"/>
<path d="M472.543 526.942H474.446L476.419 627.793H472.543H468.666L470.639 526.942H472.543Z" fill="#006CA7"/>
<path d="M468.397 525.22H476.676C477.739 525.22 478.603 526.331 478.603 527.71C478.603 529.088 477.739 530.2 476.676 530.2H468.397C467.335 530.2 466.471 529.088 466.471 527.71C466.471 526.331 467.335 525.22 468.397 525.22Z" fill="#006CA7"/>
<path d="M480.822 527.187C482.048 527.221 483.239 527.577 484.267 528.21L508.134 543.118C508.601 543.407 508.239 544.096 507.713 543.907L483.052 535.336C482.223 535.047 481.511 534.524 481.009 533.824C481.009 533.824 477.039 528.955 476.934 528.699L477.214 527.087L480.834 527.176L480.822 527.187Z" fill="#006CA7"/>
<path d="M466.507 529.4C467.185 528.866 468.025 528.533 468.901 528.466C468.901 528.466 475.323 527.632 475.603 527.666L476.935 528.699L475.043 531.634C474.401 532.624 473.478 533.435 472.392 533.958L446.891 546.175C446.389 546.408 445.956 545.775 446.377 545.43L466.507 529.377V529.4Z" fill="#006CA7"/>
<path d="M474.728 494.16C474.763 493.626 475.557 493.582 475.662 494.104L480.192 518.727C480.344 519.55 480.227 520.406 479.842 521.162C479.842 521.162 477.39 526.876 477.215 527.087L475.603 527.665L473.875 524.641C473.291 523.619 473.023 522.451 473.093 521.295L474.728 494.16Z" fill="#006CA7"/>
<path d="M476.69 525.22C477.753 525.22 478.617 526.332 478.617 527.71C478.617 529.088 477.753 530.2 476.69 530.2C475.628 530.2 474.764 529.088 474.764 527.71C474.764 526.332 475.628 525.22 476.69 525.22Z" fill="#006CA7"/>
<path d="M476.687 526.765C477.095 526.765 477.422 527.187 477.422 527.71C477.422 528.232 477.095 528.654 476.687 528.654C476.278 528.654 475.951 528.232 475.951 527.71C475.951 527.187 476.278 526.765 476.687 526.765Z" fill="#006CA7"/>
<path d="M477.317 525.753H477.808C478.45 525.753 481.241 526.687 481.229 527.699C481.229 528.633 478.38 529.644 477.808 529.644H477.317C476.57 529.644 475.951 528.777 475.951 527.699C475.951 526.621 476.558 525.753 477.317 525.753Z" fill="#006CA7"/>
<path d="M415.328 377.135H417.219L419.193 477.985H415.328H411.451L413.425 377.135H415.328Z" fill="#006CA7"/>
<path d="M411.182 375.401H419.461C420.524 375.401 421.388 376.513 421.388 377.891C421.388 379.27 420.524 380.382 419.461 380.382H411.182C410.12 380.382 409.256 379.27 409.256 377.891C409.256 376.513 410.12 375.401 411.182 375.401Z" fill="#006CA7"/>
<path d="M423.603 377.368C424.829 377.401 426.02 377.757 427.048 378.391L450.915 393.298C451.382 393.587 451.02 394.277 450.494 394.088L425.833 385.517C425.004 385.228 424.292 384.705 423.79 384.005C423.79 384.005 419.82 379.136 419.715 378.88L419.995 377.268L423.615 377.357L423.603 377.368Z" fill="#006CA7"/>
<path d="M409.289 379.58C409.966 379.047 410.807 378.713 411.682 378.647C411.682 378.647 418.104 377.813 418.385 377.846L419.716 378.88L417.824 381.815C417.182 382.804 416.26 383.616 415.174 384.138L389.672 396.355C389.17 396.589 388.738 395.955 389.158 395.611L409.289 379.558V379.58Z" fill="#006CA7"/>
<path d="M417.501 344.352C417.536 343.818 418.33 343.774 418.435 344.296L422.966 368.92C423.118 369.742 423.001 370.598 422.615 371.354C422.615 371.354 420.163 377.068 419.988 377.279L418.377 377.858L416.649 374.834C416.065 373.811 415.796 372.644 415.866 371.488L417.501 344.352Z" fill="#006CA7"/>
<path d="M419.462 375.401C420.524 375.401 421.388 376.513 421.388 377.891C421.388 379.27 420.524 380.382 419.462 380.382C418.399 380.382 417.535 379.27 417.535 377.891C417.535 376.513 418.399 375.401 419.462 375.401Z" fill="#006CA7"/>
<path d="M419.458 376.946C419.867 376.946 420.194 377.369 420.194 377.891C420.194 378.414 419.867 378.836 419.458 378.836C419.05 378.836 418.723 378.414 418.723 377.891C418.723 377.369 419.05 376.946 419.458 376.946Z" fill="#006CA7"/>
<path d="M420.089 375.945H420.579C421.221 375.945 424.012 376.879 424 377.89C424 378.824 421.151 379.836 420.579 379.836H420.089C419.341 379.836 418.723 378.969 418.723 377.89C418.723 376.812 419.33 375.945 420.089 375.945Z" fill="#006CA7"/>
<path d="M317.851 526.942H319.755L321.728 627.793H317.851H313.986L315.96 526.942H317.851Z" fill="#006CA7"/>
<path d="M313.718 525.22H321.996C323.059 525.22 323.923 526.331 323.923 527.71C323.923 529.088 323.059 530.2 321.996 530.2H313.718C312.655 530.2 311.791 529.088 311.791 527.71C311.791 526.331 312.655 525.22 313.718 525.22Z" fill="#006CA7"/>
<path d="M326.138 527.187C327.364 527.221 328.555 527.577 329.583 528.21L353.45 543.118C353.917 543.407 353.555 544.096 353.03 543.907L328.369 535.336C327.54 535.047 326.827 534.524 326.325 533.824C326.325 533.824 322.355 528.955 322.25 528.699L322.53 527.087L326.15 527.176L326.138 527.187Z" fill="#006CA7"/>
<path d="M311.826 529.4C312.503 528.866 313.344 528.533 314.219 528.466C314.219 528.466 320.642 527.632 320.922 527.666L322.253 528.699L320.361 531.634C319.719 532.624 318.797 533.435 317.711 533.958L292.209 546.175C291.707 546.408 291.275 545.775 291.695 545.43L311.826 529.377V529.4Z" fill="#006CA7"/>
<path d="M320.036 494.16C320.071 493.626 320.865 493.582 320.97 494.104L325.501 518.727C325.653 519.55 325.536 520.406 325.151 521.162C325.151 521.162 322.699 526.876 322.523 527.087L320.912 527.665L319.184 524.641C318.6 523.619 318.331 522.451 318.402 521.295L320.036 494.16Z" fill="#006CA7"/>
<path d="M321.995 525.22C323.058 525.22 323.922 526.332 323.922 527.71C323.922 529.088 323.058 530.2 321.995 530.2C320.932 530.2 320.068 529.088 320.068 527.71C320.068 526.332 320.932 525.22 321.995 525.22Z" fill="#006CA7"/>
<path d="M321.997 526.765C322.406 526.765 322.733 527.187 322.733 527.71C322.733 528.232 322.406 528.655 321.997 528.655C321.589 528.655 321.262 528.232 321.262 527.71C321.262 527.187 321.589 526.765 321.997 526.765Z" fill="#006CA7"/>
<path d="M322.628 525.753H323.118C323.761 525.753 326.551 526.687 326.54 527.699C326.54 528.633 323.69 529.644 323.118 529.644H322.628C321.881 529.644 321.262 528.777 321.262 527.699C321.262 526.621 321.869 525.753 322.628 525.753Z" fill="#006CA7"/>
<path d="M219.908 341.617H221.811L223.785 442.468H219.908H216.043L218.016 341.617H219.908Z" fill="#006CA7"/>
<path d="M215.772 339.894H224.051C225.114 339.894 225.978 341.005 225.978 342.384C225.978 343.762 225.114 344.874 224.051 344.874H215.772C214.71 344.874 213.846 343.762 213.846 342.384C213.846 341.005 214.71 339.894 215.772 339.894Z" fill="#006CA7"/>
<path d="M228.199 341.862C229.425 341.895 230.616 342.251 231.643 342.885L255.511 357.803C255.978 358.092 255.616 358.781 255.09 358.592L230.429 350.022C229.6 349.733 228.888 349.21 228.386 348.51C228.386 348.51 224.416 343.641 224.311 343.385L224.591 341.773L228.211 341.862H228.199Z" fill="#006CA7"/>
<path d="M213.88 344.074C214.558 343.541 215.398 343.207 216.274 343.14C216.274 343.14 222.696 342.307 222.977 342.34L224.308 343.374L222.416 346.309C221.774 347.298 220.851 348.11 219.765 348.632L194.264 360.849C193.762 361.083 193.33 360.449 193.75 360.104L213.88 344.052V344.074Z" fill="#006CA7"/>
<path d="M222.089 308.834C222.124 308.301 222.918 308.256 223.023 308.779L227.554 333.402C227.705 334.225 227.589 335.081 227.203 335.837C227.203 335.837 224.751 341.55 224.576 341.762L222.965 342.34L221.237 339.316C220.653 338.293 220.384 337.126 220.454 335.97L222.089 308.834Z" fill="#006CA7"/>
<path d="M224.05 339.894C225.112 339.894 225.976 341.005 225.976 342.384C225.976 343.762 225.112 344.874 224.05 344.874C222.987 344.874 222.123 343.762 222.123 342.384C222.123 341.005 222.987 339.894 224.05 339.894Z" fill="#006CA7"/>
<path d="M224.052 341.438C224.461 341.438 224.788 341.861 224.788 342.383C224.788 342.906 224.461 343.328 224.052 343.328C223.643 343.328 223.316 342.906 223.316 342.383C223.316 341.861 223.643 341.438 224.052 341.438Z" fill="#006CA7"/>
<path d="M224.683 340.439H225.173C225.815 340.439 228.606 341.373 228.594 342.384C228.594 343.318 225.745 344.33 225.173 344.33H224.683C223.935 344.33 223.316 343.463 223.316 342.384C223.316 341.306 223.924 340.439 224.683 340.439Z" fill="#006CA7"/>
<path d="M171.449 527.187C172.675 527.221 173.866 527.577 174.893 528.21L198.761 543.118C199.228 543.407 198.866 544.096 198.34 543.907L173.679 535.336C172.85 535.047 172.138 534.524 171.636 533.824C171.636 533.824 167.666 528.955 167.561 528.699L167.841 527.087L171.461 527.176L171.449 527.187Z" fill="#006CA7"/>
<path fill-rule="evenodd" clip-rule="evenodd" d="M655.201 589.119C649.842 589.119 645.486 602.992 645.486 613.62C645.486 624.247 649.842 627.638 655.201 627.638C660.561 627.638 664.916 624.247 664.916 613.62C664.916 602.992 660.561 589.119 655.201 589.119Z" fill="#006CA7"/>
<path fill-rule="evenodd" clip-rule="evenodd" d="M728.504 604.426C725.27 604.426 722.654 612.786 722.654 619.189C722.654 625.592 725.282 627.637 728.504 627.637C731.739 627.637 734.354 625.592 734.354 619.189C734.354 612.786 731.727 604.426 728.504 604.426Z" fill="#006CA7"/>
<path fill-rule="evenodd" clip-rule="evenodd" d="M281.303 596.21C276.925 596.21 273.375 607.527 273.375 616.209C273.375 624.891 276.925 627.648 281.303 627.648C285.682 627.648 289.232 624.88 289.232 616.209C289.232 607.538 285.682 596.21 281.303 596.21Z" fill="#006CA7"/>
<path fill-rule="evenodd" clip-rule="evenodd" d="M401.08 556.625C397.846 556.625 395.23 564.985 395.23 571.388C395.23 577.791 397.858 579.836 401.08 579.836C404.315 579.836 406.93 577.791 406.93 571.388C406.93 564.985 404.303 556.625 401.08 556.625Z" fill="#006CA7"/>
<path fill-rule="evenodd" clip-rule="evenodd" d="M322.825 419.255C319.59 419.255 316.975 427.615 316.975 434.018C316.975 440.422 319.602 442.467 322.825 442.467C326.047 442.467 328.675 440.422 328.675 434.018C328.675 427.615 326.047 419.255 322.825 419.255Z" fill="#006CA7"/>
<path fill-rule="evenodd" clip-rule="evenodd" d="M226.293 502.242C223.059 502.242 220.443 510.601 220.443 517.004C220.443 523.408 223.071 525.453 226.293 525.453C229.528 525.453 232.143 523.408 232.143 517.004C232.143 510.601 229.528 502.242 226.293 502.242Z" fill="#006CA7"/>
<path d="M1177.4 801.436V1109.49H226.924V801.436H245.478C258.276 777.101 271.062 752.722 283.836 728.388C295.01 707.122 317.827 693.682 342.791 693.682H386.135L870.074 693.982V693.682H1051.35C1076.32 693.682 1099.15 707.122 1110.31 728.388C1123.1 752.722 1135.87 777.101 1148.67 801.436H1177.39H1177.4Z" fill="url(#paint2_linear_87_345)"/>
<path d="M711.095 693.526H706.133L718.557 674.828H723.449L711.095 693.526Z" fill="#006CA7"/>
<path d="M727.071 693.526H732.034L723.486 674.828H718.605L727.071 693.526Z" fill="#006CA7"/>
<path d="M732.617 693.526H727.654L739.751 674.828H744.644L732.617 693.526Z" fill="#006CA7"/>
<path d="M748.589 693.526H753.552L744.689 674.828H739.797L748.589 693.526Z" fill="#006CA7"/>
<path d="M754.136 693.526H749.174L760.956 674.828H765.836L754.136 693.526Z" fill="#006CA7"/>
<path d="M770.112 693.526H775.074L765.885 674.828H761.004L770.112 693.526Z" fill="#006CA7"/>
<path d="M775.656 693.526H770.693L782.148 674.828H787.029L775.656 693.526Z" fill="#006CA7"/>
<path d="M791.628 693.526H796.591L787.074 674.828H782.193L791.628 693.526Z" fill="#006CA7"/>
<path d="M797.174 693.526H792.211L803.339 674.828H808.231L797.174 693.526Z" fill="#006CA7"/>
<path d="M813.15 693.526H818.113L808.27 674.828H803.389L813.15 693.526Z" fill="#006CA7"/>
<path d="M818.697 693.526H813.734L824.535 674.828H829.428L818.697 693.526Z" fill="#006CA7"/>
<path d="M834.673 693.526H839.635L829.477 674.828H824.584L834.673 693.526Z" fill="#006CA7"/>
<path d="M840.215 693.526H835.252L845.738 674.828H850.618L840.215 693.526Z" fill="#006CA7"/>
<path d="M856.191 693.526H861.154L850.668 674.828H845.787L856.191 693.526Z" fill="#006CA7"/>
<path d="M861.736 693.526H856.773L866.932 674.828H871.813L861.736 693.526Z" fill="#006CA7"/>
<path d="M877.711 693.526H882.674L871.861 674.828H866.98L877.711 693.526Z" fill="#006CA7"/>
<path d="M883.257 693.526H878.295L888.127 674.828H893.019L883.257 693.526Z" fill="#006CA7"/>
<path d="M899.23 693.526H904.192L893.064 674.828H888.172L899.23 693.526Z" fill="#006CA7"/>
<path d="M904.779 693.526H899.816L909.333 674.828H914.214L904.779 693.526Z" fill="#006CA7"/>
<path d="M920.752 693.526H925.715L914.26 674.828H909.367L920.752 693.526Z" fill="#006CA7"/>
<path d="M926.299 693.526H921.336L930.525 674.828H935.406L926.299 693.526Z" fill="#006CA7"/>
<path d="M942.268 693.526H947.231L935.449 674.828H930.568L942.268 693.526Z" fill="#006CA7"/>
<path d="M947.818 693.526H942.855L951.718 674.828H956.599L947.818 693.526Z" fill="#006CA7"/>
<path d="M963.791 693.526H968.753L956.644 674.828H951.764L963.791 693.526Z" fill="#006CA7"/>
<path d="M969.326 693.526H964.375L972.911 674.828H977.803L969.326 693.526Z" fill="#006CA7"/>
<path d="M985.315 693.526H990.277L977.853 674.828H972.961L985.315 693.526Z" fill="#006CA7"/>
<path d="M978.364 674.828H718.395C761.003 605.916 774.723 492.715 775.505 463.956C776.264 435.786 777.432 392.509 777.432 392.509H919.315C919.315 392.509 920.482 435.786 921.241 463.956C922.024 492.715 935.744 605.916 978.352 674.828H978.364Z" fill="#4091BD"/>
<path d="M889.889 674.828H760.99C790.217 605.916 799.605 492.715 800.142 463.956C800.667 435.776 801.461 392.499 801.461 392.499H871.825C871.825 392.499 872.175 435.765 872.409 463.956C872.654 492.715 876.846 605.916 889.889 674.828Z" fill="#7FB5D3"/>
<path d="M314.158 742.039L295.803 813.686L346.117 818.889L326.629 742.05C325.029 735.725 315.793 735.714 314.17 742.039H314.158Z" fill="#7FB5D3"/>
<path d="M320.42 754.846C319.824 754.846 319.334 755.301 319.334 755.88V820.979C319.334 821.546 319.813 822.013 320.42 822.013C321.027 822.013 321.506 821.557 321.506 820.979V755.88C321.506 755.313 321.027 754.846 320.42 754.846Z" fill="#006CA7"/>
<path d="M329.259 775.989L321.494 783.537V775.8C321.494 775.6 321.436 775.411 321.33 775.244L314.5 764.984C314.184 764.506 313.507 764.361 313.005 764.661C312.503 764.962 312.351 765.606 312.666 766.084L319.322 776.1V786.072C319.322 786.495 319.591 786.872 319.999 787.028C320.128 787.084 320.268 787.106 320.408 787.106C320.688 787.106 320.968 786.995 321.179 786.795L330.8 777.434C331.221 777.023 331.209 776.378 330.789 775.978C330.356 775.578 329.679 775.589 329.259 775.989Z" fill="#006CA7"/>
<path d="M764.155 697.061C758.433 697.061 753.319 699.473 749.758 703.297C749.419 693.136 740.872 684.999 730.351 684.999C727.42 684.999 724.653 685.644 722.166 686.778C722.166 686.644 722.189 686.511 722.189 686.366C722.189 675.917 713.49 667.457 702.759 667.457C698.38 667.457 694.352 668.88 691.106 671.259C690.102 661.732 681.834 654.306 671.769 654.306C666.795 654.306 662.276 656.14 658.843 659.119C655.994 652.127 648.988 647.169 640.791 647.169C630.551 647.169 622.19 654.873 621.431 664.644C618.524 662.955 615.137 661.965 611.494 661.965C600.764 661.965 592.064 670.436 592.064 680.875V715.959H783.597C783.597 705.509 774.897 697.049 764.167 697.049L764.155 697.061Z" fill="#006CA7"/>
<path d="M428.872 820.001V861.277H256.525C253.127 852.572 250.021 843.724 247.184 834.764C251.27 828.772 258.241 824.836 266.181 824.836C269.626 824.836 272.884 825.603 275.826 826.937C275.815 826.782 275.791 826.626 275.791 826.448C275.791 814.164 286.02 804.204 298.643 804.204C303.804 804.204 308.533 805.882 312.351 808.673C313.542 797.467 323.28 788.718 335.097 788.718C340.947 788.718 346.272 790.886 350.312 794.399C353.488 786.606 361.054 780.97 370.057 780.392C370.571 780.359 371.061 780.348 371.575 780.348C383.602 780.348 393.457 789.419 394.344 800.913C397.626 799.001 401.432 797.856 405.531 797.778C405.694 797.767 405.858 797.767 406.021 797.767C418.644 797.767 428.872 807.728 428.872 820.012V820.001Z" fill="#BFDAE9"/>
<path d="M433.322 642.745L461.124 716.115H619.81L592.02 642.745H433.322Z" fill="#006CA7"/>
<path d="M445.346 642.745L473.136 716.115H482.898L455.107 642.745H445.346Z" fill="#BFDAE9"/>
<path d="M570.775 642.745L598.566 716.115H608.328L580.537 642.745H570.775Z" fill="#BFDAE9"/>
<path d="M470.43 642.745L498.22 716.115H507.994L480.191 642.745H470.43Z" fill="#BFDAE9"/>
<path d="M495.514 642.745L523.316 716.115H533.077L505.287 642.745H495.514Z" fill="#BFDAE9"/>
<path d="M520.604 642.745L548.394 716.115H558.156L530.365 642.745H520.604Z" fill="#BFDAE9"/>
<path d="M545.684 642.745L573.486 716.115H583.247L555.457 642.745H545.684Z" fill="#BFDAE9"/>
<path d="M461.122 716.126V861.287H405.529V716.126L433.32 642.745L461.122 716.126Z" fill="white"/>
<path d="M619.807 716.115H461.121V861.276H619.807V716.115Z" fill="#006CA7"/>
<path d="M661.438 755.602V861.276H508.812V755.602H564.312C572.275 746.519 580.25 737.448 588.214 728.366C598.746 737.448 609.278 746.519 619.811 755.602H661.426H661.438Z" fill="white"/>
<path d="M772.43 755.601V861.287H661.432V755.601L716.931 702.764L772.43 755.601Z" fill="#7FB5D3"/>
<path d="M508.812 755.601H661.438C679.934 737.992 698.441 720.372 716.937 702.764H568.153C548.373 720.372 528.593 737.992 508.812 755.601Z" fill="#4091BD"/>
<path d="M647.552 729.177C638.315 737.993 629.056 746.786 619.808 755.602C609.276 746.519 598.743 737.448 588.211 728.366C607.991 728.633 627.771 728.899 647.552 729.177Z" fill="#006CA7"/>
<path d="M688.584 782.015H682.758V787.684H688.584V782.015Z" fill="#006CA7"/>
<path d="M688.584 799.045H682.758V804.715H688.584V799.045Z" fill="#006CA7"/>
<path d="M688.584 816.065H682.758V821.734H688.584V816.065Z" fill="#006CA7"/>
<path d="M688.584 833.084H682.758V838.754H688.584V833.084Z" fill="#006CA7"/>
<path d="M706.079 782.015H700.252V787.685H706.079V782.015Z" fill="#006CA7"/>
<path d="M706.079 799.045H700.252V804.715H706.079V799.045Z" fill="#006CA7"/>
<path d="M706.079 816.065H700.252V821.734H706.079V816.065Z" fill="#006CA7"/>
<path d="M706.079 833.084H700.252V838.754H706.079V833.084Z" fill="#006CA7"/>
<path d="M723.567 782.015H717.74V787.685H723.567V782.015Z" fill="#006CA7"/>
<path d="M723.567 799.045H717.74V804.715H723.567V799.045Z" fill="#006CA7"/>
<path d="M723.567 816.065H717.74V821.734H723.567V816.065Z" fill="#006CA7"/>
<path d="M723.567 833.084H717.74V838.754H723.567V833.084Z" fill="#006CA7"/>
<path d="M741.059 782.015H735.232V787.685H741.059V782.015Z" fill="#006CA7"/>
<path d="M741.059 799.045H735.232V804.715H741.059V799.045Z" fill="#006CA7"/>
<path d="M741.059 816.065H735.232V821.734H741.059V816.065Z" fill="#006CA7"/>
<path d="M741.059 833.084H735.232V838.754H741.059V833.084Z" fill="#006CA7"/>
<path d="M758.551 782.015H752.725V787.685H758.551V782.015Z" fill="#006CA7"/>
<path d="M758.551 799.045H752.725V804.715H758.551V799.045Z" fill="#006CA7"/>
<path d="M758.551 816.065H752.725V821.734H758.551V816.065Z" fill="#006CA7"/>
<path d="M758.551 833.084H752.725V838.754H758.551V833.084Z" fill="#006CA7"/>
<path d="M530.141 783.115H522.68V802.636H530.141V783.115Z" fill="#006CA7"/>
<path d="M560.547 783.115H553.086V802.635H560.547V783.115Z" fill="#006CA7"/>
<path d="M590.956 783.115H583.494V802.636H590.956V783.115Z" fill="#006CA7"/>
<path d="M621.362 783.115H613.9V802.636H621.362V783.115Z" fill="#006CA7"/>
<path d="M651.768 783.115H644.307V802.636H651.768V783.115Z" fill="#006CA7"/>
<path d="M530.141 817.599H522.68V837.12H530.141V817.599Z" fill="#006CA7"/>
<path d="M560.547 817.599H553.086V837.12H560.547V817.599Z" fill="#006CA7"/>
<path d="M590.956 817.599H583.494V837.12H590.956V817.599Z" fill="#006CA7"/>
<path d="M621.362 817.599H613.9V837.12H621.362V817.599Z" fill="#006CA7"/>
<path d="M651.768 817.599H644.307V837.12H651.768V817.599Z" fill="#006CA7"/>
<path d="M530.141 800.357H522.68V802.558H530.141V800.357Z" fill="#006CA7"/>
<path d="M560.547 800.357H553.086V802.558H560.547V800.357Z" fill="#006CA7"/>
<path d="M590.956 800.357H583.494V802.558H590.956V800.357Z" fill="#006CA7"/>
<path d="M621.362 800.357H613.9V802.558H621.362V800.357Z" fill="#006CA7"/>
<path d="M651.768 800.357H644.307V802.558H651.768V800.357Z" fill="#006CA7"/>
<path d="M530.141 834.841H522.68V837.042H530.141V834.841Z" fill="#006CA7"/>
<path d="M560.547 834.841H553.086V837.042H560.547V834.841Z" fill="#006CA7"/>
<path d="M590.956 834.841H583.494V837.042H590.956V834.841Z" fill="#006CA7"/>
<path d="M621.362 834.841H613.9V837.042H621.362V834.841Z" fill="#006CA7"/>
<path d="M651.768 834.841H644.307V837.042H651.768V834.841Z" fill="#006CA7"/>
<path d="M855.689 755.046H925.749L890.719 715.415L855.689 755.046Z" fill="#006CA7"/>
<path d="M890.719 715.415L925.749 755.046H1036.06L1001.03 715.415H890.719Z" fill="#006CA7"/>
<path d="M924.115 755.046H855.689V861.277H924.115V755.046Z" fill="#006CA7"/>
<path d="M1036.07 755.046H924.115V861.277H1036.07V755.046Z" fill="#7FB5D3"/>
<path d="M943.427 768.252H938.932V772.621H943.427V768.252Z" fill="#006CA7"/>
<path d="M943.427 781.37H938.932V785.739H943.427V781.37Z" fill="#006CA7"/>
<path d="M943.427 794.477H938.932V798.846H943.427V794.477Z" fill="#006CA7"/>
<path d="M943.427 807.583H938.932V811.951H943.427V807.583Z" fill="#006CA7"/>
<path d="M943.427 820.69H938.932V825.059H943.427V820.69Z" fill="#006CA7"/>
<path d="M956.9 768.252H952.404V772.621H956.9V768.252Z" fill="#006CA7"/>
<path d="M956.9 781.37H952.404V785.739H956.9V781.37Z" fill="#006CA7"/>
<path d="M956.9 794.477H952.404V798.846H956.9V794.477Z" fill="#006CA7"/>
<path d="M956.9 807.583H952.404V811.951H956.9V807.583Z" fill="#006CA7"/>
<path d="M956.9 820.69H952.404V825.059H956.9V820.69Z" fill="#006CA7"/>
<path d="M970.376 768.252H965.881V772.621H970.376V768.252Z" fill="#006CA7"/>
<path d="M970.376 781.37H965.881V785.739H970.376V781.37Z" fill="#006CA7"/>
<path d="M970.376 794.477H965.881V798.846H970.376V794.477Z" fill="#006CA7"/>
<path d="M970.376 807.583H965.881V811.951H970.376V807.583Z" fill="#006CA7"/>
<path d="M970.376 820.69H965.881V825.059H970.376V820.69Z" fill="#006CA7"/>
<path d="M983.849 768.252H979.354V772.621H983.849V768.252Z" fill="#006CA7"/>
<path d="M983.849 781.37H979.354V785.739H983.849V781.37Z" fill="#006CA7"/>
<path d="M983.849 794.477H979.354V798.846H983.849V794.477Z" fill="#006CA7"/>
<path d="M983.849 807.583H979.354V811.951H983.849V807.583Z" fill="#006CA7"/>
<path d="M983.849 820.69H979.354V825.059H983.849V820.69Z" fill="#006CA7"/>
<path d="M997.316 768.252H992.82V772.621H997.316V768.252Z" fill="#006CA7"/>
<path d="M997.316 781.37H992.82V785.739H997.316V781.37Z" fill="#006CA7"/>
<path d="M997.316 794.477H992.82V798.846H997.316V794.477Z" fill="#006CA7"/>
<path d="M997.316 807.583H992.82V811.951H997.316V807.583Z" fill="#006CA7"/>
<path d="M997.316 820.69H992.82V825.059H997.316V820.69Z" fill="#006CA7"/>
<path d="M1010.79 768.252H1006.29V772.621H1010.79V768.252Z" fill="#006CA7"/>
<path d="M1010.79 781.37H1006.29V785.739H1010.79V781.37Z" fill="#006CA7"/>
<path d="M1010.79 794.477H1006.29V798.846H1010.79V794.477Z" fill="#006CA7"/>
<path d="M1010.79 807.583H1006.29V811.951H1010.79V807.583Z" fill="#006CA7"/>
<path d="M1010.79 820.69H1006.29V825.059H1010.79V820.69Z" fill="#006CA7"/>
<path d="M1024.27 768.252H1019.77V772.621H1024.27V768.252Z" fill="#006CA7"/>
<path d="M1024.27 781.37H1019.77V785.739H1024.27V781.37Z" fill="#006CA7"/>
<path d="M1024.27 794.477H1019.77V798.846H1024.27V794.477Z" fill="#006CA7"/>
<path d="M1024.27 807.583H1019.77V811.951H1024.27V807.583Z" fill="#006CA7"/>
<path d="M1024.27 820.69H1019.77V825.059H1024.27V820.69Z" fill="#006CA7"/>
<path d="M943.427 833.807H938.932V838.176H943.427V833.807Z" fill="#006CA7"/>
<path d="M956.9 833.807H952.404V838.176H956.9V833.807Z" fill="#006CA7"/>
<path d="M970.376 833.807H965.881V838.176H970.376V833.807Z" fill="#006CA7"/>
<path d="M983.849 833.807H979.354V838.176H983.849V833.807Z" fill="#006CA7"/>
<path d="M997.316 833.807H992.82V838.176H997.316V833.807Z" fill="#006CA7"/>
<path d="M1010.79 833.807H1006.29V838.176H1010.79V833.807Z" fill="#006CA7"/>
<path d="M1024.27 833.807H1019.77V838.176H1024.27V833.807Z" fill="#006CA7"/>
<path d="M988.486 715.415L1023.52 755.046H1027.02L991.989 715.415H988.486Z" fill="#7FB5D3"/>
<path d="M973.705 715.415L1008.74 755.046H1012.23L977.196 715.415H973.705Z" fill="#7FB5D3"/>
<path d="M958.912 715.415L993.942 755.046H997.445L962.415 715.415H958.912Z" fill="#7FB5D3"/>
<path d="M944.127 715.415L979.157 755.046H982.648L947.618 715.415H944.127Z" fill="#7FB5D3"/>
<path d="M929.332 715.415L964.362 755.046H967.865L932.835 715.415H929.332Z" fill="#7FB5D3"/>
<path d="M914.553 715.415L949.583 755.046H953.074L918.044 715.415H914.553Z" fill="#7FB5D3"/>
<path d="M899.756 715.415L934.786 755.046H938.289L903.259 715.415H899.756Z" fill="#7FB5D3"/>
<path d="M689.18 861.276L700.856 839.042C704.628 831.85 712.358 827.303 720.8 827.303H782.429C790.872 827.303 798.602 831.85 802.373 839.042L814.05 861.276H689.168H689.18Z" fill="#006CA7"/>
<path d="M827.932 795.232V861.287H786.305V742.395L827.932 795.232Z" fill="#BFDAE9"/>
<path d="M897.314 795.232H827.932V861.288H897.314V795.232Z" fill="#4091BD"/>
<path d="M897.315 795.232H827.932L786.305 742.395H855.687L897.315 795.232Z" fill="#006CA7"/>
<path d="M869.561 808.439H855.689V819.444H869.561V808.439Z" fill="#006CA7"/>
<path d="M869.561 834.863H855.689V846.891H869.561V834.863Z" fill="#006CA7"/>
<path d="M1142.11 839.755C1139.71 847.014 1137.15 854.185 1134.38 861.277H1036.07V768.809C1051.18 768.809 1063.4 780.07 1064.56 794.399C1069.54 792.265 1075.03 791.075 1080.79 791.075C1103.11 791.075 1121.18 808.673 1121.18 830.395C1121.18 831.507 1121.11 832.574 1121.02 833.674C1122.01 833.563 1123.03 833.485 1124.06 833.485C1130.9 833.485 1137.19 835.842 1142.12 839.766L1142.11 839.755Z" fill="#BFDAE9"/>
<path d="M926.882 660.654C928.669 665.834 930.549 670.859 932.522 675.661H933.386L934.133 675.383C932.195 670.67 930.339 665.745 928.575 660.654H967.902C967.634 660.142 967.377 659.642 967.108 659.12H928.038C925.68 652.205 923.484 645.002 921.441 637.598H957.23C957.02 637.087 956.81 636.575 956.599 636.064H921.021C919.082 628.949 917.272 621.679 915.603 614.308H948.484C948.309 613.797 948.145 613.286 947.97 612.774H915.264C913.629 605.493 912.111 598.134 910.722 590.786H941.163C941.023 590.274 940.883 589.763 940.731 589.252H910.43C909.029 581.792 907.756 574.355 906.588 567.029H934.974C934.857 566.518 934.729 566.007 934.612 565.495H906.343C905.14 557.836 904.066 550.31 903.109 543.029H929.766C929.661 542.517 929.568 542.006 929.463 541.494H902.91C901.882 533.59 900.995 525.976 900.236 518.772H925.458C925.376 518.261 925.294 517.749 925.212 517.238H900.073C899.197 508.911 898.508 501.196 897.959 494.271H922.036C921.978 493.759 921.92 493.248 921.861 492.737H897.842C897.107 483.154 896.663 475.217 896.488 469.514H919.829C919.806 468.98 919.783 468.48 919.759 467.98H896.441C896.43 467.413 896.418 466.857 896.406 466.335C896.289 459.642 896.149 452.105 896.009 444.49H919.117C919.106 443.979 919.094 443.468 919.071 442.956H895.974C895.834 435.164 895.694 427.36 895.565 420.39C895.565 419.989 895.554 419.6 895.542 419.211H918.417C918.405 418.7 918.393 418.188 918.37 417.677H895.507C895.402 411.685 895.309 406.449 895.238 402.558C895.157 398.156 895.11 395.499 895.11 395.422H893.499C893.499 395.422 893.545 398.123 893.627 402.581C893.697 406.46 893.791 411.696 893.896 417.666H848.17V395.422H846.559C846.559 395.422 846.559 398.101 846.559 402.57V417.666H800.833C800.938 411.685 801.031 406.46 801.101 402.581C801.183 398.123 801.23 395.444 801.23 395.433H800.424L799.618 395.422C799.618 395.499 799.572 398.156 799.49 402.558C799.42 406.449 799.326 411.685 799.221 417.677H776.359C776.347 418.177 776.335 418.7 776.312 419.211H799.186C799.058 426.47 798.906 434.719 798.754 442.956H775.658C775.646 443.468 775.635 443.979 775.611 444.49H798.719C798.579 452.094 798.451 459.642 798.322 466.335C798.322 466.846 798.299 467.402 798.287 467.98H774.969C774.946 468.469 774.922 468.98 774.899 469.514H798.241C798.054 475.217 797.622 483.154 796.886 492.737H772.867C772.809 493.237 772.75 493.748 772.692 494.271H796.769C796.221 501.196 795.52 508.911 794.656 517.238H769.516C769.434 517.738 769.353 518.261 769.271 518.772H794.492C793.733 525.964 792.834 533.579 791.818 541.494H765.266C765.172 542.006 765.067 542.517 764.962 543.029H791.62C790.662 550.321 789.588 557.847 788.385 565.495H760.116C760 566.007 759.883 566.518 759.754 567.029H788.14C786.984 574.355 785.7 581.792 784.299 589.252H753.998C753.858 589.763 753.718 590.274 753.566 590.786H784.007C782.617 598.134 781.099 605.493 779.465 612.774H746.758C746.583 613.286 746.42 613.797 746.244 614.308H779.126C777.456 621.668 775.646 628.949 773.708 636.064H738.129C737.919 636.575 737.709 637.087 737.499 637.598H773.288C771.244 645.002 769.037 652.205 766.69 659.12H727.62C727.363 659.631 727.095 660.142 726.826 660.654H766.153C764.39 665.745 762.545 670.67 760.595 675.383L761.342 675.661H762.206C764.18 670.859 766.06 665.834 767.846 660.654H846.547V675.661H848.158V660.654H926.859H926.882ZM926.357 659.12H848.182V637.598H919.783C921.826 644.99 924.01 652.205 926.357 659.12ZM919.362 636.075H848.182V614.32H913.956C915.626 621.679 917.424 628.96 919.362 636.075ZM913.618 612.797H848.182V590.808H909.075C910.465 598.145 911.971 605.504 913.606 612.797H913.618ZM908.795 589.274H848.182V567.052H904.965C906.121 574.377 907.406 581.814 908.795 589.274ZM904.72 565.517H848.182V543.051H901.497C902.455 550.343 903.529 557.869 904.72 565.517ZM901.287 541.517H848.182V518.794H898.625C899.384 525.987 900.271 533.602 901.299 541.517H901.287ZM898.45 517.271H848.17V494.304H896.336C896.885 501.23 897.574 508.945 898.45 517.271ZM896.219 492.77H848.17V469.547H894.865C895.052 475.261 895.484 483.199 896.219 492.77ZM894.783 466.401C894.783 466.913 894.806 467.457 894.818 468.013H848.17V444.535H894.386C894.526 452.15 894.655 459.709 894.783 466.401ZM893.931 419.256C894.059 426.515 894.211 434.763 894.363 443.001H848.182V419.256H893.942H893.931ZM800.786 420.456C800.786 420.045 800.798 419.656 800.809 419.256H846.57C846.57 426.515 846.57 434.763 846.57 443.001H800.389C800.529 435.219 800.669 427.415 800.798 420.456H800.786ZM799.957 466.39C800.074 459.698 800.214 452.139 800.354 444.524H846.57V468.002H799.922C799.934 467.435 799.945 466.902 799.957 466.39ZM799.875 469.536H846.57V492.759H798.521C799.256 483.188 799.688 475.25 799.875 469.536ZM798.404 494.293H846.57V517.26H796.291C797.155 508.934 797.855 501.219 798.404 494.293ZM796.139 518.794H846.582V541.517H793.477C794.504 533.602 795.391 525.998 796.15 518.794H796.139ZM793.266 543.04H846.582C846.582 550.332 846.582 557.858 846.582 565.506H790.044C791.246 557.847 792.321 550.321 793.266 543.04ZM789.798 567.04H846.582V589.263H785.968C787.37 581.803 788.642 574.355 789.798 567.04ZM785.677 590.797H846.57V612.786H781.134C782.769 605.493 784.275 598.145 785.665 590.797H785.677ZM780.796 614.32H846.57V636.075H775.389C777.328 628.96 779.126 621.679 780.796 614.32ZM768.395 659.12C770.742 652.205 772.926 644.99 774.969 637.598H846.57V659.12H768.395Z" fill="#BFDAE9"/>
<path d="M722.153 626.948L703.797 698.595L754.112 703.798L734.623 626.96C733.023 620.634 723.787 620.623 722.164 626.948H722.153Z" fill="#006CA7"/>
<path d="M728.414 639.755C727.819 639.755 727.328 640.211 727.328 640.789V686.078C727.328 686.645 727.807 687.112 728.414 687.112C729.021 687.112 729.5 686.657 729.5 686.078V640.789C729.5 640.222 729.021 639.755 728.414 639.755Z" fill="#7FB5D3"/>
<path d="M737.255 660.899L729.49 668.447V660.71C729.49 660.51 729.432 660.321 729.327 660.154L722.496 649.893C722.18 649.415 721.503 649.271 721.001 649.571C720.499 649.871 720.347 650.516 720.662 650.994L727.318 661.01V670.982C727.318 671.404 727.587 671.782 727.995 671.938C728.124 671.993 728.264 672.016 728.404 672.016C728.684 672.016 728.965 671.904 729.175 671.704L738.796 662.344C739.217 661.933 739.205 661.288 738.785 660.888C738.353 660.488 737.675 660.499 737.255 660.899Z" fill="#7FB5D3"/>
</g>
<defs>
<linearGradient id="paint0_linear_87_345" x1="705.083" y1="1668.79" x2="684.561" y2="585.788" gradientUnits="userSpaceOnUse">
<stop offset="0.38" stop-color="white" stop-opacity="0"/>
<stop offset="0.56" stop-color="#FCFDFE" stop-opacity="0.01"/>
<stop offset="0.65" stop-color="#F4F9FB" stop-opacity="0.05"/>
<stop offset="0.73" stop-color="#E7F1F6" stop-opacity="0.12"/>
<stop offset="0.79" stop-color="#D4E6F0" stop-opacity="0.22"/>
<stop offset="0.84" stop-color="#BBD8E7" stop-opacity="0.35"/>
<stop offset="0.89" stop-color="#9DC6DD" stop-opacity="0.51"/>
<stop offset="0.94" stop-color="#78B1D0" stop-opacity="0.7"/>
<stop offset="0.99" stop-color="#509AC2" stop-opacity="0.92"/>
<stop offset="1" stop-color="#4091BD"/>
</linearGradient>
<linearGradient id="paint1_linear_87_345" x1="705.083" y1="1499.51" x2="684.561" y2="416.503" gradientUnits="userSpaceOnUse">
<stop offset="0.38" stop-color="white" stop-opacity="0"/>
<stop offset="0.56" stop-color="#FCFDFE" stop-opacity="0.01"/>
<stop offset="0.65" stop-color="#F4F9FB" stop-opacity="0.05"/>
<stop offset="0.73" stop-color="#E7F1F6" stop-opacity="0.12"/>
<stop offset="0.79" stop-color="#D4E6F0" stop-opacity="0.22"/>
<stop offset="0.84" stop-color="#BBD8E7" stop-opacity="0.35"/>
<stop offset="0.89" stop-color="#9DC6DD" stop-opacity="0.51"/>
<stop offset="0.94" stop-color="#78B1D0" stop-opacity="0.7"/>
<stop offset="0.99" stop-color="#509AC2" stop-opacity="0.92"/>
<stop offset="1" stop-color="#4091BD"/>
</linearGradient>
<linearGradient id="paint2_linear_87_345" x1="703.845" y1="1561.71" x2="701.57" y2="657.163" gradientUnits="userSpaceOnUse">
<stop offset="0.74" stop-color="white" stop-opacity="0"/>
<stop offset="0.76" stop-color="#FDFEFE" stop-opacity="0.02"/>
<stop offset="0.8" stop-color="#F8FBFC" stop-opacity="0.09"/>
<stop offset="0.84" stop-color="#F1F7FA" stop-opacity="0.21"/>
<stop offset="0.88" stop-color="#E7F1F6" stop-opacity="0.37"/>
<stop offset="0.92" stop-color="#DAE9F2" stop-opacity="0.57"/>
<stop offset="0.97" stop-color="#CAE0EC" stop-opacity="0.82"/>
<stop offset="1" stop-color="#BFDAE9"/>
</linearGradient>
</defs>
</svg>
