<svg width="131" height="131" viewBox="0 0 131 131" fill="none" xmlns="http://www.w3.org/2000/svg">
<path d="M11.767 82.7681C19.5246 82.7681 19.5246 89.0699 27.2797 89.0699C35.0348 89.0699 35.0374 82.7681 42.7925 82.7681C50.5476 82.7681 50.5476 89.0699 58.3052 89.0699C66.0629 89.0699 66.0629 82.7681 73.818 82.7681C81.5731 82.7681 81.5756 89.0699 89.3307 89.0699C97.0858 89.0699 97.0884 82.7681 104.846 82.7681C112.604 82.7681 112.604 89.0699 120.361 89.0699" stroke="white" stroke-width="3" stroke-miterlimit="10"/>
<path d="M11.767 96.8018C19.5246 96.8018 19.5246 103.104 27.2797 103.104C35.0348 103.104 35.0374 96.8018 42.7925 96.8018C50.5476 96.8018 50.5476 103.104 58.3052 103.104C66.0629 103.104 66.0629 96.8018 73.818 96.8018C81.5731 96.8018 81.5756 103.104 89.3307 103.104C97.0858 103.104 97.0884 96.8018 104.846 96.8018C112.604 96.8018 112.604 103.104 120.361 103.104" stroke="white" stroke-width="3" stroke-miterlimit="10"/>
<path d="M11.767 110.913C19.5246 110.913 19.5246 117.214 27.2797 117.214C35.0348 117.214 35.0374 110.913 42.7925 110.913C50.5476 110.913 50.5476 117.214 58.3052 117.214C66.0629 117.214 66.0629 110.913 73.818 110.913C81.5731 110.913 81.5756 117.214 89.3307 117.214C97.0858 117.214 97.0884 110.913 104.846 110.913C112.604 110.913 112.604 117.214 120.361 117.214" stroke="white" stroke-width="3" stroke-miterlimit="10"/>
<path d="M33.5023 12.4043V87.1101C31.9671 88.2026 30.1556 89.0674 27.2798 89.0674C22.3596 89.0674 20.5609 86.5344 17.923 84.6794V12.4043H33.5023Z" stroke="white" stroke-width="3" stroke-miterlimit="10"/>
<path d="M33.5022 85.4137V31.7012C38.5836 27.019 44.9928 23.767 52.1032 22.5645C54.0938 22.2293 56.1381 22.0527 58.2233 22.0527C70.7963 22.0527 81.8852 28.4083 88.4506 38.0798C90.2237 40.6946 91.6693 43.55 92.7208 46.5896C93.9822 50.2228 94.6833 54.117 94.7268 58.1673C94.7268 58.2952 94.7268 58.4257 94.7268 58.5536C94.7268 69.6349 89.7887 79.5648 81.9927 86.2555C79.9023 84.5771 77.9731 82.7656 73.8154 82.7656C66.0603 82.7656 66.0603 89.0674 58.3026 89.0674C50.545 89.0674 50.5475 82.7656 42.7899 82.7656C38.5759 82.7656 36.6518 84.6257 34.5308 86.3246" stroke="white" stroke-width="3" stroke-miterlimit="10"/>
<path d="M88.4506 38.0794H62.2096C56.1074 38.0794 51.1591 33.1336 51.1591 27.0314C51.1591 25.4399 51.4968 23.9278 52.1032 22.5615C54.0938 22.2263 56.1381 22.0498 58.2233 22.0498C70.7963 22.0498 81.8852 28.4054 88.4506 38.0768V38.0794Z" stroke="white" stroke-width="3" stroke-miterlimit="10"/>
<path d="M94.7268 58.1694H73.1885C69.9903 58.1694 67.3984 55.5776 67.3984 52.3819C67.3984 50.7828 68.0458 49.3346 69.0948 48.2881C70.1412 47.2391 71.5894 46.5918 73.1885 46.5918H92.7208C93.9822 50.225 94.6833 54.1192 94.7268 58.1694Z" stroke="white" stroke-width="3" stroke-miterlimit="10"/>
<path d="M77.6328 70.5045C77.6328 72.2238 76.9369 73.782 75.8111 74.9053C74.6853 76.0285 73.1297 76.727 71.4103 76.727H33.5048V64.2769H71.4103C74.8491 64.2769 77.6354 67.0657 77.6354 70.5019L77.6328 70.5045Z" stroke="white" stroke-width="3" stroke-miterlimit="10"/>
<path d="M44.9186 49.6369C44.9186 51.172 44.2943 52.5613 43.2914 53.5694C42.2833 54.5724 40.894 55.1967 39.3588 55.1967H33.4996V44.0796H39.3588C42.4291 44.0796 44.9186 46.5691 44.9186 49.6394V49.6369Z" stroke="white" stroke-width="3" stroke-miterlimit="10"/>
<path d="M18.0099 20.9497H27.5893" stroke="white" stroke-width="3" stroke-miterlimit="10"/>
<path d="M18.0099 35.8843H27.5893" stroke="white" stroke-width="3" stroke-miterlimit="10"/>
<path d="M17.877 28.4155H23.598" stroke="white" stroke-width="3" stroke-miterlimit="10"/>
<path d="M18.0099 50.8188H27.5893" stroke="white" stroke-width="3" stroke-miterlimit="10"/>
<path d="M17.877 43.3501H23.598" stroke="white" stroke-width="3" stroke-miterlimit="10"/>
<path d="M18.0099 65.7534H27.5893" stroke="white" stroke-width="3" stroke-miterlimit="10"/>
<path d="M18.0099 80.688H27.5893" stroke="white" stroke-width="3" stroke-miterlimit="10"/>
<path d="M17.877 58.2847H23.598" stroke="white" stroke-width="3" stroke-miterlimit="10"/>
<path d="M17.877 73.2192H23.598" stroke="white" stroke-width="3" stroke-miterlimit="10"/>
</svg>
