<svg width="166" height="162" viewBox="0 0 166 162" fill="none" xmlns="http://www.w3.org/2000/svg">
<g clip-path="url(#clip0_597_648)">
<path d="M117.613 65.8814C117.613 65.8814 117.638 65.9058 117.652 65.9156C117.452 65.8325 117.29 65.6711 117.207 65.4756L117.613 65.8814Z" fill="#50AA57"/>
<path d="M165.233 65.9835C165.193 65.9884 165.159 65.9933 165.125 65.9933C164.685 65.9933 164.309 65.6658 164.255 65.2209L163.067 55.5845C162.348 49.8252 157.434 45.4886 151.626 45.4886H131.498C125.69 45.4886 120.776 49.8252 120.058 55.5845L120.048 55.6578L119.774 57.8677L118.205 56.2934L118.317 55.3694C118.371 54.9538 118.439 54.5431 118.527 54.1373C119.852 48.1287 125.225 43.7285 131.498 43.7285H151.626C158.319 43.7285 163.986 48.7349 164.807 55.3645L165.995 65.0057C166.054 65.4849 165.712 65.9249 165.233 65.9835Z" fill="#50AA57"/>
<path d="M141.56 40.0274C133.331 40.0274 126.633 33.3391 126.633 25.1255C126.633 16.9119 133.326 10.2236 141.56 10.2236C149.793 10.2236 156.486 16.907 156.486 25.1255C156.486 33.344 149.793 40.0274 141.56 40.0274ZM141.56 11.9788C134.299 11.9788 128.393 17.875 128.393 25.1255C128.393 32.376 134.299 38.2722 141.56 38.2722C148.82 38.2722 154.726 32.376 154.726 25.1255C154.726 17.875 148.82 11.9788 141.56 11.9788Z" fill="#50AA57"/>
<path d="M141.56 67.6999C141.296 67.6999 141.046 67.5825 140.88 67.3772L135.796 61.1192C135.634 60.9187 135.566 60.6547 135.615 60.4005L138.489 45.2688C138.582 44.7946 139.042 44.4817 139.516 44.5697C139.99 44.6626 140.303 45.1221 140.215 45.5964L137.414 60.3271L141.56 65.4264L145.706 60.3271L142.904 45.5964C142.811 45.1221 143.124 44.6626 143.603 44.5697C144.078 44.4817 144.542 44.7897 144.63 45.2688L147.505 60.4005C147.554 60.6547 147.485 60.9187 147.324 61.1192L142.239 67.3772C142.073 67.5825 141.824 67.6999 141.56 67.6999Z" fill="#50AA57"/>
<path d="M111.467 0.0644531H86.8509C79.9134 0.0644531 74.2665 5.26153 74.2665 11.6515V22.5346C74.2665 27.7855 78.08 32.2296 83.2917 33.6475C83.8784 33.8088 84.4895 33.931 85.1104 34.0092C85.4527 33.4274 85.8291 32.875 86.2398 32.347C85.5602 32.3176 84.8953 32.2247 84.2548 32.0781C79.532 31.022 76.0217 27.145 76.0217 22.5346V11.6515C76.0217 6.22957 80.8814 1.81963 86.8509 1.81963H111.467C117.437 1.81963 122.292 6.22957 122.292 11.6515V36.8645L114.015 32.4692C113.985 32.4545 113.951 32.4399 113.922 32.4252H113.917C113.814 32.3861 113.707 32.3665 113.599 32.3665H111.727C112.162 32.9239 112.553 33.5106 112.905 34.1217H113.384L115.403 35.1924L122.756 39.0988C122.888 39.1672 123.03 39.2014 123.172 39.2014C123.328 39.2014 123.485 39.1623 123.622 39.0792C123.886 38.9179 124.047 38.6343 124.047 38.3263V11.6515C124.047 5.26153 118.405 0.0644531 111.467 0.0644531Z" fill="#50AA57"/>
<path d="M106.085 14.5023H92.6054C92.1214 14.5023 91.7253 14.1111 91.7253 13.6222C91.7253 13.1333 92.1165 12.7422 92.6054 12.7422H106.085C106.569 12.7422 106.965 13.1333 106.965 13.6222C106.965 14.1111 106.573 14.5023 106.085 14.5023Z" fill="#50AA57"/>
<path d="M106.085 21.5667H92.6054C92.1214 21.5667 91.7253 21.1756 91.7253 20.6867C91.7253 20.1978 92.1165 19.8066 92.6054 19.8066H106.085C106.569 19.8066 106.965 20.1978 106.965 20.6867C106.965 21.1756 106.573 21.5667 106.085 21.5667Z" fill="#50AA57"/>
<path d="M123.944 67.1227C122.898 68.1689 121.529 68.6921 120.155 68.6921C118.781 68.6921 117.412 68.1689 116.371 67.1227L107.224 57.9703L105.913 56.665C106.192 56.5329 106.466 56.3912 106.735 56.2396C106.999 56.0929 107.263 55.9414 107.517 55.78L108.783 57.0463L117.207 65.475L117.613 65.8808C117.613 65.8808 117.637 65.9053 117.652 65.9151C119.055 67.284 121.314 67.2693 122.702 65.8808C124.106 64.4777 124.106 62.1945 122.702 60.7913L119.774 57.8677L118.204 56.2934L113.868 51.9617L112.602 50.6954C112.763 50.4412 112.914 50.1772 113.061 49.9132C113.208 49.6491 113.35 49.3754 113.486 49.0967L120.048 55.6578L123.944 59.5495C126.032 61.6371 126.032 65.035 123.944 67.1227Z" fill="#50AA57"/>
<path d="M115.403 35.1926C114.988 34.2246 114.494 33.2957 113.922 32.4254H113.917C110.734 27.5461 105.224 24.3145 98.9758 24.3145C92.7276 24.3145 87.4767 27.3946 84.2549 32.0783C83.9077 32.5819 83.5851 33.1099 83.2917 33.6477C81.913 36.1802 81.1307 39.0745 81.1307 42.1547C81.1307 51.9915 89.1341 59.9949 98.9758 59.9949C101.948 59.9949 104.755 59.2664 107.224 57.9708C107.493 57.829 107.757 57.6823 108.021 57.5259C108.28 57.3743 108.534 57.2179 108.783 57.0468C110.802 55.7169 112.538 53.9813 113.868 51.9621C114.039 51.7128 114.195 51.4586 114.347 51.1994C114.504 50.9354 114.65 50.6714 114.792 50.4025C116.088 47.9335 116.816 45.1272 116.816 42.1547C116.816 39.6857 116.312 37.334 115.403 35.1926ZM113.487 49.0971C113.35 49.3758 113.208 49.6496 113.061 49.9136C112.915 50.1776 112.763 50.4416 112.602 50.6959C111.311 52.7493 109.57 54.4898 107.517 55.7805C107.263 55.9418 106.999 56.0934 106.735 56.2401C106.466 56.3916 106.192 56.5334 105.913 56.6654C103.811 57.6726 101.459 58.2397 98.9758 58.2397C90.1071 58.2397 82.8908 51.0234 82.8908 42.1547C82.8908 39.1821 83.7024 36.4002 85.1104 34.0095C85.4527 33.4277 85.8291 32.8752 86.2398 32.3472C89.1781 28.5337 93.7934 26.0696 98.9758 26.0696C104.158 26.0696 108.788 28.5386 111.727 32.3667C112.162 32.9241 112.553 33.5108 112.905 34.1219C114.279 36.4833 115.061 39.231 115.061 42.1547C115.061 44.6383 114.494 46.9948 113.487 49.0971Z" fill="#50AA57"/>
<path d="M108.705 37.2456L96.8198 49.1309C96.6487 49.302 96.4238 49.3851 96.1989 49.3851C95.974 49.3851 95.7491 49.302 95.578 49.1309L91.1876 44.7405C90.8453 44.3983 90.8453 43.8409 91.1876 43.4987C91.5298 43.1564 92.0872 43.1564 92.4294 43.4987L96.1989 47.2682L107.463 36.0037C107.806 35.6615 108.358 35.6615 108.705 36.0037C109.047 36.346 109.047 36.9033 108.705 37.2456Z" fill="#50AA57"/>
<path d="M19.3329 60.8115H3.56569C1.61006 60.8115 0.0211182 59.2225 0.0211182 57.2669V41.4948C0.0211182 39.5391 1.61006 37.9502 3.56569 37.9502H19.3378C21.2934 37.9502 22.8824 39.5391 22.8824 41.4948V57.2669C22.8824 59.2225 21.2934 60.8115 19.3378 60.8115H19.3329ZM3.56569 39.7151C2.58299 39.7151 1.78118 40.517 1.78118 41.4997V57.2718C1.78118 58.2594 2.58299 59.0563 3.56569 59.0563H19.3378C20.3205 59.0563 21.1223 58.2545 21.1223 57.2718V41.4997C21.1223 40.517 20.3205 39.7151 19.3378 39.7151H3.56569Z" fill="#50AA57"/>
<path d="M11.4518 50.7642C9.02681 50.7642 7.05652 48.7939 7.05652 46.3689C7.05652 43.9439 9.02681 41.9736 11.4518 41.9736C13.8768 41.9736 15.8471 43.9439 15.8471 46.3689C15.8471 48.7939 13.8768 50.7642 11.4518 50.7642ZM11.4518 43.7288C9.99485 43.7288 8.81169 44.912 8.81169 46.3689C8.81169 47.8258 9.99485 49.009 11.4518 49.009C12.9087 49.009 14.0919 47.8258 14.0919 46.3689C14.0919 44.912 12.9087 43.7288 11.4518 43.7288Z" fill="#50AA57"/>
<path d="M18.9174 60.7283H4.93955C4.68043 60.7283 4.43108 60.611 4.26486 60.4105C4.09863 60.2101 4.03018 59.9461 4.07418 59.6918C4.74887 55.9615 8.05388 53.2578 11.9309 53.2578C15.8079 53.2578 19.1032 55.9615 19.7828 59.6918C19.8316 59.9461 19.7583 60.2101 19.5921 60.4105C19.4259 60.611 19.1765 60.7283 18.9174 60.7283ZM6.08848 58.9731H17.7636C16.8787 56.6264 14.5759 55.0179 11.9309 55.0179C9.28593 55.0179 6.9734 56.6313 6.08848 58.9731Z" fill="#50AA57"/>
<path d="M19.3329 106.274H3.56569C1.61006 106.274 0.0211182 104.685 0.0211182 102.73V86.9577C0.0211182 85.002 1.61006 83.4131 3.56569 83.4131H19.3378C21.2934 83.4131 22.8824 85.002 22.8824 86.9577V102.73C22.8824 104.685 21.2934 106.274 19.3378 106.274H19.3329ZM3.56569 85.1732C2.58299 85.1732 1.78118 85.975 1.78118 86.9577V102.73C1.78118 103.712 2.58299 104.514 3.56569 104.514H19.3378C20.3205 104.514 21.1223 103.712 21.1223 102.73V86.9577C21.1223 85.975 20.3205 85.1732 19.3378 85.1732H3.56569Z" fill="#50AA57"/>
<path d="M11.4518 96.2222C9.02681 96.2222 7.05652 94.2519 7.05652 91.8269C7.05652 89.4019 9.02681 87.4316 11.4518 87.4316C13.8768 87.4316 15.8471 89.4019 15.8471 91.8269C15.8471 94.2519 13.8768 96.2222 11.4518 96.2222ZM11.4518 89.1868C9.99485 89.1868 8.81169 90.37 8.81169 91.8269C8.81169 93.2839 9.99485 94.467 11.4518 94.467C12.9087 94.467 14.0919 93.2839 14.0919 91.8269C14.0919 90.37 12.9087 89.1868 11.4518 89.1868Z" fill="#50AA57"/>
<path d="M4.94443 105.864C4.68531 105.864 4.43597 105.747 4.26974 105.546C4.10351 105.346 4.03506 105.082 4.07907 104.828C4.76842 101.034 8.07343 98.2764 11.9358 98.2764C15.7982 98.2764 19.1032 101.029 19.7925 104.823C19.8414 105.077 19.7681 105.341 19.6019 105.542C19.4356 105.742 19.1863 105.859 18.9272 105.859H4.94443V105.864ZM11.9358 100.036C9.28592 100.036 6.97339 101.699 6.08847 104.109H17.7782C16.8933 101.699 14.5808 100.036 11.9358 100.036Z" fill="#50AA57"/>
<path d="M31.4725 69.6551C31.2476 69.6551 31.0227 69.5671 30.8516 69.396L20.8828 59.4272C20.5405 59.085 20.5405 58.5276 20.8828 58.1854C21.225 57.8432 21.7824 57.8432 22.1246 58.1854L32.0934 68.1542C32.4356 68.4964 32.4356 69.0538 32.0934 69.396C31.9223 69.5671 31.6974 69.6551 31.4725 69.6551Z" fill="#50AA57"/>
<path d="M21.2494 85.9897C21.0245 85.9897 20.7996 85.9017 20.6285 85.7305C20.2863 85.3883 20.2863 84.831 20.6285 84.4887L31.0422 74.0946C31.3844 73.7523 31.9418 73.7523 32.284 74.0946C32.6263 74.4368 32.6263 74.9942 32.284 75.3364L21.8703 85.7305C21.6992 85.9017 21.4743 85.9848 21.2494 85.9848V85.9897Z" fill="#50AA57"/>
<path d="M62.0047 100.129H60.3376V112.63C60.3376 113.686 59.4771 114.552 58.421 114.552H52.5346C51.4737 114.552 50.6132 113.686 50.6132 112.63V100.129H48.946C48.9167 100.129 48.8874 100.129 48.858 100.124V112.63C48.858 114.659 50.5056 116.307 52.5346 116.307H58.421C60.4451 116.307 62.0976 114.659 62.0976 112.63V100.124C62.0683 100.129 62.0341 100.129 62.0047 100.129Z" fill="#50AA57"/>
<path d="M64.8745 84.4206V97.2642C64.8745 98.814 63.6376 100.08 62.0976 100.124C62.0682 100.129 62.034 100.129 62.0047 100.129H48.946C48.9166 100.129 48.8873 100.129 48.858 100.124C47.3179 100.08 46.081 98.814 46.081 97.2642V84.3962C45.3134 84.274 44.6632 83.785 44.3258 83.1104V97.2642C44.3258 99.787 46.3499 101.84 48.858 101.889H62.0976C64.6057 101.84 66.6297 99.787 66.6297 97.2642V83.5357C66.219 84.0539 65.5884 84.3962 64.8745 84.4206Z" fill="#50AA57"/>
<path d="M55.4778 47.0293C41.896 47.0293 30.8516 58.0786 30.8516 71.6604C30.8516 81.2283 36.3322 89.5348 44.3258 93.6123C44.8979 93.9057 45.4845 94.1746 46.081 94.4239V92.5074C45.4796 92.2385 44.8979 91.9403 44.3258 91.6225C37.3394 87.7014 32.6067 80.2212 32.6067 71.6604C32.6067 59.0466 42.864 48.7894 55.4778 48.7894C68.0916 48.7894 78.3489 59.0466 78.3489 71.6604C78.3489 80.2212 73.6162 87.7014 66.6298 91.6225C66.0577 91.9403 65.4759 92.2385 64.8746 92.5025V94.4239C65.471 94.1746 66.0577 93.9057 66.6298 93.6123C74.6185 89.5348 80.104 81.2283 80.104 71.6604C80.104 58.0786 69.0547 47.0293 55.4778 47.0293Z" fill="#50AA57"/>
<path d="M62.9044 62.7716V69.015C62.9044 69.499 62.5083 69.8901 62.0243 69.8901C61.5403 69.8901 61.1443 69.499 61.1443 69.015V62.7716C61.1443 62.6885 61.1541 62.6103 61.1834 62.537C61.2812 62.1654 61.6234 61.8965 62.0243 61.8965C62.4252 61.8965 62.7675 62.1654 62.8652 62.537C62.8946 62.6103 62.9044 62.6885 62.9044 62.7716Z" fill="#50AA57"/>
<path d="M62.0243 62.6889C63.3797 62.6889 64.4786 61.5901 64.4786 60.2346C64.4786 58.8791 63.3797 57.7803 62.0243 57.7803C60.6688 57.7803 59.5699 58.8791 59.5699 60.2346C59.5699 61.5901 60.6688 62.6889 62.0243 62.6889Z" fill="#50AA57"/>
<path d="M62.0243 63.5632C60.186 63.5632 58.6899 62.0672 58.6899 60.2289C58.6899 58.3906 60.186 56.8945 62.0243 56.8945C63.8626 56.8945 65.3586 58.3906 65.3586 60.2289C65.3586 62.0672 63.8626 63.5632 62.0243 63.5632ZM62.0243 58.6546C61.154 58.6546 60.4451 59.3635 60.4451 60.2338C60.4451 61.104 61.154 61.8129 62.0243 61.8129C62.8945 61.8129 63.6035 61.104 63.6035 60.2338C63.6035 59.3635 62.8945 58.6546 62.0243 58.6546Z" fill="#50AA57"/>
<path d="M49.2295 62.7716V69.3425C49.2295 69.8314 48.8384 70.2226 48.3544 70.2226C47.8704 70.2226 47.4744 69.8314 47.4744 69.3425V62.7716C47.4744 62.6885 47.4841 62.6103 47.5086 62.537C47.6113 62.1654 47.9535 61.8965 48.3544 61.8965C48.7553 61.8965 49.0926 62.1654 49.1953 62.537C49.2198 62.6103 49.2295 62.6885 49.2295 62.7716Z" fill="#50AA57"/>
<path d="M62.9044 62.7716V69.3425C62.9044 69.8314 62.5083 70.2226 62.0243 70.2226C61.5403 70.2226 61.1443 69.8314 61.1443 69.3425V62.7716C61.1443 62.6885 61.1541 62.6103 61.1834 62.537C61.2812 62.1654 61.6234 61.8965 62.0243 61.8965C62.4252 61.8965 62.7675 62.1654 62.8652 62.537C62.8946 62.6103 62.9044 62.6885 62.9044 62.7716Z" fill="#50AA57"/>
<path d="M48.3496 62.6889C49.7051 62.6889 50.8039 61.5901 50.8039 60.2346C50.8039 58.8791 49.7051 57.7803 48.3496 57.7803C46.9941 57.7803 45.8953 58.8791 45.8953 60.2346C45.8953 61.5901 46.9941 62.6889 48.3496 62.6889Z" fill="#50AA57"/>
<path d="M48.3496 63.5632C46.5113 63.5632 45.0153 62.0672 45.0153 60.2289C45.0153 58.3906 46.5113 56.8945 48.3496 56.8945C50.1879 56.8945 51.6839 58.3906 51.6839 60.2289C51.6839 62.0672 50.1879 63.5632 48.3496 63.5632ZM48.3496 58.6546C47.4793 58.6546 46.7704 59.3635 46.7704 60.2338C46.7704 61.104 47.4793 61.8129 48.3496 61.8129C49.2199 61.8129 49.9288 61.104 49.9288 60.2338C49.9288 59.3635 49.2199 58.6546 48.3496 58.6546Z" fill="#50AA57"/>
<path d="M64.7817 66.2383H46.4526C44.1694 66.2383 42.3164 68.0912 42.3164 70.3695V82.0495C42.3164 83.5505 43.1231 84.8705 44.3258 85.5892C44.8489 85.907 45.4454 86.1074 46.081 86.1661C46.2032 86.1759 46.3254 86.1808 46.4526 86.1808H64.8746C65.5052 86.1661 66.1017 86.0097 66.6297 85.7408C67.984 85.0661 68.9129 83.6629 68.9129 82.0495V70.3695C68.9129 68.0912 67.06 66.2383 64.7817 66.2383ZM67.1578 82.0495C67.1578 82.6118 66.9622 83.13 66.6297 83.5358C66.2191 84.054 65.5884 84.3963 64.8746 84.4207C64.8452 84.4207 64.811 84.4207 64.7817 84.4207H46.4526C46.3254 84.4207 46.2032 84.4109 46.081 84.3914C45.3134 84.2692 44.6632 83.7803 44.3258 83.1056C44.1645 82.7878 44.0765 82.426 44.0765 82.0446V70.3646C44.0765 69.0544 45.1423 67.9886 46.4526 67.9886H64.7817C66.0919 67.9886 67.1578 69.0544 67.1578 70.3646V82.0446V82.0495Z" fill="#50AA57"/>
<path d="M60.3913 77.0473C61.7468 77.0473 62.8456 75.9485 62.8456 74.593C62.8456 73.2375 61.7468 72.1387 60.3913 72.1387C59.0358 72.1387 57.937 73.2375 57.937 74.593C57.937 75.9485 59.0358 77.0473 60.3913 77.0473Z" fill="#50AA57"/>
<path d="M60.3962 71.2588C58.5579 71.2588 57.0619 72.7548 57.0619 74.5931C57.0619 76.4314 58.5579 77.9275 60.3962 77.9275C62.2345 77.9275 63.7306 76.4314 63.7306 74.5931C63.7306 72.7548 62.2345 71.2588 60.3962 71.2588ZM60.3962 76.1674C59.526 76.1674 58.8171 75.4634 58.8171 74.5931C58.8171 73.7229 59.526 73.014 60.3962 73.014C61.2665 73.014 61.9705 73.7229 61.9705 74.5931C61.9705 75.4634 61.2665 76.1674 60.3962 76.1674Z" fill="#50AA57"/>
<path d="M50.8088 77.0473C52.1643 77.0473 53.2631 75.9485 53.2631 74.593C53.2631 73.2375 52.1643 72.1387 50.8088 72.1387C49.4533 72.1387 48.3545 73.2375 48.3545 74.593C48.3545 75.9485 49.4533 77.0473 50.8088 77.0473Z" fill="#50AA57"/>
<path d="M50.8087 71.2588C48.9704 71.2588 47.4744 72.7548 47.4744 74.5931C47.4744 76.4314 48.9704 77.9275 50.8087 77.9275C52.647 77.9275 54.1431 76.4314 54.1431 74.5931C54.1431 72.7548 52.647 71.2588 50.8087 71.2588ZM50.8087 76.1674C49.9385 76.1674 49.2295 75.4634 49.2295 74.5931C49.2295 73.7229 49.9385 73.014 50.8087 73.014C51.679 73.014 52.3879 73.7229 52.3879 74.5931C52.3879 75.4634 51.679 76.1674 50.8087 76.1674Z" fill="#50AA57"/>
<path d="M103.552 112.259C104.378 112.273 105.165 112.449 105.889 112.748C105.283 113.173 104.691 113.613 104.124 114.063H104.119C103.88 114.029 103.635 114.009 103.391 114.009H92.0627C89.4177 114.009 87.2616 116.16 87.2616 118.8V123.67C87.2616 124.154 86.8705 124.545 86.3865 124.545C85.9025 124.545 85.5065 124.154 85.5065 123.67V118.8C85.5065 115.192 88.4448 112.254 92.0627 112.254H103.391C103.444 112.254 103.498 112.254 103.552 112.259Z" fill="#50AA57"/>
<path d="M108.304 114.468C107.947 114.972 107.62 115.5 107.322 116.043C106.969 115.549 106.525 115.119 106.011 114.786C106.305 114.278 106.627 113.789 106.969 113.314C107.463 113.637 107.913 114.028 108.304 114.468Z" fill="#50AA57"/>
<path d="M115.516 122.81H113.731C113.658 123.235 113.623 123.675 113.623 124.12C113.623 124.271 113.628 124.418 113.633 124.565H115.398C115.384 124.418 115.379 124.271 115.379 124.12C115.379 123.67 115.423 123.23 115.516 122.81ZM123.255 140.532C122.786 140.576 122.316 140.596 121.837 140.596C121.734 140.596 121.632 140.596 121.529 140.591V156.676C121.529 158.646 119.823 160.245 117.73 160.245H77.7377C75.6403 160.245 73.934 158.646 73.934 156.676V128.134C73.934 126.168 75.6403 124.565 77.7377 124.565H94.5023C94.3703 124.399 94.253 124.247 94.1552 124.12C94.3948 123.807 94.7468 123.357 95.1966 122.81H77.7377C74.6723 122.81 72.1788 125.2 72.1788 128.134V156.676C72.1788 159.614 74.6723 162 77.7377 162H117.73C120.796 162 123.289 159.614 123.289 156.676V140.532C123.289 140.532 123.265 140.537 123.255 140.532ZM105.278 124.565C105.273 124.384 105.268 124.203 105.268 124.022C105.268 123.616 105.283 123.21 105.312 122.81H103.547C103.523 123.21 103.508 123.616 103.508 124.022C103.508 124.203 103.513 124.384 103.518 124.565H105.278ZM121.798 130.539C121.705 130.539 121.617 130.539 121.529 130.529V132.289C121.617 132.294 121.71 132.294 121.798 132.294C122.306 132.294 122.805 132.245 123.289 132.157V130.363C122.81 130.481 122.311 130.539 121.798 130.539ZM115.516 122.81H113.731C113.658 123.235 113.623 123.675 113.623 124.12C113.623 124.271 113.628 124.418 113.633 124.565H115.398C115.384 124.418 115.379 124.271 115.379 124.12C115.379 123.67 115.423 123.23 115.516 122.81Z" fill="#50AA57"/>
<path d="M73.054 140.723C80.3778 143.221 87.066 144.688 93.6565 145.113L73.054 140.723Z" fill="#50AA57"/>
<path d="M93.6565 145.989C93.6565 145.989 93.6174 145.989 93.5978 145.989C87.1051 145.568 80.2947 144.116 72.7704 141.554C72.3108 141.398 72.0664 140.899 72.2228 140.44C72.3793 139.98 72.878 139.736 73.3375 139.892C80.7151 142.405 87.3789 143.828 93.7151 144.238C94.1992 144.268 94.5659 144.688 94.5365 145.172C94.5072 145.637 94.1209 145.994 93.6614 145.994L93.6565 145.989Z" fill="#50AA57"/>
<path d="M101.802 145.113C108.387 144.688 115.08 143.221 122.399 140.723L101.802 145.113Z" fill="#50AA57"/>
<path d="M123.079 141.275C122.981 141.402 122.844 141.5 122.683 141.554C122.297 141.686 121.91 141.813 121.529 141.94C121.162 142.063 120.796 142.18 120.429 142.297H120.419C119.823 142.488 119.231 142.669 118.644 142.845H118.64C113.003 144.522 107.742 145.539 102.682 145.925C102.408 145.949 102.134 145.969 101.86 145.988H101.802C101.342 145.988 100.956 145.632 100.927 145.167V145.113C100.927 144.654 101.283 144.267 101.748 144.233C102.056 144.214 102.369 144.189 102.682 144.165C106.627 143.852 110.7 143.148 114.997 142.033C115.535 141.896 116.078 141.75 116.625 141.598H116.63C117.251 141.422 117.877 141.241 118.512 141.046H118.517C119.08 140.879 119.647 140.703 120.219 140.518H120.224C120.654 140.562 121.089 140.586 121.529 140.591C121.632 140.596 121.734 140.596 121.837 140.596C122.316 140.596 122.786 140.576 123.255 140.532C123.318 140.796 123.245 141.07 123.079 141.275Z" fill="#50AA57"/>
<path d="M99.7581 152.501H95.705C94.0916 152.501 92.7814 151.191 92.7814 149.577V141.085C92.7814 140.601 93.1725 140.205 93.6614 140.205H101.807C102.291 140.205 102.687 140.596 102.687 141.085V149.577C102.687 151.191 101.376 152.501 99.763 152.501H99.7581ZM94.5366 141.96V149.577C94.5366 150.223 95.0597 150.746 95.705 150.746H99.7581C100.403 150.746 100.927 150.223 100.927 149.577V141.96H94.5366Z" fill="#50AA57"/>
<path d="M151.255 123.611C151.118 123.426 147.915 118.957 142.694 114.42C135.727 108.367 128.501 105.17 121.798 105.17C115.941 105.17 109.688 107.61 103.552 112.259C102.828 112.812 102.1 113.393 101.381 114.009C101.22 114.141 101.059 114.278 100.897 114.42C96.9126 117.881 94.1063 121.299 92.9427 122.81C92.576 123.284 92.3756 123.567 92.3414 123.611C92.136 123.895 92.1214 124.272 92.3023 124.565C92.312 124.589 92.3267 124.609 92.3414 124.628C92.4734 124.819 95.6757 129.288 100.897 133.82C105.561 137.868 110.338 140.645 114.997 142.033C115.173 142.087 115.354 142.141 115.53 142.185H115.54C115.936 142.297 116.322 142.4 116.713 142.483H116.718C117.359 142.635 118.004 142.752 118.64 142.845H118.645C119.613 142.987 120.576 143.06 121.529 143.07C121.617 143.075 121.71 143.075 121.798 143.075C122.292 143.075 122.79 143.055 123.289 143.021C129.567 142.586 136.24 139.428 142.694 133.82C147.915 129.288 151.118 124.819 151.255 124.628C151.47 124.325 151.47 123.915 151.255 123.611ZM133.678 138.005C130.486 139.731 126.976 140.987 123.289 141.256C123.221 141.266 123.152 141.271 123.079 141.276C122.654 141.3 122.228 141.315 121.798 141.315C121.71 141.315 121.617 141.315 121.529 141.31C121.255 141.31 120.977 141.3 120.703 141.285H120.698C120.473 141.271 120.243 141.256 120.013 141.232H120.009C119.505 141.193 119.011 141.129 118.517 141.046H118.513C115.56 140.577 112.743 139.511 110.133 138.117C102.388 134.011 96.4922 127.088 94.5023 124.565C94.3703 124.399 94.253 124.247 94.1552 124.12C94.3948 123.807 94.7468 123.357 95.1966 122.81C96.898 120.746 100.037 117.251 104.119 114.063H104.124C104.691 113.613 105.283 113.173 105.889 112.748C107.053 111.922 108.285 111.135 109.566 110.426C113.276 108.362 117.432 106.925 121.798 106.925C126.164 106.925 130.491 108.426 134.26 110.558C142.117 114.997 147.935 122.159 149.441 124.12C147.896 126.129 141.828 133.6 133.678 138.005Z" fill="#50AA57"/>
<path d="M134.26 110.557C130.99 107.54 126.624 105.697 121.837 105.697C117.051 105.697 112.817 107.487 109.566 110.425C108.602 111.29 107.732 112.258 106.97 113.314C106.627 113.789 106.305 114.278 106.011 114.786C104.613 117.172 103.738 119.9 103.547 122.809C103.523 123.21 103.508 123.616 103.508 124.021C103.508 124.202 103.513 124.383 103.518 124.564C103.674 130.006 106.217 134.865 110.133 138.117C112.02 139.686 114.215 140.884 116.625 141.598H116.63C116.87 141.671 117.109 141.735 117.354 141.798H117.359C117.686 141.881 118.014 141.955 118.346 142.018H118.351C119.031 142.15 119.715 142.243 120.419 142.297H120.429C120.796 142.326 121.162 142.341 121.529 142.346C121.632 142.351 121.735 142.351 121.837 142.351C122.326 142.351 122.81 142.331 123.289 142.292C127.23 141.984 130.828 140.419 133.678 138.004C137.644 134.641 140.166 129.619 140.166 124.021C140.166 118.424 137.888 113.906 134.26 110.557ZM123.289 140.532C123.289 140.532 123.265 140.537 123.255 140.532C122.786 140.576 122.316 140.595 121.837 140.595C121.735 140.595 121.632 140.595 121.529 140.591C121.089 140.586 120.654 140.561 120.224 140.517H120.219C112.015 139.715 105.547 132.915 105.278 124.564C105.273 124.383 105.268 124.202 105.268 124.021C105.268 123.616 105.283 123.21 105.312 122.809C105.488 120.369 106.197 118.076 107.322 116.043C107.62 115.5 107.947 114.972 108.304 114.468C111.306 110.225 116.254 107.452 121.837 107.452C130.975 107.452 138.411 114.884 138.411 124.021C138.411 132.67 131.747 139.794 123.289 140.532Z" fill="#50AA57"/>
<path d="M121.798 115.945C117.735 115.945 114.357 118.923 113.731 122.81C113.658 123.235 113.624 123.675 113.624 124.12C113.624 124.271 113.628 124.418 113.633 124.565C113.863 128.779 117.295 132.153 121.529 132.289C121.617 132.294 121.71 132.294 121.798 132.294C122.307 132.294 122.805 132.245 123.289 132.157C127.088 131.453 129.973 128.119 129.973 124.12C129.973 119.612 126.306 115.945 121.798 115.945ZM123.289 130.363C122.81 130.481 122.311 130.539 121.798 130.539C121.705 130.539 121.617 130.539 121.529 130.529C118.263 130.397 115.618 127.811 115.398 124.565C115.384 124.418 115.379 124.271 115.379 124.12C115.379 123.67 115.423 123.23 115.516 122.81C116.122 119.896 118.708 117.705 121.798 117.705C125.333 117.705 128.213 120.58 128.213 124.12C128.213 127.146 126.11 129.688 123.289 130.363Z" fill="#50AA57"/>
<path d="M105.405 112.865C104.921 112.865 104.525 112.474 104.525 111.985V102.128H97.8465C97.3624 102.128 96.9664 101.737 96.9664 101.248V88.1359C96.9664 87.6519 97.3576 87.2559 97.8465 87.2559C98.3354 87.2559 98.7265 87.647 98.7265 88.1359V100.373H105.405C105.889 100.373 106.285 100.764 106.285 101.253V111.99C106.285 112.474 105.894 112.87 105.405 112.87V112.865Z" fill="#50AA57"/>
<path d="M139.286 112.865C138.802 112.865 138.406 112.474 138.406 111.985V102.128H134.832C134.348 102.128 133.952 101.737 133.952 101.248V88.1359C133.952 87.6519 134.343 87.2559 134.832 87.2559C135.321 87.2559 135.712 87.647 135.712 88.1359V100.373H139.286C139.77 100.373 140.166 100.764 140.166 101.253V111.99C140.166 112.474 139.775 112.87 139.286 112.87V112.865Z" fill="#50AA57"/>
<path d="M115.804 106.925C115.32 106.925 114.924 106.534 114.924 106.045V97.7482C114.924 97.2642 115.315 96.8682 115.804 96.8682H120.913V84.7335C120.913 84.2495 121.304 83.8535 121.793 83.8535C122.282 83.8535 122.673 84.2446 122.673 84.7335V97.7482C122.673 98.2323 122.282 98.6283 121.793 98.6283H116.684V106.05C116.684 106.534 116.293 106.93 115.804 106.93V106.925Z" fill="#50AA57"/>
<path d="M100.956 88.1407C100.956 86.4246 99.5674 85.0361 97.8514 85.0361C96.1353 85.0361 94.7468 86.4246 94.7468 88.1407C94.7468 89.8567 96.1353 91.2452 97.8514 91.2452C99.5674 91.2452 100.956 89.8567 100.956 88.1407Z" fill="#50AA57"/>
<path d="M97.8514 92.1205C95.6562 92.1205 93.8717 90.336 93.8717 88.1408C93.8717 85.9456 95.6562 84.1611 97.8514 84.1611C100.047 84.1611 101.831 85.9456 101.831 88.1408C101.831 90.336 100.047 92.1205 97.8514 92.1205ZM97.8514 85.9163C96.6242 85.9163 95.6269 86.9137 95.6269 88.1408C95.6269 89.368 96.6242 90.3654 97.8514 90.3654C99.0786 90.3654 100.076 89.368 100.076 88.1408C100.076 86.9137 99.0786 85.9163 97.8514 85.9163Z" fill="#50AA57"/>
<path d="M121.837 87.838C123.552 87.838 124.942 86.4481 124.942 84.7335C124.942 83.0189 123.552 81.6289 121.837 81.6289C120.123 81.6289 118.733 83.0189 118.733 84.7335C118.733 86.4481 120.123 87.838 121.837 87.838Z" fill="#50AA57"/>
<path d="M121.837 88.7182C119.642 88.7182 117.857 86.9337 117.857 84.7385C117.857 82.5433 119.642 80.7588 121.837 80.7588C124.032 80.7588 125.817 82.5433 125.817 84.7385C125.817 86.9337 124.032 88.7182 121.837 88.7182ZM121.837 82.514C120.61 82.514 119.613 83.5113 119.613 84.7385C119.613 85.9656 120.61 86.963 121.837 86.963C123.064 86.963 124.062 85.9656 124.062 84.7385C124.062 83.5113 123.064 82.514 121.837 82.514Z" fill="#50AA57"/>
<path d="M137.937 88.0382C137.937 86.3221 136.548 84.9336 134.832 84.9336C133.116 84.9336 131.728 86.3221 131.728 88.0382C131.728 89.7542 133.116 91.1427 134.832 91.1427C136.548 91.1427 137.937 89.7542 137.937 88.0382Z" fill="#50AA57"/>
<path d="M134.832 92.0229C132.637 92.0229 130.853 90.2384 130.853 88.0432C130.853 85.848 132.637 84.0635 134.832 84.0635C137.027 84.0635 138.812 85.848 138.812 88.0432C138.812 90.2384 137.027 92.0229 134.832 92.0229ZM134.832 85.8186C133.605 85.8186 132.608 86.816 132.608 88.0432C132.608 89.2703 133.605 90.2677 134.832 90.2677C136.059 90.2677 137.057 89.2703 137.057 88.0432C137.057 86.816 136.059 85.8186 134.832 85.8186Z" fill="#50AA57"/>
</g>
<defs>
<clipPath id="clip0_597_648">
<rect width="165.979" height="161.936" fill="white" transform="translate(0.0211182 0.0644531)"/>
</clipPath>
</defs>
</svg>
