<svg width="167" height="158" viewBox="0 0 167 158" fill="none" xmlns="http://www.w3.org/2000/svg">
<g clip-path="url(#clip0_597_493)">
<path d="M46.0982 156.237H48.1012L46.7447 157.715C46.5782 157.897 46.3431 158 46.0982 158H19.6964C18.4623 158 17.4534 156.988 17.4534 155.751V152.431C17.4534 151.193 18.4623 150.182 19.6964 150.182H24.5546V146.661H7.04156C3.23139 146.661 0.131348 143.552 0.131348 139.732V106.181C0.131348 102.36 3.23139 99.252 7.04156 99.252H8.21693C8.70177 99.252 9.09356 99.6448 9.09356 100.131C9.09356 100.617 8.70177 101.015 8.21693 101.015H7.04156C4.20107 101.015 1.88951 103.333 1.88951 106.181V139.732C1.88951 142.58 4.20107 144.898 7.04156 144.898H25.4361C25.921 144.898 26.3177 145.291 26.3177 145.782V151.066C26.3177 151.552 25.921 151.95 25.4361 151.95H19.6964C19.4319 151.95 19.2165 152.166 19.2165 152.431V155.751C19.2165 156.016 19.4319 156.232 19.6964 156.232H42.6113L45.7113 156.237L45.7358 156.207C45.8533 156.227 45.9758 156.237 46.0982 156.237Z" fill="#50AA57"/>
<path d="M69.4734 130.995H67.7104L67.6908 129.227L67.4116 106.191C67.4116 103.333 65.1001 101.015 62.2547 101.015H53.7724C53.2876 101.015 52.8909 100.617 52.8909 100.131C52.8909 99.6448 53.2876 99.252 53.7724 99.252H62.2547C66.0697 99.252 69.1698 102.36 69.1698 106.181L69.4538 129.227L69.4734 130.995Z" fill="#50AA57"/>
<path d="M54.654 93.364V125.977C53.7774 126.335 53.1897 126.949 53.1897 127.631V130.097C53.1897 130.278 53.1358 130.445 53.0428 130.583C52.9448 130.445 52.8909 130.278 52.8909 130.097V93.364C52.8909 91.8073 51.6323 90.5403 50.0798 90.5403H11.8998C10.3522 90.5403 9.09361 91.8073 9.09361 93.364V134.723C9.09361 136.279 10.3522 137.541 11.8998 137.541H42.7338C43.2186 137.541 43.6153 137.934 43.6153 138.425C43.6153 138.916 43.2186 139.304 42.7338 139.304H11.8998C9.38256 139.304 7.33545 137.252 7.33545 134.723V93.364C7.33545 90.835 9.38256 88.7773 11.8998 88.7773H50.0798C52.602 88.7773 54.654 90.835 54.654 93.364Z" fill="#50AA57"/>
<path d="M42.8267 132.312H14.0301C13.5452 132.312 13.1486 131.919 13.1486 131.428V100.854C13.1486 100.368 13.5404 99.9697 14.0301 99.9697H47.9396C48.4244 99.9697 48.8211 100.363 48.8211 100.854V130.092C48.8211 130.579 48.4293 130.976 47.9396 130.976C47.4499 130.976 47.0581 130.584 47.0581 130.092V101.733H14.9116V130.544H42.8267C43.3116 130.544 43.7083 130.937 43.7083 131.428C43.7083 131.919 43.3165 132.312 42.8267 132.312Z" fill="#50AA57"/>
<path d="M47.9592 117.029H14.0497C13.5649 117.029 13.1682 116.637 13.1682 116.146C13.1682 115.655 13.56 115.262 14.0497 115.262H47.9592C48.4441 115.262 48.8408 115.655 48.8408 116.146C48.8408 116.637 48.449 117.029 47.9592 117.029Z" fill="#50AA57"/>
<path d="M25.206 132.317C24.7212 132.317 24.3245 131.924 24.3245 131.433V101.374C24.3245 100.888 24.7163 100.49 25.206 100.49C25.6957 100.49 26.0875 100.883 26.0875 101.374V131.433C26.0875 131.919 25.6957 132.317 25.206 132.317Z" fill="#50AA57"/>
<path d="M36.7639 132.317C36.279 132.317 35.8823 131.924 35.8823 131.433V100.859C35.8823 100.372 36.2741 99.9746 36.7639 99.9746C37.2536 99.9746 37.6454 100.367 37.6454 100.859V131.433C37.6454 131.919 37.2536 132.317 36.7639 132.317Z" fill="#50AA57"/>
<path d="M31.2983 111.666C31.0779 111.666 30.8673 111.582 30.7057 111.435L28.9671 109.834C28.6096 109.505 28.5851 108.946 28.9133 108.587C29.2414 108.229 29.7997 108.204 30.1572 108.533L31.0387 109.343L32.8753 105.68C33.0956 105.243 33.6246 105.071 34.0555 105.287C34.4914 105.508 34.6628 106.039 34.4473 106.471L32.0868 111.18C31.9643 111.425 31.7293 111.602 31.4599 111.651C31.406 111.661 31.3522 111.666 31.3032 111.666H31.2983Z" fill="#50AA57"/>
<path d="M19.5446 126.261C19.3242 126.261 19.1137 126.178 18.952 126.03L17.2135 124.429C16.856 124.1 16.8315 123.541 17.1596 123.182C17.4877 122.824 18.046 122.799 18.4035 123.128L19.3291 123.983L21.4154 120.324C21.6554 119.902 22.1941 119.755 22.6153 119.995C23.0365 120.236 23.1834 120.776 22.9434 121.198L20.3086 125.814C20.1764 126.045 19.9462 126.207 19.6818 126.246C19.6377 126.251 19.5936 126.256 19.5446 126.256V126.261Z" fill="#50AA57"/>
<path d="M21.2146 92.6512C21.2146 93.6873 20.3772 94.527 19.3438 94.527C18.3105 94.527 17.473 93.6873 17.473 92.6512V86.1941C17.473 85.158 18.3105 84.3184 19.3438 84.3184C20.3772 84.3184 21.2146 85.158 21.2146 86.1941V92.6512Z" fill="#50AA57"/>
<path d="M19.3438 95.412C17.8256 95.412 16.5914 94.1745 16.5914 92.6521V86.1944C16.5914 84.6721 17.8256 83.4346 19.3438 83.4346C20.862 83.4346 22.0961 84.6721 22.0961 86.1944V92.6521C22.0961 94.1745 20.862 95.412 19.3438 95.412ZM19.3438 85.1975C18.7953 85.1975 18.3496 85.6444 18.3496 86.1944V92.6521C18.3496 93.2021 18.7953 93.649 19.3438 93.649C19.8923 93.649 20.3379 93.2021 20.3379 92.6521V86.1944C20.3379 85.6444 19.8923 85.1975 19.3438 85.1975Z" fill="#50AA57"/>
<path d="M44.5164 92.6512C44.5164 93.6873 43.6789 94.527 42.6456 94.527C41.6122 94.527 40.7748 93.6873 40.7748 92.6512V86.1941C40.7748 85.158 41.6122 84.3184 42.6456 84.3184C43.6789 84.3184 44.5164 85.158 44.5164 86.1941V92.6512Z" fill="#50AA57"/>
<path d="M42.6455 95.412C41.1273 95.412 39.8932 94.1745 39.8932 92.6521V86.1944C39.8932 84.6721 41.1273 83.4346 42.6455 83.4346C44.1637 83.4346 45.3978 84.6721 45.3978 86.1944V92.6521C45.3978 94.1745 44.1637 95.412 42.6455 95.412ZM42.6455 85.1975C42.097 85.1975 41.6513 85.6444 41.6513 86.1944V92.6521C41.6513 93.2021 42.097 93.649 42.6455 93.649C43.194 93.649 43.6397 93.2021 43.6397 92.6521V86.1944C43.6397 85.6444 43.194 85.1975 42.6455 85.1975Z" fill="#50AA57"/>
<path d="M32.8655 92.6512C32.8655 93.6873 32.0281 94.527 30.9947 94.527C29.9614 94.527 29.1239 93.6873 29.1239 92.6512V86.1941C29.1239 85.158 29.9614 84.3184 30.9947 84.3184C32.0281 84.3184 32.8655 85.158 32.8655 86.1941V92.6512Z" fill="#50AA57"/>
<path d="M30.9946 95.412C29.4765 95.412 28.2423 94.1745 28.2423 92.6521V86.1944C28.2423 84.6721 29.4765 83.4346 30.9946 83.4346C32.5128 83.4346 33.747 84.6721 33.747 86.1944V92.6521C33.747 94.1745 32.5128 95.412 30.9946 95.412ZM30.9946 85.1975C30.4461 85.1975 30.0005 85.6444 30.0005 86.1944V92.6521C30.0005 93.2021 30.4461 93.649 30.9946 93.649C31.5431 93.649 31.9888 93.2021 31.9888 92.6521V86.1944C31.9888 85.6444 31.5431 85.1975 30.9946 85.1975Z" fill="#50AA57"/>
<path d="M69.4931 127.631V130.096C69.4931 130.582 69.0964 130.98 68.6116 130.98C68.1267 130.98 67.73 130.582 67.73 130.096V127.631C67.73 126.556 66.2657 125.648 64.5271 125.648H56.3877C55.7559 125.648 55.1584 125.77 54.654 125.977C53.7774 126.335 53.1897 126.949 53.1897 127.631V130.096C53.1897 130.278 53.1358 130.445 53.0428 130.582C52.886 130.823 52.6167 130.98 52.313 130.98C51.8233 130.98 51.4315 130.582 51.4315 130.096V127.631C51.4315 126.571 51.9849 125.628 52.8909 124.955C53.3856 124.587 53.9831 124.297 54.654 124.116C55.1927 123.963 55.7755 123.885 56.3877 123.885H64.5271C67.3137 123.885 69.4931 125.53 69.4931 127.631Z" fill="#50AA57"/>
<path d="M74.8263 129.228H46.0982C43.7572 129.228 41.8571 131.064 41.8571 133.318V153.909C41.8571 154.769 42.1362 155.574 42.6113 156.237C43.3752 157.302 44.6535 158 46.0982 158H74.8263C77.1672 158 79.0723 156.163 79.0723 153.909V133.318C79.0723 131.064 77.1672 129.228 74.8263 129.228ZM77.3092 153.909C77.3092 155.191 76.1975 156.237 74.8263 156.237H46.0982C45.9758 156.237 45.8533 156.227 45.7358 156.207C44.5359 156.045 43.6152 155.078 43.6152 153.909V133.318C43.6152 132.037 44.7269 130.995 46.0982 130.995H74.8263C76.1975 130.995 77.3092 132.037 77.3092 133.318V153.909Z" fill="#50AA57"/>
<path d="M42.7338 142.398C47.9936 144.201 52.7979 145.256 57.5337 145.566L42.7338 142.398Z" fill="#50AA57"/>
<path d="M57.5385 146.45C57.5385 146.45 57.4993 146.45 57.4797 146.45C52.7929 146.145 47.8759 145.095 42.4496 143.238C41.9893 143.081 41.7444 142.58 41.9011 142.119C42.0578 141.657 42.5574 141.412 43.0177 141.569C48.2971 143.376 53.0623 144.397 57.5923 144.692C58.0772 144.721 58.4445 145.144 58.4151 145.63C58.3857 146.096 57.9988 146.455 57.5385 146.455V146.45Z" fill="#50AA57"/>
<path d="M63.386 145.566C68.1169 145.256 72.9261 144.201 78.181 142.398L63.386 145.566Z" fill="#50AA57"/>
<path d="M63.386 146.45C62.9256 146.45 62.5387 146.091 62.5093 145.625C62.48 145.139 62.8473 144.717 63.3321 144.687C67.8622 144.392 72.6273 143.371 77.9018 141.564C78.3622 141.407 78.8617 141.652 79.0184 142.114C79.1751 142.576 78.9303 143.076 78.4699 143.234C73.0485 145.09 68.1364 146.141 63.4447 146.445C63.4251 146.445 63.4056 146.445 63.386 146.445V146.45Z" fill="#50AA57"/>
<path d="M62.0294 151.143H58.8951C57.6609 151.143 56.657 150.137 56.657 148.899V142.658C56.657 142.172 57.0488 141.774 57.5385 141.774H63.3909C63.8757 141.774 64.2724 142.167 64.2724 142.658V148.899C64.2724 150.137 63.2685 151.143 62.0343 151.143H62.0294ZM58.4151 143.542V148.899C58.4151 149.164 58.6306 149.381 58.8951 149.381H62.0294C62.2939 149.381 62.5094 149.164 62.5094 148.899V143.542H58.42H58.4151Z" fill="#50AA57"/>
<path d="M162.622 140.154C162.935 140.144 163.234 140.08 163.513 139.967L163.498 141.043C163.498 141.146 163.479 141.244 163.444 141.343C163.381 141.519 163.307 141.691 163.229 141.858C162.112 144.274 159.669 145.86 156.98 145.86H138.703V149.102H143.581C144.82 149.102 145.824 150.108 145.824 151.351V154.68C145.824 155.923 144.82 156.934 143.581 156.934H115.333C114.093 156.934 113.09 155.923 113.09 154.68V151.351C113.09 150.108 114.093 149.102 115.333 149.102H120.21V145.86H101.958C98.1574 145.86 95.0671 142.762 95.0671 138.951V124.273C95.0671 123.786 95.4638 123.389 95.9487 123.389C96.4335 123.389 96.8302 123.786 96.8302 124.273V138.951C96.8302 141.789 99.1271 144.093 101.958 144.093H121.092C121.577 144.093 121.973 144.49 121.973 144.976V149.981C121.973 150.472 121.577 150.865 121.092 150.865H115.333C115.068 150.865 114.848 151.085 114.848 151.351V154.68C114.848 154.95 115.068 155.171 115.333 155.171H143.581C143.85 155.171 144.065 154.95 144.065 154.68V151.351C144.065 151.085 143.85 150.865 143.581 150.865H137.821C137.336 150.865 136.945 150.472 136.945 149.981V144.976C136.945 144.49 137.336 144.093 137.821 144.093H156.98C158.665 144.093 160.222 143.253 161.167 141.917C161.397 141.593 161.588 141.244 161.74 140.866L161.75 140.154H162.622Z" fill="#50AA57"/>
<path d="M163.871 105.524V109.973L163.856 111.176C163.562 111.004 163.229 110.891 162.876 110.847C162.759 110.827 162.651 110.822 162.534 110.822H162.098L162.108 109.963V105.524C162.108 102.685 159.806 100.377 156.98 100.377H141.862C141.377 100.377 140.98 99.9795 140.98 99.4933C140.98 99.0071 141.377 98.6143 141.862 98.6143H156.98C160.78 98.6143 163.871 101.713 163.871 105.524Z" fill="#50AA57"/>
<path d="M137.204 139.32H103.486C102.247 139.32 101.238 138.308 101.238 137.066V123.478H103.001V137.066C103.001 137.336 103.216 137.552 103.486 137.552H136.445C136.455 137.768 136.489 137.984 136.548 138.195C136.671 138.627 136.901 139.01 137.204 139.32Z" fill="#50AA57"/>
<path d="M167 113.533V137.434C167 139.649 165.359 141.52 163.229 141.859C163.038 141.893 162.842 141.913 162.641 141.918H139.153C137.405 141.918 135.818 140.877 135.098 139.32C135 139.114 134.922 138.902 134.858 138.681C134.751 138.308 134.692 137.93 134.687 137.552C134.682 137.513 134.682 137.473 134.682 137.434V125.378C134.682 124.892 135.079 124.494 135.564 124.494C136.049 124.494 136.44 124.892 136.44 125.378V137.434C136.44 137.473 136.44 137.513 136.445 137.552C136.455 137.768 136.489 137.984 136.548 138.195C136.67 138.627 136.901 139.01 137.204 139.32C137.704 139.84 138.404 140.155 139.153 140.155H162.622C162.935 140.145 163.234 140.081 163.513 139.968C164.517 139.58 165.242 138.583 165.242 137.434V113.533C165.242 112.531 164.688 111.638 163.856 111.176C163.562 111.004 163.229 110.891 162.876 110.847C162.759 110.827 162.651 110.823 162.534 110.823H141.862C141.377 110.823 140.98 110.425 140.98 109.939C140.98 109.452 141.377 109.06 141.862 109.06H162.534C162.744 109.06 162.935 109.069 163.121 109.099C163.381 109.133 163.631 109.187 163.871 109.261C165.692 109.831 167 111.549 167 113.533Z" fill="#50AA57"/>
<path d="M161.691 137.585C161.255 137.585 160.873 137.256 160.82 136.809L160.354 133.003C160.105 131 158.4 129.487 156.387 129.487H148.468C146.456 129.487 144.746 131 144.501 133.003L144.036 136.809C143.977 137.29 143.537 137.639 143.057 137.575C142.572 137.516 142.234 137.074 142.293 136.593L142.758 132.787C143.116 129.9 145.574 127.72 148.473 127.72H156.392C159.292 127.72 161.75 129.895 162.108 132.787L162.573 136.593C162.632 137.074 162.289 137.516 161.809 137.575C161.775 137.575 161.735 137.58 161.701 137.58L161.691 137.585Z" fill="#50AA57"/>
<path d="M152.425 127.332C148.894 127.332 146.02 124.449 146.02 120.909C146.02 117.368 148.894 114.485 152.425 114.485C155.956 114.485 158.831 117.368 158.831 120.909C158.831 124.449 155.956 127.332 152.425 127.332ZM152.425 116.253C149.864 116.253 147.783 118.34 147.783 120.909C147.783 123.477 149.864 125.564 152.425 125.564C154.987 125.564 157.068 123.477 157.068 120.909C157.068 118.34 154.987 116.253 152.425 116.253Z" fill="#50AA57"/>
<path d="M131.822 86.582H97.3053C91.2864 86.582 86.3842 91.1147 86.3842 96.6884V115.133C86.3842 120.707 91.2864 125.24 97.3053 125.24H133.433L141.45 129.517C141.578 129.586 141.72 129.62 141.862 129.62C142.018 129.62 142.175 129.576 142.317 129.492C142.582 129.335 142.743 129.046 142.743 128.736V96.6884C142.743 91.1147 137.841 86.582 131.822 86.582ZM140.985 127.268L134.065 123.58C133.938 123.511 133.796 123.477 133.654 123.477H97.3053C92.2561 123.477 88.1472 119.735 88.1472 115.133V96.6884C88.1472 92.087 92.2561 88.345 97.3053 88.345H131.822C136.871 88.345 140.985 92.087 140.985 96.6884V127.268Z" fill="#50AA57"/>
<path d="M134.442 116.828C133.957 116.828 133.561 116.435 133.561 115.944V94.7591H128.443V115.944C128.443 116.43 128.051 116.828 127.561 116.828C127.071 116.828 126.68 116.435 126.68 115.944V93.88C126.68 93.3939 127.071 92.9961 127.561 92.9961H134.437C134.922 92.9961 135.319 93.389 135.319 93.88V115.944C135.319 116.43 134.927 116.828 134.437 116.828H134.442Z" fill="#50AA57"/>
<path d="M120.685 116.828C120.201 116.828 119.804 116.435 119.804 115.944V103.815C119.804 103.328 120.196 102.931 120.685 102.931H127.561C128.046 102.931 128.443 103.324 128.443 103.815V115.772C128.443 116.259 128.051 116.656 127.561 116.656C127.072 116.656 126.68 116.263 126.68 115.772V104.694H121.562V115.944C121.562 116.43 121.17 116.828 120.681 116.828H120.685Z" fill="#50AA57"/>
<path d="M134.442 116.828H120.685C120.201 116.828 119.804 116.435 119.804 115.944C119.804 115.453 120.196 115.061 120.685 115.061H134.442C134.927 115.061 135.324 115.453 135.324 115.944C135.324 116.435 134.932 116.828 134.442 116.828Z" fill="#50AA57"/>
<path d="M111.483 116.828C110.998 116.828 110.602 116.435 110.602 115.944V102.518H105.484V115.944C105.484 116.43 105.092 116.828 104.602 116.828C104.113 116.828 103.721 116.435 103.721 115.944V101.634C103.721 101.148 104.113 100.75 104.602 100.75H111.478C111.963 100.75 112.36 101.143 112.36 101.634V115.944C112.36 116.43 111.968 116.828 111.478 116.828H111.483Z" fill="#50AA57"/>
<path d="M111.483 116.828H97.7265C97.2417 116.828 96.845 116.435 96.845 115.944C96.845 115.453 97.2368 115.061 97.7265 115.061H111.483C111.968 115.061 112.365 115.453 112.365 115.944C112.365 116.435 111.973 116.828 111.483 116.828Z" fill="#50AA57"/>
<path d="M97.7265 116.827C97.6236 116.827 97.5159 116.808 97.4179 116.769C97.0751 116.641 96.8499 116.312 96.8499 115.944V108.077C96.8499 107.591 97.2416 107.193 97.7314 107.193H104.607C105.092 107.193 105.489 107.586 105.489 108.077V115.624C105.489 116.111 105.097 116.508 104.607 116.508H98.4072L98.3925 116.528C98.2211 116.724 97.9811 116.827 97.7314 116.827H97.7265ZM98.608 114.745H103.726V108.961H98.608V114.745Z" fill="#50AA57"/>
<path d="M102.55 66.4827C102.56 66.7184 102.467 66.9492 102.301 67.1211C102.139 67.293 101.909 67.3863 101.674 67.3863H82.8188V70.7453H87.8876C89.1511 70.7453 90.1795 71.7716 90.1795 73.0386V76.4811C90.1795 77.748 89.1511 78.7793 87.8876 78.7793H58.7089C57.4454 78.7793 56.4169 77.748 56.4169 76.4811V73.0386C56.4169 71.7716 57.4454 70.7453 58.7089 70.7453H63.7777V67.3863H46.1324C42.3566 67.3863 39.2859 64.3072 39.2859 60.521V27.3487C39.2859 23.6165 42.3076 20.5374 46.0198 20.4834H46.0296C46.5144 20.4834 46.9062 20.8714 46.9111 21.3526C46.916 21.8437 46.5291 22.2415 46.0443 22.2513C43.2871 22.2906 41.0441 24.5741 41.0441 27.3487V60.521C41.0441 63.3349 43.3262 65.6233 46.1324 65.6233H64.6544C65.1441 65.6233 65.5359 66.0162 65.5359 66.5073V71.6243C65.5359 72.1105 65.1441 72.5082 64.6544 72.5082H58.7089C58.4151 72.5082 58.1751 72.7489 58.1751 73.0386V76.4811C58.1751 76.7757 58.4151 77.0114 58.7089 77.0114H87.8876C88.1814 77.0114 88.4214 76.7757 88.4214 76.4811V73.0386C88.4214 72.7489 88.1814 72.5082 87.8876 72.5082H81.9421C81.4524 72.5082 81.0606 72.1105 81.0606 71.6243V66.5073C81.0606 66.0162 81.4524 65.6233 81.9421 65.6233H100.768L100.229 44.5904L99.656 22.2464H95.405C94.9153 22.2464 94.5235 21.8535 94.5235 21.3624C94.5235 20.8714 94.9153 20.4834 95.405 20.4834H100.513C100.694 20.4834 100.861 20.5374 101.003 20.6356V42.8275H101.943L101.987 44.5904L102.55 66.4827Z" fill="#50AA57"/>
<path d="M90.8064 60.5062H50.6233C47.6066 60.5062 45.1481 58.041 45.1481 55.016V5.57912C45.1481 2.55408 47.6066 0.0888672 50.6233 0.0888672H90.8064C93.8232 0.0888672 96.2817 2.55408 96.2817 5.57912V55.016C96.2817 58.041 93.8232 60.5062 90.8064 60.5062ZM50.6282 1.85184C48.5811 1.85184 46.9111 3.52151 46.9111 5.57912V55.016C46.9111 57.0687 48.5762 58.7433 50.6282 58.7433H90.8113C92.8584 58.7433 94.5284 57.0736 94.5284 55.016V5.57912C94.5284 3.52642 92.8633 1.85184 90.8113 1.85184H50.6282Z" fill="#50AA57"/>
<path d="M95.4051 12.1886H46.0346C45.5498 12.1886 45.1531 11.7958 45.1531 11.3048C45.1531 10.8137 45.5449 10.4209 46.0346 10.4209H95.4051C95.89 10.4209 96.2867 10.8137 96.2867 11.3048C96.2867 11.7958 95.8949 12.1886 95.4051 12.1886Z" fill="#50AA57"/>
<path d="M57.2937 46.7998C54.0908 46.7998 51.4805 44.1873 51.4805 40.9707C51.4805 37.7541 54.0859 35.1416 57.2937 35.1416C60.5015 35.1416 63.1069 37.7541 63.1069 40.9707C63.1069 44.1873 60.5015 46.7998 57.2937 46.7998ZM57.2937 36.9095C55.0605 36.9095 53.2386 38.7314 53.2386 40.9707C53.2386 43.21 55.0556 45.0368 57.2937 45.0368C59.5318 45.0368 61.3487 43.2149 61.3487 40.9707C61.3487 38.7265 59.5318 36.9095 57.2937 36.9095Z" fill="#50AA57"/>
<path d="M57.2937 29.8715C56.9949 29.8715 56.7109 29.7193 56.5493 29.459L54.7813 26.665C54.5218 26.2526 54.6442 25.7075 55.0556 25.4473C55.467 25.187 56.0106 25.3098 56.2701 25.7222L57.2545 27.2837L61.4614 19.9133C61.7013 19.491 62.24 19.3437 62.6612 19.5843C63.0824 19.8249 63.2293 20.365 62.9893 20.7873L58.0577 29.4295C57.9058 29.6996 57.6218 29.8666 57.3133 29.8715C57.3084 29.8715 57.2986 29.8715 57.2937 29.8715Z" fill="#50AA57"/>
<path d="M89.0385 27.6525H66.9807C66.4958 27.6525 66.0991 27.2597 66.0991 26.7686C66.0991 26.2776 66.4909 25.8848 66.9807 25.8848H89.0385C89.5233 25.8848 89.92 26.2776 89.92 26.7686C89.92 27.2597 89.5282 27.6525 89.0385 27.6525Z" fill="#50AA57"/>
<path d="M89.0385 41.796H66.9807C66.4958 41.796 66.0991 41.4032 66.0991 40.9122C66.0991 40.4211 66.4909 40.0283 66.9807 40.0283H89.0385C89.5233 40.0283 89.92 40.4211 89.92 40.9122C89.92 41.4032 89.5282 41.796 89.0385 41.796Z" fill="#50AA57"/>
<path d="M106.664 72.6405C103.427 72.6405 100.792 69.9985 100.792 66.7525V43.7111C100.792 43.2249 101.184 42.8271 101.674 42.8271C102.164 42.8271 102.555 43.22 102.555 43.7111V66.7525C102.555 69.0262 104.402 70.8775 106.669 70.8775C108.937 70.8775 110.783 69.0262 110.783 66.7525V43.7111C110.783 43.2249 111.175 42.8271 111.664 42.8271C112.154 42.8271 112.546 43.22 112.546 43.7111V66.7525C112.546 69.9985 109.911 72.6405 106.674 72.6405H106.664Z" fill="#50AA57"/>
<path d="M120.588 51.8143C120.588 52.3005 120.196 52.6934 119.711 52.6934C118.462 52.6934 115.906 51.9273 115.166 49.025C114.814 47.6549 115.215 44.7134 115.95 39.6258C116.821 33.5904 117.909 26.0818 117.076 21.8144C116.552 19.1282 115.347 17.6058 114.084 16.7464C113.486 16.3388 112.879 16.0786 112.321 15.9165V15.229C112.321 14.8705 112.301 14.4973 112.252 14.1143C112.81 14.2419 113.432 14.4384 114.069 14.7428C115.999 15.6612 118.041 17.5665 118.805 21.4755C119.696 26.0376 118.585 33.7083 117.693 39.8762C117.125 43.795 116.591 47.4929 116.87 48.5831C117.463 50.9059 119.618 50.9304 119.711 50.9304C120.196 50.9304 120.588 51.3233 120.588 51.8143Z" fill="#50AA57"/>
<path d="M114.069 14.7422C114.005 13.2198 113.628 11.5502 112.957 10.0475C112.213 8.3778 111.106 6.91439 109.647 6.08447C108.422 5.38713 107.061 5.17597 105.606 5.4608C101.218 6.32509 99.2446 11.6926 99.2446 15.2283V43.706C99.2446 44.1971 99.6364 44.5899 100.126 44.5899H113.202C113.687 44.5899 114.084 44.1971 114.084 43.706V15.2283C114.084 15.0663 114.079 14.9042 114.069 14.7422ZM112.321 42.827H101.003V15.2283C101.003 12.2671 102.722 7.82779 105.944 7.1943C106.248 7.13537 106.542 7.10591 106.831 7.10591C107.531 7.10591 108.182 7.27779 108.78 7.61663C110.778 8.75593 111.973 11.6091 112.252 14.1136C112.301 14.4966 112.321 14.8699 112.321 15.2283V42.827Z" fill="#50AA57"/>
<path d="M106.664 77.7426C106.179 77.7426 105.783 77.3498 105.783 76.8588V71.7569C105.783 71.2708 106.175 70.873 106.664 70.873C107.154 70.873 107.546 71.2659 107.546 71.7569V76.8588C107.546 77.3449 107.154 77.7426 106.664 77.7426Z" fill="#50AA57"/>
</g>
<defs>
<clipPath id="clip0_597_493">
<rect width="166.869" height="157.911" fill="white" transform="translate(0.131348 0.0888672)"/>
</clipPath>
</defs>
</svg>
