<svg width="168" height="164" viewBox="0 0 168 164" fill="none" xmlns="http://www.w3.org/2000/svg">
<path d="M1.59799 81.155C1.39678 81.155 1.20697 81.0751 1.06271 80.9345C0.922251 80.7939 0.842529 80.6 0.842529 80.3986C0.842529 62.7055 15.219 48.3115 32.8906 48.3115C33.3082 48.3115 33.6461 48.6498 33.6461 49.0679V59.6458C33.6461 60.0638 33.3082 60.4021 32.8906 60.4021C21.8777 60.4021 12.9185 69.3722 12.9185 80.3986C12.9185 80.8167 12.5806 81.155 12.163 81.155H1.59799ZM32.1352 49.8319C15.8947 50.231 2.75965 63.382 2.36104 79.6422H11.4189C11.81 68.3802 20.8868 59.2923 32.1352 58.9008V49.8319Z" fill="#50AA57"/>
<path d="M32.8906 119.837C15.219 119.837 0.842529 105.443 0.842529 87.7495C0.842529 87.3314 1.1804 86.9932 1.59799 86.9932H12.163C12.3642 86.9932 12.554 87.073 12.6983 87.2136C12.8387 87.3542 12.9185 87.5481 12.9185 87.7495C12.9185 98.7759 21.8777 107.746 32.8906 107.746C33.3082 107.746 33.6461 108.084 33.6461 108.502V119.08C33.6461 119.498 33.3082 119.837 32.8906 119.837ZM2.36104 88.5059C2.75965 104.766 15.8947 117.917 32.1352 118.316V109.247C20.8906 108.856 11.81 99.7679 11.4189 88.5059H2.36104Z" fill="#50AA57"/>
<path d="M40.2328 119.837C39.8152 119.837 39.4773 119.498 39.4773 119.08V108.502C39.4773 108.084 39.8152 107.746 40.2328 107.746C51.2457 107.746 60.2049 98.7759 60.2049 87.7495C60.2049 87.5481 60.2846 87.358 60.4251 87.2136C60.5656 87.073 60.7592 86.9932 60.9604 86.9932H71.5254C71.943 86.9932 72.2809 87.3314 72.2809 87.7495C72.2809 105.443 57.9044 119.837 40.2328 119.837ZM40.9882 109.244V118.312C57.2287 117.913 70.3675 104.762 70.7623 88.5021H61.7045C61.3134 99.7603 52.2366 108.852 40.9882 109.244Z" fill="#50AA57"/>
<path d="M78.4982 80.1543H65.4543C65.0367 80.1543 64.6988 79.816 64.6988 79.3979C64.6988 65.6881 53.5568 54.5325 39.8636 54.5325C39.446 54.5325 39.1082 54.1943 39.1082 53.7762V40.7163C39.1082 40.2982 39.446 39.96 39.8636 39.96C61.5859 39.96 79.2537 57.6531 79.2537 79.3979C79.2537 79.816 78.9158 80.1543 78.4982 80.1543ZM66.1983 78.6416H77.7352C77.3366 58.3296 60.9063 41.8794 40.6191 41.4803V53.0312C54.5476 53.4265 65.8035 64.6961 66.1983 78.6416Z" fill="#50AA57"/>
<path d="M58.0296 61.9638C57.836 61.9638 57.6424 61.8916 57.4943 61.7434C57.1982 61.4469 57.1982 60.968 57.4943 60.6753L66.6471 51.5114C66.9432 51.2149 67.4215 51.2149 67.7139 51.5114C68.01 51.8079 68.01 52.2868 67.7139 52.5795L58.561 61.7434C58.413 61.8916 58.2194 61.9638 58.0258 61.9638H58.0296Z" fill="#50AA57"/>
<path d="M62.2051 67.0768C61.928 67.0768 61.6623 66.9248 61.5294 66.6587C61.3434 66.2862 61.4952 65.8301 61.8673 65.6439L73.0853 60.0376C73.4573 59.8513 73.9128 60.0034 74.0989 60.3758C74.2849 60.7483 74.133 61.2044 73.761 61.3907L62.543 66.997C62.4329 67.0502 62.319 67.0768 62.2051 67.0768Z" fill="#50AA57"/>
<path d="M64.7539 73.3479C64.3819 73.3479 64.0592 73.0742 64.006 72.6979C63.9491 72.2836 64.2338 71.8998 64.6476 71.8427L77.4296 70.0297C77.8434 69.9727 78.2268 70.2578 78.2838 70.6721C78.3407 71.0864 78.056 71.4703 77.6422 71.5273L64.8602 73.3403C64.826 73.3441 64.7881 73.3479 64.7539 73.3479Z" fill="#50AA57"/>
<path d="M52.9099 57.7707C52.8112 57.7707 52.7125 57.7516 52.6138 57.7098C52.2304 57.5464 52.0519 57.1017 52.2114 56.7178L57.2225 44.8933C57.3857 44.5094 57.8299 44.3307 58.2133 44.4942C58.5967 44.6576 58.7751 45.1023 58.6157 45.4862L53.6046 57.3107C53.4831 57.5996 53.2022 57.7707 52.9099 57.7707Z" fill="#50AA57"/>
<path d="M46.1222 55.2064C46.0956 55.2064 46.0653 55.2064 46.0387 55.2025C45.6249 55.1569 45.325 54.7807 45.3705 54.3664L46.8131 41.489C46.8587 41.0747 47.2307 40.7744 47.6483 40.82C48.0621 40.8656 48.362 41.2419 48.3164 41.6562L46.8739 54.5336C46.8321 54.9213 46.5018 55.2064 46.1222 55.2064Z" fill="#50AA57"/>
<path d="M53.6902 96.4803H49.1461C48.3451 96.4803 47.6921 95.8266 47.6921 95.0246V69.6081C47.6921 68.8061 48.3451 68.1523 49.1461 68.1523H53.6902C54.4913 68.1523 55.1442 68.8061 55.1442 69.6081V95.0246C55.1442 95.8266 54.4913 96.4803 53.6902 96.4803ZM49.2031 94.9676H53.6333V69.6651H49.2031V94.9676Z" fill="#50AA57"/>
<path d="M44.0374 96.479H39.8121C39.0111 96.479 38.3582 95.8252 38.3582 95.0232V78.4704C38.3582 77.6684 39.0111 77.0146 39.8121 77.0146H44.0374C44.8384 77.0146 45.4913 77.6684 45.4913 78.4704V95.0232C45.4913 95.8252 44.8384 96.479 44.0374 96.479ZM39.8691 94.9662H43.9804V78.5312H39.8691V94.9662Z" fill="#50AA57"/>
<path d="M24.6528 96.4803H20.4352C19.6342 96.4803 18.9812 95.8266 18.9812 95.0246V81.7975C18.9812 80.9955 19.6342 80.3418 20.4352 80.3418H24.6528C25.4538 80.3418 26.1068 80.9955 26.1068 81.7975V95.0246C26.1068 95.8266 25.4538 96.4803 24.6528 96.4803ZM20.4921 94.9676H24.5959V81.8545H20.4921V94.9676Z" fill="#50AA57"/>
<path d="M34.3833 96.4809H29.6949C28.8939 96.4809 28.241 95.8271 28.241 95.0252V74.7018C28.241 73.8998 28.8939 73.2461 29.6949 73.2461H34.3833C35.1843 73.2461 35.8373 73.8998 35.8373 74.7018V95.0252C35.8373 95.8271 35.1843 96.4809 34.3833 96.4809ZM29.7519 94.9681H34.3264V74.7626H29.7519V94.9681Z" fill="#50AA57"/>
<path d="M143.551 138.048C143.187 136.52 142.671 135.06 142.014 133.707C141.361 132.354 140.533 131.043 139.558 129.811C139.368 129.568 139.045 129.465 138.749 129.557L134.296 130.91C133.525 130.188 132.694 129.545 131.806 128.99C131.373 128.717 130.929 128.466 130.469 128.238C130.325 128.162 130.181 128.089 130.033 128.021L129.634 123.376C129.608 123.065 129.395 122.802 129.099 122.715C127.596 122.266 126.073 121.981 124.574 121.875C123.078 121.769 121.529 121.829 119.977 122.057C119.673 122.103 119.422 122.331 119.354 122.635L118.295 127.173C116.632 127.679 115.076 128.432 113.663 129.42L109.449 127.447C109.169 127.314 108.834 127.367 108.61 127.58C107.468 128.66 106.462 129.838 105.623 131.085C104.78 132.327 104.059 133.7 103.482 135.159C103.368 135.448 103.44 135.779 103.668 135.991L106.405 138.557L107.062 139.173C106.989 139.485 106.921 139.796 106.872 140.108C106.769 140.655 106.701 141.199 106.663 141.731C106.602 142.563 106.614 143.434 106.69 144.319L102.874 146.984C102.62 147.162 102.502 147.478 102.574 147.778C102.935 149.306 103.451 150.766 104.108 152.119C104.765 153.476 105.592 154.783 106.564 156.015C106.758 156.258 107.081 156.36 107.377 156.269L111.83 154.916C113.09 156.098 114.517 157.067 116.093 157.805L116.488 162.449C116.514 162.761 116.731 163.023 117.027 163.111C118.53 163.559 120.052 163.844 121.548 163.951C122.026 163.985 122.512 164 122.998 164C124.035 164 125.09 163.924 126.145 163.768C126.453 163.723 126.7 163.495 126.772 163.191L127.831 158.652C129.494 158.147 131.046 157.394 132.462 156.406L136.676 158.379C136.957 158.512 137.287 158.459 137.515 158.246C138.654 157.166 139.66 155.988 140.503 154.741C141.346 153.498 142.067 152.126 142.644 150.667C142.758 150.378 142.686 150.047 142.458 149.834L139.064 146.653C139.265 145.786 139.398 144.927 139.459 144.095C139.52 143.263 139.512 142.392 139.432 141.507L143.248 138.842C143.502 138.664 143.623 138.348 143.551 138.048ZM138.206 140.522C137.978 140.678 137.857 140.948 137.887 141.225C137.994 142.191 138.016 143.092 137.952 143.985C137.887 144.878 137.739 145.771 137.492 146.71C137.424 146.976 137.504 147.261 137.709 147.451L141.046 150.583C140.541 151.765 139.941 152.875 139.25 153.894C138.563 154.912 137.754 155.885 136.843 156.79L132.702 154.848C132.451 154.73 132.155 154.756 131.931 154.924C130.447 156.022 128.788 156.828 126.996 157.318C126.726 157.39 126.521 157.607 126.461 157.877L125.417 162.339C124.145 162.495 122.884 162.529 121.658 162.442C120.432 162.354 119.187 162.138 117.949 161.803L117.558 157.235C117.536 156.957 117.361 156.718 117.107 156.607C115.406 155.863 113.876 154.829 112.566 153.529C112.369 153.331 112.08 153.263 111.815 153.343L107.437 154.669C106.667 153.647 106.006 152.567 105.467 151.461C104.932 150.351 104.495 149.165 104.169 147.926L107.92 145.304C108.147 145.148 108.269 144.878 108.238 144.6C108.128 143.635 108.106 142.734 108.17 141.841C108.212 141.286 108.284 140.735 108.39 140.169C108.459 139.823 108.538 139.473 108.629 139.116C108.671 138.96 108.66 138.8 108.607 138.656C108.565 138.553 108.5 138.454 108.417 138.375L105.08 135.243C105.581 134.061 106.185 132.951 106.872 131.932C107.563 130.914 108.371 129.94 109.279 129.036L113.424 130.978C113.675 131.096 113.971 131.069 114.195 130.902C115.675 129.804 117.334 128.998 119.13 128.508C119.396 128.435 119.601 128.219 119.665 127.949L120.705 123.487C121.977 123.331 123.241 123.297 124.467 123.384C125.69 123.471 126.935 123.688 128.173 124.023L128.564 128.591C128.586 128.869 128.761 129.108 129.015 129.218C129.163 129.283 129.312 129.351 129.46 129.424C129.93 129.644 130.386 129.891 130.826 130.161C131.817 130.761 132.728 131.476 133.556 132.297C133.753 132.495 134.042 132.567 134.307 132.483L138.688 131.157C139.459 132.183 140.12 133.259 140.655 134.365C141.194 135.475 141.627 136.66 141.957 137.9L138.206 140.522Z" fill="#50AA57"/>
<path d="M129.793 137.079C128.775 135.9 127.492 135.026 126.065 134.521C125.431 134.292 124.766 134.137 124.079 134.057C123.954 134.045 123.825 134.03 123.7 134.023C121.331 133.852 119.03 134.616 117.235 136.174C116.684 136.653 116.198 137.185 115.785 137.766C115.393 138.321 115.067 138.918 114.813 139.549C114.463 140.408 114.251 141.324 114.182 142.274C114.012 144.646 114.775 146.946 116.331 148.747C117.888 150.549 120.052 151.632 122.42 151.803C122.641 151.818 122.857 151.826 123.073 151.826C125.211 151.826 127.257 151.066 128.889 149.652C130.685 148.093 131.771 145.927 131.941 143.551C132.112 141.18 131.349 138.88 129.793 137.079ZM130.434 143.445C130.29 145.414 129.39 147.215 127.898 148.508C126.406 149.8 124.501 150.435 122.53 150.294C120.56 150.154 118.765 149.253 117.474 147.755C116.179 146.261 115.545 144.353 115.69 142.381C115.773 141.191 116.134 140.062 116.737 139.074C117.132 138.42 117.633 137.831 118.222 137.318C118.487 137.09 118.765 136.881 119.057 136.695C119.695 136.277 120.389 135.965 121.118 135.771C121.741 135.6 122.39 135.513 123.051 135.513C123.229 135.513 123.411 135.516 123.593 135.532C123.874 135.551 124.151 135.585 124.425 135.638C126.065 135.942 127.542 136.786 128.65 138.071C129.941 139.564 130.575 141.472 130.434 143.445Z" fill="#50AA57"/>
<path d="M160.217 110.022C160.167 109.718 159.936 109.47 159.632 109.406L156.288 108.68C156.086 108.068 155.847 107.483 155.57 106.939C155.297 106.392 154.97 105.852 154.595 105.328L155.995 102.199C156.121 101.918 156.064 101.584 155.847 101.363C155.005 100.5 154.09 99.744 153.125 99.1131C152.161 98.4821 151.102 97.9462 149.978 97.5205C149.686 97.4103 149.359 97.4901 149.151 97.7182L146.85 100.257C145.62 100.002 144.364 99.9341 143.107 100.052L141.099 97.2697C140.917 97.0188 140.601 96.901 140.302 96.9808C139.136 97.2773 138.024 97.6916 136.995 98.2123C136.543 98.4403 136.103 98.6912 135.666 98.9686C135.234 99.2423 134.812 99.5388 134.402 99.8581C134.281 99.9531 134.159 100.048 134.042 100.147C133.802 100.345 133.707 100.668 133.802 100.964L134.85 104.229C134.007 105.172 133.316 106.228 132.793 107.372L129.387 107.718C129.08 107.752 128.822 107.969 128.738 108.269C128.412 109.429 128.214 110.599 128.15 111.751C128.089 112.903 128.154 114.089 128.347 115.278C128.396 115.582 128.632 115.829 128.932 115.894L132.276 116.62C132.477 117.236 132.72 117.817 132.994 118.365C133.267 118.908 133.597 119.448 133.973 119.976L132.572 123.1C132.443 123.382 132.504 123.716 132.72 123.937C132.85 124.07 132.979 124.199 133.111 124.324C133.483 124.685 133.871 125.024 134.269 125.339C134.649 125.643 135.04 125.925 135.439 126.187C136.403 126.818 137.462 127.354 138.589 127.779C138.878 127.89 139.204 127.81 139.413 127.582L141.714 125.043C142.944 125.297 144.2 125.37 145.461 125.248L147.465 128.03C147.609 128.232 147.841 128.346 148.076 128.346C148.141 128.346 148.202 128.334 148.266 128.319C149.432 128.023 150.544 127.608 151.573 127.088C152.598 126.567 153.592 125.917 154.522 125.153C154.762 124.955 154.86 124.632 154.765 124.336L153.718 121.071C154.56 120.128 155.247 119.072 155.771 117.927L159.177 117.582C159.488 117.547 159.746 117.331 159.83 117.034C160.152 115.875 160.35 114.701 160.414 113.549C160.479 112.397 160.414 111.211 160.217 110.022ZM158.907 113.465C158.858 114.343 158.721 115.24 158.505 116.13L155.179 116.468C154.902 116.498 154.663 116.673 154.557 116.932C154.029 118.201 153.277 119.357 152.317 120.36C152.127 120.558 152.059 120.85 152.142 121.113L153.163 124.302C152.438 124.856 151.675 125.339 150.889 125.738C150.104 126.134 149.265 126.464 148.384 126.719L146.425 124.005C146.284 123.807 146.057 123.693 145.814 123.693C145.783 123.693 145.749 123.693 145.719 123.697C144.341 123.876 142.967 123.8 141.63 123.473C141.365 123.405 141.08 123.492 140.89 123.697L138.646 126.175C137.8 125.826 137.003 125.404 136.266 124.921C135.833 124.636 135.408 124.324 134.998 123.982C134.713 123.75 134.433 123.5 134.163 123.241L135.53 120.189C135.644 119.938 135.609 119.642 135.442 119.421C135.393 119.36 135.347 119.296 135.306 119.235C134.926 118.722 134.607 118.213 134.341 117.68C134.042 117.084 133.795 116.457 133.594 115.761C133.518 115.495 133.297 115.293 133.028 115.233L129.763 114.526C129.645 113.617 129.611 112.713 129.661 111.835C129.71 110.957 129.843 110.063 130.063 109.17L133.385 108.832C133.662 108.802 133.901 108.627 134.007 108.368C134.497 107.19 135.184 106.111 136.05 105.16C136.11 105.088 136.179 105.016 136.247 104.944C136.441 104.742 136.505 104.453 136.422 104.187L135.401 100.998C135.678 100.789 135.959 100.588 136.247 100.398C136.714 100.09 137.189 99.8087 137.675 99.5616C138.46 99.1663 139.303 98.8356 140.18 98.581L142.139 101.295C142.302 101.519 142.576 101.637 142.849 101.603C144.223 101.424 145.597 101.5 146.934 101.827C147.203 101.895 147.488 101.808 147.674 101.603L149.918 99.1245C150.764 99.4742 151.565 99.8961 152.298 100.379C153.034 100.861 153.74 101.424 154.401 102.059L153.034 105.111C152.92 105.362 152.955 105.658 153.125 105.879C153.562 106.453 153.923 107.023 154.222 107.619C154.522 108.216 154.769 108.843 154.97 109.539C155.05 109.805 155.266 110.006 155.536 110.067L158.801 110.774C158.918 111.683 158.956 112.587 158.907 113.465Z" fill="#50AA57"/>
<path d="M150.583 108.833C148.715 105.131 144.186 103.641 140.485 105.511C139.464 106.028 138.613 106.747 137.953 107.598C137.319 108.415 136.859 109.354 136.605 110.346C136.339 111.372 136.286 112.456 136.472 113.524C136.476 113.527 136.476 113.531 136.472 113.531C136.597 114.242 136.829 114.945 137.171 115.622C137.3 115.873 137.436 116.116 137.588 116.348C139.004 118.518 141.407 119.753 143.89 119.753C145.029 119.753 146.183 119.491 147.269 118.944C149.061 118.039 150.389 116.488 151.016 114.576C151.642 112.668 151.49 110.627 150.583 108.833ZM149.581 114.105C149.08 115.629 148.017 116.868 146.585 117.594C143.628 119.088 140.01 117.898 138.518 114.941C138.272 114.455 138.101 113.946 137.998 113.436C137.793 112.463 137.846 111.471 138.116 110.544C138.568 109.004 139.627 107.644 141.168 106.864C142.034 106.424 142.956 106.218 143.867 106.218C146.062 106.218 148.18 107.423 149.235 109.518C149.96 110.95 150.082 112.577 149.581 114.105Z" fill="#50AA57"/>
<path d="M89.8601 140.465L88.7364 141.499L77.6589 151.655C75.9544 153.221 73.7981 153.992 71.6532 153.992C69.2426 153.992 66.8395 153.019 65.0894 151.104C61.7753 147.481 62.0221 141.837 65.6399 138.519L76.7174 128.363L77.8411 127.333C77.8829 127.401 77.9284 127.466 77.9854 127.527L78.8433 128.462L77.7272 129.484L66.6611 139.636C63.6583 142.388 63.4533 147.075 66.2018 150.081C68.9541 153.088 73.6349 153.293 76.6377 150.541L87.7038 140.389L88.8199 139.367L89.6703 140.298C89.7272 140.362 89.7918 140.419 89.8601 140.465Z" fill="#50AA57"/>
<path d="M97.037 137.221L92.4928 141.486C91.9576 141.98 91.2818 142.219 90.6061 142.223C89.9342 142.223 89.2622 141.98 88.7383 141.497C88.6776 141.44 88.6168 141.383 88.5599 141.319L87.7057 140.387L77.7291 129.483L76.875 128.548C76.818 128.487 76.7687 128.426 76.7193 128.361C75.85 127.229 75.9753 125.594 77.0458 124.614L81.4799 120.391C81.7836 120.102 82.2619 120.113 82.5504 120.418C82.8389 120.722 82.8237 121.201 82.5238 121.486L78.0784 125.72C77.6153 126.145 77.5317 126.822 77.843 127.328C77.8848 127.4 77.9304 127.464 77.9873 127.525L78.8453 128.46L88.8218 139.365L89.6722 140.296C89.7292 140.361 89.7937 140.418 89.862 140.463C90.3404 140.817 91.0161 140.794 91.4678 140.376L96.0044 136.119C96.3081 135.834 96.7864 135.849 97.0711 136.153C97.3597 136.457 97.3407 136.936 97.037 137.221Z" fill="#50AA57"/>
<path d="M135.443 119.424C135.394 119.363 135.348 119.298 135.306 119.237C134.748 121.009 134.012 122.711 133.112 124.327C132.345 125.695 131.465 127.003 130.47 128.238C130.147 128.641 129.813 129.036 129.46 129.424C129.931 129.644 130.386 129.891 130.827 130.161C131.165 129.781 131.491 129.389 131.806 128.99C132.725 127.831 133.549 126.611 134.27 125.342C134.528 124.897 134.771 124.445 134.999 123.985C134.714 123.753 134.433 123.502 134.164 123.243L135.53 120.191C135.644 119.941 135.61 119.644 135.443 119.424ZM138.116 110.545C138.116 109.556 138.059 108.572 137.952 107.599C137.318 108.416 136.859 109.355 136.605 110.347C136.616 110.894 136.605 111.442 136.582 111.993C136.559 112.506 136.525 113.019 136.472 113.525C136.476 113.528 136.476 113.532 136.472 113.532C136.597 114.243 136.829 114.946 137.17 115.623C137.299 115.874 137.436 116.117 137.588 116.349C137.774 115.391 137.907 114.418 137.998 113.437C137.793 112.464 137.846 111.472 138.116 110.545ZM136.422 104.19L135.401 101.001C135.678 100.792 135.959 100.59 136.248 100.4C136.069 99.9174 135.872 99.4423 135.667 98.971C134.388 96.0519 132.622 93.3305 130.409 90.9094C125.11 85.1206 117.878 81.7416 110.038 81.3957C109.606 81.3767 109.173 81.3691 108.74 81.3691C93.1298 81.3691 80.1048 93.7182 79.4139 109.48C78.7154 125.478 90.9811 139.093 106.872 140.108C107.07 140.123 107.267 140.135 107.465 140.142C107.772 140.157 108.083 140.165 108.391 140.169C108.459 139.823 108.539 139.473 108.63 139.116C108.672 138.96 108.66 138.8 108.607 138.656C108.25 138.656 107.894 138.645 107.533 138.629C107.153 138.614 106.777 138.588 106.405 138.557C91.6075 137.311 80.2681 124.528 80.9248 109.549C81.5968 94.1857 94.6218 82.2319 109.974 82.9085C117.407 83.2354 124.267 86.4395 129.293 91.9318C131.465 94.3073 133.184 96.9832 134.403 99.8604C135.132 101.567 135.682 103.342 136.05 105.163C136.111 105.09 136.18 105.018 136.248 104.946C136.441 104.745 136.506 104.456 136.422 104.19ZM115.786 137.767C115.395 138.322 115.068 138.918 114.814 139.549C115.459 139.416 116.105 139.257 116.739 139.074C117.134 138.42 117.635 137.831 118.223 137.318C118.489 137.09 118.766 136.881 119.058 136.695C117.992 137.12 116.898 137.478 115.786 137.767ZM124.081 134.057C123.128 134.696 122.137 135.266 121.12 135.771C121.742 135.6 122.391 135.513 123.052 135.513C123.23 135.513 123.413 135.517 123.595 135.532C123.876 135.551 124.153 135.585 124.426 135.638C124.984 135.288 125.531 134.916 126.066 134.521C125.432 134.293 124.768 134.137 124.081 134.057Z" fill="#50AA57"/>
<path d="M108.562 124.549C99.9935 124.549 92.439 119.076 89.7664 110.931C89.717 110.779 89.717 110.611 89.7664 110.459C92.4428 102.314 99.9935 96.8408 108.562 96.8408C117.13 96.8408 124.684 102.314 127.357 110.459C127.406 110.611 127.406 110.779 127.357 110.931C124.681 119.076 117.13 124.549 108.562 124.549ZM91.2811 110.691C93.8208 118.084 100.734 123.037 108.562 123.037C116.39 123.037 123.306 118.088 125.842 110.691C123.303 103.299 116.39 98.346 108.562 98.346C100.734 98.346 93.817 103.295 91.2811 110.691Z" fill="#50AA57"/>
<path d="M108.56 119.787C103.553 119.787 99.4792 115.708 99.4792 110.695C99.4792 109.042 99.9272 107.423 100.778 106.009C100.994 105.651 101.457 105.534 101.814 105.75C102.171 105.967 102.288 106.431 102.072 106.788C101.366 107.962 100.994 109.312 100.994 110.691C100.994 114.872 104.392 118.27 108.564 118.27C112.736 118.27 116.133 114.868 116.133 110.691C116.133 106.514 112.736 103.112 108.564 103.112C108.017 103.112 107.47 103.169 106.939 103.287C106.533 103.375 106.13 103.116 106.039 102.709C105.952 102.303 106.21 101.9 106.616 101.809C107.254 101.668 107.907 101.6 108.564 101.6C113.571 101.6 117.644 105.678 117.644 110.691C117.644 115.705 113.571 119.783 108.564 119.783L108.56 119.787Z" fill="#50AA57"/>
<path d="M104.993 110.259C103.884 110.259 102.779 109.837 101.937 108.994C101.12 108.176 100.669 107.089 100.669 105.934C100.669 104.778 101.117 103.691 101.937 102.874C103.622 101.187 106.367 101.187 108.052 102.874C109.738 104.562 109.738 107.31 108.052 108.997C107.21 109.841 106.101 110.263 104.993 110.263V110.259ZM103.003 103.942C102.472 104.474 102.18 105.181 102.18 105.934C102.18 106.686 102.472 107.393 103.003 107.925C104.101 109.024 105.885 109.024 106.982 107.925C108.079 106.827 108.079 105.041 106.982 103.942C105.885 102.844 104.101 102.844 103.003 103.942Z" fill="#50AA57"/>
<path d="M165.403 71.6263H120.615C119.184 71.6263 118.018 70.372 118.018 68.8327V43.2755C118.018 42.8574 118.356 42.5191 118.774 42.5191C119.191 42.5191 119.529 42.8574 119.529 43.2755V68.8327C119.529 69.5396 120.015 70.1136 120.615 70.1136H165.403C166.003 70.1136 166.489 69.5396 166.489 68.8327V4.78779C166.489 4.08083 166.003 3.50689 165.403 3.50689L120.619 3.58291C120.019 3.58291 119.533 4.15684 119.533 4.86381V33.0245C119.533 33.4426 119.195 33.7809 118.778 33.7809C118.36 33.7809 118.022 33.4426 118.022 33.0245V4.86381C118.022 3.32445 119.188 2.07016 120.619 2.07016L165.403 1.99414C166.835 1.99414 168 3.24843 168 4.78779V68.8365C168 70.3758 166.835 71.6301 165.403 71.6301V71.6263Z" fill="#50AA57"/>
<path d="M132.338 21.8377C132.114 21.8377 131.902 21.7389 131.758 21.564L128.656 17.8354C128.39 17.5161 128.432 17.0372 128.751 16.7711C129.07 16.5051 129.548 16.5469 129.814 16.8661L132.255 19.7966L136.044 13.8368C136.267 13.4834 136.734 13.3807 137.087 13.605C137.441 13.8292 137.543 14.2967 137.319 14.6502L132.976 21.4842C132.847 21.6895 132.627 21.8187 132.388 21.8339C132.373 21.8339 132.357 21.8339 132.338 21.8339V21.8377Z" fill="#50AA57"/>
<path d="M158.087 21.3106H143.877C143.46 21.3106 143.122 20.9723 143.122 20.5542C143.122 20.1361 143.46 19.7979 143.877 19.7979H158.087C158.504 19.7979 158.842 20.1361 158.842 20.5542C158.842 20.9723 158.504 21.3106 158.087 21.3106Z" fill="#50AA57"/>
<path d="M158.087 16.5713H143.877C143.46 16.5713 143.122 16.2331 143.122 15.815C143.122 15.3969 143.46 15.0586 143.877 15.0586H158.087C158.504 15.0586 158.842 15.3969 158.842 15.815C158.842 16.2331 158.504 16.5713 158.087 16.5713Z" fill="#50AA57"/>
<path d="M158.087 41.3243H143.877C143.46 41.3243 143.122 40.986 143.122 40.5679C143.122 40.1498 143.46 39.8115 143.877 39.8115H158.087C158.504 39.8115 158.842 40.1498 158.842 40.5679C158.842 40.986 158.504 41.3243 158.087 41.3243Z" fill="#50AA57"/>
<path d="M158.087 37.1104H143.877C143.46 37.1104 143.122 36.7721 143.122 36.354C143.122 35.9359 143.46 35.5977 143.877 35.5977H158.087C158.504 35.5977 158.842 35.9359 158.842 36.354C158.842 36.7721 158.504 37.1104 158.087 37.1104Z" fill="#50AA57"/>
<path d="M132.338 42.2117C132.114 42.2117 131.902 42.1129 131.758 41.9381L128.656 38.2094C128.39 37.8901 128.432 37.4112 128.751 37.1451C129.07 36.8791 129.548 36.9209 129.814 37.2402L132.255 40.1706L136.044 34.2109C136.267 33.8574 136.734 33.7548 137.087 33.979C137.441 34.2033 137.543 34.6708 137.319 35.0242L132.976 41.8582C132.847 42.0635 132.627 42.1927 132.388 42.2079C132.373 42.2079 132.357 42.2079 132.338 42.2079V42.2117Z" fill="#50AA57"/>
<path d="M158.087 60.4864H143.877C143.46 60.4864 143.122 60.1481 143.122 59.73C143.122 59.3119 143.46 58.9736 143.877 58.9736H158.087C158.504 58.9736 158.842 59.3119 158.842 59.73C158.842 60.1481 158.504 60.4864 158.087 60.4864Z" fill="#50AA57"/>
<path d="M158.087 56.2715H143.877C143.46 56.2715 143.122 55.9333 143.122 55.5152C143.122 55.0971 143.46 54.7588 143.877 54.7588H158.087C158.504 54.7588 158.842 55.0971 158.842 55.5152C158.842 55.9333 158.504 56.2715 158.087 56.2715Z" fill="#50AA57"/>
<path d="M132.385 62.4426C129.451 62.4426 127.059 60.0519 127.059 57.11C127.059 54.1681 129.447 51.7773 132.385 51.7773C135.324 51.7773 137.712 54.1681 137.712 57.11C137.712 60.0519 135.324 62.4426 132.385 62.4426ZM132.385 53.2939C130.282 53.2939 128.57 55.0081 128.57 57.1138C128.57 59.2195 130.282 60.9337 132.385 60.9337C134.489 60.9337 136.201 59.2195 136.201 57.1138C136.201 55.0081 134.489 53.2939 132.385 53.2939Z" fill="#50AA57"/>
<path d="M125.43 38.7335H106.092C105.675 38.7335 105.337 38.3952 105.337 37.9771C105.337 37.559 105.675 37.2207 106.092 37.2207H125.43C125.848 37.2207 126.186 37.559 126.186 37.9771C126.186 38.3952 125.848 38.7335 125.43 38.7335Z" fill="#50AA57"/>
<path d="M87.192 40.6951C87.192 40.6951 87.1655 40.6951 87.1503 40.6951C85.6697 40.6152 84.2234 40.3834 82.8567 40.0033C81.49 39.6232 80.131 39.0759 78.8213 38.3765C78.5479 38.2321 78.3923 37.9318 78.4264 37.6239L78.9238 33.2795C77.6178 32.3103 76.4828 31.1548 75.5451 29.8359L71.1984 30.2502C70.8909 30.2806 70.5947 30.1172 70.4543 29.8397C69.7823 28.517 69.2623 27.1449 68.9054 25.769C68.5524 24.3931 68.3436 22.9411 68.2942 21.4588C68.2828 21.1471 68.465 20.862 68.7498 20.7404L72.751 18.9996C72.8459 18.171 72.9978 17.3728 73.2066 16.6203C73.4154 15.8677 73.6963 15.1037 74.0418 14.3473L71.5134 10.7859C71.335 10.5312 71.3274 10.1968 71.4945 9.9345C72.3031 8.69162 73.2256 7.55515 74.2392 6.55932C75.2528 5.56349 76.403 4.65888 77.6634 3.8721C77.9253 3.70866 78.2632 3.72006 78.5138 3.9063L82.0215 6.50611C83.5059 5.86376 85.0699 5.46087 86.6909 5.30123L88.5055 1.3217C88.6346 1.04044 88.9231 0.865597 89.2344 0.8808C90.715 0.960619 92.1613 1.19247 93.528 1.57256C94.8947 1.95265 96.2537 2.49998 97.5634 3.19934C97.8368 3.34377 97.9924 3.64404 97.9583 3.95191L97.4609 8.29632C98.7669 9.26555 99.8981 10.421 100.84 11.7399L105.186 11.3256C105.494 11.2952 105.79 11.4587 105.93 11.7361C106.602 13.0588 107.122 14.4271 107.479 15.8069C107.832 17.1828 108.041 18.6347 108.09 20.1171C108.102 20.4287 107.92 20.7138 107.635 20.8354L103.634 22.5762C103.539 23.4048 103.387 24.203 103.178 24.9556C102.969 25.7082 102.688 26.4721 102.343 27.2285L104.871 30.79C105.05 31.0446 105.057 31.3791 104.89 31.6413C104.082 32.888 103.155 34.0207 102.146 35.0165C101.132 36.0124 99.9817 36.917 98.7213 37.7038C98.4594 37.8672 98.1215 37.8558 97.8709 37.6696L94.3632 35.0697C92.8788 35.7121 91.3148 36.115 89.6938 36.2746L87.8792 40.2542C87.7539 40.524 87.4881 40.6951 87.192 40.6951ZM79.9867 37.2743C81.0573 37.8102 82.1582 38.2359 83.2629 38.5438C84.3676 38.8516 85.5293 39.0531 86.7213 39.1481L88.5055 35.2408C88.6194 34.9899 88.8662 34.8189 89.1433 34.7999C90.8858 34.6821 92.5676 34.2488 94.1392 33.5114C94.3898 33.3936 94.6859 33.424 94.9098 33.5874L98.3569 36.1416C99.3553 35.4802 100.274 34.7429 101.09 33.9371C101.91 33.1313 102.666 32.2267 103.345 31.2423L100.862 27.7454C100.703 27.5212 100.676 27.2247 100.798 26.9739C101.2 26.1529 101.504 25.3585 101.728 24.5489C101.952 23.7393 102.1 22.8993 102.18 21.9909C102.202 21.7134 102.377 21.474 102.631 21.3638L106.561 19.6534C106.488 18.4599 106.306 17.293 106.022 16.1794C105.733 15.0657 105.331 13.9596 104.814 12.8764L100.547 13.2831C100.274 13.3097 100.004 13.1805 99.8488 12.9524C98.8845 11.5081 97.6659 10.269 96.2347 9.26555C96.007 9.10591 95.8855 8.83605 95.9159 8.55858L96.4018 4.29019C95.3312 3.75427 94.2303 3.32857 93.1256 3.0207C92.0209 2.71283 90.8592 2.51138 89.6672 2.41636L87.883 6.32367C87.7691 6.57452 87.5223 6.74556 87.2452 6.76457C85.5027 6.8824 83.821 7.3157 82.2493 8.05307C81.9987 8.17089 81.7026 8.14049 81.4787 7.97705L78.0316 5.42286C77.0332 6.08421 76.1145 6.82538 75.2983 7.62737C74.4783 8.43316 73.7229 9.33777 73.0433 10.3222L75.5261 13.819C75.6855 14.0433 75.7121 14.3397 75.5906 14.5906C75.1882 15.4116 74.8845 16.2022 74.6606 17.0155C74.4366 17.8251 74.2885 18.6613 74.2088 19.5735C74.186 19.851 74.0114 20.0905 73.757 20.2007L69.8279 21.9111C69.9 23.1084 70.0823 24.2714 70.367 25.3851C70.6517 26.4988 71.0579 27.6048 71.5704 28.6881L75.8374 28.2814C76.1107 28.2548 76.3803 28.384 76.5359 28.612C77.5002 30.0526 78.7188 31.2955 80.15 32.2989C80.3777 32.4585 80.4992 32.7284 80.4688 33.0059L79.9829 37.2743H79.9867Z" fill="#50AA57"/>
<path d="M88.1915 29.634C87.4094 29.634 86.616 29.5276 85.8264 29.3109C81.1342 28.0034 78.3743 23.1155 79.6802 18.4176C80.3142 16.1409 81.791 14.248 83.8485 13.085C85.9023 11.9219 88.2864 11.633 90.5603 12.264C92.8343 12.8987 94.7249 14.3773 95.8865 16.4373C97.0482 18.4936 97.3367 20.8806 96.7065 23.1573C95.6208 27.0684 92.0599 29.634 88.1915 29.634ZM88.1839 13.4498C86.9387 13.4498 85.7087 13.7729 84.5926 14.4001C82.8881 15.3617 81.6619 16.9352 81.138 18.8205C80.0561 22.7164 82.3414 26.7681 86.2326 27.8514C90.1238 28.9346 94.1706 26.6465 95.2525 22.7506C95.7764 20.8616 95.5373 18.8851 94.573 17.1785C93.6125 15.4719 92.0409 14.2442 90.1579 13.7197C89.505 13.5373 88.8444 13.4498 88.1839 13.4498Z" fill="#50AA57"/>
<path d="M99.5219 72.1207C99.2372 72.1207 98.9715 71.9573 98.8424 71.6988L97.3505 68.6619C96.1129 68.5669 94.9019 68.2894 93.7402 67.8371L91.079 69.9276C90.8361 70.1176 90.4982 70.1404 90.2325 69.9846C89.2075 69.3841 88.2622 68.6847 87.427 67.9055C86.5918 67.1301 85.825 66.2369 85.1493 65.2601C84.9708 65.0054 84.9708 64.6672 85.1417 64.4087L87.0246 61.596C86.4856 60.471 86.1173 59.2813 85.9313 58.0536L82.7956 56.7917C82.5071 56.6777 82.321 56.3964 82.321 56.0848C82.3286 54.8951 82.4615 53.7244 82.7159 52.6146C82.9702 51.5009 83.3574 50.391 83.8661 49.3154C83.999 49.0341 84.2875 48.8631 84.5988 48.8859L87.9699 49.1139C88.3305 48.5856 88.714 48.0953 89.124 47.6544C89.534 47.2135 89.9895 46.7916 90.4906 46.3925L90.0123 43.0439C89.9667 42.7361 90.1186 42.432 90.3881 42.28C91.4207 41.6908 92.4988 41.2233 93.5884 40.885C94.6779 40.5506 95.832 40.3301 97.0164 40.2313C97.3277 40.2047 97.62 40.3719 97.7567 40.6532L99.2486 43.6901C100.486 43.7851 101.697 44.0626 102.859 44.5149L105.52 42.4244C105.763 42.2343 106.101 42.2115 106.367 42.3674C107.392 42.9679 108.337 43.6673 109.172 44.4465C110.007 45.2218 110.774 46.1112 111.45 47.0919C111.628 47.3465 111.628 47.6848 111.457 47.9433L109.574 50.7559C110.114 51.881 110.482 53.0707 110.668 54.2984L113.804 55.5602C114.092 55.6743 114.278 55.9555 114.278 56.2672C114.27 57.4569 114.138 58.6276 113.883 59.7374C113.629 60.8511 113.242 61.9609 112.733 63.0366C112.6 63.3178 112.308 63.4889 112 63.4661L108.629 63.238C108.269 63.7702 107.889 64.2491 107.475 64.6976C107.065 65.1385 106.61 65.5604 106.108 65.9595L106.587 69.308C106.632 69.6159 106.481 69.92 106.211 70.072C105.178 70.6612 104.1 71.1287 103.011 71.4669C101.921 71.8014 100.767 72.0219 99.5827 72.1207C99.5637 72.1207 99.5409 72.1207 99.5219 72.1207ZM93.6263 66.2103C93.7288 66.2103 93.8313 66.2293 93.9262 66.2711C95.1828 66.8185 96.5077 67.1187 97.8668 67.1719C98.1439 67.1833 98.3945 67.343 98.5159 67.5938L99.9699 70.5585C100.866 70.4559 101.739 70.2735 102.567 70.0188C103.394 69.7641 104.218 69.4221 105.015 69.0002L104.548 65.7352C104.51 65.4615 104.624 65.1879 104.844 65.0206C105.418 64.5949 105.915 64.1502 106.363 63.6675C106.811 63.1848 107.213 62.6565 107.597 62.0484C107.745 61.8127 108.01 61.6797 108.288 61.6987L111.575 61.9191C111.936 61.0905 112.213 60.2429 112.406 59.3953C112.6 58.5477 112.714 57.6659 112.752 56.7613L109.692 55.5298C109.434 55.4272 109.256 55.1916 109.221 54.9141C109.066 53.561 108.667 52.2611 108.029 51.0486C107.9 50.8015 107.915 50.5051 108.071 50.277L109.909 47.5328C109.369 46.8068 108.777 46.1417 108.143 45.5525C107.509 44.9634 106.799 44.4199 106.036 43.9371L103.44 45.9782C103.22 46.1493 102.927 46.1873 102.673 46.077C101.416 45.5297 100.091 45.2294 98.7323 45.1762C98.4552 45.1648 98.2046 45.0052 98.0832 44.7543L96.6292 41.7896C95.7333 41.8923 94.8601 42.0747 94.0325 42.3294C93.2049 42.584 92.3812 42.9261 91.5839 43.348L92.0509 46.613C92.0888 46.8866 91.975 47.1603 91.7548 47.3275C91.1815 47.7532 90.6842 48.1979 90.2363 48.6806C89.7883 49.1634 89.3859 49.6917 89.0025 50.2998C88.8544 50.5355 88.5887 50.6685 88.3116 50.6495L85.024 50.429C84.6633 51.2576 84.3862 52.1052 84.1926 52.9528C83.999 53.8004 83.8851 54.6822 83.8471 55.5869L86.9069 56.8183C87.1651 56.921 87.3435 57.1566 87.3777 57.4341C87.5333 58.7872 87.9319 60.0871 88.5697 61.2996C88.6988 61.5466 88.6836 61.8431 88.5279 62.0712L86.6905 64.8154C87.2296 65.5414 87.8218 66.2065 88.4558 66.7957C89.0898 67.3848 89.7997 67.9283 90.5627 68.411L93.1594 66.37C93.2961 66.2635 93.4593 66.2103 93.6263 66.2103Z" fill="#50AA57"/>
<path d="M98.2958 63.3556C96.5495 63.3556 94.7956 62.7209 93.4176 61.44C90.5172 58.7451 90.3464 54.1917 93.038 51.2878C95.7295 48.3839 100.281 48.2129 103.182 50.9077C106.082 53.6025 106.253 58.156 103.561 61.0599C102.149 62.584 100.228 63.3556 98.2996 63.3556H98.2958ZM98.2996 50.5048C96.7773 50.5048 95.2588 51.113 94.1427 52.3178C92.0168 54.6098 92.1534 58.2054 94.4426 60.3339C96.7317 62.4624 100.323 62.3256 102.449 60.0336C104.575 57.7417 104.438 54.1461 102.149 52.0176C101.059 51.0065 99.6776 50.5048 98.2958 50.5048H98.2996Z" fill="#50AA57"/>
</svg>
