<svg width="166" height="161" viewBox="0 0 166 161" fill="none" xmlns="http://www.w3.org/2000/svg">
<path d="M116.607 133.997L115.541 135.056L98.4954 151.947C96.9837 153.444 95.0107 154.189 93.0336 154.189C91.0566 154.189 89.0318 153.424 87.5162 151.892C84.5049 148.846 84.5288 143.918 87.5719 140.904L104.828 123.814L105.695 122.958C105.767 122.886 105.851 122.835 105.938 122.799C106.053 123.062 106.177 123.324 106.304 123.579C106.392 123.754 106.479 123.925 106.571 124.097L105.509 125.152L88.5783 141.919C86.0961 144.38 86.0762 148.4 88.5346 150.884C90.989 153.369 95.0107 153.389 97.4929 150.928L114.252 134.316L115.302 133.277C115.513 133.404 115.728 133.528 115.947 133.647C116.165 133.766 116.384 133.886 116.607 133.997Z" fill="#50AA57"/>
<path d="M104.781 107.103C104.65 107.572 104.53 108.05 104.427 108.532H99.2278C98.834 108.532 98.5157 108.213 98.5157 107.819C98.5157 107.425 98.834 107.103 99.2278 107.103H104.781Z" fill="#50AA57"/>
<path d="M155.566 107.819C155.566 108.213 155.248 108.532 154.85 108.532H149.651C149.548 108.05 149.428 107.572 149.297 107.103H154.85C155.248 107.103 155.566 107.421 155.566 107.819Z" fill="#50AA57"/>
<path d="M105.668 122.174H98.2649C97.8711 122.174 97.5529 121.852 97.5529 121.458C97.5529 121.064 97.8711 120.741 98.2649 120.741H105.131C105.294 121.227 105.473 121.705 105.668 122.174Z" fill="#50AA57"/>
<path d="M156.529 121.458C156.529 121.852 156.211 122.174 155.817 122.174H148.41C148.605 121.705 148.784 121.227 148.947 120.741H155.817C156.211 120.741 156.529 121.064 156.529 121.458Z" fill="#50AA57"/>
<path d="M146.315 87.1179C146.315 87.5121 145.993 87.8345 145.599 87.8345L133.975 87.8504V91.286C133.506 91.1347 133.028 90.9994 132.543 90.8839V87.1339C132.543 86.7397 132.865 86.4213 133.259 86.4173L145.599 86.4014C145.993 86.4014 146.315 86.7238 146.315 87.1179Z" fill="#50AA57"/>
<path d="M149.521 140.492C149.521 140.886 149.199 141.208 148.805 141.208L133.259 141.188C132.865 141.188 132.543 140.87 132.543 140.476V135.826C133.028 135.71 133.506 135.575 133.975 135.424V139.759L148.809 139.775C149.203 139.775 149.521 140.097 149.521 140.492Z" fill="#50AA57"/>
<path d="M121.762 87.1339V90.8282C121.281 90.9397 120.803 91.0671 120.334 91.2143V87.8504L108.71 87.8345C108.312 87.8345 107.994 87.5121 107.994 87.1179C107.994 86.7238 108.316 86.4014 108.71 86.4014L121.05 86.4173C121.444 86.4213 121.762 86.7397 121.762 87.1339Z" fill="#50AA57"/>
<path d="M95.1181 111.979C92.8228 111.979 90.9572 110.111 90.9572 107.814C90.9572 105.517 92.8228 103.65 95.1181 103.65C97.4134 103.65 99.2751 105.517 99.2751 107.814C99.2751 110.111 97.4094 111.979 95.1181 111.979ZM95.1181 105.084C93.6144 105.084 92.3892 106.31 92.3892 107.814C92.3892 109.319 93.6144 110.545 95.1181 110.545C96.6218 110.545 97.847 109.319 97.847 107.814C97.847 106.31 96.6218 105.084 95.1181 105.084Z" fill="#50AA57"/>
<path d="M98.6895 121.457C98.6895 124.387 96.3107 126.768 93.3829 126.768C90.4551 126.768 88.0763 124.387 88.0763 121.457C88.0763 118.527 90.4591 116.146 93.3829 116.146C96.3067 116.146 98.6895 118.527 98.6895 121.457Z" fill="#50AA57"/>
<path d="M106.572 124.097L105.51 125.152C107.578 128.914 110.601 132.079 114.253 134.316L115.303 133.277C111.608 131.092 108.573 127.907 106.572 124.097ZM106.572 124.097L105.51 125.152C107.578 128.914 110.601 132.079 114.253 134.316L115.303 133.277C111.608 131.092 108.573 127.907 106.572 124.097ZM106.572 124.097L105.51 125.152C107.578 128.914 110.601 132.079 114.253 134.316L115.303 133.277C111.608 131.092 108.573 127.907 106.572 124.097ZM106.572 124.097L105.51 125.152C107.578 128.914 110.601 132.079 114.253 134.316L115.303 133.277C111.608 131.092 108.573 127.907 106.572 124.097ZM151.109 108.532C151.013 108.05 150.906 107.572 150.779 107.102C148.599 98.8061 142.174 92.2097 133.976 89.7893C133.506 89.6499 133.025 89.5225 132.544 89.4111C130.774 89.005 128.932 88.79 127.038 88.79C125.145 88.79 123.462 88.9891 121.764 89.3633C121.282 89.4668 120.805 89.5862 120.335 89.7176C112.029 92.0863 105.502 98.7265 103.298 107.102C103.171 107.572 103.063 108.05 102.968 108.532C102.653 110.092 102.49 111.704 102.49 113.357C102.49 115.928 102.888 118.408 103.624 120.741C103.775 121.227 103.946 121.705 104.129 122.174C104.34 122.732 104.575 123.277 104.829 123.815C104.937 124.041 105.048 124.268 105.16 124.495C105.275 124.714 105.39 124.933 105.51 125.152C107.578 128.914 110.601 132.079 114.253 134.316C114.464 134.448 114.675 134.575 114.89 134.694C115.104 134.822 115.323 134.941 115.542 135.057C118.975 136.888 122.889 137.923 127.038 137.923C128.932 137.923 130.774 137.708 132.544 137.302C133.025 137.191 133.506 137.063 133.976 136.92C141.307 134.758 147.222 129.253 149.947 122.174C150.134 121.705 150.301 121.227 150.453 120.741C151.188 118.408 151.586 115.928 151.586 113.357C151.586 111.704 151.423 110.092 151.109 108.532ZM148.412 122.174C145.814 128.464 140.516 133.365 133.976 135.423C133.506 135.574 133.029 135.71 132.544 135.825C130.782 136.259 128.936 136.49 127.038 136.49C123.287 136.49 119.743 135.59 116.608 133.998C116.385 133.886 116.167 133.767 115.948 133.647C115.729 133.528 115.514 133.405 115.303 133.277C111.608 131.092 108.573 127.907 106.572 124.097C106.48 123.926 106.393 123.755 106.305 123.58C106.178 123.325 106.055 123.062 105.939 122.799C105.844 122.592 105.756 122.385 105.669 122.174C105.474 121.705 105.295 121.227 105.132 120.741C104.348 118.42 103.922 115.936 103.922 113.357C103.922 111.704 104.097 110.088 104.428 108.532C104.531 108.05 104.65 107.572 104.782 107.102C106.91 99.5147 112.821 93.4955 120.335 91.2144C120.805 91.0671 121.282 90.9398 121.764 90.8283C123.458 90.4302 125.224 90.2192 127.038 90.2192C128.852 90.2192 130.782 90.4501 132.544 90.884C133.029 90.9995 133.506 91.1348 133.976 91.2861C141.383 93.6189 147.191 99.5904 149.299 107.102C149.43 107.572 149.55 108.05 149.653 108.532C149.983 110.088 150.158 111.704 150.158 113.357C150.158 115.936 149.733 118.42 148.949 120.741C148.786 121.227 148.607 121.705 148.412 122.174ZM106.572 124.097L105.51 125.152C107.578 128.914 110.601 132.079 114.253 134.316L115.303 133.277C111.608 131.092 108.573 127.907 106.572 124.097ZM106.572 124.097L105.51 125.152C107.578 128.914 110.601 132.079 114.253 134.316L115.303 133.277C111.608 131.092 108.573 127.907 106.572 124.097ZM106.572 124.097L105.51 125.152C107.578 128.914 110.601 132.079 114.253 134.316L115.303 133.277C111.608 131.092 108.573 127.907 106.572 124.097ZM106.572 124.097L105.51 125.152C107.578 128.914 110.601 132.079 114.253 134.316L115.303 133.277C111.608 131.092 108.573 127.907 106.572 124.097Z" fill="#50AA57"/>
<path d="M160.693 126.768C157.766 126.768 155.387 124.383 155.387 121.457C155.387 118.531 157.766 116.146 160.693 116.146C163.621 116.146 166 118.531 166 121.457C166 124.383 163.617 126.768 160.693 126.768ZM160.693 117.576C158.553 117.576 156.815 119.315 156.815 121.457C156.815 123.599 158.553 125.339 160.693 125.339C162.834 125.339 164.572 123.599 164.572 121.457C164.572 119.315 162.834 117.576 160.693 117.576Z" fill="#50AA57"/>
<path d="M143.586 86.971C143.586 89.5108 145.643 91.569 148.181 91.569C150.719 91.569 152.775 89.5108 152.775 86.971C152.775 84.4311 150.719 82.377 148.181 82.377C145.643 82.377 143.586 84.4351 143.586 86.971Z" fill="#50AA57"/>
<path d="M148.178 92.2814C145.25 92.2814 142.871 89.8968 142.871 86.9708C142.871 84.0448 145.254 81.6602 148.178 81.6602C151.102 81.6602 153.484 84.0408 153.484 86.9708C153.484 89.9007 151.102 92.2814 148.178 92.2814ZM148.178 83.0893C146.038 83.0893 144.299 84.829 144.299 86.9708C144.299 89.1125 146.038 90.8522 148.178 90.8522C150.318 90.8522 152.056 89.1125 152.056 86.9708C152.056 84.829 150.318 83.0893 148.178 83.0893Z" fill="#50AA57"/>
<path d="M153.686 145.948C150.758 145.948 148.379 143.568 148.379 140.638C148.379 137.708 150.758 135.327 153.686 135.327C156.613 135.327 158.992 137.712 158.992 140.638C158.992 143.564 156.609 145.948 153.686 145.948ZM153.686 136.756C151.545 136.756 149.807 138.496 149.807 140.638C149.807 142.78 151.545 144.519 153.686 144.519C155.826 144.519 157.564 142.78 157.564 140.638C157.564 138.496 155.826 136.756 153.686 136.756Z" fill="#50AA57"/>
<path d="M154.721 107.819C154.721 109.722 156.264 111.266 158.166 111.266C160.067 111.266 161.611 109.722 161.611 107.819C161.611 105.916 160.067 104.371 158.166 104.371C156.264 104.371 154.721 105.916 154.721 107.819Z" fill="#50AA57"/>
<path d="M103.83 92.4278C100.902 92.4278 98.5236 90.0472 98.5236 87.1172C98.5236 84.1873 100.902 81.8066 103.83 81.8066C106.758 81.8066 109.137 84.1912 109.137 87.1172C109.137 90.0432 106.754 92.4278 103.83 92.4278ZM103.83 83.2358C101.69 83.2358 99.9516 84.9755 99.9516 87.1172C99.9516 89.259 101.69 90.9987 103.83 90.9987C105.97 90.9987 107.709 89.259 107.709 87.1172C107.709 84.9755 105.97 83.2358 103.83 83.2358Z" fill="#50AA57"/>
<path d="M133.506 105.839H120.57C120.176 105.839 119.854 105.521 119.854 105.123C119.854 104.725 120.172 104.406 120.57 104.406H133.506C133.9 104.406 134.222 104.725 134.222 105.123C134.222 105.521 133.904 105.839 133.506 105.839Z" fill="#50AA57"/>
<path d="M127.104 114.073H115.361C114.967 114.073 114.645 113.754 114.645 113.356C114.645 112.958 114.963 112.64 115.361 112.64H127.104C127.497 112.64 127.82 112.958 127.82 113.356C127.82 113.754 127.501 114.073 127.104 114.073Z" fill="#50AA57"/>
<path d="M138.714 114.073H133.224C132.83 114.073 132.508 113.754 132.508 113.356C132.508 112.958 132.826 112.64 133.224 112.64H138.714C139.107 112.64 139.43 112.958 139.43 113.356C139.43 113.754 139.111 114.073 138.714 114.073Z" fill="#50AA57"/>
<path d="M133.143 122.302H120.935C120.541 122.302 120.219 121.984 120.219 121.586C120.219 121.188 120.537 120.869 120.935 120.869H133.143C133.537 120.869 133.859 121.188 133.859 121.586C133.859 121.984 133.541 122.302 133.143 122.302Z" fill="#50AA57"/>
<path d="M33.2652 57.9503L21.3672 57.9105C21.0768 57.9105 20.8182 57.7353 20.7068 57.4646C20.5994 57.1979 20.6591 56.8874 20.866 56.6844L24.9632 52.6556L20.862 48.5513C20.6591 48.3482 20.5955 48.0377 20.7068 47.771C20.8182 47.5043 21.0768 47.3291 21.3672 47.3291H27.1829C27.5768 47.3291 27.899 47.6476 27.899 48.0457C27.899 48.4438 27.5807 48.7622 27.1829 48.7622H23.0896L26.4788 52.154C26.6141 52.2894 26.6897 52.4725 26.6897 52.6636C26.6897 52.8547 26.6141 53.0378 26.4749 53.1692L23.1055 56.4853L32.9669 56.5172L36.8215 52.6596L32.9271 48.7622H32.0162C31.6223 48.7622 31.3001 48.4438 31.3001 48.0457C31.3001 47.6476 31.6184 47.3291 32.0162 47.3291H33.2255C33.4164 47.3291 33.5954 47.4047 33.7307 47.5401L38.3411 52.154C38.6196 52.4327 38.6196 52.8865 38.3411 53.1652L33.7704 57.7393C33.6352 57.8747 33.4562 57.9503 33.2652 57.9503Z" fill="#50AA57"/>
<path d="M51.568 57.9493H50.7445C50.3507 57.9493 50.0285 57.6268 50.0325 57.2327C50.0325 56.8386 50.3547 56.5201 50.7485 56.5201H51.2736L55.1282 52.6625L51.2338 48.7652H41.3963L44.7856 52.157C44.9208 52.2923 44.9964 52.4754 44.9964 52.6665C44.9964 52.8576 44.9168 53.0407 44.7816 53.1721L41.4123 56.4882L45.9153 56.5042C46.3091 56.5042 46.6274 56.8266 46.6274 57.2207C46.6274 57.6148 46.3051 57.9333 45.9113 57.9333L39.6699 57.9134C39.3795 57.9134 39.121 57.7383 39.0096 57.4676C38.9022 57.2008 38.9658 56.8903 39.1687 56.6873L43.266 52.6586L39.1647 48.5542C38.9618 48.3512 38.8982 48.0406 39.0096 47.7739C39.121 47.5072 39.3795 47.332 39.6699 47.332H51.5282C51.7191 47.332 51.8981 47.4077 52.0334 47.543L56.6438 52.157C56.9223 52.4356 56.9223 52.8895 56.6438 53.1681L52.0732 57.7422C51.9379 57.8776 51.7589 57.9532 51.568 57.9532V57.9493Z" fill="#50AA57"/>
<path d="M29.6009 53.3672C29.2071 53.3672 28.8849 53.0487 28.8849 52.6506V31.1892C28.8849 30.7951 29.2031 30.4727 29.6009 30.4727C29.9987 30.4727 30.317 30.7911 30.317 31.1892V52.6506C30.317 53.0447 29.9987 53.3672 29.6009 53.3672Z" fill="#50AA57"/>
<path d="M29.6002 31.9005C26.3024 31.9005 23.6173 29.2134 23.6173 25.9131C23.6173 22.6129 26.3024 19.9258 29.6002 19.9258C32.8979 19.9258 35.583 22.6129 35.583 25.9131C35.583 29.2134 32.8979 31.9005 29.6002 31.9005ZM29.6002 21.3589C27.0901 21.3589 25.0494 23.4012 25.0494 25.9131C25.0494 28.4251 27.0901 30.4674 29.6002 30.4674C32.1102 30.4674 34.1509 28.4251 34.1509 25.9131C34.1509 23.4012 32.1102 21.3589 29.6002 21.3589Z" fill="#50AA57"/>
<path d="M48.5931 74.8281C48.1993 74.8281 47.8771 74.5096 47.8771 74.1115V52.6502C47.8771 52.2561 48.1953 51.9336 48.5931 51.9336C48.9909 51.9336 49.3091 52.2521 49.3091 52.6502V74.1115C49.3091 74.5056 48.9909 74.8281 48.5931 74.8281Z" fill="#50AA57"/>
<path d="M48.5923 85.3702C45.2946 85.3702 42.6095 82.6831 42.6095 79.3829C42.6095 76.0827 45.2946 73.3955 48.5923 73.3955C51.8901 73.3955 54.5752 76.0827 54.5752 79.3829C54.5752 82.6831 51.8901 85.3702 48.5923 85.3702ZM48.5923 74.8287C46.0822 74.8287 44.0416 76.8709 44.0416 79.3829C44.0416 81.8949 46.0822 83.9371 48.5923 83.9371C51.1024 83.9371 53.1431 81.8949 53.1431 79.3829C53.1431 76.8709 51.1024 74.8287 48.5923 74.8287Z" fill="#50AA57"/>
<path d="M66.2103 53.3515C65.8165 53.3515 65.4943 53.0331 65.4943 52.635V31.1736C65.4943 30.7795 65.8125 30.457 66.2103 30.457C66.6081 30.457 66.9263 30.7755 66.9263 31.1736V52.635C66.9263 53.0291 66.6081 53.3515 66.2103 53.3515Z" fill="#50AA57"/>
<path d="M66.2095 31.8888C62.9118 31.8888 60.2267 29.2016 60.2267 25.9014C60.2267 22.6012 62.9118 19.9141 66.2095 19.9141C69.5073 19.9141 72.1924 22.6012 72.1924 25.9014C72.1924 29.2016 69.5073 31.8888 66.2095 31.8888ZM66.2095 21.3472C63.6994 21.3472 61.6587 23.3894 61.6587 25.9014C61.6587 28.4134 63.6994 30.4556 66.2095 30.4556C68.7196 30.4556 70.7603 28.4134 70.7603 25.9014C70.7603 23.3894 68.7196 21.3472 66.2095 21.3472Z" fill="#50AA57"/>
<path d="M85.0591 85.3702C81.7614 85.3702 79.0763 82.6831 79.0763 79.3829C79.0763 76.0827 81.7614 73.3955 85.0591 73.3955C88.3569 73.3955 91.042 76.0827 91.042 79.3829C91.042 82.6831 88.3569 85.3702 85.0591 85.3702ZM85.0591 74.8287C82.549 74.8287 80.5084 76.8709 80.5084 79.3829C80.5084 81.8949 82.549 83.9371 85.0591 83.9371C87.5692 83.9371 89.6099 81.8949 89.6099 79.3829C89.6099 76.8709 87.5692 74.8287 85.0591 74.8287Z" fill="#50AA57"/>
<path d="M106.482 57.9493L94.584 57.9095C94.2936 57.9095 94.035 57.7343 93.9236 57.4636C93.8162 57.1969 93.8759 56.8864 94.0828 56.6834L98.18 52.6546L94.0788 48.5503C93.8759 48.3473 93.8123 48.0367 93.9236 47.77C94.035 47.5033 94.2936 47.3281 94.584 47.3281H106.442C106.633 47.3281 106.812 47.4038 106.947 47.5391L111.558 52.153C111.836 52.4317 111.836 52.8855 111.558 53.1642L106.987 57.7383C106.852 57.8737 106.673 57.9493 106.482 57.9493ZM96.3263 56.4843L106.188 56.5162L110.042 52.6586L106.148 48.7613H96.3104L99.6996 52.153C99.8349 52.2884 99.9104 52.4715 99.9104 52.6626C99.9104 52.8537 99.8309 53.0368 99.6956 53.1682L96.3263 56.4843Z" fill="#50AA57"/>
<path d="M102.82 46.2611C102.426 46.2611 102.104 45.9427 102.104 45.5446V31.1892C102.104 30.7951 102.422 30.4727 102.82 30.4727C103.217 30.4727 103.536 30.7911 103.536 31.1892V45.5446C103.536 45.9387 103.217 46.2611 102.82 46.2611Z" fill="#50AA57"/>
<path d="M107.94 32.9365C107.641 32.9365 107.363 32.7494 107.264 32.4508C107.136 32.0766 107.335 31.6706 107.709 31.5432C113.839 29.4532 117.956 23.6887 117.956 17.2037C117.956 8.85169 111.166 2.05619 102.82 2.05619C94.4744 2.05619 87.6841 8.85169 87.6841 17.2037C87.6841 23.637 91.7575 29.3855 97.8239 31.5034C98.1978 31.6347 98.3927 32.0408 98.2614 32.415C98.1302 32.7892 97.7244 32.9843 97.3505 32.8529C90.7153 30.532 86.256 24.2421 86.256 17.1998C86.256 8.05948 93.6868 0.623047 102.82 0.623047C111.954 0.623047 119.384 8.05948 119.384 17.1998C119.384 24.2978 114.877 30.6037 108.171 32.8927C108.095 32.9206 108.015 32.9325 107.94 32.9325V32.9365Z" fill="#50AA57"/>
<path d="M69.8746 57.9464L57.9765 57.9066C57.6862 57.9066 57.4276 57.7314 57.3162 57.4607C57.2088 57.194 57.2685 56.8835 57.4753 56.6804L61.5726 52.6517L57.4714 48.5473C57.2685 48.3443 57.2048 48.0338 57.3162 47.7671C57.4276 47.5004 57.6862 47.3252 57.9765 47.3252H63.7923C64.1861 47.3252 64.5083 47.6437 64.5083 48.0418C64.5083 48.4399 64.1901 48.7583 63.7923 48.7583H59.699L63.0882 52.1501C63.2235 52.2855 63.2991 52.4686 63.2991 52.6597C63.2991 52.8508 63.2195 53.0339 63.0842 53.1653L59.7149 56.4814L69.5763 56.5132L73.4309 52.6557L69.5365 48.7583H68.6255C68.2317 48.7583 67.9095 48.4399 67.9095 48.0418C67.9095 47.6437 68.2277 47.3252 68.6255 47.3252H69.8348C70.0258 47.3252 70.2048 47.4008 70.34 47.5362L74.9505 52.1501C75.2289 52.4288 75.2289 52.8826 74.9505 53.1613L70.3798 57.7354C70.2446 57.8708 70.0655 57.9464 69.8746 57.9464Z" fill="#50AA57"/>
<path d="M88.1773 57.9453H87.3539C86.9601 57.9453 86.6379 57.6229 86.6419 57.2288C86.6419 56.8347 86.9641 56.5162 87.3579 56.5162H87.883L91.7376 52.6586L87.8432 48.7613H78.0057L81.3949 52.153C81.5302 52.2884 81.6058 52.4715 81.6058 52.6626C81.6058 52.8537 81.5262 53.0368 81.391 53.1682L78.0216 56.4843L82.5247 56.5003C82.9185 56.5003 83.2367 56.8227 83.2367 57.2168C83.2367 57.6109 82.9145 57.9294 82.5207 57.9294L76.2793 57.9095C75.9889 57.9095 75.7303 57.7343 75.6189 57.4636C75.5115 57.1969 75.5752 56.8864 75.7781 56.6834L79.8754 52.6546L75.7741 48.5503C75.5712 48.3473 75.5076 48.0367 75.6189 47.77C75.7303 47.5033 75.9889 47.3281 76.2793 47.3281H88.1376C88.3285 47.3281 88.5075 47.4038 88.6428 47.5391L93.2532 52.153C93.5317 52.4317 93.5317 52.8855 93.2532 53.1642L88.6825 57.7383C88.5473 57.8737 88.3683 57.9493 88.1773 57.9493V57.9453Z" fill="#50AA57"/>
<path d="M85.058 74.8281C84.6641 74.8281 84.3419 74.5096 84.3419 74.1115V52.6502C84.3419 52.2561 84.6602 51.9336 85.058 51.9336C85.4557 51.9336 85.774 52.2521 85.774 52.6502V74.1115C85.774 74.5056 85.4557 74.8281 85.058 74.8281Z" fill="#50AA57"/>
<path d="M99.3995 25.7077C98.5602 25.7077 97.7606 25.3813 97.1679 24.7921L92.8041 20.425C92.2074 19.8278 91.8772 19.0316 91.8772 18.1837C91.8772 17.3358 92.2074 16.5435 92.8041 15.9424C93.4008 15.3453 94.1963 15.0149 95.0397 15.0149C95.883 15.0149 96.6786 15.3453 97.2793 15.9424L99.6103 18.2753L108.35 9.52909C109.583 8.29499 111.592 8.29499 112.825 9.52909C114.058 10.7632 114.058 12.7736 112.825 14.0077L102.057 24.7841C101.416 25.4251 100.529 25.7555 99.6103 25.6958C99.5387 25.6997 99.4671 25.7037 99.3955 25.7037L99.3995 25.7077ZM95.0436 16.448C94.5782 16.448 94.1446 16.6271 93.8184 16.9576C93.4922 17.284 93.3093 17.7219 93.3093 18.1837C93.3093 18.6455 93.4883 19.0834 93.8184 19.4098L98.1823 23.7769C98.5363 24.1312 99.0375 24.3144 99.5586 24.2666C99.5984 24.2666 99.6382 24.2666 99.678 24.2666C100.199 24.3104 100.696 24.1312 101.054 23.7769L111.823 13.0005C112.499 12.3237 112.499 11.221 111.823 10.5442C111.146 9.86747 110.045 9.86747 109.368 10.5442L100.123 19.796C99.845 20.0747 99.3916 20.0747 99.1131 19.796L96.2768 16.9576C95.9506 16.6311 95.5131 16.448 95.0516 16.448H95.0436Z" fill="#50AA57"/>
<path d="M60.2556 161H7.89381C3.97552 161 0.789185 157.812 0.789185 153.89V101.489C0.789185 97.5677 3.97552 94.3789 7.89381 94.3789H60.2556C64.1739 94.3789 67.3602 97.5677 67.3602 101.489V119.101C67.3602 119.495 67.042 119.817 66.6442 119.817C66.2464 119.817 65.9281 119.499 65.9281 119.101V101.489C65.9281 98.3559 63.3823 95.812 60.2556 95.812H7.89381C4.76316 95.812 2.22125 98.3599 2.22125 101.489V153.89C2.22125 157.023 4.76714 159.567 7.89381 159.567H60.2556C63.3862 159.567 65.9281 157.019 65.9281 153.89V148.83C65.9281 148.436 66.2464 148.114 66.6442 148.114C67.042 148.114 67.3602 148.432 67.3602 148.83V153.89C67.3602 157.812 64.1739 161 60.2556 161Z" fill="#50AA57"/>
<path d="M38.1784 112.179H14.1516C13.2804 112.179 12.5763 111.47 12.5763 110.602V104.507C12.5763 103.635 13.2844 102.931 14.1516 102.931H21.475C21.5426 102.931 21.6023 102.887 21.6142 102.831C22.008 100.626 23.9214 99.0215 26.165 99.0215C28.4085 99.0215 30.3219 100.622 30.7158 102.831C30.7277 102.887 30.7874 102.931 30.855 102.931H38.1784C39.0496 102.931 39.7537 103.639 39.7537 104.507V110.602C39.7537 111.474 39.0456 112.179 38.1784 112.179ZM14.1516 104.36C14.072 104.36 14.0044 104.428 14.0044 104.507V110.602C14.0044 110.682 14.072 110.749 14.1516 110.749H38.1784C38.258 110.749 38.3256 110.682 38.3256 110.602V104.507C38.3256 104.428 38.258 104.36 38.1784 104.36H30.855C30.0912 104.36 29.4428 103.823 29.3076 103.078C29.0371 101.553 27.7164 100.451 26.165 100.451C24.6136 100.451 23.2929 101.557 23.0224 103.078C22.8911 103.819 22.2387 104.36 21.475 104.36H14.1516Z" fill="#50AA57"/>
<path d="M42.3321 153.375H9.99928C8.59108 153.375 7.44543 152.229 7.44543 150.819V109.505C7.44543 108.096 8.59108 106.949 9.99928 106.949H42.3281C43.7363 106.949 44.8859 108.096 44.8859 109.505V119.696C44.8859 120.09 44.5677 120.413 44.1699 120.413C43.7721 120.413 43.4539 120.094 43.4539 119.696V109.505C43.4539 108.884 42.9487 108.378 42.3281 108.378H9.99928C9.37872 108.378 8.87352 108.884 8.87352 109.505V150.819C8.87352 151.44 9.37872 151.946 9.99928 151.946H42.3281C42.9487 151.946 43.4539 151.44 43.4539 150.819V147.165C43.4539 146.771 43.7721 146.448 44.1699 146.448C44.5677 146.448 44.8859 146.767 44.8859 147.165V150.819C44.8859 152.229 43.7403 153.375 42.3321 153.375Z" fill="#50AA57"/>
<path d="M54.3128 151.224C50.4701 151.224 46.8184 150.018 43.7434 147.741C39.2284 144.397 36.5314 139.05 36.5314 133.429C36.5314 127.808 39.2284 122.458 43.7434 119.118C46.0387 117.414 48.7477 116.279 51.576 115.837C51.9658 115.778 52.3318 116.044 52.3915 116.435C52.4511 116.825 52.1846 117.191 51.7948 117.251C49.1932 117.657 46.699 118.7 44.5907 120.268C40.4377 123.338 37.9555 128.258 37.9555 133.429C37.9555 138.601 40.4337 143.513 44.5867 146.59C47.415 148.688 50.7724 149.795 54.3049 149.795C58.5294 149.795 62.5392 148.191 65.5903 145.281C68.8602 142.16 70.6622 137.952 70.6622 133.433C70.6622 125.432 64.7152 118.477 56.8269 117.255C56.437 117.195 56.1705 116.829 56.2302 116.439C56.2899 116.048 56.6519 115.782 57.0457 115.841C61.1947 116.482 65.0016 118.6 67.7663 121.797C70.5588 125.026 72.0943 129.162 72.0943 133.433C72.0943 138.346 70.1371 142.924 66.5808 146.316C63.2632 149.481 58.9034 151.224 54.3088 151.224H54.3128Z" fill="#50AA57"/>
<path d="M54.3121 142.41C49.3675 142.41 45.3497 138.389 45.3497 133.445C45.3497 129.074 48.4684 125.36 52.7686 124.611C53.1585 124.544 53.5284 124.806 53.596 125.193C53.6637 125.583 53.4051 125.953 53.0152 126.021C49.4033 126.65 46.7818 129.771 46.7818 133.445C46.7818 137.601 50.1631 140.981 54.316 140.981C58.469 140.981 61.8503 137.601 61.8503 133.445C61.8503 129.771 59.2288 126.65 55.6208 126.021C55.231 125.953 54.9724 125.583 55.04 125.193C55.1077 124.802 55.4776 124.544 55.8674 124.611C60.1636 125.36 63.2823 129.074 63.2823 133.445C63.2823 138.389 59.2606 142.41 54.32 142.41H54.3121Z" fill="#50AA57"/>
<path d="M54.3155 127.076C54.2519 127.076 54.1922 127.076 54.1285 127.068C53.0545 126.997 52.2271 126.344 52.1157 125.48L50.6916 114.425C50.612 113.796 50.803 113.155 51.2366 112.629C51.8452 111.889 52.8516 111.423 53.9933 111.348C56.0022 111.216 57.7286 112.319 57.9275 113.86C57.9514 114.039 57.9514 114.23 57.9275 114.421C57.9275 114.421 57.9275 114.421 57.9275 114.425L56.5034 125.484C56.384 126.404 55.4373 127.08 54.3115 127.08L54.3155 127.076ZM54.3155 112.765C54.2399 112.765 54.1643 112.765 54.0888 112.773C53.3489 112.82 52.6925 113.107 52.3385 113.537C52.1515 113.764 52.0759 113.999 52.1038 114.242L53.5279 125.301C53.5398 125.388 53.7586 125.615 54.2161 125.643C54.7133 125.675 55.0673 125.436 55.0872 125.297L56.5113 114.242C56.5193 114.174 56.5193 114.098 56.5113 114.039C56.4318 113.406 55.5248 112.761 54.3155 112.761V112.765Z" fill="#50AA57"/>
<path d="M74.1657 134.141H68.1869C67.793 134.141 67.4708 133.823 67.4708 133.425C67.4708 133.026 67.7891 132.708 68.1869 132.708H74.1657C74.5595 132.708 74.8817 133.026 74.8817 133.425C74.8817 133.823 74.5635 134.141 74.1657 134.141Z" fill="#50AA57"/>
<path d="M40.4412 134.141H34.4583C34.0645 134.141 33.7423 133.823 33.7423 133.425C33.7423 133.026 34.0605 132.708 34.4583 132.708H40.4412C40.835 132.708 41.1572 133.026 41.1572 133.425C41.1572 133.823 40.839 134.141 40.4412 134.141Z" fill="#50AA57"/>
<path d="M54.3138 154.015C53.92 154.015 53.5978 153.696 53.5978 153.298V147.709C53.5978 147.315 53.916 146.992 54.3138 146.992C54.7116 146.992 55.0298 147.311 55.0298 147.709V153.298C55.0298 153.692 54.7116 154.015 54.3138 154.015Z" fill="#50AA57"/>
<path d="M15.4001 126.029C15.0063 126.029 14.684 125.711 14.684 125.313V120.567L13.1963 122.391C12.9457 122.697 12.4962 122.741 12.1899 122.49C11.8836 122.239 11.8398 121.79 12.0904 121.483L14.8471 118.107C15.0381 117.872 15.3563 117.785 15.6388 117.884C15.9252 117.988 16.1121 118.254 16.1121 118.557V125.305C16.1121 125.699 15.7939 126.021 15.3961 126.021L15.4001 126.029Z" fill="#50AA57"/>
<path d="M17.4852 143.382H13.5311C13.2288 143.382 12.9583 143.191 12.8589 142.904C12.7594 142.618 12.8469 142.299 13.0856 142.108L13.1174 142.084C13.8653 141.479 14.5535 140.81 15.1541 140.098C15.5758 139.6 16.6936 138.274 16.3515 137.379C16.2242 137.048 15.9696 136.65 15.4724 136.63C15.0746 136.618 14.5972 136.77 14.1437 137.06C13.8096 137.271 13.368 137.176 13.1572 136.845C12.9424 136.511 13.0418 136.069 13.372 135.858C13.8653 135.543 14.633 135.173 15.5201 135.205C16.4907 135.237 17.2983 135.862 17.6841 136.869C18.3285 138.553 16.8647 140.285 16.2401 141.021C15.9696 141.34 15.6872 141.65 15.3888 141.953H17.4812C17.8751 141.953 18.1973 142.271 18.1973 142.669C18.1973 143.067 17.879 143.386 17.4812 143.386L17.4852 143.382Z" fill="#50AA57"/>
<path d="M31.9605 122.585H21.1126C20.7188 122.585 20.3966 122.266 20.3966 121.868C20.3966 121.47 20.7148 121.151 21.1126 121.151H31.9605C32.3543 121.151 32.6765 121.47 32.6765 121.868C32.6765 122.266 32.3583 122.585 31.9605 122.585Z" fill="#50AA57"/>
<path d="M31.9605 140.746H21.1126C20.7188 140.746 20.3966 140.427 20.3966 140.029C20.3966 139.631 20.7148 139.312 21.1126 139.312H31.9605C32.3543 139.312 32.6765 139.631 32.6765 140.029C32.6765 140.427 32.3583 140.746 31.9605 140.746Z" fill="#50AA57"/>
</svg>
