<svg width="163" height="163" viewBox="0 0 163 163" fill="none" xmlns="http://www.w3.org/2000/svg">
<g clip-path="url(#clip0_696_933)">
<path d="M158.632 83.8587H89.5742C87.3749 83.8587 85.5861 82.0688 85.5861 79.8681V77.9838C85.5861 75.783 87.3749 73.9932 89.5742 73.9932H158.632C160.832 73.9932 162.62 75.783 162.62 77.9838V79.8681C162.62 82.0688 160.832 83.8587 158.632 83.8587ZM89.5742 75.6933C88.3094 75.6933 87.2852 76.7228 87.2852 77.9838V79.8681C87.2852 81.1338 88.3141 82.1586 89.5742 82.1586H158.632C159.897 82.1586 160.921 81.129 160.921 79.8681V77.9838C160.921 76.7181 159.892 75.6933 158.632 75.6933H89.5742Z" fill="#50AA57"/>
<path d="M131.64 120.921H115.948C115.48 120.921 115.098 120.544 115.098 120.071V110.333L92.0757 83.5608C91.8586 83.3105 91.8114 82.9563 91.9482 82.6541C92.0851 82.3518 92.3872 82.1582 92.7175 82.1582H155.498C155.833 82.1582 156.135 82.3566 156.272 82.6635C156.409 82.9705 156.353 83.3294 156.126 83.575L132.49 109.715V120.067C132.49 120.534 132.112 120.917 131.64 120.917V120.921ZM116.792 119.226H130.791V109.394C130.791 109.181 130.871 108.983 131.008 108.822L153.582 83.8536H94.5629L116.585 109.464C116.717 109.62 116.788 109.814 116.788 110.017V119.221L116.792 119.226Z" fill="#50AA57"/>
<path d="M129.2 54.8245H119.015C117.312 54.8245 115.924 53.4361 115.924 51.7312V43.2447C115.924 41.5398 117.312 40.1514 119.015 40.1514H129.2C130.904 40.1514 132.292 41.5398 132.292 43.2447V51.7312C132.292 53.4361 130.904 54.8245 129.2 54.8245ZM119.015 41.8515C118.246 41.8515 117.623 42.4796 117.623 43.2447V51.7312C117.623 52.501 118.251 53.1244 119.015 53.1244H129.2C129.97 53.1244 130.593 52.4963 130.593 51.7312V43.2447C130.593 42.4749 129.965 41.8515 129.2 41.8515H119.015Z" fill="#50AA57"/>
<path d="M127.336 48.3349H120.875C120.408 48.3349 120.025 47.9571 120.025 47.4848C120.025 47.0126 120.403 46.6348 120.875 46.6348H127.336C127.803 46.6348 128.186 47.0126 128.186 47.4848C128.186 47.9571 127.808 48.3349 127.336 48.3349Z" fill="#50AA57"/>
<path d="M152.884 68.1984H134.892C134.255 68.1984 133.698 67.8395 133.434 67.2587C133.17 66.6778 133.269 66.0213 133.684 65.5443L136.299 62.5549V53.5678C136.299 51.3529 138.102 49.5488 140.315 49.5488H152.879C155.092 49.5488 156.895 51.3529 156.895 53.5678V64.1795C156.895 66.3944 155.092 68.1984 152.879 68.1984H152.884ZM135.105 66.503H152.884C154.163 66.503 155.206 65.4593 155.206 64.1795V53.5678C155.206 52.2879 154.163 51.2443 152.884 51.2443H140.32C139.041 51.2443 137.998 52.2879 137.998 53.5678V62.8713C137.998 63.0791 137.922 63.2775 137.79 63.4286L135.105 66.4983V66.503Z" fill="#50AA57"/>
<path d="M150.812 59.9013H142.482C142.014 59.9013 141.632 59.5235 141.632 59.0512C141.632 58.579 142.01 58.2012 142.482 58.2012H150.812C151.279 58.2012 151.661 58.579 151.661 59.0512C151.661 59.5235 151.284 59.9013 150.812 59.9013Z" fill="#50AA57"/>
<path d="M113.493 68.2697H95.3558C93.1281 68.2697 91.3158 66.4562 91.3158 64.2224V53.5209C91.3158 51.2918 93.1281 49.4736 95.3558 49.4736H108.023C110.251 49.4736 112.068 51.2871 112.068 53.5209V62.5836L114.706 65.6014C115.126 66.0831 115.226 66.7395 114.961 67.3204C114.697 67.9013 114.135 68.2649 113.498 68.2649L113.493 68.2697ZM95.3558 51.1785C94.0626 51.1785 93.0101 52.2316 93.0101 53.5256V64.2271C93.0101 65.5211 94.0626 66.5742 95.3558 66.5742H113.295L110.581 63.4667C110.445 63.3109 110.374 63.1126 110.374 62.9095V53.5256C110.374 52.2316 109.321 51.1785 108.028 51.1785H95.3605H95.3558Z" fill="#50AA57"/>
<path d="M105.975 59.3955H97.5741C97.1068 59.3955 96.7245 59.0176 96.7245 58.5454C96.7245 58.0731 97.1021 57.6953 97.5741 57.6953H105.975C106.442 57.6953 106.825 58.0731 106.825 58.5454C106.825 59.0176 106.447 59.3955 105.975 59.3955Z" fill="#50AA57"/>
<path d="M72.3286 109.866H50.4342C50.2124 109.866 50.0094 109.951 49.8584 110.098H72.9044C72.7534 109.951 72.5505 109.866 72.3286 109.866ZM97.1918 108.402H80.6258C81.1119 108.988 81.5791 109.559 82.0228 110.098H97.1918C98.4661 110.098 99.4997 111.137 99.4997 112.412V151.6C99.4997 152.701 98.6077 153.593 97.508 153.593H33.2122C31.9379 153.593 30.8995 152.554 30.8995 151.279V112.412C30.8995 111.137 31.9379 110.098 33.2122 110.098H46.7623V108.402H33.2122C31.0034 108.402 29.2052 110.202 29.2052 112.412V151.279C29.2052 153.489 31.0034 155.289 33.2122 155.289H97.508C99.5421 155.289 101.199 153.636 101.199 151.6V112.412C101.199 110.202 99.4005 108.402 97.1918 108.402ZM76.194 108.402H74.4997V110.098H76.194V108.402Z" fill="#50AA57"/>
<path d="M75.1321 163C74.6649 163 74.2826 162.622 74.2826 162.15V155.288H56.5178V162.15C56.5178 162.618 56.1402 163 55.6683 163C55.1963 163 54.8187 162.622 54.8187 162.15V154.438C54.8187 154.211 54.9084 153.999 55.0689 153.838C55.2293 153.678 55.4417 153.588 55.6683 153.588H75.1274C75.5946 153.588 75.9769 153.97 75.9769 154.438V162.15C75.9769 162.618 75.5994 163 75.1274 163H75.1321Z" fill="#50AA57"/>
<path d="M84.2694 163.001H46.1299C45.6626 163.001 45.2803 162.623 45.2803 162.151C45.2803 161.679 45.6579 161.301 46.1299 161.301H84.2694C84.7366 161.301 85.1189 161.679 85.1189 162.151C85.1189 162.623 84.7413 163.001 84.2694 163.001Z" fill="#50AA57"/>
<path d="M92.3494 148.969C92.3494 148.969 92.3258 148.969 92.3116 148.969C92.0143 148.955 91.7453 148.785 91.6037 148.525L89.645 144.898C89.579 144.776 89.5412 144.634 89.5412 144.497V113.932C89.5412 113.465 89.9188 113.082 90.3907 113.082H94.7611C95.2284 113.082 95.6107 113.46 95.6107 113.932V144.497C95.6107 144.662 95.5635 144.827 95.4691 144.969L93.0573 148.596C92.9016 148.832 92.6326 148.974 92.3494 148.974V148.969ZM91.2403 144.28L92.4249 146.476L93.9163 144.237V114.777H91.2403V144.28Z" fill="#50AA57"/>
<path d="M85.336 111.783V148.039C85.336 148.507 84.9537 148.884 84.4865 148.884H46.9983C45.9316 148.884 45.0679 148.02 45.0679 146.953V101.833C45.0679 100.766 45.9316 99.9014 46.9983 99.9014H75.3539C75.4625 99.9014 75.5711 99.9203 75.6654 99.9628C75.689 99.9722 75.7079 99.9769 75.7221 99.9864C75.7551 100.001 75.7882 100.019 75.8165 100.043C75.8589 100.071 75.8967 100.1 75.9297 100.133C75.9533 100.156 75.9769 100.18 75.9958 100.204C76.0147 100.227 76.0336 100.251 76.0525 100.274C76.1468 100.407 76.1988 100.572 76.1988 100.747C76.1988 101.006 76.0808 101.243 75.892 101.394C75.7457 101.521 75.5616 101.597 75.3539 101.597H46.9983C46.8661 101.597 46.7623 101.701 46.7623 101.833V146.953C46.7623 147.085 46.8661 147.189 46.9983 147.189H83.6369V111.783C83.6369 111.514 83.7644 111.273 83.9579 111.127C84.1042 111.004 84.2882 110.933 84.4865 110.933C84.7555 110.933 84.9962 111.061 85.1472 111.255C85.1567 111.264 85.1614 111.273 85.1661 111.283C85.185 111.302 85.1991 111.325 85.2086 111.344C85.2227 111.363 85.2322 111.382 85.2416 111.401C85.2558 111.429 85.2699 111.458 85.2794 111.486C85.2935 111.514 85.303 111.543 85.3077 111.576C85.3266 111.642 85.336 111.713 85.336 111.783Z" fill="#50AA57"/>
<path d="M85.3077 111.576C85.303 111.543 85.2935 111.514 85.2794 111.486C85.2699 111.458 85.2558 111.429 85.2416 111.401C85.2322 111.382 85.2227 111.363 85.2086 111.344C85.1991 111.325 85.185 111.302 85.1661 111.283C85.1614 111.273 85.1566 111.264 85.1472 111.255C85.1283 111.231 85.1095 111.207 85.0859 111.184C84.8263 110.853 84.5289 110.489 84.2127 110.097C83.7879 109.573 83.316 109.002 82.8251 108.402C80.4464 105.512 77.5203 102.017 76.0524 100.274C76.0336 100.251 76.0147 100.227 75.9958 100.204C75.9769 100.18 75.9533 100.156 75.9297 100.133C75.8967 100.1 75.8589 100.071 75.8165 100.043C75.7881 100.019 75.7551 100.001 75.7221 99.9864C75.7079 99.9769 75.689 99.9722 75.6654 99.9628C75.6277 99.9439 75.5899 99.9344 75.5474 99.925C75.5333 99.925 75.5144 99.925 75.5002 99.9155C75.4766 99.9108 75.4483 99.9108 75.42 99.9061C75.4011 99.9061 75.3775 99.9014 75.3539 99.9014H75.2973C75.2171 99.9014 75.1368 99.9203 75.0566 99.9486C74.7215 100.071 74.4997 100.393 74.4997 100.747V110.697C74.4997 111.765 75.3681 112.634 76.43 112.634H84.4865C84.8121 112.634 85.1095 112.445 85.251 112.152C85.3077 112.034 85.336 111.911 85.336 111.783C85.336 111.713 85.3266 111.642 85.3077 111.576ZM76.43 110.933C76.3026 110.933 76.194 110.83 76.194 110.697V103.08C77.4778 104.615 79.1108 106.57 80.6258 108.402C81.1119 108.988 81.5791 109.559 82.0228 110.097C82.2588 110.386 82.49 110.664 82.7072 110.933H76.43Z" fill="#50AA57"/>
<path d="M80.6211 120.128C80.6211 120.596 80.2388 120.978 79.7715 120.978H50.4342C49.9669 120.978 49.5846 120.596 49.5846 120.128C49.5846 119.661 49.9669 119.278 50.4342 119.278H79.7715C80.2388 119.278 80.6211 119.661 80.6211 120.128Z" fill="#50AA57"/>
<path d="M80.6211 130.24C80.6211 130.707 80.2388 131.09 79.7715 131.09H50.4342C49.9669 131.09 49.5846 130.707 49.5846 130.24C49.5846 129.772 49.9669 129.39 50.4342 129.39H79.7715C80.2388 129.39 80.6211 129.772 80.6211 130.24Z" fill="#50AA57"/>
<path d="M73.1782 110.716C73.1782 111.184 72.8006 111.562 72.3286 111.562H50.4342C49.9669 111.562 49.5846 111.184 49.5846 110.716C49.5846 110.471 49.6885 110.249 49.8584 110.098C50.0094 109.951 50.2124 109.866 50.4342 109.866H72.3286C72.5505 109.866 72.7534 109.951 72.9044 110.098C73.0743 110.249 73.1782 110.471 73.1782 110.716Z" fill="#50AA57"/>
<path d="M58.8965 54.9375H55.135C54.8895 54.9375 54.6583 54.8289 54.4931 54.6447L49.3864 48.7745C49.0796 48.4203 49.1174 47.8866 49.4714 47.5796C49.8254 47.2727 50.3587 47.3105 50.6654 47.6646L55.5172 53.2421H58.8918C59.359 53.2421 59.7413 53.6199 59.7413 54.0921C59.7413 54.5644 59.3638 54.9422 58.8918 54.9422L58.8965 54.9375Z" fill="#50AA57"/>
<path d="M24.6035 54.9371H20.842C20.3747 54.9371 19.9924 54.5592 19.9924 54.087C19.9924 53.6147 20.37 53.2369 20.842 53.2369H24.2165L28.8984 47.8531C29.2052 47.4989 29.7432 47.4611 30.0925 47.7681C30.4465 48.0751 30.4842 48.6135 30.1774 48.9629L25.2407 54.6395C25.0802 54.8237 24.8442 54.9323 24.5988 54.9323L24.6035 54.9371Z" fill="#50AA57"/>
<path d="M19.714 63.0654H1.97753C0.887294 63.0654 0 62.1775 0 61.0866V42.7014C0 41.6105 0.887294 40.7227 1.97753 40.7227H10.8458C11.313 40.7227 11.6953 41.1005 11.6953 41.5727C11.6953 42.045 11.3177 42.4228 10.8458 42.4228H1.97753C1.82179 42.4228 1.69907 42.5503 1.69907 42.7014V61.0866C1.69907 61.2424 1.82179 61.3652 1.97753 61.3652H19.714C19.8697 61.3652 19.9924 61.2377 19.9924 61.0866V51.8917C19.9924 51.4241 20.37 51.0416 20.842 51.0416C21.3139 51.0416 21.6915 51.4194 21.6915 51.8917V61.0866C21.6915 62.1775 20.8042 63.0654 19.714 63.0654Z" fill="#50AA57"/>
<path d="M20.842 52.7465H11.6151C10.723 52.7465 10.0009 52.0192 10.0009 51.1313V41.5775C10.0009 41.2327 10.2086 40.921 10.5295 40.7888C10.8505 40.6566 11.2186 40.7368 11.4546 40.9824L21.4508 51.3061C21.6868 51.5516 21.7576 51.9153 21.6207 52.227C21.4886 52.5387 21.1818 52.7465 20.842 52.7465ZM11.6953 51.051H18.8408L11.6953 43.6696V51.051Z" fill="#50AA57"/>
<path d="M39.4657 64.0802C38.9985 64.0802 38.6162 63.7024 38.6162 63.2301V47.3149C38.6162 46.8474 38.9937 46.4648 39.4657 46.4648C39.9377 46.4648 40.3152 46.8427 40.3152 47.3149V63.2301C40.3152 63.6977 39.9377 64.0802 39.4657 64.0802Z" fill="#50AA57"/>
<path d="M51.0477 84.7226H33.3113C32.2211 84.7226 31.3338 83.8347 31.3338 82.7438V64.3587C31.3338 63.2677 32.2211 62.3799 33.3113 62.3799H42.1795C42.6468 62.3799 43.029 62.7577 43.029 63.2299C43.029 63.7022 42.6515 64.08 42.1795 64.08H33.3113C33.1555 64.08 33.0328 64.2075 33.0328 64.3587V82.7438C33.0328 82.8997 33.1603 83.0224 33.3113 83.0224H51.0477C51.2035 83.0224 51.3262 82.8949 51.3262 82.7438V73.5489C51.3262 73.0813 51.7038 72.6988 52.1757 72.6988C52.6477 72.6988 53.0253 73.0766 53.0253 73.5489V82.7438C53.0253 83.8347 52.138 84.7226 51.0477 84.7226Z" fill="#50AA57"/>
<path d="M52.1757 74.399H42.9488C42.0568 74.399 41.3347 73.6717 41.3347 72.7838V63.23C41.3347 62.8852 41.5424 62.5735 41.8633 62.446C42.1842 62.3138 42.5524 62.3941 42.7884 62.6396L52.7846 72.9633C53.0206 73.2089 53.0913 73.5725 52.9545 73.8842C52.8223 74.1959 52.5156 74.4037 52.1757 74.4037V74.399ZM43.0291 72.7036H50.1746L43.0291 65.3221V72.7036Z" fill="#50AA57"/>
<path d="M77.7893 63.0654H60.0528C58.9626 63.0654 58.0753 62.1775 58.0753 61.0866V42.7014C58.0753 41.6105 58.9626 40.7227 60.0528 40.7227H68.9211C69.3883 40.7227 69.7706 41.1005 69.7706 41.5727C69.7706 42.045 69.393 42.4228 68.9211 42.4228H60.0528C59.8971 42.4228 59.7744 42.5503 59.7744 42.7014V61.0866C59.7744 61.2424 59.9018 61.3652 60.0528 61.3652H77.7893C77.945 61.3652 78.0677 61.2377 78.0677 61.0866V51.8917C78.0677 51.4241 78.4453 51.0416 78.9173 51.0416C79.3892 51.0416 79.7668 51.4194 79.7668 51.8917V61.0866C79.7668 62.1775 78.8795 63.0654 77.7893 63.0654Z" fill="#50AA57"/>
<path d="M78.9173 52.7414H69.6904C68.7983 52.7414 68.0762 52.0142 68.0762 51.1263V41.5724C68.0762 41.2277 68.2839 40.916 68.6048 40.7838C68.9258 40.6563 69.2939 40.7318 69.5299 40.9774L79.5261 51.301C79.7621 51.5466 79.8329 51.9103 79.696 52.222C79.5639 52.5336 79.2571 52.7414 78.9173 52.7414ZM69.7706 51.046H76.9161L69.7706 43.6646V51.046Z" fill="#50AA57"/>
<path d="M41.868 43.905H37.0634C35.8457 43.905 34.8499 42.9132 34.8499 41.6901V39.7207C33.1886 39.324 31.6972 38.6912 30.0595 37.6853L28.7049 39.0973C28.2896 39.5318 27.7327 39.7727 27.1333 39.7774C27.1238 39.7774 27.1191 39.7774 27.1097 39.7774C26.5197 39.7774 25.9628 39.546 25.5427 39.1257L22.5646 36.141C21.7057 35.2815 21.7057 33.8789 22.5646 33.0193L24.0325 31.5412C23.0649 29.9591 22.3806 28.3203 21.9558 26.5635H19.7329C18.5152 26.5635 17.5193 25.5718 17.5193 24.3486V20.2919C17.5193 19.0734 18.5105 18.077 19.7329 18.077H21.9181C22.3381 16.2729 23.0083 14.6106 23.9617 13.0285L22.5175 11.5645C21.6679 10.705 21.6726 9.30707 22.5222 8.45227L25.4861 5.46758C25.9062 5.04726 26.4584 4.81585 27.053 4.81585C27.053 4.81585 27.0578 4.81585 27.0625 4.81585C27.6571 4.81585 28.2141 5.05199 28.6341 5.48174L29.9556 6.83241C31.5886 5.81705 33.1414 5.15588 34.8405 4.74502V2.95514C34.8405 1.73671 35.8316 0.740234 37.054 0.740234H41.8586C43.0762 0.740234 44.0721 1.73198 44.0721 2.95514V4.80169C45.3936 5.222 47.3003 5.91622 48.8861 6.84186L50.1085 5.54314C50.5239 5.10393 51.0855 4.85836 51.6849 4.84891C52.3032 4.83947 52.8554 5.07088 53.2801 5.50063L56.2488 8.48061C57.103 9.34012 57.1078 10.738 56.2535 11.6023L54.8329 13.0379C55.7957 14.6342 56.4753 16.2965 56.8907 18.0864H59.1797C60.3974 18.0864 61.3932 19.0782 61.3932 20.3013V24.3581C61.3932 25.5765 60.4021 26.573 59.1844 26.573H56.8623C56.4376 28.3487 55.7627 29.9874 54.8093 31.5506L56.2771 33.0288C57.1314 33.893 57.1314 35.2909 56.2771 36.1504L53.299 39.1351C52.8742 39.5602 52.3079 39.7868 51.7132 39.7821C51.1138 39.7774 50.5569 39.5365 50.1416 39.1021L48.7917 37.6947C47.2248 38.5967 45.3653 39.2674 44.0768 39.6688V41.6901C44.0768 42.9085 43.0857 43.905 41.8633 43.905H41.868ZM29.932 35.7537C30.0925 35.7537 30.253 35.801 30.3945 35.8907C32.306 37.1422 33.939 37.8317 35.8599 38.2048C36.2564 38.2803 36.5443 38.6298 36.5443 39.036V41.6901C36.5443 41.9734 36.7755 42.2048 37.0587 42.2048H41.8633C42.1465 42.2048 42.3777 41.9734 42.3777 41.6901V39.036C42.3777 38.6581 42.6279 38.3276 42.9866 38.2237C44.2514 37.8553 46.5877 37.0808 48.3151 35.9993C48.3151 35.9993 48.3198 35.9946 48.3245 35.9899C48.5227 35.801 48.787 35.7254 49.0419 35.7632C49.2826 35.7915 49.5091 35.9237 49.6507 36.141C49.6507 36.1457 49.6554 36.1504 49.6602 36.1552L51.3592 37.9214C51.4583 38.0206 51.5858 38.0773 51.7274 38.082C51.8595 38.082 51.9964 38.03 52.0955 37.9309L55.0736 34.9462C55.2718 34.7478 55.2718 34.4172 55.0736 34.2189L53.1291 32.259C52.8459 31.9756 52.8034 31.527 53.0253 31.1917C54.1816 29.4443 54.9462 27.5978 55.3521 25.5529C55.4323 25.1562 55.7815 24.8728 56.1827 24.8728H59.1844C59.4676 24.8728 59.6989 24.6414 59.6989 24.3581V20.3013C59.6989 20.018 59.4676 19.7866 59.1844 19.7866H56.211C55.8051 19.7866 55.4559 19.4985 55.3804 19.0971C54.9839 17.038 54.2241 15.1726 53.0583 13.3827C52.8412 13.0474 52.8837 12.6035 53.1669 12.3201L55.0594 10.4074C55.2577 10.2044 55.2577 9.8785 55.0594 9.68015L52.0908 6.70018C51.9917 6.601 51.8642 6.54433 51.7179 6.54906C51.5763 6.54906 51.4442 6.61045 51.3498 6.70962L49.6507 8.51367C49.3675 8.81591 48.9097 8.86786 48.5652 8.64118C46.8189 7.48414 44.3175 6.64351 42.9866 6.25153C42.6279 6.14291 42.3777 5.81233 42.3777 5.43924V2.96931C42.3777 2.68595 42.1465 2.45455 41.8633 2.45455H37.0587C36.7755 2.45455 36.5443 2.68595 36.5443 2.96931V5.43924C36.5443 5.84539 36.2564 6.19486 35.8599 6.27042C33.906 6.65768 32.1927 7.38968 30.3096 8.63645C29.9698 8.86314 29.5214 8.81591 29.2335 8.52311L27.4259 6.67657C27.3268 6.57739 27.1993 6.52072 27.0625 6.52072C26.9256 6.52072 26.7935 6.57267 26.6991 6.67184L23.7351 9.65654C23.5369 9.85489 23.5369 10.1807 23.7351 10.3838L25.6466 12.3248C25.925 12.6082 25.9722 13.0521 25.7504 13.3827C24.5988 15.1489 23.8437 17.0144 23.4425 19.0971C23.367 19.4985 23.0177 19.7866 22.6118 19.7866H19.7376C19.4544 19.7866 19.2231 20.018 19.2231 20.3013V24.3581C19.2231 24.6414 19.4544 24.8728 19.7376 24.8728H22.6402C23.0461 24.8728 23.3906 25.1562 23.4708 25.5529C23.872 27.5694 24.6413 29.4113 25.8212 31.1917C26.043 31.527 26.0006 31.9709 25.7174 32.259L23.7729 34.2189C23.5747 34.422 23.5747 34.7478 23.7729 34.9462L26.751 37.9309C26.8501 38.03 26.9822 38.082 27.1191 38.082C27.2607 38.082 27.3881 38.0253 27.4872 37.9214L29.3232 36.0088C29.4884 35.8387 29.7102 35.749 29.9367 35.749L29.932 35.7537Z" fill="#50AA57"/>
<path d="M39.4657 31.509C34.4063 31.509 30.2907 27.3909 30.2907 22.3282C30.2907 17.2656 34.4063 13.1475 39.4657 13.1475C44.5252 13.1475 48.6407 17.2656 48.6407 22.3282C48.6407 27.3909 44.5252 31.509 39.4657 31.509ZM39.4657 14.8429C35.3407 14.8429 31.9851 18.2007 31.9851 22.3282C31.9851 26.4558 35.3407 29.8136 39.4657 29.8136C43.5907 29.8136 46.9464 26.4558 46.9464 22.3282C46.9464 18.2007 43.5907 14.8429 39.4657 14.8429Z" fill="#50AA57"/>
</g>
<defs>
<clipPath id="clip0_696_933">
<rect width="162.62" height="162.246" fill="white" transform="translate(0 0.754883)"/>
</clipPath>
</defs>
</svg>
