<svg width="167" height="158" viewBox="0 0 167 158" fill="none" xmlns="http://www.w3.org/2000/svg">
<g clip-path="url(#clip0_597_386)">
<path d="M155.442 142.201H104.648C102.969 142.201 101.6 140.833 101.6 139.154V109.683C101.6 108.004 102.969 106.636 104.648 106.636H155.442C157.121 106.636 158.49 108.004 158.49 109.683V139.154C158.49 140.833 157.121 142.201 155.442 142.201ZM104.648 108.334C103.903 108.334 103.299 108.938 103.299 109.683V139.154C103.299 139.899 103.903 140.503 104.648 140.503H155.442C156.187 140.503 156.791 139.899 156.791 139.154V109.683C156.791 108.938 156.187 108.334 155.442 108.334H104.648Z" fill="#50AA57"/>
<path d="M156.617 115.929H102.549C102.082 115.929 101.699 115.551 101.699 115.08C101.699 114.608 102.077 114.23 102.549 114.23H156.617C157.084 114.23 157.466 114.608 157.466 115.08C157.466 115.551 157.088 115.929 156.617 115.929Z" fill="#50AA57"/>
<path d="M146.082 138.031H142.134C141.667 138.031 141.285 137.654 141.285 137.182V118.609C141.285 118.142 141.662 117.76 142.134 117.76H146.082C146.549 117.76 146.931 118.137 146.931 118.609V137.182C146.931 137.649 146.554 138.031 146.082 138.031ZM142.983 136.338H145.233V119.458H142.983V136.338Z" fill="#50AA57"/>
<path d="M136.869 138.031H132.92C132.453 138.031 132.071 137.653 132.071 137.182V123.505C132.071 123.038 132.449 122.656 132.92 122.656H136.869C137.336 122.656 137.718 123.034 137.718 123.505V137.182C137.718 137.649 137.341 138.031 136.869 138.031ZM133.769 136.337H136.02V124.355H133.769V136.337Z" fill="#50AA57"/>
<path d="M127.726 138.031H123.778C123.311 138.031 122.928 137.653 122.928 137.182V129.53C122.928 129.063 123.306 128.681 123.778 128.681H127.726C128.193 128.681 128.575 129.058 128.575 129.53V137.182C128.575 137.649 128.198 138.031 127.726 138.031ZM124.627 136.337H126.877V130.384H124.627V136.337Z" fill="#50AA57"/>
<path d="M115.942 127.822C115.772 127.822 115.597 127.77 115.451 127.662L110.351 124.006C109.969 123.732 109.884 123.204 110.158 122.821C110.432 122.439 110.96 122.354 111.342 122.628L116.442 126.284C116.824 126.558 116.909 127.086 116.635 127.468C116.47 127.699 116.211 127.822 115.946 127.822H115.942Z" fill="#50AA57"/>
<path d="M111.187 133.893C110.927 133.893 110.677 133.775 110.507 133.554C110.224 133.181 110.3 132.648 110.677 132.365L115.781 128.52C116.154 128.237 116.687 128.312 116.97 128.69C117.253 129.062 117.178 129.595 116.805 129.879L111.701 133.723C111.55 133.837 111.371 133.893 111.191 133.893H111.187Z" fill="#50AA57"/>
<path d="M114.644 127.893C114.644 129.383 115.866 130.596 117.371 130.596C118.876 130.596 120.098 129.388 120.098 127.893C120.098 126.397 118.876 125.189 117.371 125.189C115.866 125.189 114.644 126.397 114.644 127.893Z" fill="#50AA57"/>
<path d="M117.371 131.445C115.399 131.445 113.8 129.85 113.8 127.897C113.8 125.944 115.404 124.35 117.371 124.35C119.338 124.35 120.942 125.944 120.942 127.897C120.942 129.85 119.338 131.445 117.371 131.445ZM117.371 126.043C116.333 126.043 115.494 126.874 115.494 127.897C115.494 128.921 116.338 129.751 117.371 129.751C118.404 129.751 119.249 128.921 119.249 127.897C119.249 126.874 118.404 126.043 117.371 126.043Z" fill="#50AA57"/>
<path d="M106.757 122.303C106.757 123.794 107.979 125.006 109.483 125.006C110.988 125.006 112.21 123.798 112.21 122.303C112.21 120.807 110.988 119.6 109.483 119.6C107.979 119.6 106.757 120.807 106.757 122.303Z" fill="#50AA57"/>
<path d="M109.483 125.85C107.511 125.85 105.912 124.256 105.912 122.302C105.912 120.349 107.516 118.755 109.483 118.755C111.451 118.755 113.055 120.349 113.055 122.302C113.055 124.256 111.451 125.85 109.483 125.85ZM109.483 120.448C108.446 120.448 107.606 121.279 107.606 122.302C107.606 123.326 108.45 124.156 109.483 124.156C110.517 124.156 111.361 123.326 111.361 122.302C111.361 121.279 110.517 120.448 109.483 120.448Z" fill="#50AA57"/>
<path d="M106.757 133.922C106.757 135.413 107.979 136.625 109.483 136.625C110.988 136.625 112.21 135.417 112.21 133.922C112.21 132.426 110.988 131.219 109.483 131.219C107.979 131.219 106.757 132.426 106.757 133.922Z" fill="#50AA57"/>
<path d="M109.483 137.469C107.511 137.469 105.912 135.875 105.912 133.922C105.912 131.969 107.516 130.374 109.483 130.374C111.451 130.374 113.055 131.969 113.055 133.922C113.055 135.875 111.451 137.469 109.483 137.469ZM109.483 132.068C108.446 132.068 107.606 132.898 107.606 133.922C107.606 134.945 108.45 135.776 109.483 135.776C110.517 135.776 111.361 134.945 111.361 133.922C111.361 132.898 110.517 132.068 109.483 132.068Z" fill="#50AA57"/>
<path d="M164.858 67.3288V86.8784C164.674 86.7416 164.453 86.6614 164.207 86.6614H163.16V67.3288C163.16 67.0741 163.018 66.9231 162.957 66.9231H134.383C134.142 66.9231 133.873 67.2345 133.873 67.6873V86.6614H133.477C132.873 86.6614 132.378 87.1567 132.378 87.7606V88.1002C132.25 87.954 132.18 87.7653 132.18 87.5624V67.6873C132.18 66.3287 133.166 65.2295 134.383 65.2295H162.957C164.004 65.2295 164.858 66.1683 164.858 67.3288Z" fill="#50AA57"/>
<path d="M164.858 85.048C164.651 84.9961 164.434 84.9678 164.207 84.9678H153.88C153.413 84.9678 153.031 85.3452 153.031 85.8122V86.9397H144.658V85.8122C144.658 85.3452 144.276 84.9678 143.808 84.9678H133.477C133.01 84.9678 132.567 85.081 132.18 85.2886C131.293 85.7556 130.684 86.685 130.684 87.7606V88.822C130.684 90.3647 131.939 91.6195 133.477 91.6195H164.207C165.745 91.6195 167 90.3647 167 88.822V87.7606C167 86.4444 166.085 85.3405 164.858 85.048ZM165.306 88.822C165.306 89.4306 164.811 89.9259 164.207 89.9259H133.477C132.873 89.9259 132.378 89.4306 132.378 88.822V87.7606C132.378 87.1567 132.873 86.6614 133.477 86.6614H142.959V87.7842C142.959 88.2559 143.341 88.6333 143.808 88.6333H153.88C154.348 88.6333 154.73 88.2559 154.73 87.7842V86.6614H164.207C164.453 86.6614 164.674 86.7416 164.858 86.8784C165.132 87.0765 165.306 87.402 165.306 87.7606V88.822Z" fill="#50AA57"/>
<path d="M158.197 80.7507H137.671C137.204 80.7507 136.822 80.3733 136.822 79.9015C136.822 79.4297 137.199 79.0523 137.671 79.0523H157.353L157.39 72.6648C157.39 72.1977 157.772 71.8203 158.24 71.8203H158.244C158.711 71.8203 159.089 72.2024 159.089 72.6742L159.046 79.9062C159.046 80.3733 158.664 80.7507 158.197 80.7507Z" fill="#50AA57"/>
<path d="M149.201 80.7507C148.734 80.7507 148.351 80.3733 148.351 79.9016V71.8912C148.351 71.4241 148.729 71.042 149.201 71.042C149.672 71.042 150.05 71.4194 150.05 71.8912V79.9016C150.05 80.3686 149.672 80.7507 149.201 80.7507Z" fill="#50AA57"/>
<path d="M140.549 80.7502C140.082 80.7502 139.699 80.3728 139.699 79.901V75.7496C139.699 75.2825 140.077 74.9004 140.549 74.9004C141.02 74.9004 141.398 75.2778 141.398 75.7496V79.901C141.398 80.368 141.02 80.7502 140.549 80.7502Z" fill="#50AA57"/>
<path d="M130.642 108.334C130.175 108.334 129.793 107.957 129.793 107.485V98.7671C129.793 98.3001 130.17 97.918 130.642 97.918C131.114 97.918 131.491 98.2954 131.491 98.7671V107.485C131.491 107.952 131.114 108.334 130.642 108.334Z" fill="#50AA57"/>
<path d="M149.474 99.6155H110.71C110.243 99.6155 109.861 99.2381 109.861 98.7663V90.7701C109.861 90.303 110.238 89.9209 110.71 89.9209C111.182 89.9209 111.559 90.2983 111.559 90.7701V97.9172H148.63V90.7701C148.63 90.303 149.007 89.9209 149.479 89.9209C149.951 89.9209 150.328 90.2983 150.328 90.7701V98.7663C150.328 99.2334 149.951 99.6155 149.479 99.6155H149.474Z" fill="#50AA57"/>
<path d="M126.721 67.3288V86.8737C126.537 86.7416 126.316 86.6614 126.07 86.6614H125.028V67.3288C125.028 67.0741 124.886 66.9231 124.825 66.9231H96.246C96.0054 66.9231 95.7412 67.2345 95.7412 67.6873V86.6614H95.3449C94.7363 86.6614 94.2457 87.1567 94.2457 87.7606V88.105C94.1183 87.9587 94.0428 87.77 94.0428 87.5624V67.6873C94.0428 66.3287 95.0335 65.2295 96.246 65.2295H124.825C125.872 65.2295 126.721 66.1683 126.721 67.3288Z" fill="#50AA57"/>
<path d="M126.721 85.048C126.514 84.9961 126.297 84.9678 126.07 84.9678H115.748C115.277 84.9678 114.899 85.3452 114.899 85.8122V86.9397H106.521V85.8122C106.521 85.3452 106.143 84.9678 105.676 84.9678H95.3449C94.8731 84.9678 94.4297 85.081 94.0428 85.2886C93.1559 85.7556 92.5474 86.685 92.5474 87.7606V88.822C92.5474 90.3647 93.8022 91.6195 95.3449 91.6195H126.07C127.613 91.6195 128.863 90.3647 128.863 88.822V87.7606C128.863 86.4444 127.953 85.3405 126.721 85.048ZM127.17 88.822C127.17 89.4306 126.679 89.9259 126.07 89.9259H95.3449C94.7363 89.9259 94.2457 89.4306 94.2457 88.822V87.7606C94.2457 87.1567 94.7363 86.6614 95.3449 86.6614H104.827V87.7842C104.827 88.2559 105.205 88.6333 105.676 88.6333H115.748C116.215 88.6333 116.593 88.2559 116.593 87.7842V86.6614H126.07C126.316 86.6614 126.537 86.7416 126.721 86.8737C126.99 87.0765 127.17 87.3973 127.17 87.7606V88.822Z" fill="#50AA57"/>
<path d="M120.06 81.2879H99.5341C99.0671 81.2879 98.6849 80.9105 98.6849 80.4387C98.6849 79.967 99.0623 79.5896 99.5341 79.5896H119.216L119.258 71.5886C119.258 71.1215 119.64 70.7441 120.107 70.7441C120.574 70.7441 120.952 71.1263 120.952 71.598L120.905 80.4434C120.905 80.9105 120.523 81.2879 120.055 81.2879H120.06Z" fill="#50AA57"/>
<path d="M110.521 80.75C110.054 80.75 109.672 80.3726 109.672 79.9009V71.1734C109.672 70.7063 110.05 70.3242 110.521 70.3242C110.993 70.3242 111.37 70.7016 111.37 71.1734V79.9009C111.37 80.3679 110.993 80.75 110.521 80.75Z" fill="#50AA57"/>
<path d="M102.412 80.7507C101.945 80.7507 101.563 80.3733 101.563 79.9015V73.0611C101.563 72.594 101.94 72.2119 102.412 72.2119C102.884 72.2119 103.261 72.5893 103.261 73.0611V79.9015C103.261 80.3686 102.884 80.7507 102.412 80.7507Z" fill="#50AA57"/>
<path d="M36.347 102.111C36.347 101.644 36.7245 101.267 37.1962 101.267H51.6036C51.2451 101.814 50.9102 102.375 50.6082 102.96H37.1962C36.7245 102.96 36.347 102.583 36.347 102.111Z" fill="#50AA57"/>
<path d="M68.0633 130.086V140.913C68.0633 144.645 65.0251 147.683 61.2888 147.683H42.4705V150.91H46.754C47.891 150.91 48.8203 151.834 48.8203 152.971V155.934C48.8203 157.071 47.891 158 46.754 158H21.5717C20.43 158 19.5054 157.071 19.5054 155.934V152.971C19.5054 151.834 20.43 150.91 21.5717 150.91H25.8552V147.683H7.03687C3.30056 147.683 0.262451 144.645 0.262451 140.913V108.036C0.262451 104.305 3.30056 101.267 7.03687 101.267H30.7756C31.2474 101.267 31.6248 101.644 31.6248 102.111C31.6248 102.578 31.2474 102.96 30.7756 102.96H7.03687C4.23464 102.96 1.95606 105.239 1.95606 108.036V140.913C1.95606 143.711 4.23464 145.989 7.03687 145.989H26.7044C27.1714 145.989 27.5535 146.371 27.5535 146.838V151.754C27.5535 152.221 27.1714 152.603 26.7044 152.603H21.5717C21.3688 152.603 21.199 152.768 21.199 152.971V155.934C21.199 156.137 21.3688 156.306 21.5717 156.306H46.754C46.9569 156.306 47.1267 156.137 47.1267 155.934V152.971C47.1267 152.768 46.9569 152.603 46.754 152.603H41.6213C41.1543 152.603 40.7722 152.221 40.7722 151.754V146.838C40.7722 146.371 41.1543 145.989 41.6213 145.989H61.2888C64.0911 145.989 66.3697 143.711 66.3697 140.913V130.091C66.6291 130.105 66.8886 130.11 67.1528 130.11C67.4594 130.11 67.7613 130.1 68.0633 130.086Z" fill="#50AA57"/>
<path d="M53.9625 143.801C50.4668 143.801 47.6221 140.956 47.6221 137.461C47.6221 133.965 50.4668 131.12 53.9625 131.12C57.4582 131.12 60.3029 133.965 60.3029 137.461C60.3029 140.956 57.4582 143.801 53.9625 143.801ZM53.9625 132.818C51.4008 132.818 49.3204 134.904 49.3204 137.461C49.3204 140.017 51.4056 142.103 53.9625 142.103C56.5194 142.103 58.6046 140.017 58.6046 137.461C58.6046 134.904 56.5194 132.818 53.9625 132.818Z" fill="#50AA57"/>
<path d="M21.6141 142.102H7.11231C5.97538 142.102 5.04602 141.178 5.04602 140.036V134.715C5.04602 133.578 5.97066 132.648 7.11231 132.648H21.6141C22.751 132.648 23.6804 133.573 23.6804 134.715V140.036C23.6804 141.173 22.7558 142.102 21.6141 142.102ZM7.11231 134.342C6.90946 134.342 6.73963 134.507 6.73963 134.715V140.036C6.73963 140.239 6.90474 140.409 7.11231 140.409H21.6141C21.817 140.409 21.9868 140.244 21.9868 140.036V134.715C21.9868 134.512 21.8217 134.342 21.6141 134.342H7.11231Z" fill="#50AA57"/>
<path d="M34.2384 118.108C34.078 118.108 33.9129 118.061 33.7713 117.967L24.841 112.07C24.6051 111.914 24.4589 111.645 24.4589 111.362C24.4589 111.079 24.6004 110.81 24.841 110.655L33.7713 104.758C34.0544 104.569 34.4224 104.569 34.7054 104.758L43.6358 110.655C43.8716 110.81 44.0179 111.079 44.0179 111.362C44.0179 111.645 43.8764 111.914 43.6358 112.07L34.7054 117.967C34.5639 118.061 34.4035 118.108 34.2384 118.108ZM26.8459 111.362L34.2384 116.245L41.6308 111.362L34.2384 106.48L26.8459 111.362Z" fill="#50AA57"/>
<path d="M34.2383 106.32C33.7713 106.32 33.3892 105.943 33.3892 105.471V99.3521C33.3892 98.8851 33.7666 98.5029 34.2383 98.5029C34.7101 98.5029 35.0875 98.8803 35.0875 99.3521V105.471C35.0875 105.938 34.7101 106.32 34.2383 106.32Z" fill="#50AA57"/>
<path d="M47.9051 138.22H22.8312C22.3642 138.22 21.9821 137.842 21.9821 137.371C21.9821 136.899 22.3595 136.521 22.8312 136.521H47.9051C48.3721 136.521 48.7542 136.899 48.7542 137.371C48.7542 137.842 48.3768 138.22 47.9051 138.22Z" fill="#50AA57"/>
<path d="M44.6028 141.551C44.3858 141.551 44.1688 141.466 44.0037 141.301C43.6735 140.97 43.6735 140.433 44.0037 140.102L46.7022 137.404L43.9424 134.644C43.6121 134.314 43.6121 133.776 43.9424 133.446C44.2726 133.116 44.8104 133.116 45.1406 133.446L48.4995 136.805C48.6599 136.965 48.7496 137.178 48.7496 137.404C48.7496 137.63 48.6599 137.843 48.4995 138.003L45.1972 141.305C45.0321 141.47 44.8151 141.555 44.5981 141.555L44.6028 141.551Z" fill="#50AA57"/>
<path d="M21.6141 128.752H7.11231C5.97538 128.752 5.04602 127.827 5.04602 126.686V121.364C5.04602 120.227 5.97066 119.298 7.11231 119.298H21.6141C22.751 119.298 23.6804 120.222 23.6804 121.364V126.686C23.6804 127.822 22.7558 128.752 21.6141 128.752ZM7.11231 120.991C6.90946 120.991 6.73963 121.157 6.73963 121.364V126.686C6.73963 126.888 6.90474 127.058 7.11231 127.058H21.6141C21.817 127.058 21.9868 126.893 21.9868 126.686V121.364C21.9868 121.161 21.8217 120.991 21.6141 120.991H7.11231Z" fill="#50AA57"/>
<path d="M14.3586 120.992C13.8915 120.992 13.5094 120.614 13.5094 120.142V111.368C13.5094 110.901 13.8868 110.519 14.3586 110.519H25.3033C25.7703 110.519 26.1525 110.896 26.1525 111.368C26.1525 111.839 25.7751 112.217 25.3033 112.217H15.2077V120.147C15.2077 120.614 14.8303 120.996 14.3586 120.996V120.992Z" fill="#50AA57"/>
<path d="M14.3915 120.991C14.1651 120.991 13.9528 120.902 13.7924 120.741L10.4335 117.382C10.1032 117.052 10.1032 116.514 10.4335 116.184C10.7637 115.854 11.3015 115.854 11.6317 116.184L14.3915 118.944L17.0899 116.246C17.4202 115.915 17.958 115.915 18.2882 116.246C18.6184 116.576 18.6184 117.114 18.2882 117.444L14.9859 120.746C14.8255 120.906 14.6132 120.996 14.3868 120.996L14.3915 120.991Z" fill="#50AA57"/>
<path d="M14.3632 134.337C13.8962 134.337 13.514 133.959 13.514 133.487V127.902C13.514 127.435 13.8914 127.053 14.3632 127.053C14.835 127.053 15.2124 127.43 15.2124 127.902V133.487C15.2124 133.955 14.835 134.337 14.3632 134.337Z" fill="#50AA57"/>
<path d="M34.2383 100.201C30.7426 100.201 27.8979 97.3558 27.8979 93.8648C27.8979 90.3738 30.7426 87.5244 34.2383 87.5244C37.7341 87.5244 40.5788 90.3691 40.5788 93.8648C40.5788 97.3605 37.7341 100.201 34.2383 100.201ZM34.2383 89.218C31.6767 89.218 29.5963 91.3032 29.5963 93.8601C29.5963 96.417 31.6814 98.5022 34.2383 98.5022C36.7953 98.5022 38.8804 96.417 38.8804 93.8601C38.8804 91.3032 36.7953 89.218 34.2383 89.218Z" fill="#50AA57"/>
<path d="M67.1527 91.1855C59.6801 91.1855 53.1369 95.2426 49.6128 101.267C49.292 101.814 48.9948 102.38 48.7259 102.961C47.5182 105.555 46.8436 108.447 46.8436 111.495C46.8436 122.43 55.5334 131.374 66.3696 131.79C66.6291 131.799 66.8885 131.804 67.1527 131.804C67.4594 131.804 67.7613 131.799 68.0632 131.78C78.8429 131.304 87.4618 122.388 87.4618 111.495C87.4618 100.602 78.3522 91.1855 67.1527 91.1855ZM68.0632 130.087C67.7613 130.101 67.4594 130.11 67.1527 130.11C66.8885 130.11 66.6291 130.105 66.3696 130.091C56.4675 129.681 48.5372 121.496 48.5372 111.495C48.5372 108.419 49.2873 105.518 50.6082 102.961C50.9102 102.376 51.2451 101.814 51.6037 101.267C54.9342 96.2192 60.6614 92.8791 67.1527 92.8791C77.4181 92.8791 85.7682 101.229 85.7682 111.495C85.7682 121.76 77.9088 129.61 68.0632 130.087Z" fill="#50AA57"/>
<path d="M80.428 119.948C80.2865 119.948 80.1403 119.911 80.0082 119.835C79.6025 119.604 79.4609 119.085 79.6968 118.679C80.947 116.505 81.6121 114.018 81.6121 111.499C81.6121 108.673 80.7913 105.932 79.2392 103.574C78.9797 103.182 79.0882 102.658 79.4798 102.399C79.8714 102.14 80.395 102.248 80.6545 102.64C82.3905 105.272 83.3057 108.338 83.3057 111.494C83.3057 114.311 82.5651 117.085 81.1687 119.519C81.013 119.793 80.7252 119.944 80.4328 119.944L80.428 119.948Z" fill="#50AA57"/>
<path d="M67.1527 127.648C58.246 127.648 51.0045 120.402 51.0045 111.5C51.0045 102.598 58.2507 95.3516 67.1527 95.3516C67.6198 95.3516 68.0019 95.729 68.0019 96.2007V111.151L78.5739 121.723C78.7343 121.883 78.824 122.095 78.824 122.322C78.824 122.548 78.7343 122.761 78.5739 122.921C75.5689 125.926 71.4033 127.653 67.1527 127.653V127.648ZM66.3036 97.0688C58.7272 97.5075 52.6981 103.815 52.6981 111.5C52.6981 119.185 59.1848 125.954 67.1527 125.954C70.6767 125.954 74.13 124.633 76.7577 122.303L66.5536 112.099C66.3932 111.939 66.3036 111.726 66.3036 111.5V97.0688Z" fill="#50AA57"/>
<path d="M67.1527 127.643C66.6857 127.643 66.3036 127.266 66.3036 126.794V123.048C66.3036 122.581 66.681 122.199 67.1527 122.199C67.6245 122.199 68.0019 122.577 68.0019 123.048V126.794C68.0019 127.261 67.6245 127.643 67.1527 127.643Z" fill="#50AA57"/>
<path d="M55.5994 112.344H51.8537C51.3866 112.344 51.0045 111.966 51.0045 111.495C51.0045 111.023 51.3819 110.646 51.8537 110.646H55.5994C56.0665 110.646 56.4486 111.023 56.4486 111.495C56.4486 111.966 56.0712 112.344 55.5994 112.344Z" fill="#50AA57"/>
<path d="M21.6567 40.7971C21.4302 40.7971 21.2179 40.7075 21.0575 40.5471C20.8971 40.3867 20.8075 40.1744 20.8075 39.948C20.8075 22.8185 34.7432 8.88281 51.8726 8.88281C52.3397 8.88281 52.7218 9.26022 52.7218 9.73197V19.9361C52.7218 20.4031 52.3444 20.7852 51.8726 20.7852C41.3053 20.7852 32.7052 29.3853 32.7052 39.9527C32.7052 40.4197 32.3278 40.8018 31.856 40.8018H21.6519L21.6567 40.7971ZM51.0282 10.5906C35.5074 11.034 22.9587 23.578 22.5153 39.1035H31.0305C31.4645 28.272 40.1967 19.5398 51.0282 19.1058V10.5953V10.5906Z" fill="#50AA57"/>
<path d="M51.8773 78.1038C34.7478 78.1038 20.8121 64.1681 20.8121 47.0386C20.8121 46.5716 21.1895 46.1895 21.6613 46.1895H31.8654C32.3324 46.1895 32.7145 46.5669 32.7145 47.0386C32.7145 57.606 41.3147 66.2061 51.882 66.2061C52.349 66.2061 52.7312 66.5835 52.7312 67.0552V77.2593C52.7312 77.7264 52.3538 78.1085 51.882 78.1085L51.8773 78.1038ZM22.5199 47.8878C22.9633 63.4086 35.5073 75.9573 51.0328 76.4007V67.8902C40.2013 67.4562 31.4691 58.724 31.0351 47.8925H22.5199V47.8878Z" fill="#50AA57"/>
<path d="M58.9631 78.1036C58.496 78.1036 58.1139 77.7262 58.1139 77.2544V67.0503C58.1139 66.5833 58.4913 66.2012 58.9631 66.2012C69.5304 66.2012 78.1305 57.6011 78.1305 47.0337C78.1305 46.5667 78.5079 46.1846 78.9797 46.1846H89.1838C89.6508 46.1846 90.0329 46.562 90.0329 47.0337C90.0329 64.1632 76.0972 78.0989 58.9678 78.0989L58.9631 78.1036ZM59.8122 67.8854V76.3958C75.333 75.9524 87.8817 63.4084 88.3252 47.8829H79.81C79.3759 58.7144 70.6437 67.4466 59.8122 67.8806V67.8854Z" fill="#50AA57"/>
<path d="M95.9158 39.8349H83.3199C82.8528 39.8349 82.4707 39.4575 82.4707 38.9857C82.4707 25.8284 71.7666 15.1196 58.6093 15.1196C58.1423 15.1196 57.7601 14.7422 57.7601 14.2704V1.67924C57.7601 1.2122 58.1375 0.830078 58.6093 0.830078C79.6496 0.830078 96.7649 17.9454 96.7649 38.9857C96.7649 39.4528 96.3875 39.8349 95.9158 39.8349ZM84.1502 38.1413H95.0572C94.6137 18.7096 78.8854 2.986 59.4537 2.53784V13.4448C72.8752 13.8836 83.7114 24.7198 84.1502 38.1413Z" fill="#50AA57"/>
<path d="M76.1492 22.2907C75.9322 22.2907 75.7152 22.2058 75.55 22.0407C75.2198 21.7105 75.2198 21.1727 75.55 20.8425L84.3908 12.0065C84.721 11.6762 85.2588 11.6762 85.589 12.0065C85.9192 12.3367 85.9192 12.8745 85.589 13.2047L76.7483 22.0407C76.5832 22.2058 76.3662 22.2907 76.1492 22.2907Z" fill="#50AA57"/>
<path d="M80.1827 27.2199C79.8714 27.2199 79.5742 27.05 79.4232 26.7528C79.2156 26.333 79.3855 25.8235 79.8053 25.6159L90.6368 20.2096C91.0567 20.002 91.5662 20.1718 91.7738 20.5917C91.9813 21.0116 91.8115 21.5211 91.3916 21.7286L80.5601 27.135C80.4375 27.1963 80.3101 27.2246 80.1827 27.2246V27.2199Z" fill="#50AA57"/>
<path d="M82.6406 33.2731C82.2254 33.2731 81.8622 32.9664 81.8008 32.5466C81.7348 32.0843 82.0556 31.655 82.5226 31.5889L94.8685 29.8387C95.3308 29.7726 95.7601 30.0934 95.8262 30.5605C95.8922 31.0228 95.5714 31.4521 95.1044 31.5181L82.7585 33.2684C82.7161 33.2731 82.6783 33.2778 82.6406 33.2778V33.2731Z" fill="#50AA57"/>
<path d="M71.2051 18.2471C71.0966 18.2471 70.9834 18.2235 70.8749 18.1811C70.4456 17.9971 70.2427 17.5017 70.4267 17.0677L75.2622 5.66066C75.4462 5.23136 75.9416 5.02851 76.3709 5.21249C76.8002 5.39648 77.003 5.89182 76.819 6.32584L71.9835 17.7329C71.8467 18.0537 71.5306 18.2518 71.2051 18.2518V18.2471Z" fill="#50AA57"/>
<path d="M64.6525 15.7708C64.6195 15.7708 64.5912 15.7708 64.5581 15.7661C64.0911 15.7142 63.7561 15.2943 63.8128 14.8273L65.2044 2.41067C65.2563 1.94363 65.6762 1.60868 66.1432 1.66057C66.6103 1.71247 66.9452 2.13233 66.8886 2.59937L65.4969 15.016C65.4497 15.45 65.0818 15.7708 64.6572 15.7708H64.6525Z" fill="#50AA57"/>
<path d="M71.9599 57.9744H67.5726C66.7329 57.9744 66.0488 57.2903 66.0488 56.4553V31.9429C66.0488 31.1032 66.7329 30.4238 67.5726 30.4238H71.9599C72.7997 30.4238 73.479 31.1079 73.479 31.9429V56.4553C73.479 57.2951 72.7949 57.9744 71.9599 57.9744ZM67.7424 56.2808H71.7854V32.1174H67.7424V56.2808Z" fill="#50AA57"/>
<path d="M43.9235 57.9741H39.8475C39.0078 57.9741 38.3285 57.29 38.3285 56.455V43.6987C38.3285 42.859 39.0125 42.1797 39.8475 42.1797H43.9235C44.7632 42.1797 45.4473 42.8637 45.4473 43.6987V56.455C45.4473 57.2948 44.7632 57.9741 43.9235 57.9741ZM40.0221 56.2805H43.749V43.8686H40.0221V56.2805Z" fill="#50AA57"/>
<path d="M57.9441 57.9736H53.4152C52.5755 57.9736 51.8915 57.2895 51.8915 56.4545V36.853C51.8915 36.0133 52.5755 35.334 53.4152 35.334H57.9441C58.7838 35.334 59.4679 36.018 59.4679 36.853V56.4545C59.4679 57.2942 58.7838 57.9736 57.9441 57.9736ZM53.5898 56.28H57.7696V37.0276H53.5898V56.28Z" fill="#50AA57"/>
<path d="M41.8856 35.4661C41.6119 35.4661 41.343 35.3341 41.1779 35.0887C40.9185 34.6972 41.0222 34.1735 41.4138 33.9141L50.6508 27.7529C50.8772 27.602 51.1603 27.5689 51.4103 27.6633L60.0954 30.8429L69.2474 24.545C69.6343 24.2808 70.1626 24.3752 70.4268 24.762C70.691 25.1488 70.5966 25.6772 70.2098 25.9414L60.6992 32.4894C60.4728 32.645 60.185 32.6828 59.9255 32.5884L51.231 29.4088L42.3526 35.3293C42.2064 35.4237 42.046 35.4709 41.8856 35.4709V35.4661Z" fill="#50AA57"/>
<path d="M43.7065 34.6169C43.7065 35.6217 42.8904 36.4379 41.8856 36.4379C40.8807 36.4379 40.0646 35.6217 40.0646 34.6169C40.0646 33.612 40.8807 32.7959 41.8856 32.7959C42.8904 32.7959 43.7065 33.612 43.7065 34.6169Z" fill="#50AA57"/>
<path d="M41.8855 37.2879C40.4136 37.2879 39.2153 36.0896 39.2153 34.6225C39.2153 33.1553 40.4136 31.957 41.8855 31.957C43.3574 31.957 44.5556 33.1553 44.5556 34.6225C44.5556 36.0896 43.3574 37.2879 41.8855 37.2879ZM41.8855 33.6459C41.3477 33.6459 40.9137 34.0799 40.9137 34.6177C40.9137 35.1555 41.3524 35.5896 41.8855 35.5896C42.4186 35.5896 42.8573 35.1555 42.8573 34.6177C42.8573 34.0799 42.4186 33.6459 41.8855 33.6459Z" fill="#50AA57"/>
<path d="M52.9435 28.4606C52.9435 29.4655 52.1273 30.2816 51.1225 30.2816C50.1177 30.2816 49.3015 29.4655 49.3015 28.4606C49.3015 27.4558 50.1177 26.6396 51.1225 26.6396C52.1273 26.6396 52.9435 27.4558 52.9435 28.4606Z" fill="#50AA57"/>
<path d="M51.1225 31.1267C49.6507 31.1267 48.4524 29.9285 48.4524 28.4613C48.4524 26.9942 49.6507 25.7959 51.1225 25.7959C52.5944 25.7959 53.7927 26.9942 53.7927 28.4613C53.7927 29.9285 52.5944 31.1267 51.1225 31.1267ZM51.1225 27.4848C50.5847 27.4848 50.1507 27.9188 50.1507 28.4566C50.1507 28.9944 50.5894 29.4284 51.1225 29.4284C51.6556 29.4284 52.0944 28.9944 52.0944 28.4566C52.0944 27.9188 51.6556 27.4848 51.1225 27.4848Z" fill="#50AA57"/>
<path d="M60.2227 33.6078C61.2284 33.6078 62.0437 32.7925 62.0437 31.7868C62.0437 30.7811 61.2284 29.9658 60.2227 29.9658C59.217 29.9658 58.4017 30.7811 58.4017 31.7868C58.4017 32.7925 59.217 33.6078 60.2227 33.6078Z" fill="#50AA57"/>
<path d="M60.218 34.4568C58.7461 34.4568 57.5479 33.2586 57.5479 31.7914C57.5479 30.3242 58.7461 29.126 60.218 29.126C61.6899 29.126 62.8881 30.3242 62.8881 31.7914C62.8881 33.2586 61.6899 34.4568 60.218 34.4568ZM60.218 30.8149C59.6802 30.8149 59.2462 31.2489 59.2462 31.7867C59.2462 32.3245 59.6849 32.7585 60.218 32.7585C60.7511 32.7585 61.1898 32.3245 61.1898 31.7867C61.1898 31.2489 60.7511 30.8149 60.218 30.8149Z" fill="#50AA57"/>
<path d="M71.5543 25.2438C71.5543 26.2487 70.7382 27.0648 69.7333 27.0648C68.7285 27.0648 67.9124 26.2487 67.9124 25.2438C67.9124 24.239 68.7285 23.4229 69.7333 23.4229C70.7382 23.4229 71.5543 24.239 71.5543 25.2438Z" fill="#50AA57"/>
<path d="M69.7332 27.909C68.2614 27.909 67.0631 26.7107 67.0631 25.2435C67.0631 23.7764 68.2614 22.5781 69.7332 22.5781C71.2051 22.5781 72.4034 23.7764 72.4034 25.2435C72.4034 26.7107 71.2051 27.909 69.7332 27.909ZM69.7332 24.267C69.1954 24.267 68.7614 24.701 68.7614 25.2388C68.7614 25.7766 69.2002 26.2106 69.7332 26.2106C70.2663 26.2106 70.7051 25.7766 70.7051 25.2388C70.7051 24.701 70.2663 24.267 69.7332 24.267Z" fill="#50AA57"/>
</g>
<defs>
<clipPath id="clip0_597_386">
<rect width="166.738" height="157.17" fill="white" transform="translate(0.262451 0.830078)"/>
</clipPath>
</defs>
</svg>
