<svg width="125" height="124" viewBox="0 0 125 124" fill="none" xmlns="http://www.w3.org/2000/svg">
<path d="M11.3164 47.875H106.384C110.546 47.875 113.987 51.316 113.987 55.4772V74.963H106.624C105.317 70.6817 101.396 67.7075 96.6482 67.7075C91.9001 67.7075 87.9789 70.8017 86.6719 74.963H41.6186C40.3116 70.6817 36.3904 67.7075 31.6424 67.7075" stroke="white" stroke-width="4" stroke-linecap="round" stroke-linejoin="round"/>
<path d="M100.33 47.7544H66.2266V24.8143C66.2266 22.3202 68.2405 20.293 70.7479 20.293H82.1512C85.1255 20.293 87.7395 21.9601 89.0466 24.5742L100.33 47.741V47.7544Z" stroke="white" stroke-width="4" stroke-linecap="round" stroke-linejoin="round"/>
<path d="M66.3338 47.875V74.963H41.7399C40.4329 70.6817 36.5117 67.7075 31.7636 67.7075C27.0156 67.7075 23.0944 70.8017 21.7874 74.963H18.8132C14.6519 74.963 11.2109 71.522 11.2109 67.3607V47.875H66.3471H66.3338Z" stroke="white" stroke-width="4" stroke-linecap="round" stroke-linejoin="round"/>
<path d="M59.451 33.9775H39.125V47.6482H59.451V33.9775Z" stroke="white" stroke-width="4" stroke-linecap="round" stroke-linejoin="round"/>
<path d="M59.2109 33.9775L39.125 47.7549" stroke="white" stroke-width="4" stroke-linecap="round" stroke-linejoin="round"/>
<path d="M39.125 33.9775L59.2109 47.7549" stroke="white" stroke-width="4" stroke-linecap="round" stroke-linejoin="round"/>
<path d="M39.1248 33.9775H18.7988V47.6482H39.1248V33.9775Z" stroke="white" stroke-width="4" stroke-linecap="round" stroke-linejoin="round"/>
<path d="M38.8847 33.9775L18.7988 47.7549" stroke="white" stroke-width="4" stroke-linecap="round" stroke-linejoin="round"/>
<path d="M18.7988 33.9775L38.8847 47.7549" stroke="white" stroke-width="4" stroke-linecap="round" stroke-linejoin="round"/>
<path d="M49.2342 20.1865H28.9082V33.8572H49.2342V20.1865Z" stroke="white" stroke-width="4" stroke-linecap="round" stroke-linejoin="round"/>
<path d="M49.1008 20.3066L28.9082 33.9773" stroke="white" stroke-width="4" stroke-linecap="round" stroke-linejoin="round"/>
<path d="M28.9082 20.3066L49.1008 33.9773" stroke="white" stroke-width="4" stroke-linecap="round" stroke-linejoin="round"/>
<path d="M89.5135 40.753H73.002V29.6964C73.002 28.3893 74.0689 27.4424 75.256 27.4424H78.2302C81.2044 27.4424 83.8185 29.1095 85.1255 31.7236L89.5268 40.753H89.5135Z" stroke="white" stroke-width="4" stroke-linecap="round" stroke-linejoin="round"/>
<path d="M42.2195 78.1769C42.2195 83.8852 37.5914 88.6333 31.763 88.6333C25.9347 88.6333 21.3066 84.0052 21.3066 78.1769C21.3066 77.1099 21.4267 76.0429 21.7868 75.0826C23.0938 70.8014 27.015 67.8271 31.763 67.8271C36.5111 67.8271 40.3256 70.9214 41.7393 75.0826C42.0994 76.0296 42.2195 77.0965 42.2195 78.1769Z" stroke="white" stroke-width="4" stroke-linecap="round" stroke-linejoin="round"/>
<path d="M107.212 78.1769C107.212 83.8852 102.584 88.6333 96.7552 88.6333C90.9269 88.6333 86.2988 84.0052 86.2988 78.1769C86.2988 77.1099 86.4189 76.0429 86.779 75.0826C88.086 70.8014 92.0072 67.8271 96.7552 67.8271C101.503 67.8271 105.318 70.9214 106.731 75.0826C106.972 76.0296 107.212 77.0965 107.212 78.1769Z" stroke="white" stroke-width="3" stroke-linecap="round" stroke-linejoin="round"/>
<path d="M96.7556 83.4046C99.643 83.4046 101.984 81.0639 101.984 78.1764C101.984 75.289 99.643 72.9482 96.7556 72.9482C93.8681 72.9482 91.5273 75.289 91.5273 78.1764C91.5273 81.0639 93.8681 83.4046 96.7556 83.4046Z" fill="white"/>
<path d="M35.097 78.1764C35.097 79.9593 33.6517 81.4046 31.8688 81.4046C30.0859 81.4046 28.6406 79.9593 28.6406 78.1764C28.6406 76.3936 30.0859 74.9482 31.8688 74.9482C33.6517 74.9482 35.097 76.3936 35.097 78.1764Z" fill="white" stroke="white" stroke-width="4"/>
<path d="M4.18164 95.6484H121.363" stroke="white" stroke-width="4" stroke-linecap="round" stroke-linejoin="round"/>
<path d="M4.18164 103.731H72.9885" stroke="white" stroke-width="4" stroke-linecap="round" stroke-linejoin="round"/>
<path d="M85.2324 103.731H121.123" stroke="white" stroke-width="4" stroke-linecap="round" stroke-linejoin="round"/>
<path d="M11.6777 55.4766H44.474" stroke="white" stroke-width="4" stroke-linecap="round" stroke-linejoin="round"/>
<path d="M71.8008 55.4766H85.4715" stroke="white" stroke-width="4" stroke-linecap="round" stroke-linejoin="round"/>
</svg>
