<svg width="128" height="128" viewBox="0 0 128 128" fill="none" xmlns="http://www.w3.org/2000/svg">
<path d="M97.8038 77.3874C97.0671 74.8152 95.6855 72.4563 93.7408 70.514C93.339 70.1122 93.1182 69.5789 93.1182 69.0134V22.8518C93.1182 20.0191 92.0144 17.3477 90.0102 15.341C88.006 13.3368 85.3419 12.2329 82.5117 12.2305C79.6815 12.2305 77.0175 13.3343 75.0133 15.341C73.0115 17.3477 71.9052 20.0167 71.9052 22.8518V69.0109C71.9052 69.5764 71.6845 70.1122 71.2826 70.5116C69.271 72.5183 67.8646 74.9665 67.1477 77.6404C66.788 78.9799 66.602 80.3689 66.602 81.7903C66.602 81.8845 66.602 81.9812 66.602 82.0755V82.0829C66.6516 84.9677 67.5272 87.6789 68.9981 90.0056C71.7713 94.396 76.6578 97.4271 82.0776 97.7049C86.3242 97.7049 90.7469 96.0579 93.7532 93.0516C94.5519 92.2504 95.2564 91.3773 95.8566 90.4521C97.5186 87.8947 98.4115 84.9132 98.4115 81.7927C98.4115 80.2796 98.2007 78.8013 97.7964 77.3849L97.8038 77.3874ZM82.5117 92.5232C76.6653 92.5232 71.9077 87.7657 71.9077 81.9168C71.9077 80.4508 72.2153 79.022 72.7833 77.7124C73.5101 76.0356 74.6635 74.5522 76.1493 73.4336V22.9436C76.1493 19.4362 79.0043 16.5812 82.5117 16.5812C86.0191 16.5812 88.8741 19.4362 88.8741 22.9436V73.4336C90.856 74.9243 92.25 77.0674 92.8255 79.4561C93.0165 80.2548 93.1157 81.0784 93.1157 81.9168C93.1157 87.7657 88.3582 92.5232 82.5117 92.5232Z" stroke="white" stroke-width="3" stroke-miterlimit="10"/>
<path d="M93.1157 66.5776C94.5842 65.5159 96.3056 64.6602 99.0788 64.6602C106.389 64.6602 106.389 70.5984 113.701 70.5984" stroke="white" stroke-width="3" stroke-miterlimit="10"/>
<path d="M11.3595 64.6602C18.6694 64.6602 18.6694 70.5984 25.9794 70.5984C33.2893 70.5984 33.2893 64.6602 40.5993 64.6602C47.9092 64.6602 47.9092 70.5984 55.2191 70.5984C62.5291 70.5984 62.5291 64.6602 69.8415 64.6602C70.6055 64.6602 71.2901 64.7271 71.9102 64.8437" stroke="white" stroke-width="3" stroke-miterlimit="10"/>
<path d="M97.8038 77.3873C98.2032 77.3451 98.6273 77.3203 99.0813 77.3203C106.391 77.3203 106.391 83.2586 113.704 83.2586" stroke="white" stroke-width="3" stroke-miterlimit="10"/>
<path d="M11.3595 77.3203C18.6694 77.3203 18.6694 83.2586 25.9794 83.2586C33.2893 83.2586 33.2893 77.3203 40.5993 77.3203C47.9092 77.3203 47.9092 83.2586 55.2191 83.2586C61.5047 83.2586 62.3852 78.8731 67.1527 77.6403" stroke="white" stroke-width="3" stroke-miterlimit="10"/>
<path d="M95.8641 90.4542C96.767 90.1591 97.8163 89.9805 99.0813 89.9805C106.391 89.9805 106.391 95.9187 113.704 95.9187" stroke="white" stroke-width="3" stroke-miterlimit="10"/>
<path d="M11.3595 89.9805C18.6694 89.9805 18.6694 95.9187 25.9794 95.9187C33.2893 95.9187 33.2893 89.9805 40.5993 89.9805C47.9092 89.9805 47.9092 95.9187 55.2191 95.9187C62.5291 95.9187 62.5192 90.4394 69.0056 90.0078" stroke="white" stroke-width="3" stroke-miterlimit="10"/>
<path d="M11.3595 102.641C18.6694 102.641 18.6694 108.579 25.9794 108.579C33.2893 108.579 33.2893 102.641 40.5993 102.641C47.9092 102.641 47.9092 108.579 55.2191 108.579C62.5291 108.579 62.5291 102.641 69.839 102.641C77.149 102.641 77.149 108.579 84.4589 108.579C91.7689 108.579 91.7689 102.641 99.0813 102.641C106.394 102.641 106.391 108.579 113.704 108.579" stroke="white" stroke-width="3" stroke-miterlimit="10"/>
<path d="M88.8742 38.4805H76.1494" stroke="white" stroke-width="3" stroke-miterlimit="10"/>
</svg>
