<svg width="134" height="133" viewBox="0 0 134 133" fill="none" xmlns="http://www.w3.org/2000/svg">
<g clip-path="url(#clip0_263_165)">
<path d="M66.88 83.6025L66.6651 83.8174C55.3166 72.3542 55.3166 53.8555 66.7797 42.5069L66.9947 42.292C78.4579 53.7552 78.3432 72.2539 66.88 83.6025Z" stroke="white" stroke-width="4" stroke-linecap="round" stroke-linejoin="round"/>
<path d="M66.765 63.2129L66.6504 103.09" stroke="white" stroke-width="4" stroke-linecap="round" stroke-linejoin="round"/>
<path d="M66.8803 104.094C87.3847 104.094 104.007 87.4716 104.007 66.9672C104.007 46.4629 87.3847 29.8408 66.8803 29.8408C46.376 29.8408 29.7539 46.4629 29.7539 66.9672C29.7539 87.4716 46.376 104.094 66.8803 104.094Z" stroke="white" stroke-width="4" stroke-linecap="round" stroke-linejoin="round"/>
<path d="M48.6965 85.2505C38.6663 75.2202 38.6663 58.8135 48.6965 48.7832" stroke="white" stroke-width="4" stroke-linecap="round" stroke-linejoin="round"/>
<path d="M85.0488 48.7832C95.0791 58.8135 95.0791 75.2202 85.0488 85.2505" stroke="white" stroke-width="4" stroke-linecap="round" stroke-linejoin="round"/>
<path d="M55.861 120.715C30.8569 115.642 12.1289 93.5038 12.1289 66.9521" stroke="white" stroke-width="4" stroke-linecap="round" stroke-linejoin="round"/>
<path d="M21.385 76.1083C20.8405 76.5525 20.0667 76.5525 19.6225 75.9936L13.0169 68.8291C12.5727 68.2846 11.6986 68.2846 11.1398 68.8291L4.53409 75.9936C4.0899 76.5381 3.31613 76.5381 2.77163 76.1083C2.22713 75.6641 2.22713 74.8903 2.657 74.3458L11.1398 65.3185C11.584 64.774 12.458 64.774 13.0169 65.3185L21.4996 74.3458C21.8292 74.8903 21.8292 75.6641 21.385 76.1083Z" stroke="white" stroke-width="3" stroke-linecap="round" stroke-linejoin="round"/>
<path d="M120.958 76.3232C116.659 101.327 95.5097 120.5 69.6172 121.703" stroke="white" stroke-width="4" stroke-linecap="round" stroke-linejoin="round"/>
<path d="M77.3403 111.803C77.8848 112.247 77.8848 113.02 77.455 113.565L70.9496 120.729C70.5054 121.274 70.5054 122.048 71.0642 122.607L78.6586 128.553C79.2031 128.997 79.3177 129.771 78.8735 130.316C78.4293 130.86 77.6556 130.975 77.1111 130.53L67.31 122.936C66.7655 122.492 66.6509 121.618 67.1954 121.059L75.5635 111.917C76.0077 111.373 76.7815 111.373 77.326 111.803H77.3403Z" stroke="white" stroke-width="3" stroke-linecap="round" stroke-linejoin="round"/>
<path d="M77.9004 13.3193C102.03 18.2772 120.415 39.0972 121.632 64.3162" stroke="white" stroke-width="4" stroke-linecap="round" stroke-linejoin="round"/>
<path d="M111.602 56.3917C112.046 55.8472 112.82 55.8472 113.364 56.2771L120.529 62.7824C121.073 63.2266 121.847 63.2266 122.406 62.6678L128.352 55.0734C128.796 54.5289 129.57 54.4143 130.115 54.8585C130.659 55.3027 130.774 56.0764 130.33 56.6209L122.735 66.422C122.291 66.9665 121.417 67.0811 120.858 66.5366L111.716 58.1685C111.172 57.7243 111.057 56.9505 111.602 56.406V56.3917Z" stroke="white" stroke-width="3" stroke-linecap="round" stroke-linejoin="round"/>
<path d="M13.1172 55.9479C18.075 31.8179 38.895 13.4338 64.1284 12.2158" stroke="white" stroke-width="4" stroke-linecap="round" stroke-linejoin="round"/>
<path d="M56.5216 22.4605C55.9771 22.0163 55.9771 21.2425 56.4069 20.698L62.9123 13.5335C63.3565 12.989 63.3565 12.2153 62.7977 11.6564L55.2033 5.70991C54.6588 5.26571 54.5442 4.49194 54.9884 3.94744C55.4326 3.40294 56.2063 3.28831 56.7508 3.73251L66.5519 11.3269C67.0964 11.7711 67.211 12.6451 66.6665 13.204L58.2984 22.3459C57.8542 22.8904 57.0804 22.8904 56.5359 22.4605H56.5216Z" stroke="white" stroke-width="3" stroke-linecap="round" stroke-linejoin="round"/>
</g>
<defs>
<clipPath id="clip0_263_165">
<rect width="133.26" height="131.827" fill="white" transform="translate(0.150391 0.996094)"/>
</clipPath>
</defs>
</svg>
