<svg width="130" height="132" viewBox="0 0 130 132" fill="none" xmlns="http://www.w3.org/2000/svg">
<path d="M20.3463 59.8005L16.751 56.1494" stroke="white" stroke-width="3" stroke-miterlimit="10"/>
<path d="M10.8351 67.6455H16.2319" stroke="white" stroke-width="3" stroke-miterlimit="10"/>
<path d="M30.6185 91.3916V85.9111" stroke="white" stroke-width="3" stroke-miterlimit="10"/>
<path d="M16.7484 82.7869L20.3438 79.1357" stroke="white" stroke-width="3" stroke-miterlimit="10"/>
<path d="M89.9711 100.523C89.9711 106.576 85.1386 111.481 79.18 111.481H50.4019C44.4407 111.481 39.6107 106.574 39.6107 100.523C39.6107 94.4717 44.4432 89.5643 50.4019 89.5643C50.4019 81.4945 56.8418 74.9521 64.7909 74.9521C72.74 74.9521 79.18 81.4945 79.18 89.5643C85.1412 89.5643 89.9711 94.4717 89.9711 100.523Z" stroke="white" stroke-width="3" stroke-miterlimit="10"/>
<path d="M68.8977 122.97L77.8899 113.838" stroke="white" stroke-width="3" stroke-miterlimit="10"/>
<path d="M56.3102 122.97L65.3024 113.838" stroke="white" stroke-width="3" stroke-miterlimit="10"/>
<path d="M43.7201 122.968L52.7123 113.836" stroke="white" stroke-width="3" stroke-miterlimit="10"/>
<path d="M79.1799 69.4719H111.553C115.527 69.4719 118.747 66.202 118.747 62.1671C118.747 58.1322 115.527 54.8623 111.553 54.8623" stroke="white" stroke-width="3" stroke-miterlimit="10"/>
<path d="M98.9659 87.7375H104.363C108.336 87.7375 111.556 84.4676 111.556 80.4327C111.556 76.3978 108.336 73.1279 104.363 73.1279H84.5793" stroke="white" stroke-width="3" stroke-miterlimit="10"/>
<path d="M75.582 69.4717H70.1852" stroke="white" stroke-width="3" stroke-miterlimit="10"/>
<path d="M45.0075 69.4718C44.9974 76.5284 39.3662 82.2469 32.4174 82.2571C25.4635 82.2571 19.8273 76.5335 19.8273 69.4718C19.8273 62.4101 25.4635 56.6865 32.4174 56.6865C39.3713 56.6865 45.0075 62.4101 45.0075 69.4718Z" stroke="white" stroke-width="3" stroke-miterlimit="10"/>
<path d="M53.9997 71.2988H48.6029" stroke="white" stroke-width="3" stroke-miterlimit="10"/>
<path d="M30.6185 53.0352V47.5547" stroke="white" stroke-width="3" stroke-miterlimit="10"/>
<path d="M45.5215 85.3708L41.9261 81.7197" stroke="white" stroke-width="3" stroke-miterlimit="10"/>
<path d="M89.3815 38.3649L40.2305 38.3623" stroke="white" stroke-width="3" stroke-miterlimit="10"/>
<path d="M77.8748 59.5444L51.6692 16.9873" stroke="white" stroke-width="3" stroke-miterlimit="10"/>
<path d="M51.6692 59.5444L77.8748 16.9873" stroke="white" stroke-width="3" stroke-miterlimit="10"/>
<path d="M70.1575 14.6592L72.9844 24.8859L83.3422 22.5755" stroke="white" stroke-width="3" stroke-miterlimit="10"/>
<path d="M59.3638 14.6592L56.5369 24.8859L46.1791 22.5755" stroke="white" stroke-width="3" stroke-miterlimit="10"/>
<path d="M70.1575 62.0031L72.9844 51.7764L83.3422 54.0868" stroke="white" stroke-width="3" stroke-miterlimit="10"/>
<path d="M87.9429 46.1426L80.7295 38.4514L87.9731 30.5889" stroke="white" stroke-width="3" stroke-miterlimit="10"/>
<path d="M59.3638 62.0031L56.5369 51.7764L46.1791 54.0868" stroke="white" stroke-width="3" stroke-miterlimit="10"/>
<path d="M41.707 46.0996L48.9204 38.4085L41.6768 30.5459" stroke="white" stroke-width="3" stroke-miterlimit="10"/>
</svg>
